<svg xmlns="http://www.w3.org/2000/svg" viewBox="0 0 1280 128.95"><defs><style>.cls-1{fill:#8a5fe8;}</style></defs><title>Ativo 1</title><g id="Camada_2" data-name="Camada 2"><g id="Camada_1-2" data-name="Camada 1"><path class="cls-1" d="M1280,41.93c0,27.07-.1,56.87,0,83.94,0,2.34,0,3.08,0,3.08H0V41.56l7.6-2.5C39,28.82,71,21.34,103.44,15.21,133,9.61,163.37,4.84,192.81,2.48c8.11-.66,16.24-1.2,24.35-1.37,17.51-.35,35-1.4,52.53-1h74.95c25.07,0,50.16.35,75.14,2.37,33.85,2.75,67.46,7.64,101,13.23,51.49,8.59,101.91,21.81,152.5,34.42A1202.18,1202.18,0,0,0,809.69,75.58c26.25,3.41,52.55,5.93,78.94,8a1106.58,1106.58,0,0,0,123.76,2.49c76.39-2.44,151.94-12,226-31.63,11.43-3,22.81-6.26,34-10Z"/></g></g></svg>