<svg id="Camada_1" data-name="Camada 1" xmlns="http://www.w3.org/2000/svg" xmlns:xlink="http://www.w3.org/1999/xlink" viewBox="0 0 1200 330"><defs><style>.cls-1,.cls-24{fill:#f8f0fb;}.cls-2{fill:#65008b;}.cls-3{font-size:43.46px;font-family:Arenq;}.cls-14,.cls-3,.cls-61{fill:#fff;}.cls-10,.cls-4{fill:#1b1b1b;}.cls-11,.cls-13,.cls-15,.cls-40,.cls-41,.cls-5{fill:none;}.cls-5{stroke:#1b1b1b;}.cls-10,.cls-11,.cls-12,.cls-13,.cls-14,.cls-15,.cls-24,.cls-40,.cls-41,.cls-42,.cls-5,.cls-6,.cls-61,.cls-7,.cls-9{stroke-miterlimit:10;}.cls-40,.cls-41,.cls-42,.cls-5{stroke-width:2.5px;}.cls-39,.cls-6{fill:#fff6ff;}.cls-10,.cls-11,.cls-12,.cls-13,.cls-14,.cls-24,.cls-6,.cls-9{stroke:#000;}.cls-31,.cls-7,.cls-9{fill:#946ce9;}.cls-15,.cls-61,.cls-7{stroke:#946ce9;}.cls-8{fill:url(#Gradiente_sem_nome_5);}.cls-10{stroke-width:1.5px;}.cls-12,.cls-17{fill:#333;}.cls-13{stroke-width:1.3px;}.cls-16{fill:#505050;}.cls-18{fill:#bfbfbf;}.cls-19{fill:#f2f2f2;}.cls-20{fill:url(#Gradiente_sem_nome_54);}.cls-21{fill:url(#Gradiente_sem_nome_54-2);}.cls-22{fill:url(#Gradiente_sem_nome_54-3);}.cls-23{fill:url(#Gradiente_sem_nome_54-4);}.cls-25{fill:url(#Gradiente_sem_nome_54-5);}.cls-26{fill:url(#Gradiente_sem_nome_54-6);}.cls-27{fill:url(#Gradiente_sem_nome_54-7);}.cls-28{fill:url(#Gradiente_sem_nome_54-8);}.cls-29{fill:#606060;}.cls-30{fill:#ccc;}.cls-32{fill:#464646;}.cls-33{font-size:16.12px;font-family:Montserrat-ExtraLightItalic, Montserrat;font-weight:200;font-style:italic;}.cls-34{letter-spacing:-0.01em;}.cls-35{letter-spacing:-0.01em;}.cls-36{letter-spacing:0.03em;}.cls-37{letter-spacing:-0.01em;}.cls-38{letter-spacing:0em;}.cls-40{stroke:#76dd63;}.cls-41{stroke:#ffdd63;}.cls-42{stroke:#ff2e63;}.cls-43{fill:#edebf2;}.cls-44{fill:url(#Gradiente_sem_nome_5-2);}.cls-45{letter-spacing:-0.01em;}.cls-46{fill:url(#Gradiente_sem_nome_54-9);}.cls-47{fill:url(#Gradiente_sem_nome_54-10);}.cls-48{fill:url(#Gradiente_sem_nome_54-11);}.cls-49{fill:url(#Gradiente_sem_nome_54-12);}.cls-50{fill:url(#Gradiente_sem_nome_5-3);}.cls-51{fill:#fec756;}.cls-52{fill:#e8b356;}.cls-53{fill:url(#Gradiente_sem_nome_5-4);}.cls-54{fill:url(#Gradiente_sem_nome_5-5);}.cls-55{fill:url(#Gradiente_sem_nome_5-106);}.cls-56{fill:url(#Gradiente_sem_nome_5-107);}.cls-57{fill:url(#Gradiente_sem_nome_5-108);}.cls-58{fill:url(#Gradiente_sem_nome_5-109);}.cls-59{fill:url(#Gradiente_sem_nome_5-110);}.cls-60{fill:url(#Gradiente_sem_nome_5-111);}.cls-62{letter-spacing:-0.03em;}.cls-63{letter-spacing:-0.01em;}</style><linearGradient id="Gradiente_sem_nome_5" x1="948.67" y1="155.91" x2="1048.12" y2="155.91" gradientUnits="userSpaceOnUse"><stop offset="0.1" stop-color="#686ce9"/><stop offset="0.35" stop-color="#946ce9"/><stop offset="0.65" stop-color="#b66dd5"/><stop offset="0.87" stop-color="#cb6ec9"/><stop offset="1" stop-color="#cb91c9"/></linearGradient><linearGradient id="Gradiente_sem_nome_54" x1="997.12" y1="158.79" x2="1003.73" y2="158.79" gradientTransform="translate(412.6 -666.15) rotate(45.51)" xlink:href="#Gradiente_sem_nome_5"/><linearGradient id="Gradiente_sem_nome_54-2" x1="993.14" y1="158.71" x2="999.75" y2="158.71" gradientTransform="translate(396.85 -652.81) rotate(44.49)" xlink:href="#Gradiente_sem_nome_5"/><linearGradient id="Gradiente_sem_nome_54-3" x1="997.18" y1="159.95" x2="1005.58" y2="159.95" gradientTransform="translate(150.26 -391.35) rotate(23.86)" xlink:href="#Gradiente_sem_nome_5"/><linearGradient id="Gradiente_sem_nome_54-4" x1="991.85" y1="159.95" x2="1000.25" y2="159.95" gradientTransform="translate(739.47 -815.69) rotate(66.14)" xlink:href="#Gradiente_sem_nome_5"/><linearGradient id="Gradiente_sem_nome_54-5" x1="1015.37" y1="185.29" x2="1018.29" y2="185.29" xlink:href="#Gradiente_sem_nome_5"/><linearGradient id="Gradiente_sem_nome_54-6" x1="1013.61" y1="185.25" x2="1016.54" y2="185.25" xlink:href="#Gradiente_sem_nome_5"/><linearGradient id="Gradiente_sem_nome_54-7" x1="1015.4" y1="185.8" x2="1019.11" y2="185.8" xlink:href="#Gradiente_sem_nome_5"/><linearGradient id="Gradiente_sem_nome_54-8" x1="1013.04" y1="185.8" x2="1016.76" y2="185.8" xlink:href="#Gradiente_sem_nome_5"/><linearGradient id="Gradiente_sem_nome_5-2" x1="849.24" y1="203.82" x2="819.32" y2="152" xlink:href="#Gradiente_sem_nome_5"/><linearGradient id="Gradiente_sem_nome_54-9" x1="687.27" y1="166.5" x2="690.97" y2="166.5" gradientTransform="translate(324.96 -441.77) rotate(45.51)" xlink:href="#Gradiente_sem_nome_5"/><linearGradient id="Gradiente_sem_nome_54-10" x1="685.05" y1="166.45" x2="688.74" y2="166.45" gradientTransform="translate(313.54 -433.66) rotate(44.49)" xlink:href="#Gradiente_sem_nome_5"/><linearGradient id="Gradiente_sem_nome_54-11" x1="687.31" y1="167.15" x2="692" y2="167.15" gradientTransform="translate(126.53 -264.65) rotate(23.86)" xlink:href="#Gradiente_sem_nome_5"/><linearGradient id="Gradiente_sem_nome_54-12" x1="684.33" y1="167.15" x2="689.02" y2="167.15" gradientTransform="translate(561.81 -528.46) rotate(66.14)" xlink:href="#Gradiente_sem_nome_5"/><linearGradient id="Gradiente_sem_nome_5-3" x1="692.46" y1="171.58" x2="694.29" y2="171.58" xlink:href="#Gradiente_sem_nome_5"/><linearGradient id="Gradiente_sem_nome_5-4" x1="420.89" y1="203.82" x2="390.97" y2="152" xlink:href="#Gradiente_sem_nome_5"/><linearGradient id="Gradiente_sem_nome_5-5" x1="286.27" y1="342.77" x2="76.86" y2="-19.93" xlink:href="#Gradiente_sem_nome_5"/><linearGradient id="Gradiente_sem_nome_5-106" x1="180.6" y1="132.69" x2="215.3" y2="94.15" xlink:href="#Gradiente_sem_nome_5"/><linearGradient id="Gradiente_sem_nome_5-107" x1="250.5" y1="129.02" x2="281.75" y2="94.32" xlink:href="#Gradiente_sem_nome_5"/><linearGradient id="Gradiente_sem_nome_5-108" x1="109.8" y1="133.11" x2="148.41" y2="90.23" xlink:href="#Gradiente_sem_nome_5"/><linearGradient id="Gradiente_sem_nome_5-109" x1="187.52" y1="145.02" x2="207.64" y2="122.66" xlink:href="#Gradiente_sem_nome_5"/><linearGradient id="Gradiente_sem_nome_5-110" x1="115.85" y1="143.73" x2="134.26" y2="123.29" xlink:href="#Gradiente_sem_nome_5"/><linearGradient id="Gradiente_sem_nome_5-111" x1="260.73" y1="143.73" x2="279.14" y2="123.29" xlink:href="#Gradiente_sem_nome_5"/></defs><title>Prancheta 1</title><g id="Etapa_3" data-name="Etapa 3"><path id="Fundo_3" data-name="Fundo 3" class="cls-1" d="M921,56.75h252.72a14.91,14.91,0,0,1,14.91,14.91V307.91a14.91,14.91,0,0,1-14.91,14.91H935.87A14.91,14.91,0,0,1,921,307.91V56.75A0,0,0,0,1,921,56.75Z"/><circle class="cls-2" cx="897.2" cy="35.09" r="29.27"/><text class="cls-3" transform="translate(887.45 52.37)">3</text><g id="Pc"><polygon id="Braço" class="cls-4" points="1082.02 284.79 1028.29 284.79 1030.5 251.72 1079.82 251.72 1082.02 284.79"/><line id="Base" class="cls-5" x1="1006.21" y1="286.59" x2="1103.34" y2="286.59"/><rect id="Tela" class="cls-4" x="930.77" y="69.59" width="248" height="181.59" rx="4.78"/><rect id="Demilitador_da_tela" data-name="Demilitador da tela" class="cls-6" x="937.68" y="76.58" width="234.36" height="167.6"/><circle class="cls-7" cx="1054.78" cy="247.51" r="1.42"/></g><polygon class="cls-8" points="1030.13 195 980.4 202.93 948.67 163.84 966.67 116.81 1016.39 108.88 1048.12 147.98 1030.13 195"/><g id="Produtos"><g id="Camisa"><path class="cls-9" d="M1021,189.66a3.78,3.78,0,0,0,3.58-3.95v5.11a3,3,0,0,1-3.08,3H976a3,3,0,0,1-3.08-3v-5.11a3.78,3.78,0,0,0,3.58,3.95h5.3"/><path class="cls-10" d="M1035.37,136.56l-5.14,6.41a2,2,0,0,1-2.81.33l-2.87-2.19v44.6a3.78,3.78,0,0,1-3.58,3.95s-28.83,0-23.06,0h-21.4a3.78,3.78,0,0,1-3.58-3.95V141l-3,2.29a2,2,0,0,1-2.8-.33L962,136.56a1.92,1.92,0,0,1,.34-2.74l12.36-9.45a2,2,0,0,1,1.46-.4h0a2.23,2.23,0,0,1,.37,0h8.63a12.34,12.34,0,0,0,.71,4.17,1.66,1.66,0,0,0,.06.16,13.43,13.43,0,0,0,25.11,0,1.42,1.42,0,0,0,.05-.16,12.35,12.35,0,0,0,.72-4.17h9.49a2,2,0,0,1,1.39.41l12.36,9.45A1.92,1.92,0,0,1,1035.37,136.56Z"/><path class="cls-9" d="M1035.46,136.26l-5.46,7a1.7,1.7,0,0,1-2.33.31l-.27-.21a1.49,1.49,0,0,1-.45-.52l7.48-9.27a1.63,1.63,0,0,1,.45.24l.26.2A1.58,1.58,0,0,1,1035.46,136.26Z"/><path class="cls-9" d="M961.78,136.26l5.46,7a1.7,1.7,0,0,0,2.33.31l.27-.21a1.52,1.52,0,0,0,.46-.52l-7.49-9.27a1.63,1.63,0,0,0-.45.24l-.26.2A1.59,1.59,0,0,0,961.78,136.26Z"/><path class="cls-11" d="M1024.67,151V141l2.87,2.19a2,2,0,0,0,2.81-.33l5.14-6.41a1.92,1.92,0,0,0-.34-2.74l-12.36-9.45a2,2,0,0,0-1.39-.41l-.31,0h-9.19a12.36,12.36,0,0,1-.71,4.18,1.42,1.42,0,0,1-.05.16,13.43,13.43,0,0,1-25.12,0c0-.06,0-.11,0-.16a12.36,12.36,0,0,1-.71-4.18h-8.63a2.22,2.22,0,0,0-.37,0h0a2,2,0,0,0-1.45.4l-12.36,9.45a1.92,1.92,0,0,0-.34,2.74l5.14,6.41a2,2,0,0,0,2.81.33l3-2.29v44.7a3.78,3.78,0,0,0,3.58,4h5.3"/><path class="cls-9" d="M1011.79,124a12.35,12.35,0,0,1-.72,4.17,1.42,1.42,0,0,1-.05.16,13.43,13.43,0,0,1-25.11,0,1.66,1.66,0,0,1-.06-.16,12.34,12.34,0,0,1-.71-4.17h2.4a1.09,1.09,0,0,0,0,.18,10,10,0,0,0,.81,4s0,.1.07.16a10.84,10.84,0,0,0,19.72,0c0-.06,0-.11.07-.16a10,10,0,0,0,.81-4,1.09,1.09,0,0,0,0-.18Z"/><path class="cls-12" d="M1009,124.39a9.3,9.3,0,0,1-.86,3.9,10.86,10.86,0,0,1-19.37,0,9.16,9.16,0,0,1-.87-3.9,1,1,0,0,1,0-.17H1009A1,1,0,0,1,1009,124.39Z"/><path class="cls-11" d="M1021.09,189.59a3.78,3.78,0,0,0,3.58-4v5.11a3,3,0,0,1-3.08,3H976.13a3,3,0,0,1-3.08-3v-5.11a3.78,3.78,0,0,0,3.58,4h5.3"/><path class="cls-11" d="M998,189.59c-5.77,0,23.06,0,23.06,0a3.78,3.78,0,0,0,3.58-4v-25.9"/><path class="cls-13" d="M1011.9,123.87a12.36,12.36,0,0,1-.71,4.18,1.42,1.42,0,0,1-.05.16,13.43,13.43,0,0,1-25.12,0c0-.06,0-.11,0-.16a12.36,12.36,0,0,1-.71-4.18Z"/><line class="cls-14" x1="962.81" y1="133.47" x2="970.27" y2="142.83"/><line class="cls-14" x1="1034.66" y1="133.47" x2="1027.21" y2="142.83"/><line class="cls-15" x1="976.93" y1="142.83" x2="984.15" y2="142.83"/><line class="cls-12" x1="985.14" y1="123.95" x2="1011.79" y2="123.95"/><g id="Logo"><rect class="cls-16" x="986.65" y="145.9" width="24.13" height="23.67" rx="2.81"/><g id="Logo-2" data-name="Logo"><ellipse class="cls-17" cx="998.71" cy="157.74" rx="9.16" ry="9.58"/><path class="cls-18" d="M998.39,162.23h0v-9.12l.06,0a5.26,5.26,0,0,1-.05,9.16Z"/><path class="cls-19" d="M998.38,153.11v9.12a5.27,5.27,0,0,1,0-9.12Z"/><ellipse class="cls-20" cx="1000.42" cy="158.79" rx="4.65" ry="2.04" transform="translate(186.05 761.17) rotate(-45.51)"/><ellipse class="cls-21" cx="996.44" cy="158.71" rx="2.04" ry="4.65" transform="translate(174.4 743.8) rotate(-44.49)"/><ellipse class="cls-22" cx="1001.38" cy="159.95" rx="4.58" ry="2.07" transform="translate(20.87 418.68) rotate(-23.86)"/><ellipse class="cls-23" cx="996.05" cy="159.95" rx="2.07" ry="4.58" transform="translate(446.9 1006.2) rotate(-66.14)"/></g></g></g><g id="Caneca"><path class="cls-24" d="M1029.27,179.84v6.31a.92.92,0,0,1-.93.91h-2.95v-8.13h2.95A.92.92,0,0,1,1029.27,179.84Z"/><path class="cls-24" d="M1024,174.63s.06-.08,0-.09a39.24,39.24,0,0,0-7.54-1,39.75,39.75,0,0,0-8,1,22.79,22.79,0,0,0,5.24,1.13h2.8C1018.17,175.68,1024,174.63,1024,174.63Z"/><path class="cls-24" d="M1025.39,175.94v16.82a1.36,1.36,0,0,1-1.38,1.34,29.77,29.77,0,0,1-7.51,1.08,31.38,31.38,0,0,1-8.06-1.08,1.35,1.35,0,0,1-1.37-1.34V175.94a1.35,1.35,0,0,1,1.37-1.34,36.29,36.29,0,0,0,7.51,1.08,56.16,56.16,0,0,0,8.06-1.08A1.36,1.36,0,0,1,1025.39,175.94Z"/><g id="Logo-3" data-name="Logo"><path class="cls-16" d="M1018.59,190a30.17,30.17,0,0,1-5,0,3.21,3.21,0,0,1-2.8-3.16V182a2.45,2.45,0,0,1,2.8-2.45,30.17,30.17,0,0,0,5,0,2.45,2.45,0,0,1,2.8,2.45v4.82A3.2,3.2,0,0,1,1018.59,190Z"/><g id="Logo-4" data-name="Logo"><path class="cls-17" d="M1020.12,184.59c0,2.33-1.8,4.5-4,4.49a4.38,4.38,0,0,1-4.05-4.49,4,4,0,0,1,8.09,0Z"/><path class="cls-18" d="M1015.93,186.84h0v-4h0a2.23,2.23,0,0,1,1.16,1.91A2.27,2.27,0,0,1,1015.93,186.84Z"/><path class="cls-19" d="M1015.93,182.82v4a2.32,2.32,0,0,1-1.16-2A2.25,2.25,0,0,1,1015.93,182.82Z"/><path class="cls-25" d="M1017.44,186a2.38,2.38,0,0,1-2.06.8,2.69,2.69,0,0,1,.85-2.1,2.77,2.77,0,0,1,2.06-.86A2.88,2.88,0,0,1,1017.44,186Z"/><path class="cls-26" d="M1014.47,185.91a2.4,2.4,0,0,0,2.06.82,2.94,2.94,0,0,0-2.91-3A2.89,2.89,0,0,0,1014.47,185.91Z"/><path class="cls-27" d="M1017.59,186.65a2.34,2.34,0,0,1-2.19,0,2.67,2.67,0,0,1,1.52-1.65,2.64,2.64,0,0,1,2.19-.09A2.89,2.89,0,0,1,1017.59,186.65Z"/><path class="cls-28" d="M1014.56,186.65a2.36,2.36,0,0,0,2.2,0,2.9,2.9,0,0,0-3.72-1.74A2.89,2.89,0,0,0,1014.56,186.65Z"/></g></g></g></g><g id="Botões"><g id="Textos"><rect class="cls-29" x="1052.17" y="125.02" width="34.07" height="3.23"/><rect class="cls-30" x="1052.17" y="133.74" width="92.81" height="3.13"/><rect class="cls-30" x="1052.17" y="142.35" width="92.81" height="3.13"/><rect class="cls-30" x="1052.17" y="150.97" width="92.81" height="3.13"/></g><rect class="cls-31" x="1114.8" y="160.37" width="29.9" height="9.27" rx="1.14"/><rect class="cls-29" x="1081.72" y="160.37" width="29.9" height="9.27" rx="1.14"/></g><path id="Ponteiro_do_Mouse" data-name="Ponteiro do Mouse" class="cls-32" d="M1126.48,167.31c.11.06.23,0,.35,0a2.34,2.34,0,0,1,2,1.83c.34,1.55.64,3.1,1,4.65,0,.18.07.21.23.12a2.05,2.05,0,0,1,2.42.4c.11.11.17.1.28,0a2.1,2.1,0,0,1,3.17.71c.08.15.14.15.27.08a2.22,2.22,0,0,1,3.22,1.63c.29,1.34.56,2.69.83,4a7.73,7.73,0,0,1-1.71,6.75,6.72,6.72,0,0,1-3.86,2.29,20.94,20.94,0,0,1-2.34.44,7,7,0,0,1-5.87-2.21c-1.49-1.52-2.94-3.1-4.4-4.66a2.12,2.12,0,0,1-.08-2.89,3.19,3.19,0,0,1,4.48-.38l.19.16,0-.28-2-9.69a2.34,2.34,0,0,1,1.29-2.86s0,0,0,0Zm.72,8.7,1.23,6.07a1.57,1.57,0,0,1,0,.3.72.72,0,0,1-.4.7.69.69,0,0,1-.81-.12c-.54-.48-1.08-1-1.63-1.46a1.82,1.82,0,0,0-2.64.1.48.48,0,0,0,0,.72c1.5,1.59,3,3.21,4.51,4.75a5.47,5.47,0,0,0,4.55,1.64,19.56,19.56,0,0,0,2.26-.43,5.16,5.16,0,0,0,2.49-1.27,6.09,6.09,0,0,0,2-5.34c0-.12,0-.23,0-.35-.29-1.4-.57-2.81-.86-4.21a.74.74,0,1,0-1.44.28c0,.23.09.45.14.68a.86.86,0,0,1,0,.39.71.71,0,0,1-.7.61.73.73,0,0,1-.72-.61c-.17-.76-.32-1.53-.48-2.29a.78.78,0,0,0-.82-.7.75.75,0,0,0-.62,1c.09.49.2,1,.3,1.47a.79.79,0,0,1-.3.86.75.75,0,0,1-1.15-.57c-.15-.72-.29-1.44-.44-2.15a1.14,1.14,0,0,0-.1-.36.75.75,0,0,0-.91-.35.77.77,0,0,0-.44.9c.09.52.21,1,.31,1.55a.76.76,0,0,1-.34.81.75.75,0,0,1-1.11-.6c-.57-2.75-1.13-5.51-1.69-8.26,0-.08,0-.16-.05-.25a.77.77,0,0,0-.62-.57.75.75,0,0,0-.79,1Q1126.56,173,1127.2,176Z"/><text class="cls-33" transform="translate(959.09 310.3)">E <tspan class="cls-34" x="15.06" y="0">t</tspan><tspan x="20.92" y="0">a pron</tspan><tspan class="cls-35" x="73.4" y="0">t</tspan><tspan x="79.26" y="0">o o so</tspan><tspan class="cls-36" x="125.59" y="0">r</tspan><tspan class="cls-37" x="131.73" y="0">v</tspan><tspan class="cls-38" x="139.08" y="0">etinho!</tspan></text><g id="Header"><rect class="cls-17" x="938.1" y="76.59" width="233.34" height="14.36"/><path class="cls-4" d="M938.13,90.22h233.31a0,0,0,0,1,0,0v1.71a0,0,0,0,1,0,0H938.65a.52.52,0,0,1-.52-.52V90.22A0,0,0,0,1,938.13,90.22Z"/><rect class="cls-39" x="946.62" y="81.76" width="70.38" height="5.2" rx="1.91"/><path class="cls-39" d="M1105.6,76.59h65.85a0,0,0,0,1,0,0V90.2a0,0,0,0,1,0,0H1108a2.39,2.39,0,0,1-2.39-2.39V76.59A0,0,0,0,1,1105.6,76.59Z"/><ellipse class="cls-40" cx="1151.17" cy="85.01" rx="0.54" ry="0.58"/><ellipse class="cls-41" cx="1157.15" cy="85.01" rx="0.54" ry="0.58"/><ellipse class="cls-42" cx="1163.13" cy="85.01" rx="0.54" ry="0.58"/></g><g id="Plus"><rect class="cls-43" x="1025.03" y="122.6" width="0.72" height="8.07"/><rect class="cls-43" x="1025.03" y="122.6" width="0.72" height="8.07" transform="translate(1152.03 -898.75) rotate(90)"/></g><g id="Plus-2" data-name="Plus"><rect class="cls-43" x="983.79" y="189.11" width="0.72" height="8.07"/><rect class="cls-43" x="983.79" y="189.11" width="0.72" height="8.07" transform="translate(1177.29 -791) rotate(90)"/></g><g id="Plus-3" data-name="Plus"><rect class="cls-43" x="965.12" y="145.9" width="0.72" height="8.07"/><rect class="cls-43" x="965.12" y="145.9" width="0.72" height="8.07" transform="translate(1115.42 -815.54) rotate(90)"/></g></g><polygon id="Seta" class="cls-44" points="874.82 174.31 853.48 201.37 852.71 201.37 852.71 185.36 798.17 185.36 789.88 174.83 789.88 173.78 796.8 165 852.71 165 852.71 147.25 853.48 147.25 874.82 174.31"/><g id="Etapa_2" data-name="Etapa 2"><circle class="cls-2" cx="470.35" cy="35.09" r="29.27"/><text class="cls-3" transform="translate(458.25 52.37)">2</text><path id="Fundo_2" data-name="Fundo 2" class="cls-1" d="M498,56.75H750.67a14.91,14.91,0,0,1,14.91,14.91V307.91a14.91,14.91,0,0,1-14.91,14.91H512.86A14.91,14.91,0,0,1,498,307.91V56.75A0,0,0,0,1,498,56.75Z"/><text class="cls-33" transform="translate(529.63 310.3)">Selecione a <tspan class="cls-45" x="96.46" y="0">f</tspan><tspan x="101.23" y="0">o</tspan><tspan class="cls-35" x="111.15" y="0">t</tspan><tspan x="117.02" y="0">o desejada</tspan></text><g id="Pc-2" data-name="Pc"><polygon id="Braõ" class="cls-4" points="658.66 284.79 604.93 284.79 607.13 251.72 656.45 251.72 658.66 284.79"/><line id="Base-2" data-name="Base" class="cls-5" x1="582.85" y1="286.59" x2="679.98" y2="286.59"/><rect id="Tela-2" data-name="Tela" class="cls-4" x="507.41" y="69.59" width="248" height="181.59" rx="4.78"/><rect id="Demilitador_da_tela-2" data-name="Demilitador da tela" class="cls-6" x="514.32" y="76.58" width="234.36" height="167.6"/><circle class="cls-7" cx="632.1" cy="247.89" r="1.42"/></g><g id="Arquivos"><g id="Coluna_2" data-name="Coluna 2"><g id="Arquivo"><g id="Icone_do_arquivo" data-name="Icone do arquivo"><path class="cls-32" d="M597.5,159.67v20a.76.76,0,0,1-.71.8H577.61a.75.75,0,0,1-.7-.8V154.55a.76.76,0,0,1,.7-.81H593v5.43a.47.47,0,0,0,.44.5Z"/><path class="cls-30" d="M597.46,159.67h-4.07a.46.46,0,0,1-.43-.5v-5.43H593Z"/><rect class="cls-30" x="582.28" y="159.47" width="9.85" height="1.38"/><rect class="cls-30" x="582.28" y="162.38" width="9.85" height="1.38"/><rect class="cls-30" x="582.28" y="165.3" width="9.85" height="1.38"/></g><rect class="cls-29" x="577.52" y="181.65" width="19.37" height="4.14" rx="1.12"/></g><g id="Imagem"><g id="Icone_da_Imagem" data-name="Icone da Imagem"><path class="cls-32" d="M647.74,160.16v20a.76.76,0,0,1-.7.81H627.85a.76.76,0,0,1-.7-.81V155a.76.76,0,0,1,.7-.8H643.2v5.43a.47.47,0,0,0,.43.5Z"/><path class="cls-30" d="M647.7,160.16h-4.06a.48.48,0,0,1-.44-.5v-5.43h.07Z"/><rect class="cls-30" x="632.55" y="174.76" width="9.85" height="1.38"/><g id="Img"><path class="cls-30" d="M637.4,170.5h-4.07a1.66,1.66,0,0,1-1.63-1.44,2.31,2.31,0,0,1,0-.37v-6.54a1.71,1.71,0,0,1,1.34-1.77,1.31,1.31,0,0,1,.34,0h8.1a1.69,1.69,0,0,1,1.68,1.81v6.53a1.69,1.69,0,0,1-1.68,1.81Zm5.22-2.72a.11.11,0,0,0,0-.1v-5.53a1.63,1.63,0,0,0,0-.31,1.14,1.14,0,0,0-1.1-1h-8.39a1.2,1.2,0,0,0-1,1.24v5.21a.07.07,0,0,0,0,.08.61.61,0,0,1,.07-.1l2.89-3.12c.17-.18.29-.18.47,0,.72.77,1.44,1.54,2.15,2.32.07.07.1.07.17,0l1.52-1.65c.18-.19.29-.19.47,0l1.92,2.07C642.12,167.23,642.37,167.5,642.62,167.78ZM639.37,170h2.06a1.42,1.42,0,0,0,.29,0,1.22,1.22,0,0,0,.93-1.25.32.32,0,0,0-.1-.26l-2.77-3c-.06-.07-.09-.07-.15,0l-1.5,1.6a.51.51,0,0,0-.09.16l-1,2.63c0,.1,0,.12.07.12Zm-5.68,0h.54a.24.24,0,0,0,.19-.08l3-2.84c.07-.06.07-.09,0-.16l-1.95-2.1c-.07-.08-.1-.08-.17,0l-2.78,3a1.5,1.5,0,0,0-.35.41,1.8,1.8,0,0,0,0,.57,1.19,1.19,0,0,0,.92,1.18A3.23,3.23,0,0,0,633.69,170Zm3.56-2h0l-2.14,2h1.33c.08,0,.11,0,.14-.11l.63-1.71A1.59,1.59,0,0,1,637.25,168Z"/><path class="cls-30" d="M637.7,164.86a1.17,1.17,0,1,1,1.1-1.16A1.13,1.13,0,0,1,637.7,164.86Zm.61-1.18a.63.63,0,0,0-.61-.64.65.65,0,1,0,.61.64Z"/></g></g><rect class="cls-29" x="627.76" y="182.13" width="19.37" height="4.14" rx="1.12"/></g><g id="Imagem-2" data-name="Imagem"><g id="Icone_da_Imagem-2" data-name="Icone da Imagem"><path class="cls-32" d="M698.53,160.29v20a.75.75,0,0,1-.7.8H678.64a.76.76,0,0,1-.7-.8v-25.1a.76.76,0,0,1,.7-.8H694v5.43a.46.46,0,0,0,.43.5Z"/><path class="cls-30" d="M698.49,160.29h-4.06a.47.47,0,0,1-.44-.5v-5.43h.07Z"/><rect class="cls-30" x="683.33" y="174.89" width="9.85" height="1.38"/><g id="Logo-5" data-name="Logo"><rect class="cls-16" x="681.43" y="159.3" width="13.47" height="13.22" rx="2.81"/><g id="Logo-6" data-name="Logo"><ellipse class="cls-17" cx="688.17" cy="165.91" rx="5.12" ry="5.35"/><path class="cls-18" d="M688,168.42h0v-5.09l0,0a3,3,0,0,1,0,5.12Z"/><path class="cls-19" d="M688,163.33v5.09a2.95,2.95,0,0,1,0-5.09Z"/><ellipse class="cls-46" cx="689.12" cy="166.5" rx="2.59" ry="1.14" transform="translate(87.41 541.41) rotate(-45.51)"/><ellipse class="cls-47" cx="686.9" cy="166.45" rx="1.14" ry="2.59" transform="translate(80.24 529.09) rotate(-44.49)"/><ellipse class="cls-48" cx="689.65" cy="167.15" rx="2.56" ry="1.16" transform="translate(-8.68 293.22) rotate(-23.86)"/><ellipse class="cls-49" cx="686.68" cy="167.15" rx="1.16" ry="2.56" transform="translate(256.08 727.55) rotate(-66.14)"/></g><ellipse class="cls-32" cx="693.37" cy="171.58" rx="2.39" ry="2.5"/><ellipse class="cls-17" cx="693.37" cy="171.58" rx="1.75" ry="1.83"/><polygon class="cls-50" points="694.29 171.58 693.59 171.25 693.59 172.79 693.37 173.16 693.16 172.79 693.16 171.25 692.46 171.58 693.37 170.01 694.29 171.58"/></g></g><rect class="cls-29" x="678.55" y="182.27" width="19.37" height="4.14" rx="1.12"/></g></g><g id="Coluna_1" data-name="Coluna 1"><g id="Pasta"><g id="Icone_de_pasta" data-name="Icone de pasta"><path class="cls-51" d="M602.55,136.82H572.81a1.68,1.68,0,0,1-1.61-1.74l-1-20.08a.88.88,0,0,1,.83-.94h33.05a.86.86,0,0,1,.83.93l-.74,20.09A1.68,1.68,0,0,1,602.55,136.82Z"/><rect class="cls-52" x="571.2" y="110.36" width="32.96" height="2.81" rx="0.56"/><rect class="cls-29" x="572.4" y="115.78" width="5.8" height="0.99"/><rect class="cls-52" x="571.2" y="108.8" width="7.65" height="2.81" rx="0.56"/></g><rect class="cls-29" x="575.87" y="138.15" width="23.35" height="4.14" rx="1.12"/></g><g id="Pasta-2" data-name="Pasta"><g id="Icone_de_pasta-2" data-name="Icone de pasta"><path class="cls-51" d="M652.82,136.82H623.08a1.68,1.68,0,0,1-1.61-1.74l-1-20.08a.86.86,0,0,1,.83-.94h33.05a.87.87,0,0,1,.83.93l-.74,20.09A1.68,1.68,0,0,1,652.82,136.82Z"/><rect class="cls-52" x="621.47" y="110.36" width="32.96" height="2.81" rx="0.56"/><rect class="cls-29" x="622.67" y="115.78" width="5.8" height="0.99"/><rect class="cls-52" x="621.47" y="108.8" width="7.65" height="2.81" rx="0.56"/></g><rect class="cls-29" x="626.14" y="138.15" width="23.35" height="4.14" rx="1.12"/></g><g id="Arquivo-2" data-name="Arquivo"><g id="Icone_do_arquivo-2" data-name="Icone do arquivo"><path class="cls-32" d="M698.51,116.2v20a.76.76,0,0,1-.7.81H678.63a.76.76,0,0,1-.7-.81V111.07a.75.75,0,0,1,.7-.8H694v5.43a.47.47,0,0,0,.43.5Z"/><path class="cls-30" d="M698.47,116.2h-4.06a.48.48,0,0,1-.44-.5v-5.43H694Z"/><rect class="cls-30" x="683.29" y="115.99" width="9.85" height="1.38"/><rect class="cls-30" x="683.29" y="118.91" width="9.85" height="1.38"/><rect class="cls-30" x="683.29" y="121.83" width="9.85" height="1.38"/></g><rect class="cls-29" x="678.54" y="138.18" width="19.37" height="4.14" rx="1.12"/></g></g></g><path id="Ponteiro_do_Mouse-2" data-name="Ponteiro do Mouse" class="cls-32" d="M695.9,178.28c.12.06.24,0,.35,0a2.31,2.31,0,0,1,2,1.82c.33,1.55.64,3.1.95,4.65,0,.19.08.21.24.13a2,2,0,0,1,2.41.39c.12.11.17.1.28,0a2.12,2.12,0,0,1,3.18.71c.08.15.13.16.27.08a2.22,2.22,0,0,1,3.22,1.63c.29,1.35.56,2.69.82,4a7.71,7.71,0,0,1-1.7,6.75,6.64,6.64,0,0,1-3.86,2.29,20.94,20.94,0,0,1-2.34.44,7,7,0,0,1-5.87-2.21c-1.5-1.52-2.94-3.09-4.4-4.65a2.12,2.12,0,0,1-.08-2.9,3.2,3.2,0,0,1,4.48-.37l.19.15,0-.28-2-9.68a2.33,2.33,0,0,1,1.29-2.86.06.06,0,0,0,0,0Zm.72,8.7c.42,2,.83,4.05,1.24,6.08a1.6,1.6,0,0,1,0,.29.75.75,0,0,1-.4.7.67.67,0,0,1-.81-.12l-1.63-1.45a1.81,1.81,0,0,0-2.64.1.48.48,0,0,0,0,.71c1.5,1.59,3,3.21,4.52,4.75a5.42,5.42,0,0,0,4.54,1.64,19.16,19.16,0,0,0,2.26-.43,5.08,5.08,0,0,0,2.49-1.27,6.07,6.07,0,0,0,2-5.34c0-.11,0-.23,0-.34-.29-1.41-.57-2.81-.86-4.22a.77.77,0,0,0-.88-.66.75.75,0,0,0-.56.94c0,.23.09.46.14.68a1,1,0,0,1,0,.39.73.73,0,0,1-.7.62.76.76,0,0,1-.73-.62c-.16-.76-.31-1.52-.47-2.28a.77.77,0,0,0-.82-.7.74.74,0,0,0-.62,1c.09.49.19,1,.29,1.47a.79.79,0,0,1-.29.87.75.75,0,0,1-1.15-.58c-.15-.71-.29-1.43-.44-2.15a1.1,1.1,0,0,0-.11-.35.73.73,0,0,0-.9-.36.79.79,0,0,0-.45.91c.1.51.22,1,.32,1.54a.78.78,0,0,1-.34.82c-.45.28-1,0-1.12-.61l-1.68-8.25c0-.09,0-.17-.05-.25a.8.8,0,0,0-.63-.58.75.75,0,0,0-.78,1C695.79,182.9,696.21,184.94,696.62,187Z"/><g id="Botões-2" data-name="Botões"><rect class="cls-32" x="700.28" y="226.38" width="29.9" height="9.27" rx="1.14"/><rect class="cls-29" x="667.2" y="226.38" width="29.9" height="9.27" rx="1.14"/></g><g id="SideBar"><path class="cls-32" d="M514.75,90.68h45.53a0,0,0,0,1,0,0v153a0,0,0,0,1,0,0H514.77a0,0,0,0,1,0,0v-153A0,0,0,0,1,514.75,90.68Z"/><g id="Abas"><rect class="cls-30" x="520.03" y="101.19" width="31.72" height="3.41" rx="1.12"/><rect class="cls-30" x="532.49" y="115.3" width="19.26" height="3.41" rx="1.12"/><rect class="cls-30" x="519.92" y="115.3" width="9.85" height="3.41" rx="1.12"/><rect class="cls-30" x="520.03" y="125.56" width="31.72" height="3.41" rx="1.12"/><rect class="cls-30" x="520.03" y="135.61" width="18.43" height="3.62" rx="1.12"/><rect class="cls-30" x="541.01" y="135.77" width="10.59" height="3.45" rx="1.12"/><rect class="cls-30" x="520.03" y="146.07" width="31.72" height="3.41" rx="1.12"/><rect class="cls-30" x="520.03" y="156.32" width="31.72" height="3.41" rx="1.12"/></g></g><g id="Header-2" data-name="Header"><rect class="cls-17" x="514.84" y="77.08" width="233.34" height="14.36"/><path class="cls-4" d="M514.86,90.7H748.18a0,0,0,0,1,0,0v1.71a0,0,0,0,1,0,0H515.38a.52.52,0,0,1-.52-.52V90.7A0,0,0,0,1,514.86,90.7Z"/><rect class="cls-39" x="523.35" y="82.25" width="70.38" height="5.2" rx="1.91"/><path class="cls-39" d="M682.33,77.08h65.85a0,0,0,0,1,0,0V90.69a0,0,0,0,1,0,0H684.72a2.39,2.39,0,0,1-2.39-2.39V77.08A0,0,0,0,1,682.33,77.08Z"/><ellipse class="cls-40" cx="727.9" cy="85.49" rx="0.54" ry="0.58"/><ellipse class="cls-41" cx="733.88" cy="85.49" rx="0.54" ry="0.58"/><ellipse class="cls-42" cx="739.86" cy="85.49" rx="0.54" ry="0.58"/></g></g><polygon id="Seta-2" data-name="Seta" class="cls-53" points="446.48 174.31 425.13 201.37 424.37 201.37 424.37 185.36 369.83 185.36 361.53 174.83 361.53 173.78 368.46 165 424.37 165 424.37 147.25 425.13 147.25 446.48 174.31"/><g id="Etapa_1" data-name="Etapa 1"><path id="Fundo_1" data-name="Fundo 1" class="cls-54" d="M64.13,56.75H316.85a14.91,14.91,0,0,1,14.9,14.91V307.91a14.9,14.9,0,0,1-14.9,14.9H79a14.9,14.9,0,0,1-14.9-14.9Z"/><circle class="cls-54" cx="40.11" cy="35.09" r="29.27"/><path class="cls-54" d="M33.68,28l8.26-8.25v.65l-8.26,8.25Zm8.26-2.74V52.37H41.5v-26L38,29.86V52.37h-.44V30.29L33.68,34.2v-.65Z"/><g id="Pc-3" data-name="Pc"><g id="Monitor"><polygon id="Braço-2" data-name="Braço" class="cls-54" points="224.93 284.79 171.2 284.79 173.41 251.72 222.73 251.72 224.93 284.79"/><rect id="Tela-3" data-name="Tela" class="cls-54" x="73.69" y="69.59" width="248" height="181.59" rx="4.78"/><rect id="Demilitador_da_tela-3" data-name="Demilitador da tela" class="cls-54" x="80.59" y="76.58" width="234.36" height="167.6"/><circle class="cls-54" cx="197.69" cy="247.51" r="1.42"/></g><g id="Tenda"><g id="Header-3" data-name="Header"><rect class="cls-54" x="81.09" y="77.07" width="233.34" height="14.36"/><path class="cls-54" d="M314.43,92.4H81.63a.51.51,0,0,1-.51-.51v-1.2H314.43Z"/><rect class="cls-54" x="89.61" y="82.24" width="70.38" height="5.2" rx="1.91"/><path class="cls-54" d="M248.58,77.07h65.85V90.68H251a2.39,2.39,0,0,1-2.39-2.39Z"/><ellipse class="cls-54" cx="294.16" cy="85.48" rx="0.54" ry="0.58"/><ellipse class="cls-54" cx="300.14" cy="85.48" rx="0.54" ry="0.58"/><ellipse class="cls-54" cx="306.12" cy="85.48" rx="0.54" ry="0.58"/></g><polygon class="cls-54" points="326.7 130.56 68.89 130.56 81.21 91.69 314.37 91.69 326.7 130.56"/><polygon class="cls-54" points="217.31 130.59 178.28 130.59 182.64 91.75 212.64 91.75 217.31 130.59"/><polygon class="cls-54" points="288.15 130.56 252.2 130.56 245 91.77 278.92 91.77 288.15 130.56"/><polygon class="cls-54" points="106.97 130.56 142.92 130.56 150.13 91.77 116.2 91.77 106.97 130.56"/><path class="cls-54" d="M326.61,131.36c-.52,7.93-8.93,14.24-19.22,14.24s-18.69-6.31-19.21-14.24Z"/><path class="cls-54" d="M178.29,131.36h39c-.22,8.25-8.88,14.88-19.51,14.88S178.51,139.61,178.29,131.36Z"/><path class="cls-54" d="M107.28,131.36h35.94c-.4,7.48-8.3,13.44-18,13.44S107.68,138.84,107.28,131.36Z"/><path class="cls-54" d="M252.16,131.36H288.1c-.4,7.48-8.29,13.44-18,13.44S252.56,138.84,252.16,131.36Z"/><path class="cls-54" d="M68.71,131.36h38.43c-.52,7.93-8.92,14.24-19.21,14.24S69.23,139.29,68.71,131.36Z"/><path class="cls-54" d="M217.33,131.36h34.81c-.4,7.23-8,13-17.4,13S217.73,138.59,217.33,131.36Z"/><path class="cls-54" d="M143.43,131.36h34.82c-.41,7.23-8,13-17.4,13S143.84,138.59,143.43,131.36Z"/></g><g id="Produtos-2" data-name="Produtos"><path class="cls-54" d="M163.88,215a3.77,3.77,0,0,0,3.58-3.94v5.1a3,3,0,0,1-3.08,3H118.92a3,3,0,0,1-3.08-3v-5.1a3.77,3.77,0,0,0,3.58,3.94h5.3"/><path class="cls-54" d="M178.28,161.89l-5.14,6.41a2,2,0,0,1-2.81.33l-2.87-2.19v44.61a3.77,3.77,0,0,1-3.58,3.94s-28.83,0-23.06,0h-21.4a3.77,3.77,0,0,1-3.58-3.94V166.34l-3,2.29a2,2,0,0,1-2.8-.33l-5.15-6.41a1.92,1.92,0,0,1,.34-2.74l12.36-9.45a2,2,0,0,1,1.46-.4h0a2.3,2.3,0,0,1,.37,0h8.63a12.34,12.34,0,0,0,.71,4.17,1,1,0,0,0,.06.16,13.43,13.43,0,0,0,25.11,0,1,1,0,0,0,0-.16,12.35,12.35,0,0,0,.72-4.17h9.49a2.07,2.07,0,0,1,1.39.41l12.36,9.45A1.92,1.92,0,0,1,178.28,161.89Z"/><path class="cls-54" d="M178.37,161.6l-5.46,7a1.7,1.7,0,0,1-2.33.31l-.27-.2a1.61,1.61,0,0,1-.45-.53l7.48-9.27a2,2,0,0,1,.45.24l.27.2A1.6,1.6,0,0,1,178.37,161.6Z"/><path class="cls-54" d="M104.69,161.6l5.46,7a1.7,1.7,0,0,0,2.33.31l.27-.2a1.65,1.65,0,0,0,.46-.53l-7.49-9.27a2,2,0,0,0-.45.24l-.26.2A1.6,1.6,0,0,0,104.69,161.6Z"/><path class="cls-54" d="M167.58,176.29v-9.92l2.87,2.19a2,2,0,0,0,2.81-.33l5.14-6.41a1.92,1.92,0,0,0-.34-2.74l-12.36-9.45a2,2,0,0,0-1.39-.41h-9.5a12.34,12.34,0,0,1-.71,4.17,1,1,0,0,1,0,.16,13.43,13.43,0,0,1-25.12,0s0-.11-.05-.16a12.34,12.34,0,0,1-.71-4.17h-8.63a2.23,2.23,0,0,0-.37,0h0a2,2,0,0,0-1.45.4l-12.36,9.45a1.92,1.92,0,0,0-.34,2.74l5.15,6.41a2,2,0,0,0,2.8.33l3-2.29V211a3.78,3.78,0,0,0,3.58,3.95h5.3"/><path class="cls-54" d="M154.7,149.28a12.35,12.35,0,0,1-.72,4.17,1,1,0,0,1,0,.16,13.43,13.43,0,0,1-25.11,0,1,1,0,0,1-.06-.16,12.34,12.34,0,0,1-.71-4.17h2.4a1.15,1.15,0,0,0,0,.19,10.18,10.18,0,0,0,.81,4l.07.16a10.84,10.84,0,0,0,19.72,0l.07-.16a10,10,0,0,0,.81-4,1.15,1.15,0,0,0,0-.19Z"/><path class="cls-54" d="M151.92,149.73a9.29,9.29,0,0,1-.86,3.89,10.86,10.86,0,0,1-19.37,0,9.14,9.14,0,0,1-.86-3.89v-.18h21.08A1.09,1.09,0,0,1,151.92,149.73Z"/><path class="cls-54" d="M164,214.92a3.78,3.78,0,0,0,3.58-3.95v5.11a3,3,0,0,1-3.08,3H119a3,3,0,0,1-3.08-3V211a3.78,3.78,0,0,0,3.58,3.95h5.3"/><path class="cls-54" d="M140.94,214.92c-5.77,0,23.06,0,23.06,0a3.78,3.78,0,0,0,3.58-3.95v-25.9"/><path class="cls-54" d="M154.81,149.21a12.34,12.34,0,0,1-.71,4.17,1,1,0,0,1,0,.16,13.43,13.43,0,0,1-25.12,0s0-.11-.05-.16a12.34,12.34,0,0,1-.71-4.17Z"/><line class="cls-54" x1="105.72" y1="158.8" x2="113.18" y2="168.17"/><line class="cls-54" x1="177.57" y1="158.8" x2="170.12" y2="168.17"/><path class="cls-54" d="M154.26,181.49V183a1.11,1.11,0,0,1-1.13,1.1h-9.72v9.49a1.12,1.12,0,0,1-1.13,1.1h-1.57a1.11,1.11,0,0,1-1.13-1.1v-9.49h-9.73a1.12,1.12,0,0,1-1.13-1.1v-1.53a1.12,1.12,0,0,1,1.13-1.11h9.73v-9.49a1.11,1.11,0,0,1,1.13-1.1h1.57a1.12,1.12,0,0,1,1.13,1.1v9.49h9.72A1.12,1.12,0,0,1,154.26,181.49Z"/><path class="cls-54" d="M172.18,205.17v6.31a.92.92,0,0,1-.93.91H168.3v-8.13h2.95A.92.92,0,0,1,172.18,205.17Z"/><path class="cls-54" d="M166.94,200a0,0,0,0,0,0-.09,39.43,39.43,0,0,0-7.54-1,39.93,39.93,0,0,0-8,1,22.24,22.24,0,0,0,5.24,1.13h2.8C161.08,201,166.94,200,166.94,200Z"/><path class="cls-54" d="M168.3,201.27v16.82a1.36,1.36,0,0,1-1.38,1.34,29.52,29.52,0,0,1-7.51,1.09,31.11,31.11,0,0,1-8.06-1.09,1.35,1.35,0,0,1-1.37-1.34V201.27a1.35,1.35,0,0,1,1.37-1.34,36.29,36.29,0,0,0,7.51,1.08,56.16,56.16,0,0,0,8.06-1.08A1.36,1.36,0,0,1,168.3,201.27Z"/><path class="cls-54" d="M165.14,209.82l.06.7a.54.54,0,0,1-.53.55c-1.61.12-3.23.18-4.85.2,0,1.45,0,2.9.05,4.35a.55.55,0,0,1-.59.51h-.83a.55.55,0,0,1-.59-.51l0-4.35c-1.62,0-3.24-.08-4.85-.2a.54.54,0,0,1-.53-.55l.06-.7a.53.53,0,0,1,.59-.46c1.58.11,3.16.18,4.75.2,0-1.45,0-2.9,0-4.35a.51.51,0,0,1,.52-.5h.73a.51.51,0,0,1,.52.5c0,1.45,0,2.9.05,4.35,1.58,0,3.17-.09,4.75-.2A.53.53,0,0,1,165.14,209.82Z"/><path class="cls-54" d="M165.14,209.82l.06.7a.54.54,0,0,1-.53.55c-1.61.12-3.23.18-4.85.2,0,1.45,0,2.9.05,4.35a.55.55,0,0,1-.59.51h-.83a.55.55,0,0,1-.59-.51l0-4.35c-1.62,0-3.24-.08-4.85-.2a.54.54,0,0,1-.53-.55l.06-.7a.53.53,0,0,1,.59-.46c1.58.11,3.16.18,4.75.2,0-1.45,0-2.9,0-4.35a.51.51,0,0,1,.52-.5h.73a.51.51,0,0,1,.52.5c0,1.45,0,2.9.05,4.35,1.58,0,3.17-.09,4.75-.2A.53.53,0,0,1,165.14,209.82Z"/></g><g id="Textos-2" data-name="Textos"><rect class="cls-54" x="195.08" y="150.36" width="34.07" height="3.23"/><rect class="cls-54" x="195.08" y="159.07" width="92.81" height="3.13"/><rect class="cls-54" x="195.08" y="167.68" width="92.81" height="3.13"/><rect class="cls-54" x="195.08" y="176.3" width="92.81" height="3.13"/></g><g id="Botões-3" data-name="Botões"><rect class="cls-54" x="257.71" y="185.94" width="29.9" height="9.27" rx="1.14"/><rect class="cls-54" x="224.63" y="185.94" width="29.9" height="9.27" rx="1.14"/></g><path id="Ponteiro_do_Mouse-3" data-name="Ponteiro do Mouse" class="cls-54" d="M234.74,193.31c.12.06.24,0,.35,0a2.31,2.31,0,0,1,2,1.82c.33,1.55.64,3.1.95,4.65,0,.19.08.21.24.13a2,2,0,0,1,2.41.39c.12.11.17.1.28,0a2.11,2.11,0,0,1,3.17.71c.09.15.14.16.28.08a2.22,2.22,0,0,1,3.22,1.63c.29,1.35.56,2.69.82,4a7.71,7.71,0,0,1-1.7,6.75,6.64,6.64,0,0,1-3.86,2.29,20.7,20.7,0,0,1-2.35.44,7,7,0,0,1-5.87-2.21c-1.49-1.52-2.93-3.09-4.39-4.65a2.12,2.12,0,0,1-.08-2.9,3.2,3.2,0,0,1,4.48-.37l.19.15-.06-.28c-.65-3.23-1.31-6.45-2-9.68a2.33,2.33,0,0,1,1.29-2.86v0Zm.72,8.7c.42,2,.83,4.05,1.24,6.08a1.6,1.6,0,0,1,.05.29.75.75,0,0,1-.4.7.67.67,0,0,1-.81-.12l-1.63-1.45a1.81,1.81,0,0,0-2.64.1.48.48,0,0,0,0,.71c1.5,1.59,3,3.21,4.52,4.75a5.41,5.41,0,0,0,4.54,1.64,19.16,19.16,0,0,0,2.26-.43,5.08,5.08,0,0,0,2.49-1.27,6.09,6.09,0,0,0,2-5.34,2,2,0,0,0-.05-.34c-.28-1.41-.56-2.81-.85-4.22a.77.77,0,0,0-.88-.66.74.74,0,0,0-.56.94c0,.23.09.46.14.68a1,1,0,0,1,0,.39.73.73,0,0,1-.7.62.76.76,0,0,1-.73-.62c-.16-.76-.31-1.52-.47-2.28a.77.77,0,0,0-.82-.7.75.75,0,0,0-.63,1l.3,1.47a.78.78,0,0,1-.3.87.75.75,0,0,1-1.14-.58c-.15-.71-.29-1.43-.44-2.15a1.1,1.1,0,0,0-.11-.35.73.73,0,0,0-.9-.36.79.79,0,0,0-.45.91c.1.51.22,1,.31,1.54a.76.76,0,0,1-.33.82c-.46.28-1,0-1.12-.61l-1.68-8.25c0-.09,0-.17-.05-.25a.81.81,0,0,0-.63-.58.75.75,0,0,0-.78,1C234.63,197.93,235.05,200,235.46,202Z"/></g><path class="cls-54" d="M133.07,299.69h-6.59l-.92,4.5h5.88l-.13.68h-5.88l-1,4.76h6.82l-.13.67h-7.48L125.93,299h7.27Z"/><path class="cls-54" d="M134.34,310a3.76,3.76,0,0,1-1.45-1.13l.39-.48a3.38,3.38,0,0,0,1.32,1,4.18,4.18,0,0,0,1.76.37,2.63,2.63,0,0,0,1.63-.47,1.46,1.46,0,0,0,.64-1.25,1.12,1.12,0,0,0-.26-.73,2.32,2.32,0,0,0-.64-.51c-.26-.14-.62-.31-1.07-.5s-.92-.43-1.21-.59a2.7,2.7,0,0,1-.77-.66,1.55,1.55,0,0,1-.32-1,2,2,0,0,1,.79-1.67,3.08,3.08,0,0,1,2-.62,4.66,4.66,0,0,1,1.57.25,4.45,4.45,0,0,1,1.25.7l-.37.51a4.08,4.08,0,0,0-1.13-.61,4.15,4.15,0,0,0-1.37-.23,2.51,2.51,0,0,0-1.5.43A1.38,1.38,0,0,0,135,304a1,1,0,0,0,.26.7,2.08,2.08,0,0,0,.63.5c.26.14.6.29,1,.48a10.06,10.06,0,0,1,1.24.57,2.92,2.92,0,0,1,.8.68,1.6,1.6,0,0,1,.33,1,2.15,2.15,0,0,1-.84,1.78,3.41,3.41,0,0,1-2.14.69A4.75,4.75,0,0,1,134.34,310Z"/><path class="cls-54" d="M142.91,309.83a3.31,3.31,0,0,1-1.31-1.34,4,4,0,0,1-.47-2,4.74,4.74,0,0,1,.6-2.37,4.38,4.38,0,0,1,1.65-1.66,4.59,4.59,0,0,1,2.29-.59,4.3,4.3,0,0,1,1.63.3,3.55,3.55,0,0,1,1.26.87l-.44.49a3.26,3.26,0,0,0-2.48-1,3.84,3.84,0,0,0-1.95.51,3.74,3.74,0,0,0-1.39,1.4,4,4,0,0,0-.51,2,3.49,3.49,0,0,0,.39,1.67,2.92,2.92,0,0,0,1.11,1.15,3.21,3.21,0,0,0,1.63.41,3.94,3.94,0,0,0,1.58-.31,3.6,3.6,0,0,0,1.27-.87l.37.44a4.25,4.25,0,0,1-1.47,1,4.62,4.62,0,0,1-1.82.36A3.76,3.76,0,0,1,142.91,309.83Z"/><path class="cls-54" d="M156.55,302.37a3.43,3.43,0,0,1,1.32,1.35,4,4,0,0,1,.47,2,4.73,4.73,0,0,1-.6,2.38,4.36,4.36,0,0,1-1.65,1.65,4.58,4.58,0,0,1-2.32.6,3.82,3.82,0,0,1-2-.49,3.32,3.32,0,0,1-1.33-1.35,4,4,0,0,1-.48-2,4.59,4.59,0,0,1,.61-2.36,4.41,4.41,0,0,1,1.66-1.66,4.67,4.67,0,0,1,2.31-.59A3.93,3.93,0,0,1,156.55,302.37Zm-4,.66a3.67,3.67,0,0,0-1.39,1.4,4.18,4.18,0,0,0-.5,2,3.54,3.54,0,0,0,.39,1.69,2.83,2.83,0,0,0,1.11,1.14,3.3,3.3,0,0,0,1.62.4,3.88,3.88,0,0,0,2-.51,3.69,3.69,0,0,0,1.4-1.4,4.16,4.16,0,0,0,.5-2,3.45,3.45,0,0,0-.39-1.66,3,3,0,0,0-1.11-1.14,3.25,3.25,0,0,0-1.64-.41A3.94,3.94,0,0,0,152.58,303Z"/><path class="cls-54" d="M163.12,298.34l-2.39,12h-.66l2.39-12Z"/><path class="cls-54" d="M172,302.53a2.35,2.35,0,0,1,.75,1.86,4.84,4.84,0,0,1-.1.87l-1,5H171l1-5a3.67,3.67,0,0,0,.08-.74,1.92,1.92,0,0,0-.6-1.51,2.46,2.46,0,0,0-1.7-.54,4,4,0,0,0-2.56.93,4.16,4.16,0,0,0-1.38,2.46L165,310.3h-.66l2.35-12h.66L166.21,304a4.15,4.15,0,0,1,1.55-1.56,4.49,4.49,0,0,1,2.14-.57A3.08,3.08,0,0,1,172,302.53Z"/><path class="cls-54" d="M176.45,309.88a3.3,3.3,0,0,1-1.31-1.31,4,4,0,0,1-.47-1.93,5,5,0,0,1,.61-2.42,4.57,4.57,0,0,1,1.65-1.73,4.37,4.37,0,0,1,2.29-.64,3.69,3.69,0,0,1,2.3.72,3.21,3.21,0,0,1,1.21,1.93l.52-2.6h.66l-1.68,8.4h-.66l.39-1.85a4.32,4.32,0,0,1-3.59,1.9A3.9,3.9,0,0,1,176.45,309.88Zm4-.71a4,4,0,0,0,1.41-1.48,4.12,4.12,0,0,0,.53-2.05A3.26,3.26,0,0,0,182,304a2.81,2.81,0,0,0-1.12-1.12,3.48,3.48,0,0,0-1.66-.39,3.64,3.64,0,0,0-2,.55,3.89,3.89,0,0,0-1.41,1.49,4.15,4.15,0,0,0-.53,2,3.31,3.31,0,0,0,.4,1.63,2.91,2.91,0,0,0,1.12,1.11,3.42,3.42,0,0,0,1.66.39A3.65,3.65,0,0,0,180.49,309.17Z"/><path class="cls-54" d="M190.73,310a3.69,3.69,0,0,1-1.45-1.13l.39-.48a3.38,3.38,0,0,0,1.32,1,4.16,4.16,0,0,0,1.75.37,2.64,2.64,0,0,0,1.64-.47,1.46,1.46,0,0,0,.64-1.25,1.12,1.12,0,0,0-.26-.73,2.23,2.23,0,0,0-.65-.51,11.23,11.23,0,0,0-1.06-.5c-.51-.23-.92-.43-1.22-.59a2.66,2.66,0,0,1-.76-.66,1.55,1.55,0,0,1-.32-1,2,2,0,0,1,.79-1.67,3.07,3.07,0,0,1,2-.62,4.72,4.72,0,0,1,1.58.25,4.6,4.6,0,0,1,1.25.7l-.38.51a3.88,3.88,0,0,0-1.12-.61,4.15,4.15,0,0,0-1.37-.23,2.47,2.47,0,0,0-1.5.43,1.38,1.38,0,0,0-.58,1.17,1,1,0,0,0,.25.7,2.26,2.26,0,0,0,.64.5c.25.14.6.29,1,.48a9.2,9.2,0,0,1,1.23.57,2.82,2.82,0,0,1,.81.68,1.6,1.6,0,0,1,.33,1,2.14,2.14,0,0,1-.85,1.78,3.36,3.36,0,0,1-2.13.69A4.75,4.75,0,0,1,190.73,310Z"/><path class="cls-54" d="M198.18,306.29v.21a3.18,3.18,0,0,0,.87,2.32,3.07,3.07,0,0,0,2.29.89,4.36,4.36,0,0,0,1.59-.29,3.58,3.58,0,0,0,1.29-.81l.36.47a4.62,4.62,0,0,1-1.49.92,5,5,0,0,1-1.8.33,4,4,0,0,1-2-.48A3.39,3.39,0,0,1,198,308.5a4.06,4.06,0,0,1-.47-2,4.71,4.71,0,0,1,.6-2.36,4.38,4.38,0,0,1,1.65-1.66,4.47,4.47,0,0,1,2.29-.6,3.73,3.73,0,0,1,1.89.46,3,3,0,0,1,1.23,1.29,4.06,4.06,0,0,1,.43,1.92,6.11,6.11,0,0,1-.05.73Zm1.38-2.9a3.87,3.87,0,0,0-1.32,2.3H205a3.15,3.15,0,0,0-.76-2.31,2.81,2.81,0,0,0-2.2-.86A3.74,3.74,0,0,0,199.56,303.39Z"/><path class="cls-54" d="M208.23,309.67a2.34,2.34,0,0,1-.75-1.85,3.81,3.81,0,0,1,.1-.87l1-5.05h.67l-1,5a4.57,4.57,0,0,0-.08.75,1.89,1.89,0,0,0,.61,1.5,2.46,2.46,0,0,0,1.7.54,4,4,0,0,0,2.55-.92,4.09,4.09,0,0,0,1.38-2.46l.85-4.39h.67l-1.66,8.4h-.67l.42-2.09a4.17,4.17,0,0,1-1.54,1.55,4.53,4.53,0,0,1-2.15.57A3.07,3.07,0,0,1,208.23,309.67Z"/><path class="cls-54" d="M229.82,302.32a3.33,3.33,0,0,1,1.31,1.32,3.9,3.9,0,0,1,.46,1.92A5,5,0,0,1,231,308a4.5,4.5,0,0,1-1.65,1.73,4.28,4.28,0,0,1-2.29.64,3.74,3.74,0,0,1-2.31-.71,3.25,3.25,0,0,1-1.21-1.92l-1.14,5.71h-.66L224,301.9h.66l-.38,1.86a4.26,4.26,0,0,1,3.59-1.91A3.9,3.9,0,0,1,229.82,302.32Zm-4,.71a4.11,4.11,0,0,0-1.42,1.48,4.25,4.25,0,0,0-.52,2.05,3.29,3.29,0,0,0,.4,1.64,2.81,2.81,0,0,0,1.13,1.11,3.48,3.48,0,0,0,1.66.4,3.67,3.67,0,0,0,1.94-.55,4.06,4.06,0,0,0,1.42-1.49,4.19,4.19,0,0,0,.53-2.06,3.26,3.26,0,0,0-.41-1.63,2.76,2.76,0,0,0-1.12-1.1,3.39,3.39,0,0,0-1.65-.4A3.74,3.74,0,0,0,225.78,303Z"/><path class="cls-54" d="M236.62,302.45a4,4,0,0,1,2-.56l-.07.69a3.56,3.56,0,0,0-2.38.85,4.65,4.65,0,0,0-1.44,2.33l-.9,4.54h-.66l1.67-8.4h.66l-.41,2.1A4.35,4.35,0,0,1,236.62,302.45Z"/><path class="cls-54" d="M245.35,302.37a3.3,3.3,0,0,1,1.32,1.35,4,4,0,0,1,.48,2,4.73,4.73,0,0,1-.6,2.38,4.45,4.45,0,0,1-1.66,1.65,4.58,4.58,0,0,1-2.32.6,3.82,3.82,0,0,1-1.95-.49,3.39,3.39,0,0,1-1.33-1.35,4,4,0,0,1-.47-2,4.59,4.59,0,0,1,.61-2.36,4.41,4.41,0,0,1,1.66-1.66,4.66,4.66,0,0,1,2.3-.59A3.87,3.87,0,0,1,245.35,302.37Zm-4,.66a3.6,3.6,0,0,0-1.39,1.4,4.08,4.08,0,0,0-.51,2,3.55,3.55,0,0,0,.4,1.69,2.81,2.81,0,0,0,1.1,1.14,3.36,3.36,0,0,0,1.63.4,3.88,3.88,0,0,0,2-.51,3.67,3.67,0,0,0,1.39-1.4,4.06,4.06,0,0,0,.51-2,3.34,3.34,0,0,0-.4-1.66,2.94,2.94,0,0,0-1.1-1.14,3.25,3.25,0,0,0-1.64-.41A3.91,3.91,0,0,0,241.39,303Z"/><path class="cls-54" d="M250.47,309.88a3.28,3.28,0,0,1-1.3-1.31,3.86,3.86,0,0,1-.47-1.93,5,5,0,0,1,.6-2.42,4.67,4.67,0,0,1,1.66-1.73,4.34,4.34,0,0,1,2.28-.64,3.67,3.67,0,0,1,2.3.72,3.23,3.23,0,0,1,1.22,1.93l1.22-6.16h.66l-2.38,12h-.66l.38-1.85a4.17,4.17,0,0,1-1.55,1.4,4.34,4.34,0,0,1-2,.5A3.9,3.9,0,0,1,250.47,309.88Zm4-.71a4,4,0,0,0,1.42-1.48,4.11,4.11,0,0,0,.52-2.05,3.26,3.26,0,0,0-.4-1.63,2.9,2.9,0,0,0-1.13-1.12,3.45,3.45,0,0,0-1.66-.39,3.58,3.58,0,0,0-1.94.55,3.91,3.91,0,0,0-1.42,1.49,4.14,4.14,0,0,0-.52,2,3.2,3.2,0,0,0,.4,1.63,2.85,2.85,0,0,0,1.12,1.11,3.41,3.41,0,0,0,1.65.39A3.65,3.65,0,0,0,254.51,309.17Z"/><path class="cls-54" d="M260.78,309.67a2.34,2.34,0,0,1-.75-1.85,3.81,3.81,0,0,1,.1-.87l1-5.05h.66l-1,5a4.57,4.57,0,0,0-.08.75,1.89,1.89,0,0,0,.61,1.5,2.46,2.46,0,0,0,1.7.54,4,4,0,0,0,2.55-.92,4.09,4.09,0,0,0,1.38-2.46l.86-4.39h.66l-1.66,8.4h-.66l.42-2.09a4.26,4.26,0,0,1-1.55,1.55,4.53,4.53,0,0,1-2.15.57A3.07,3.07,0,0,1,260.78,309.67Z"/><path class="cls-54" d="M271.6,307.93a4.44,4.44,0,0,0-.08.68c0,.7.33,1.05,1,1.05a3,3,0,0,0,1.6-.5l.18.56a3.29,3.29,0,0,1-1.86.6,1.54,1.54,0,0,1-1.14-.41,1.64,1.64,0,0,1-.41-1.19,4.91,4.91,0,0,1,.08-.77l1.05-5.26h-1.21l.12-.58h1.2l.42-2.08h.67l-.42,2.08h2.85l-.11.58h-2.86Z"/><path class="cls-54" d="M282.54,302.37a3.3,3.3,0,0,1,1.32,1.35,4,4,0,0,1,.48,2,4.73,4.73,0,0,1-.6,2.38,4.45,4.45,0,0,1-1.66,1.65,4.58,4.58,0,0,1-2.32.6,3.82,3.82,0,0,1-1.95-.49,3.39,3.39,0,0,1-1.33-1.35,4,4,0,0,1-.47-2,4.59,4.59,0,0,1,.61-2.36,4.41,4.41,0,0,1,1.66-1.66,4.66,4.66,0,0,1,2.3-.59A3.87,3.87,0,0,1,282.54,302.37Zm-4,.66a3.6,3.6,0,0,0-1.39,1.4,4.08,4.08,0,0,0-.51,2,3.43,3.43,0,0,0,.4,1.69,2.81,2.81,0,0,0,1.1,1.14,3.33,3.33,0,0,0,1.63.4,3.88,3.88,0,0,0,2-.51,3.67,3.67,0,0,0,1.39-1.4,4.06,4.06,0,0,0,.51-2,3.34,3.34,0,0,0-.4-1.66,2.94,2.94,0,0,0-1.1-1.14,3.25,3.25,0,0,0-1.64-.41A3.91,3.91,0,0,0,278.58,303Z"/><path class="cls-54" d="M133.07,299.69h-6.59l-.92,4.5h5.88l-.13.68h-5.88l-1,4.76h6.82l-.13.67h-7.48L125.93,299h7.27Z"/><path class="cls-54" d="M134.34,310a3.76,3.76,0,0,1-1.45-1.13l.39-.48a3.38,3.38,0,0,0,1.32,1,4.18,4.18,0,0,0,1.76.37,2.63,2.63,0,0,0,1.63-.47,1.46,1.46,0,0,0,.64-1.25,1.12,1.12,0,0,0-.26-.73,2.32,2.32,0,0,0-.64-.51c-.26-.14-.62-.31-1.07-.5s-.92-.43-1.21-.59a2.7,2.7,0,0,1-.77-.66,1.55,1.55,0,0,1-.32-1,2,2,0,0,1,.79-1.67,3.08,3.08,0,0,1,2-.62,4.66,4.66,0,0,1,1.57.25,4.45,4.45,0,0,1,1.25.7l-.37.51a4.08,4.08,0,0,0-1.13-.61,4.15,4.15,0,0,0-1.37-.23,2.51,2.51,0,0,0-1.5.43A1.38,1.38,0,0,0,135,304a1,1,0,0,0,.26.7,2.08,2.08,0,0,0,.63.5c.26.14.6.29,1,.48a10.06,10.06,0,0,1,1.24.57,2.92,2.92,0,0,1,.8.68,1.6,1.6,0,0,1,.33,1,2.15,2.15,0,0,1-.84,1.78,3.41,3.41,0,0,1-2.14.69A4.75,4.75,0,0,1,134.34,310Z"/><path class="cls-54" d="M142.91,309.83a3.31,3.31,0,0,1-1.31-1.34,4,4,0,0,1-.47-2,4.74,4.74,0,0,1,.6-2.37,4.38,4.38,0,0,1,1.65-1.66,4.59,4.59,0,0,1,2.29-.59,4.3,4.3,0,0,1,1.63.3,3.55,3.55,0,0,1,1.26.87l-.44.49a3.26,3.26,0,0,0-2.48-1,3.84,3.84,0,0,0-1.95.51,3.74,3.74,0,0,0-1.39,1.4,4,4,0,0,0-.51,2,3.49,3.49,0,0,0,.39,1.67,2.92,2.92,0,0,0,1.11,1.15,3.21,3.21,0,0,0,1.63.41,3.94,3.94,0,0,0,1.58-.31,3.6,3.6,0,0,0,1.27-.87l.37.44a4.25,4.25,0,0,1-1.47,1,4.62,4.62,0,0,1-1.82.36A3.76,3.76,0,0,1,142.91,309.83Z"/><path class="cls-54" d="M156.55,302.37a3.43,3.43,0,0,1,1.32,1.35,4,4,0,0,1,.47,2,4.73,4.73,0,0,1-.6,2.38,4.36,4.36,0,0,1-1.65,1.65,4.58,4.58,0,0,1-2.32.6,3.82,3.82,0,0,1-2-.49,3.32,3.32,0,0,1-1.33-1.35,4,4,0,0,1-.48-2,4.59,4.59,0,0,1,.61-2.36,4.41,4.41,0,0,1,1.66-1.66,4.67,4.67,0,0,1,2.31-.59A3.93,3.93,0,0,1,156.55,302.37Zm-4,.66a3.67,3.67,0,0,0-1.39,1.4,4.18,4.18,0,0,0-.5,2,3.54,3.54,0,0,0,.39,1.69,2.83,2.83,0,0,0,1.11,1.14,3.3,3.3,0,0,0,1.62.4,3.88,3.88,0,0,0,2-.51,3.69,3.69,0,0,0,1.4-1.4,4.16,4.16,0,0,0,.5-2,3.45,3.45,0,0,0-.39-1.66,3,3,0,0,0-1.11-1.14,3.25,3.25,0,0,0-1.64-.41A3.94,3.94,0,0,0,152.58,303Z"/><path class="cls-54" d="M163.12,298.34l-2.39,12h-.66l2.39-12Z"/><path class="cls-54" d="M172,302.53a2.35,2.35,0,0,1,.75,1.86,4.84,4.84,0,0,1-.1.87l-1,5H171l1-5a3.67,3.67,0,0,0,.08-.74,1.92,1.92,0,0,0-.6-1.51,2.46,2.46,0,0,0-1.7-.54,4,4,0,0,0-2.56.93,4.16,4.16,0,0,0-1.38,2.46L165,310.3h-.66l2.35-12h.66L166.21,304a4.15,4.15,0,0,1,1.55-1.56,4.49,4.49,0,0,1,2.14-.57A3.08,3.08,0,0,1,172,302.53Z"/><path class="cls-54" d="M176.45,309.88a3.3,3.3,0,0,1-1.31-1.31,4,4,0,0,1-.47-1.93,5,5,0,0,1,.61-2.42,4.57,4.57,0,0,1,1.65-1.73,4.37,4.37,0,0,1,2.29-.64,3.69,3.69,0,0,1,2.3.72,3.21,3.21,0,0,1,1.21,1.93l.52-2.6h.66l-1.68,8.4h-.66l.39-1.85a4.32,4.32,0,0,1-3.59,1.9A3.9,3.9,0,0,1,176.45,309.88Zm4-.71a4,4,0,0,0,1.41-1.48,4.12,4.12,0,0,0,.53-2.05A3.26,3.26,0,0,0,182,304a2.81,2.81,0,0,0-1.12-1.12,3.48,3.48,0,0,0-1.66-.39,3.64,3.64,0,0,0-2,.55,3.89,3.89,0,0,0-1.41,1.49,4.15,4.15,0,0,0-.53,2,3.31,3.31,0,0,0,.4,1.63,2.91,2.91,0,0,0,1.12,1.11,3.42,3.42,0,0,0,1.66.39A3.65,3.65,0,0,0,180.49,309.17Z"/><path class="cls-54" d="M190.73,310a3.69,3.69,0,0,1-1.45-1.13l.39-.48a3.38,3.38,0,0,0,1.32,1,4.16,4.16,0,0,0,1.75.37,2.64,2.64,0,0,0,1.64-.47,1.46,1.46,0,0,0,.64-1.25,1.12,1.12,0,0,0-.26-.73,2.23,2.23,0,0,0-.65-.51,11.23,11.23,0,0,0-1.06-.5c-.51-.23-.92-.43-1.22-.59a2.66,2.66,0,0,1-.76-.66,1.55,1.55,0,0,1-.32-1,2,2,0,0,1,.79-1.67,3.07,3.07,0,0,1,2-.62,4.72,4.72,0,0,1,1.58.25,4.6,4.6,0,0,1,1.25.7l-.38.51a3.88,3.88,0,0,0-1.12-.61,4.15,4.15,0,0,0-1.37-.23,2.47,2.47,0,0,0-1.5.43,1.38,1.38,0,0,0-.58,1.17,1,1,0,0,0,.25.7,2.26,2.26,0,0,0,.64.5c.25.14.6.29,1,.48a9.2,9.2,0,0,1,1.23.57,2.82,2.82,0,0,1,.81.68,1.6,1.6,0,0,1,.33,1,2.14,2.14,0,0,1-.85,1.78,3.36,3.36,0,0,1-2.13.69A4.75,4.75,0,0,1,190.73,310Z"/><path class="cls-54" d="M198.18,306.29v.21a3.18,3.18,0,0,0,.87,2.32,3.07,3.07,0,0,0,2.29.89,4.36,4.36,0,0,0,1.59-.29,3.58,3.58,0,0,0,1.29-.81l.36.47a4.62,4.62,0,0,1-1.49.92,5,5,0,0,1-1.8.33,4,4,0,0,1-2-.48A3.39,3.39,0,0,1,198,308.5a4.06,4.06,0,0,1-.47-2,4.71,4.71,0,0,1,.6-2.36,4.38,4.38,0,0,1,1.65-1.66,4.47,4.47,0,0,1,2.29-.6,3.73,3.73,0,0,1,1.89.46,3,3,0,0,1,1.23,1.29,4.06,4.06,0,0,1,.43,1.92,6.11,6.11,0,0,1-.05.73Zm1.38-2.9a3.87,3.87,0,0,0-1.32,2.3H205a3.15,3.15,0,0,0-.76-2.31,2.81,2.81,0,0,0-2.2-.86A3.74,3.74,0,0,0,199.56,303.39Z"/><path class="cls-54" d="M208.23,309.67a2.34,2.34,0,0,1-.75-1.85,3.81,3.81,0,0,1,.1-.87l1-5.05h.67l-1,5a4.57,4.57,0,0,0-.08.75,1.89,1.89,0,0,0,.61,1.5,2.46,2.46,0,0,0,1.7.54,4,4,0,0,0,2.55-.92,4.09,4.09,0,0,0,1.38-2.46l.85-4.39h.67l-1.66,8.4h-.67l.42-2.09a4.17,4.17,0,0,1-1.54,1.55,4.53,4.53,0,0,1-2.15.57A3.07,3.07,0,0,1,208.23,309.67Z"/><path class="cls-54" d="M229.82,302.32a3.33,3.33,0,0,1,1.31,1.32,3.9,3.9,0,0,1,.46,1.92A5,5,0,0,1,231,308a4.5,4.5,0,0,1-1.65,1.73,4.28,4.28,0,0,1-2.29.64,3.74,3.74,0,0,1-2.31-.71,3.25,3.25,0,0,1-1.21-1.92l-1.14,5.71h-.66L224,301.9h.66l-.38,1.86a4.26,4.26,0,0,1,3.59-1.91A3.9,3.9,0,0,1,229.82,302.32Zm-4,.71a4.11,4.11,0,0,0-1.42,1.48,4.25,4.25,0,0,0-.52,2.05,3.29,3.29,0,0,0,.4,1.64,2.81,2.81,0,0,0,1.13,1.11,3.48,3.48,0,0,0,1.66.4,3.67,3.67,0,0,0,1.94-.55,4.06,4.06,0,0,0,1.42-1.49,4.19,4.19,0,0,0,.53-2.06,3.26,3.26,0,0,0-.41-1.63,2.76,2.76,0,0,0-1.12-1.1,3.39,3.39,0,0,0-1.65-.4A3.74,3.74,0,0,0,225.78,303Z"/><path class="cls-54" d="M236.62,302.45a4,4,0,0,1,2-.56l-.07.69a3.56,3.56,0,0,0-2.38.85,4.65,4.65,0,0,0-1.44,2.33l-.9,4.54h-.66l1.67-8.4h.66l-.41,2.1A4.35,4.35,0,0,1,236.62,302.45Z"/><path class="cls-54" d="M245.35,302.37a3.3,3.3,0,0,1,1.32,1.35,4,4,0,0,1,.48,2,4.73,4.73,0,0,1-.6,2.38,4.45,4.45,0,0,1-1.66,1.65,4.58,4.58,0,0,1-2.32.6,3.82,3.82,0,0,1-1.95-.49,3.39,3.39,0,0,1-1.33-1.35,4,4,0,0,1-.47-2,4.59,4.59,0,0,1,.61-2.36,4.41,4.41,0,0,1,1.66-1.66,4.66,4.66,0,0,1,2.3-.59A3.87,3.87,0,0,1,245.35,302.37Zm-4,.66a3.6,3.6,0,0,0-1.39,1.4,4.08,4.08,0,0,0-.51,2,3.55,3.55,0,0,0,.4,1.69,2.81,2.81,0,0,0,1.1,1.14,3.36,3.36,0,0,0,1.63.4,3.88,3.88,0,0,0,2-.51,3.67,3.67,0,0,0,1.39-1.4,4.06,4.06,0,0,0,.51-2,3.34,3.34,0,0,0-.4-1.66,2.94,2.94,0,0,0-1.1-1.14,3.25,3.25,0,0,0-1.64-.41A3.91,3.91,0,0,0,241.39,303Z"/><path class="cls-54" d="M250.47,309.88a3.28,3.28,0,0,1-1.3-1.31,3.86,3.86,0,0,1-.47-1.93,5,5,0,0,1,.6-2.42,4.67,4.67,0,0,1,1.66-1.73,4.34,4.34,0,0,1,2.28-.64,3.67,3.67,0,0,1,2.3.72,3.23,3.23,0,0,1,1.22,1.93l1.22-6.16h.66l-2.38,12h-.66l.38-1.85a4.17,4.17,0,0,1-1.55,1.4,4.34,4.34,0,0,1-2,.5A3.9,3.9,0,0,1,250.47,309.88Zm4-.71a4,4,0,0,0,1.42-1.48,4.11,4.11,0,0,0,.52-2.05,3.26,3.26,0,0,0-.4-1.63,2.9,2.9,0,0,0-1.13-1.12,3.45,3.45,0,0,0-1.66-.39,3.58,3.58,0,0,0-1.94.55,3.91,3.91,0,0,0-1.42,1.49,4.14,4.14,0,0,0-.52,2,3.2,3.2,0,0,0,.4,1.63,2.85,2.85,0,0,0,1.12,1.11,3.41,3.41,0,0,0,1.65.39A3.65,3.65,0,0,0,254.51,309.17Z"/><path class="cls-54" d="M260.78,309.67a2.34,2.34,0,0,1-.75-1.85,3.81,3.81,0,0,1,.1-.87l1-5.05h.66l-1,5a4.57,4.57,0,0,0-.08.75,1.89,1.89,0,0,0,.61,1.5,2.46,2.46,0,0,0,1.7.54,4,4,0,0,0,2.55-.92,4.09,4.09,0,0,0,1.38-2.46l.86-4.39h.66l-1.66,8.4h-.66l.42-2.09a4.26,4.26,0,0,1-1.55,1.55,4.53,4.53,0,0,1-2.15.57A3.07,3.07,0,0,1,260.78,309.67Z"/><path class="cls-54" d="M271.6,307.93a4.44,4.44,0,0,0-.08.68c0,.7.33,1.05,1,1.05a3,3,0,0,0,1.6-.5l.18.56a3.29,3.29,0,0,1-1.86.6,1.54,1.54,0,0,1-1.14-.41,1.64,1.64,0,0,1-.41-1.19,4.91,4.91,0,0,1,.08-.77l1.05-5.26h-1.21l.12-.58h1.2l.42-2.08h.67l-.42,2.08h2.85l-.11.58h-2.86Z"/><path class="cls-54" d="M282.54,302.37a3.3,3.3,0,0,1,1.32,1.35,4,4,0,0,1,.48,2,4.73,4.73,0,0,1-.6,2.38,4.45,4.45,0,0,1-1.66,1.65,4.58,4.58,0,0,1-2.32.6,3.82,3.82,0,0,1-1.95-.49,3.39,3.39,0,0,1-1.33-1.35,4,4,0,0,1-.47-2,4.59,4.59,0,0,1,.61-2.36,4.41,4.41,0,0,1,1.66-1.66,4.66,4.66,0,0,1,2.3-.59A3.87,3.87,0,0,1,282.54,302.37Zm-4,.66a3.6,3.6,0,0,0-1.39,1.4,4.08,4.08,0,0,0-.51,2,3.43,3.43,0,0,0,.4,1.69,2.81,2.81,0,0,0,1.1,1.14,3.33,3.33,0,0,0,1.63.4,3.88,3.88,0,0,0,2-.51,3.67,3.67,0,0,0,1.39-1.4,4.06,4.06,0,0,0,.51-2,3.34,3.34,0,0,0-.4-1.66,2.94,2.94,0,0,0-1.1-1.14,3.25,3.25,0,0,0-1.64-.41A3.91,3.91,0,0,0,278.58,303Z"/><path class="cls-54" d="M133.07,299.69h-6.59l-.92,4.5h5.88l-.13.68h-5.88l-1,4.76h6.82l-.13.67h-7.48L125.93,299h7.27Z"/><path class="cls-54" d="M134.34,310a3.76,3.76,0,0,1-1.45-1.13l.39-.48a3.38,3.38,0,0,0,1.32,1,4.18,4.18,0,0,0,1.76.37,2.63,2.63,0,0,0,1.63-.47,1.46,1.46,0,0,0,.64-1.25,1.12,1.12,0,0,0-.26-.73,2.32,2.32,0,0,0-.64-.51c-.26-.14-.62-.31-1.07-.5s-.92-.43-1.21-.59a2.7,2.7,0,0,1-.77-.66,1.55,1.55,0,0,1-.32-1,2,2,0,0,1,.79-1.67,3.08,3.08,0,0,1,2-.62,4.66,4.66,0,0,1,1.57.25,4.45,4.45,0,0,1,1.25.7l-.37.51a4.08,4.08,0,0,0-1.13-.61,4.15,4.15,0,0,0-1.37-.23,2.51,2.51,0,0,0-1.5.43A1.38,1.38,0,0,0,135,304a1,1,0,0,0,.26.7,2.08,2.08,0,0,0,.63.5c.26.14.6.29,1,.48a10.06,10.06,0,0,1,1.24.57,2.92,2.92,0,0,1,.8.68,1.6,1.6,0,0,1,.33,1,2.15,2.15,0,0,1-.84,1.78,3.41,3.41,0,0,1-2.14.69A4.75,4.75,0,0,1,134.34,310Z"/><path class="cls-54" d="M142.91,309.83a3.31,3.31,0,0,1-1.31-1.34,4,4,0,0,1-.47-2,4.74,4.74,0,0,1,.6-2.37,4.38,4.38,0,0,1,1.65-1.66,4.59,4.59,0,0,1,2.29-.59,4.3,4.3,0,0,1,1.63.3,3.55,3.55,0,0,1,1.26.87l-.44.49a3.26,3.26,0,0,0-2.48-1,3.84,3.84,0,0,0-1.95.51,3.74,3.74,0,0,0-1.39,1.4,4,4,0,0,0-.51,2,3.49,3.49,0,0,0,.39,1.67,2.92,2.92,0,0,0,1.11,1.15,3.21,3.21,0,0,0,1.63.41,3.94,3.94,0,0,0,1.58-.31,3.6,3.6,0,0,0,1.27-.87l.37.44a4.25,4.25,0,0,1-1.47,1,4.62,4.62,0,0,1-1.82.36A3.76,3.76,0,0,1,142.91,309.83Z"/><path class="cls-54" d="M156.55,302.37a3.43,3.43,0,0,1,1.32,1.35,4,4,0,0,1,.47,2,4.73,4.73,0,0,1-.6,2.38,4.36,4.36,0,0,1-1.65,1.65,4.58,4.58,0,0,1-2.32.6,3.82,3.82,0,0,1-2-.49,3.32,3.32,0,0,1-1.33-1.35,4,4,0,0,1-.48-2,4.59,4.59,0,0,1,.61-2.36,4.41,4.41,0,0,1,1.66-1.66,4.67,4.67,0,0,1,2.31-.59A3.93,3.93,0,0,1,156.55,302.37Zm-4,.66a3.67,3.67,0,0,0-1.39,1.4,4.18,4.18,0,0,0-.5,2,3.54,3.54,0,0,0,.39,1.69,2.83,2.83,0,0,0,1.11,1.14,3.3,3.3,0,0,0,1.62.4,3.88,3.88,0,0,0,2-.51,3.69,3.69,0,0,0,1.4-1.4,4.16,4.16,0,0,0,.5-2,3.45,3.45,0,0,0-.39-1.66,3,3,0,0,0-1.11-1.14,3.25,3.25,0,0,0-1.64-.41A3.94,3.94,0,0,0,152.58,303Z"/><path class="cls-54" d="M163.12,298.34l-2.39,12h-.66l2.39-12Z"/><path class="cls-54" d="M172,302.53a2.35,2.35,0,0,1,.75,1.86,4.84,4.84,0,0,1-.1.87l-1,5H171l1-5a3.67,3.67,0,0,0,.08-.74,1.92,1.92,0,0,0-.6-1.51,2.46,2.46,0,0,0-1.7-.54,4,4,0,0,0-2.56.93,4.16,4.16,0,0,0-1.38,2.46L165,310.3h-.66l2.35-12h.66L166.21,304a4.15,4.15,0,0,1,1.55-1.56,4.49,4.49,0,0,1,2.14-.57A3.08,3.08,0,0,1,172,302.53Z"/><path class="cls-54" d="M176.45,309.88a3.3,3.3,0,0,1-1.31-1.31,4,4,0,0,1-.47-1.93,5,5,0,0,1,.61-2.42,4.57,4.57,0,0,1,1.65-1.73,4.37,4.37,0,0,1,2.29-.64,3.69,3.69,0,0,1,2.3.72,3.21,3.21,0,0,1,1.21,1.93l.52-2.6h.66l-1.68,8.4h-.66l.39-1.85a4.32,4.32,0,0,1-3.59,1.9A3.9,3.9,0,0,1,176.45,309.88Zm4-.71a4,4,0,0,0,1.41-1.48,4.12,4.12,0,0,0,.53-2.05A3.26,3.26,0,0,0,182,304a2.81,2.81,0,0,0-1.12-1.12,3.48,3.48,0,0,0-1.66-.39,3.64,3.64,0,0,0-2,.55,3.89,3.89,0,0,0-1.41,1.49,4.15,4.15,0,0,0-.53,2,3.31,3.31,0,0,0,.4,1.63,2.91,2.91,0,0,0,1.12,1.11,3.42,3.42,0,0,0,1.66.39A3.65,3.65,0,0,0,180.49,309.17Z"/><path class="cls-54" d="M190.73,310a3.69,3.69,0,0,1-1.45-1.13l.39-.48a3.38,3.38,0,0,0,1.32,1,4.16,4.16,0,0,0,1.75.37,2.64,2.64,0,0,0,1.64-.47,1.46,1.46,0,0,0,.64-1.25,1.12,1.12,0,0,0-.26-.73,2.23,2.23,0,0,0-.65-.51,11.23,11.23,0,0,0-1.06-.5c-.51-.23-.92-.43-1.22-.59a2.66,2.66,0,0,1-.76-.66,1.55,1.55,0,0,1-.32-1,2,2,0,0,1,.79-1.67,3.07,3.07,0,0,1,2-.62,4.72,4.72,0,0,1,1.58.25,4.6,4.6,0,0,1,1.25.7l-.38.51a3.88,3.88,0,0,0-1.12-.61,4.15,4.15,0,0,0-1.37-.23,2.47,2.47,0,0,0-1.5.43,1.38,1.38,0,0,0-.58,1.17,1,1,0,0,0,.25.7,2.26,2.26,0,0,0,.64.5c.25.14.6.29,1,.48a9.2,9.2,0,0,1,1.23.57,2.82,2.82,0,0,1,.81.68,1.6,1.6,0,0,1,.33,1,2.14,2.14,0,0,1-.85,1.78,3.36,3.36,0,0,1-2.13.69A4.75,4.75,0,0,1,190.73,310Z"/><path class="cls-54" d="M198.18,306.29v.21a3.18,3.18,0,0,0,.87,2.32,3.07,3.07,0,0,0,2.29.89,4.36,4.36,0,0,0,1.59-.29,3.58,3.58,0,0,0,1.29-.81l.36.47a4.62,4.62,0,0,1-1.49.92,5,5,0,0,1-1.8.33,4,4,0,0,1-2-.48A3.39,3.39,0,0,1,198,308.5a4.06,4.06,0,0,1-.47-2,4.71,4.71,0,0,1,.6-2.36,4.38,4.38,0,0,1,1.65-1.66,4.47,4.47,0,0,1,2.29-.6,3.73,3.73,0,0,1,1.89.46,3,3,0,0,1,1.23,1.29,4.06,4.06,0,0,1,.43,1.92,6.11,6.11,0,0,1-.05.73Zm1.38-2.9a3.87,3.87,0,0,0-1.32,2.3H205a3.15,3.15,0,0,0-.76-2.31,2.81,2.81,0,0,0-2.2-.86A3.74,3.74,0,0,0,199.56,303.39Z"/><path class="cls-54" d="M208.23,309.67a2.34,2.34,0,0,1-.75-1.85,3.81,3.81,0,0,1,.1-.87l1-5.05h.67l-1,5a4.57,4.57,0,0,0-.08.75,1.89,1.89,0,0,0,.61,1.5,2.46,2.46,0,0,0,1.7.54,4,4,0,0,0,2.55-.92,4.09,4.09,0,0,0,1.38-2.46l.85-4.39h.67l-1.66,8.4h-.67l.42-2.09a4.17,4.17,0,0,1-1.54,1.55,4.53,4.53,0,0,1-2.15.57A3.07,3.07,0,0,1,208.23,309.67Z"/><path class="cls-54" d="M229.82,302.32a3.33,3.33,0,0,1,1.31,1.32,3.9,3.9,0,0,1,.46,1.92A5,5,0,0,1,231,308a4.5,4.5,0,0,1-1.65,1.73,4.28,4.28,0,0,1-2.29.64,3.74,3.74,0,0,1-2.31-.71,3.25,3.25,0,0,1-1.21-1.92l-1.14,5.71h-.66L224,301.9h.66l-.38,1.86a4.26,4.26,0,0,1,3.59-1.91A3.9,3.9,0,0,1,229.82,302.32Zm-4,.71a4.11,4.11,0,0,0-1.42,1.48,4.25,4.25,0,0,0-.52,2.05,3.29,3.29,0,0,0,.4,1.64,2.81,2.81,0,0,0,1.13,1.11,3.48,3.48,0,0,0,1.66.4,3.67,3.67,0,0,0,1.94-.55,4.06,4.06,0,0,0,1.42-1.49,4.19,4.19,0,0,0,.53-2.06,3.26,3.26,0,0,0-.41-1.63,2.76,2.76,0,0,0-1.12-1.1,3.39,3.39,0,0,0-1.65-.4A3.74,3.74,0,0,0,225.78,303Z"/><path class="cls-54" d="M236.62,302.45a4,4,0,0,1,2-.56l-.07.69a3.56,3.56,0,0,0-2.38.85,4.65,4.65,0,0,0-1.44,2.33l-.9,4.54h-.66l1.67-8.4h.66l-.41,2.1A4.35,4.35,0,0,1,236.62,302.45Z"/><path class="cls-54" d="M245.35,302.37a3.3,3.3,0,0,1,1.32,1.35,4,4,0,0,1,.48,2,4.73,4.73,0,0,1-.6,2.38,4.45,4.45,0,0,1-1.66,1.65,4.58,4.58,0,0,1-2.32.6,3.82,3.82,0,0,1-1.95-.49,3.39,3.39,0,0,1-1.33-1.35,4,4,0,0,1-.47-2,4.59,4.59,0,0,1,.61-2.36,4.41,4.41,0,0,1,1.66-1.66,4.66,4.66,0,0,1,2.3-.59A3.87,3.87,0,0,1,245.35,302.37Zm-4,.66a3.6,3.6,0,0,0-1.39,1.4,4.08,4.08,0,0,0-.51,2,3.55,3.55,0,0,0,.4,1.69,2.81,2.81,0,0,0,1.1,1.14,3.36,3.36,0,0,0,1.63.4,3.88,3.88,0,0,0,2-.51,3.67,3.67,0,0,0,1.39-1.4,4.06,4.06,0,0,0,.51-2,3.34,3.34,0,0,0-.4-1.66,2.94,2.94,0,0,0-1.1-1.14,3.25,3.25,0,0,0-1.64-.41A3.91,3.91,0,0,0,241.39,303Z"/><path class="cls-54" d="M250.47,309.88a3.28,3.28,0,0,1-1.3-1.31,3.86,3.86,0,0,1-.47-1.93,5,5,0,0,1,.6-2.42,4.67,4.67,0,0,1,1.66-1.73,4.34,4.34,0,0,1,2.28-.64,3.67,3.67,0,0,1,2.3.72,3.23,3.23,0,0,1,1.22,1.93l1.22-6.16h.66l-2.38,12h-.66l.38-1.85a4.17,4.17,0,0,1-1.55,1.4,4.34,4.34,0,0,1-2,.5A3.9,3.9,0,0,1,250.47,309.88Zm4-.71a4,4,0,0,0,1.42-1.48,4.11,4.11,0,0,0,.52-2.05,3.26,3.26,0,0,0-.4-1.63,2.9,2.9,0,0,0-1.13-1.12,3.45,3.45,0,0,0-1.66-.39,3.58,3.58,0,0,0-1.94.55,3.91,3.91,0,0,0-1.42,1.49,4.14,4.14,0,0,0-.52,2,3.2,3.2,0,0,0,.4,1.63,2.85,2.85,0,0,0,1.12,1.11,3.41,3.41,0,0,0,1.65.39A3.65,3.65,0,0,0,254.51,309.17Z"/><path class="cls-54" d="M260.78,309.67a2.34,2.34,0,0,1-.75-1.85,3.81,3.81,0,0,1,.1-.87l1-5.05h.66l-1,5a4.57,4.57,0,0,0-.08.75,1.89,1.89,0,0,0,.61,1.5,2.46,2.46,0,0,0,1.7.54,4,4,0,0,0,2.55-.92,4.09,4.09,0,0,0,1.38-2.46l.86-4.39h.66l-1.66,8.4h-.66l.42-2.09a4.26,4.26,0,0,1-1.55,1.55,4.53,4.53,0,0,1-2.15.57A3.07,3.07,0,0,1,260.78,309.67Z"/><path class="cls-54" d="M271.6,307.93a4.44,4.44,0,0,0-.08.68c0,.7.33,1.05,1,1.05a3,3,0,0,0,1.6-.5l.18.56a3.29,3.29,0,0,1-1.86.6,1.54,1.54,0,0,1-1.14-.41,1.64,1.64,0,0,1-.41-1.19,4.91,4.91,0,0,1,.08-.77l1.05-5.26h-1.21l.12-.58h1.2l.42-2.08h.67l-.42,2.08h2.85l-.11.58h-2.86Z"/><path class="cls-54" d="M282.54,302.37a3.3,3.3,0,0,1,1.32,1.35,4,4,0,0,1,.48,2,4.73,4.73,0,0,1-.6,2.38,4.45,4.45,0,0,1-1.66,1.65,4.58,4.58,0,0,1-2.32.6,3.82,3.82,0,0,1-1.95-.49,3.39,3.39,0,0,1-1.33-1.35,4,4,0,0,1-.47-2,4.59,4.59,0,0,1,.61-2.36,4.41,4.41,0,0,1,1.66-1.66,4.66,4.66,0,0,1,2.3-.59A3.87,3.87,0,0,1,282.54,302.37Zm-4,.66a3.6,3.6,0,0,0-1.39,1.4,4.08,4.08,0,0,0-.51,2,3.43,3.43,0,0,0,.4,1.69,2.81,2.81,0,0,0,1.1,1.14,3.33,3.33,0,0,0,1.63.4,3.88,3.88,0,0,0,2-.51,3.67,3.67,0,0,0,1.39-1.4,4.06,4.06,0,0,0,.51-2,3.34,3.34,0,0,0-.4-1.66,2.94,2.94,0,0,0-1.1-1.14,3.25,3.25,0,0,0-1.64-.41A3.91,3.91,0,0,0,278.58,303Z"/><path id="Fundo_1-2" data-name="Fundo 1" class="cls-1" d="M64.13,56.75H316.85a14.91,14.91,0,0,1,14.9,14.91V307.91a14.9,14.9,0,0,1-14.9,14.9H79a14.9,14.9,0,0,1-14.9-14.9Z"/><circle class="cls-2" cx="40.11" cy="35.09" r="29.27"/><text class="cls-3" transform="translate(31.51 52.37)">1</text><g id="Pc-4" data-name="Pc"><g id="Monitor-2" data-name="Monitor"><line id="Base-3" data-name="Base" class="cls-5" x1="149.12" y1="286.59" x2="246.25" y2="286.59"/><polygon id="Braço-3" data-name="Braço" class="cls-4" points="224.93 284.79 171.2 284.79 173.41 251.72 222.73 251.72 224.93 284.79"/><rect id="Tela-4" data-name="Tela" class="cls-4" x="73.69" y="69.59" width="248" height="181.59" rx="4.78"/><rect id="Demilitador_da_tela-4" data-name="Demilitador da tela" class="cls-6" x="80.59" y="76.58" width="234.36" height="167.6"/><circle class="cls-7" cx="197.69" cy="247.51" r="1.42"/></g><g id="Tenda-2" data-name="Tenda"><g id="Header-4" data-name="Header"><rect class="cls-17" x="81.09" y="77.07" width="233.34" height="14.36"/><path class="cls-4" d="M314.43,92.4H81.63a.51.51,0,0,1-.51-.51v-1.2H314.43Z"/><rect class="cls-39" x="89.61" y="82.24" width="70.38" height="5.2" rx="1.91"/><path class="cls-39" d="M248.58,77.07h65.85V90.68H251a2.39,2.39,0,0,1-2.39-2.39Z"/><ellipse class="cls-40" cx="294.16" cy="85.48" rx="0.54" ry="0.58"/><ellipse class="cls-41" cx="300.14" cy="85.48" rx="0.54" ry="0.58"/><ellipse class="cls-42" cx="306.12" cy="85.48" rx="0.54" ry="0.58"/></g><polygon class="cls-4" points="326.7 130.56 68.89 130.56 81.21 91.69 314.37 91.69 326.7 130.56"/><polygon class="cls-55" points="217.31 130.59 178.28 130.59 182.64 91.75 212.64 91.75 217.31 130.59"/><polygon class="cls-56" points="288.15 130.56 252.2 130.56 245 91.77 278.92 91.77 288.15 130.56"/><polygon class="cls-57" points="106.97 130.56 142.92 130.56 150.13 91.77 116.2 91.77 106.97 130.56"/><path class="cls-4" d="M326.61,131.36c-.52,7.93-8.93,14.24-19.22,14.24s-18.69-6.31-19.21-14.24Z"/><path class="cls-58" d="M178.29,131.36h39c-.22,8.25-8.88,14.88-19.51,14.88S178.51,139.61,178.29,131.36Z"/><path class="cls-59" d="M107.28,131.36h35.94c-.4,7.48-8.3,13.44-18,13.44S107.68,138.84,107.28,131.36Z"/><path class="cls-60" d="M252.16,131.36H288.1c-.4,7.48-8.29,13.44-18,13.44S252.56,138.84,252.16,131.36Z"/><path class="cls-4" d="M68.71,131.36h38.43c-.52,7.93-8.92,14.24-19.21,14.24S69.23,139.29,68.71,131.36Z"/><path class="cls-4" d="M217.33,131.36h34.81c-.4,7.23-8,13-17.4,13S217.73,138.59,217.33,131.36Z"/><path class="cls-4" d="M143.43,131.36h34.82c-.41,7.23-8,13-17.4,13S143.84,138.59,143.43,131.36Z"/></g><g id="Produtos-3" data-name="Produtos"><path class="cls-9" d="M163.88,215a3.77,3.77,0,0,0,3.58-3.94v5.1a3,3,0,0,1-3.08,3H118.92a3,3,0,0,1-3.08-3v-5.1a3.77,3.77,0,0,0,3.58,3.94h5.3"/><path class="cls-10" d="M178.28,161.89l-5.14,6.41a2,2,0,0,1-2.81.33l-2.87-2.19v44.61a3.77,3.77,0,0,1-3.58,3.94s-28.83,0-23.06,0h-21.4a3.77,3.77,0,0,1-3.58-3.94V166.34l-3,2.29a2,2,0,0,1-2.8-.33l-5.15-6.41a1.92,1.92,0,0,1,.34-2.74l12.36-9.45a2,2,0,0,1,1.46-.4h0a2.3,2.3,0,0,1,.37,0h8.63a12.34,12.34,0,0,0,.71,4.17,1,1,0,0,0,.06.16,13.43,13.43,0,0,0,25.11,0,1,1,0,0,0,0-.16,12.35,12.35,0,0,0,.72-4.17h9.49a2.07,2.07,0,0,1,1.39.41l12.36,9.45A1.92,1.92,0,0,1,178.28,161.89Z"/><path class="cls-9" d="M178.37,161.6l-5.46,7a1.7,1.7,0,0,1-2.33.31l-.27-.2a1.61,1.61,0,0,1-.45-.53l7.48-9.27a2,2,0,0,1,.45.24l.27.2A1.6,1.6,0,0,1,178.37,161.6Z"/><path class="cls-9" d="M104.69,161.6l5.46,7a1.7,1.7,0,0,0,2.33.31l.27-.2a1.65,1.65,0,0,0,.46-.53l-7.49-9.27a2,2,0,0,0-.45.24l-.26.2A1.6,1.6,0,0,0,104.69,161.6Z"/><path class="cls-11" d="M167.58,176.29v-9.92l2.87,2.19a2,2,0,0,0,2.81-.33l5.14-6.41a1.92,1.92,0,0,0-.34-2.74l-12.36-9.45a2,2,0,0,0-1.39-.41h-9.5a12.34,12.34,0,0,1-.71,4.17,1,1,0,0,1,0,.16,13.43,13.43,0,0,1-25.12,0s0-.11-.05-.16a12.34,12.34,0,0,1-.71-4.17h-8.63a2.23,2.23,0,0,0-.37,0h0a2,2,0,0,0-1.45.4l-12.36,9.45a1.92,1.92,0,0,0-.34,2.74l5.15,6.41a2,2,0,0,0,2.8.33l3-2.29V211a3.78,3.78,0,0,0,3.58,3.95h5.3"/><path class="cls-9" d="M154.7,149.28a12.35,12.35,0,0,1-.72,4.17,1,1,0,0,1,0,.16,13.43,13.43,0,0,1-25.11,0,1,1,0,0,1-.06-.16,12.34,12.34,0,0,1-.71-4.17h2.4a1.15,1.15,0,0,0,0,.19,10.18,10.18,0,0,0,.81,4l.07.16a10.84,10.84,0,0,0,19.72,0l.07-.16a10,10,0,0,0,.81-4,1.15,1.15,0,0,0,0-.19Z"/><path class="cls-12" d="M151.92,149.73a9.29,9.29,0,0,1-.86,3.89,10.86,10.86,0,0,1-19.37,0,9.14,9.14,0,0,1-.86-3.89v-.18h21.08A1.09,1.09,0,0,1,151.92,149.73Z"/><path class="cls-11" d="M164,214.92a3.78,3.78,0,0,0,3.58-3.95v5.11a3,3,0,0,1-3.08,3H119a3,3,0,0,1-3.08-3V211a3.78,3.78,0,0,0,3.58,3.95h5.3"/><path class="cls-11" d="M140.94,214.92c-5.77,0,23.06,0,23.06,0a3.78,3.78,0,0,0,3.58-3.95v-25.9"/><path class="cls-13" d="M154.81,149.21a12.34,12.34,0,0,1-.71,4.17,1,1,0,0,1,0,.16,13.43,13.43,0,0,1-25.12,0s0-.11-.05-.16a12.34,12.34,0,0,1-.71-4.17Z"/><line class="cls-14" x1="105.72" y1="158.8" x2="113.18" y2="168.17"/><line class="cls-14" x1="177.57" y1="158.8" x2="170.12" y2="168.17"/><line class="cls-61" x1="119.84" y1="168.17" x2="127.06" y2="168.17"/><path class="cls-31" d="M154.26,181.49V183a1.11,1.11,0,0,1-1.13,1.1h-9.72v9.49a1.12,1.12,0,0,1-1.13,1.1h-1.57a1.11,1.11,0,0,1-1.13-1.1v-9.49h-9.73a1.12,1.12,0,0,1-1.13-1.1v-1.53a1.12,1.12,0,0,1,1.13-1.11h9.73v-9.49a1.11,1.11,0,0,1,1.13-1.1h1.57a1.12,1.12,0,0,1,1.13,1.1v9.49h9.72A1.12,1.12,0,0,1,154.26,181.49Z"/><line class="cls-12" x1="128.05" y1="149.28" x2="154.7" y2="149.28"/><path class="cls-24" d="M172.18,205.17v6.31a.92.92,0,0,1-.93.91H168.3v-8.13h2.95A.92.92,0,0,1,172.18,205.17Z"/><path class="cls-24" d="M166.94,200a0,0,0,0,0,0-.09,39.43,39.43,0,0,0-7.54-1,39.93,39.93,0,0,0-8,1,22.24,22.24,0,0,0,5.24,1.13h2.8C161.08,201,166.94,200,166.94,200Z"/><path class="cls-24" d="M168.3,201.27v16.82a1.36,1.36,0,0,1-1.38,1.34,29.52,29.52,0,0,1-7.51,1.09,31.11,31.11,0,0,1-8.06-1.09,1.35,1.35,0,0,1-1.37-1.34V201.27a1.35,1.35,0,0,1,1.37-1.34,36.29,36.29,0,0,0,7.51,1.08,56.16,56.16,0,0,0,8.06-1.08A1.36,1.36,0,0,1,168.3,201.27Z"/><path class="cls-31" d="M165.14,209.82l.06.7a.54.54,0,0,1-.53.55c-1.61.12-3.23.18-4.85.2,0,1.45,0,2.9.05,4.35a.55.55,0,0,1-.59.51h-.83a.55.55,0,0,1-.59-.51l0-4.35c-1.62,0-3.24-.08-4.85-.2a.54.54,0,0,1-.53-.55l.06-.7a.53.53,0,0,1,.59-.46c1.58.11,3.16.18,4.75.2,0-1.45,0-2.9,0-4.35a.51.51,0,0,1,.52-.5h.73a.51.51,0,0,1,.52.5c0,1.45,0,2.9.05,4.35,1.58,0,3.17-.09,4.75-.2A.53.53,0,0,1,165.14,209.82Z"/></g><g id="Textos-3" data-name="Textos"><rect class="cls-29" x="195.08" y="150.36" width="34.07" height="3.23"/><rect class="cls-30" x="195.08" y="159.07" width="92.81" height="3.13"/><rect class="cls-30" x="195.08" y="167.68" width="92.81" height="3.13"/><rect class="cls-30" x="195.08" y="176.3" width="92.81" height="3.13"/></g><g id="Botões-4" data-name="Botões"><rect class="cls-31" x="257.71" y="185.94" width="29.9" height="9.27" rx="1.14"/><rect class="cls-29" x="224.63" y="185.94" width="29.9" height="9.27" rx="1.14"/></g><path id="Ponteiro_do_Mouse-4" data-name="Ponteiro do Mouse" class="cls-32" d="M234.74,193.31c.12.06.24,0,.35,0a2.31,2.31,0,0,1,2,1.82c.33,1.55.64,3.1.95,4.65,0,.19.08.21.24.13a2,2,0,0,1,2.41.39c.12.11.17.1.28,0a2.11,2.11,0,0,1,3.17.71c.09.15.14.16.28.08a2.22,2.22,0,0,1,3.22,1.63c.29,1.35.56,2.69.82,4a7.71,7.71,0,0,1-1.7,6.75,6.64,6.64,0,0,1-3.86,2.29,20.7,20.7,0,0,1-2.35.44,7,7,0,0,1-5.87-2.21c-1.49-1.52-2.93-3.09-4.39-4.65a2.12,2.12,0,0,1-.08-2.9,3.2,3.2,0,0,1,4.48-.37l.19.15-.06-.28c-.65-3.23-1.31-6.45-2-9.68a2.33,2.33,0,0,1,1.29-2.86v0Zm.72,8.7c.42,2,.83,4.05,1.24,6.08a1.6,1.6,0,0,1,.05.29.75.75,0,0,1-.4.7.67.67,0,0,1-.81-.12l-1.63-1.45a1.81,1.81,0,0,0-2.64.1.48.48,0,0,0,0,.71c1.5,1.59,3,3.21,4.52,4.75a5.41,5.41,0,0,0,4.54,1.64,19.16,19.16,0,0,0,2.26-.43,5.08,5.08,0,0,0,2.49-1.27,6.09,6.09,0,0,0,2-5.34,2,2,0,0,0-.05-.34c-.28-1.41-.56-2.81-.85-4.22a.77.77,0,0,0-.88-.66.74.74,0,0,0-.56.94c0,.23.09.46.14.68a1,1,0,0,1,0,.39.73.73,0,0,1-.7.62.76.76,0,0,1-.73-.62c-.16-.76-.31-1.52-.47-2.28a.77.77,0,0,0-.82-.7.75.75,0,0,0-.63,1l.3,1.47a.78.78,0,0,1-.3.87.75.75,0,0,1-1.14-.58c-.15-.71-.29-1.43-.44-2.15a1.1,1.1,0,0,0-.11-.35.73.73,0,0,0-.9-.36.79.79,0,0,0-.45.91c.1.51.22,1,.31,1.54a.76.76,0,0,1-.33.82c-.46.28-1,0-1.12-.61l-1.68-8.25c0-.09,0-.17-.05-.25a.81.81,0,0,0-.63-.58.75.75,0,0,0-.78,1C234.63,197.93,235.05,200,235.46,202Z"/></g><text class="cls-33" transform="translate(122.57 310.3)">Es<tspan class="cls-62" x="17.76" y="0">c</tspan><tspan x="26.65" y="0">olha seu produ</tspan><tspan class="cls-63" x="146.77" y="0">t</tspan><tspan x="152.64" y="0">o</tspan></text></g></svg>