<?xml version="1.0" encoding="utf-8"?>
<!-- Generator: Adobe Illustrator 24.0.1, SVG Export Plug-In . SVG Version: 6.00 Build 0)  -->
<svg version="1.0" id="Fase_1_1_" xmlns="http://www.w3.org/2000/svg" xmlns:xlink="http://www.w3.org/1999/xlink" x="0px" y="0px"
	 viewBox="0 0 320.9 317" enable-background="new 0 0 320.9 317" xml:space="preserve">
<g id="Fase_1">
	<g>
		<linearGradient id="Fundo_3_" gradientUnits="userSpaceOnUse" x1="275.1386" y1="336.6441" x2="65.7327" y2="-26.0576">
			<stop  offset="0.1043" style="stop-color:#686CE9"/>
			<stop  offset="0.3476" style="stop-color:#946CE9"/>
			<stop  offset="0.6498" style="stop-color:#B66DD5"/>
			<stop  offset="0.8717" style="stop-color:#CB6EC9"/>
			<stop  offset="1" style="stop-color:#CB91C9"/>
		</linearGradient>
		<path id="Fundo_23_" fill="url(#Fundo_3_)" d="M53,50.6h252.7c8.2,0,14.9,6.7,14.9,14.9v236.2c0,8.2-6.7,14.9-14.9,14.9H67.9
			c-8.2,0-14.9-6.7-14.9-14.9V50.6z"/>
		<linearGradient id="Etapa_1_" gradientUnits="userSpaceOnUse" x1="275.1386" y1="336.6441" x2="65.7327" y2="-26.0576">
			<stop  offset="0.1043" style="stop-color:#686CE9"/>
			<stop  offset="0.3476" style="stop-color:#946CE9"/>
			<stop  offset="0.6498" style="stop-color:#B66DD5"/>
			<stop  offset="0.8717" style="stop-color:#CB6EC9"/>
			<stop  offset="1" style="stop-color:#CB91C9"/>
		</linearGradient>
		<circle id="Etapa_7_" fill="url(#Etapa_1_)" cx="29" cy="29" r="29.3"/>
		<g>
			<linearGradient id="SVGID_1_" gradientUnits="userSpaceOnUse" x1="275.1386" y1="336.6441" x2="65.7327" y2="-26.0576">
				<stop  offset="0.1043" style="stop-color:#686CE9"/>
				<stop  offset="0.3476" style="stop-color:#946CE9"/>
				<stop  offset="0.6498" style="stop-color:#B66DD5"/>
				<stop  offset="0.8717" style="stop-color:#CB6EC9"/>
				<stop  offset="1" style="stop-color:#CB91C9"/>
			</linearGradient>
			<path fill="url(#SVGID_1_)" d="M22.6,21.9l8.3-8.3v0.7l-8.3,8.3V21.9z M30.8,19.2v27.1h-0.4v-26l-3.5,3.5v22.5h-0.4V24.2
				l-3.9,3.9v-0.7L30.8,19.2z"/>
		</g>
		<g id="Computador_7_">
			<g id="Monitor_7_">
				<g id="Estrutura_23_">
					<linearGradient id="Base_1_" gradientUnits="userSpaceOnUse" x1="275.1386" y1="336.6441" x2="65.7327" y2="-26.0576">
						<stop  offset="0.1043" style="stop-color:#686CE9"/>
						<stop  offset="0.3476" style="stop-color:#946CE9"/>
						<stop  offset="0.6498" style="stop-color:#B66DD5"/>
						<stop  offset="0.8717" style="stop-color:#CB6EC9"/>
						<stop  offset="1" style="stop-color:#CB91C9"/>
					</linearGradient>
					<line id="Base_7_" fill="url(#Base_1_)" x1="138" y1="280.5" x2="235.1" y2="280.5"/>
					<linearGradient id="Braço_2_" gradientUnits="userSpaceOnUse" x1="275.1386" y1="336.6441" x2="65.7327" y2="-26.0576">
						<stop  offset="0.1043" style="stop-color:#686CE9"/>
						<stop  offset="0.3476" style="stop-color:#946CE9"/>
						<stop  offset="0.6498" style="stop-color:#B66DD5"/>
						<stop  offset="0.8717" style="stop-color:#CB6EC9"/>
						<stop  offset="1" style="stop-color:#CB91C9"/>
					</linearGradient>
					<polygon id="Braço_8_" fill="url(#Braço_2_)" points="213.8,278.7 160.1,278.7 162.3,245.6 211.6,245.6 					"/>
					<linearGradient id="Tela_1_" gradientUnits="userSpaceOnUse" x1="275.1386" y1="336.6441" x2="65.7327" y2="-26.0576">
						<stop  offset="0.1043" style="stop-color:#686CE9"/>
						<stop  offset="0.3476" style="stop-color:#946CE9"/>
						<stop  offset="0.6498" style="stop-color:#B66DD5"/>
						<stop  offset="0.8717" style="stop-color:#CB6EC9"/>
						<stop  offset="1" style="stop-color:#CB91C9"/>
					</linearGradient>
					<path id="Tela_8_" fill="url(#Tela_1_)" d="M305.8,245H67.3c-2.6,0-4.8-2.1-4.8-4.8v-172c0-2.6,2.1-4.8,4.8-4.8h238.4
						c2.6,0,4.8,2.1,4.8,4.8v172C310.6,242.9,308.4,245,305.8,245z"/>
				</g>
				<linearGradient id="Background_1_" gradientUnits="userSpaceOnUse" x1="275.1386" y1="336.6441" x2="65.7327" y2="-26.0576">
					<stop  offset="0.1043" style="stop-color:#686CE9"/>
					<stop  offset="0.3476" style="stop-color:#946CE9"/>
					<stop  offset="0.6498" style="stop-color:#B66DD5"/>
					<stop  offset="0.8717" style="stop-color:#CB6EC9"/>
					<stop  offset="1" style="stop-color:#CB91C9"/>
				</linearGradient>
				<rect id="Background_7_" x="69.5" y="70.4" fill="url(#Background_1_)" width="234.4" height="167.6"/>
				<linearGradient id="On_x2F_Off_1_" gradientUnits="userSpaceOnUse" x1="275.1386" y1="336.6441" x2="65.7327" y2="-26.0576">
					<stop  offset="0.1043" style="stop-color:#686CE9"/>
					<stop  offset="0.3476" style="stop-color:#946CE9"/>
					<stop  offset="0.6498" style="stop-color:#B66DD5"/>
					<stop  offset="0.8717" style="stop-color:#CB6EC9"/>
					<stop  offset="1" style="stop-color:#CB91C9"/>
				</linearGradient>
				<circle id="On_x2F_Off_7_" fill="url(#On_x2F_Off_1_)" cx="186.6" cy="241.4" r="1.4"/>
			</g>
			<g id="Tenda_7_">
				<g id="Header_8_">
					<linearGradient id="SVGID_2_" gradientUnits="userSpaceOnUse" x1="275.1386" y1="336.6441" x2="65.7327" y2="-26.0576">
						<stop  offset="0.1043" style="stop-color:#686CE9"/>
						<stop  offset="0.3476" style="stop-color:#946CE9"/>
						<stop  offset="0.6498" style="stop-color:#B66DD5"/>
						<stop  offset="0.8717" style="stop-color:#CB6EC9"/>
						<stop  offset="1" style="stop-color:#CB91C9"/>
					</linearGradient>
					<rect x="70" y="70.9" fill="url(#SVGID_2_)" width="233.3" height="14.4"/>
					<linearGradient id="SVGID_3_" gradientUnits="userSpaceOnUse" x1="275.1386" y1="336.6441" x2="65.7327" y2="-26.0576">
						<stop  offset="0.1043" style="stop-color:#686CE9"/>
						<stop  offset="0.3476" style="stop-color:#946CE9"/>
						<stop  offset="0.6498" style="stop-color:#B66DD5"/>
						<stop  offset="0.8717" style="stop-color:#CB6EC9"/>
						<stop  offset="1" style="stop-color:#CB91C9"/>
					</linearGradient>
					<path fill="url(#SVGID_3_)" d="M303.3,86.3H70.5c-0.3,0-0.5-0.2-0.5-0.5v-1.2h233.3V86.3z"/>
					<linearGradient id="SVGID_4_" gradientUnits="userSpaceOnUse" x1="275.1386" y1="336.6441" x2="65.7327" y2="-26.0576">
						<stop  offset="0.1043" style="stop-color:#686CE9"/>
						<stop  offset="0.3476" style="stop-color:#946CE9"/>
						<stop  offset="0.6498" style="stop-color:#B66DD5"/>
						<stop  offset="0.8717" style="stop-color:#CB6EC9"/>
						<stop  offset="1" style="stop-color:#CB91C9"/>
					</linearGradient>
					<path fill="url(#SVGID_4_)" d="M146.9,81.3H80.4c-1.1,0-1.9-0.9-1.9-1.9V78c0-1.1,0.9-1.9,1.9-1.9h66.6c1.1,0,1.9,0.9,1.9,1.9
						v1.4C148.9,80.5,148,81.3,146.9,81.3z"/>
					<linearGradient id="SVGID_5_" gradientUnits="userSpaceOnUse" x1="275.1386" y1="336.6441" x2="65.7327" y2="-26.0576">
						<stop  offset="0.1043" style="stop-color:#686CE9"/>
						<stop  offset="0.3476" style="stop-color:#946CE9"/>
						<stop  offset="0.6498" style="stop-color:#B66DD5"/>
						<stop  offset="0.8717" style="stop-color:#CB6EC9"/>
						<stop  offset="1" style="stop-color:#CB91C9"/>
					</linearGradient>
					<path fill="url(#SVGID_5_)" d="M237.5,70.9h65.8v13.6h-63.5c-1.3,0-2.4-1.1-2.4-2.4V70.9z"/>
					<linearGradient id="SVGID_6_" gradientUnits="userSpaceOnUse" x1="275.1386" y1="336.6441" x2="65.7327" y2="-26.0576">
						<stop  offset="0.1043" style="stop-color:#686CE9"/>
						<stop  offset="0.3476" style="stop-color:#946CE9"/>
						<stop  offset="0.6498" style="stop-color:#B66DD5"/>
						<stop  offset="0.8717" style="stop-color:#CB6EC9"/>
						<stop  offset="1" style="stop-color:#CB91C9"/>
					</linearGradient>
					<ellipse fill="url(#SVGID_6_)" cx="283" cy="79.4" rx="0.5" ry="0.6"/>
					<linearGradient id="SVGID_7_" gradientUnits="userSpaceOnUse" x1="275.1386" y1="336.6441" x2="65.7327" y2="-26.0576">
						<stop  offset="0.1043" style="stop-color:#686CE9"/>
						<stop  offset="0.3476" style="stop-color:#946CE9"/>
						<stop  offset="0.6498" style="stop-color:#B66DD5"/>
						<stop  offset="0.8717" style="stop-color:#CB6EC9"/>
						<stop  offset="1" style="stop-color:#CB91C9"/>
					</linearGradient>
					<ellipse fill="url(#SVGID_7_)" cx="289" cy="79.4" rx="0.5" ry="0.6"/>
					<linearGradient id="SVGID_8_" gradientUnits="userSpaceOnUse" x1="275.1386" y1="336.6441" x2="65.7327" y2="-26.0576">
						<stop  offset="0.1043" style="stop-color:#686CE9"/>
						<stop  offset="0.3476" style="stop-color:#946CE9"/>
						<stop  offset="0.6498" style="stop-color:#B66DD5"/>
						<stop  offset="0.8717" style="stop-color:#CB6EC9"/>
						<stop  offset="1" style="stop-color:#CB91C9"/>
					</linearGradient>
					<ellipse fill="url(#SVGID_8_)" cx="295" cy="79.4" rx="0.5" ry="0.6"/>
				</g>
				<g id="Black_7_">
					<linearGradient id="Fundo_4_" gradientUnits="userSpaceOnUse" x1="275.1386" y1="336.6441" x2="65.7327" y2="-26.0576">
						<stop  offset="0.1043" style="stop-color:#686CE9"/>
						<stop  offset="0.3476" style="stop-color:#946CE9"/>
						<stop  offset="0.6498" style="stop-color:#B66DD5"/>
						<stop  offset="0.8717" style="stop-color:#CB6EC9"/>
						<stop  offset="1" style="stop-color:#CB91C9"/>
					</linearGradient>
					<polygon id="Fundo_22_" fill="url(#Fundo_4_)" points="315.6,124.4 57.8,124.4 70.1,85.6 303.2,85.6 					"/>
					<g id="Bandeiras_15_">
						<linearGradient id="SVGID_9_" gradientUnits="userSpaceOnUse" x1="275.1386" y1="336.6441" x2="65.7327" y2="-26.0576">
							<stop  offset="0.1043" style="stop-color:#686CE9"/>
							<stop  offset="0.3476" style="stop-color:#946CE9"/>
							<stop  offset="0.6498" style="stop-color:#B66DD5"/>
							<stop  offset="0.8717" style="stop-color:#CB6EC9"/>
							<stop  offset="1" style="stop-color:#CB91C9"/>
						</linearGradient>
						<path fill="url(#SVGID_9_)" d="M315.5,125.2c-0.5,7.9-8.9,14.2-19.2,14.2c-10.3,0-18.7-6.3-19.2-14.2H315.5z"/>
						<linearGradient id="SVGID_10_" gradientUnits="userSpaceOnUse" x1="275.1386" y1="336.6441" x2="65.7327" y2="-26.0576">
							<stop  offset="0.1043" style="stop-color:#686CE9"/>
							<stop  offset="0.3476" style="stop-color:#946CE9"/>
							<stop  offset="0.6498" style="stop-color:#B66DD5"/>
							<stop  offset="0.8717" style="stop-color:#CB6EC9"/>
							<stop  offset="1" style="stop-color:#CB91C9"/>
						</linearGradient>
						<path fill="url(#SVGID_10_)" d="M57.6,125.2H96c-0.5,7.9-8.9,14.2-19.2,14.2C66.5,139.5,58.1,133.2,57.6,125.2z"/>
						<linearGradient id="SVGID_11_" gradientUnits="userSpaceOnUse" x1="275.1386" y1="336.6441" x2="65.7327" y2="-26.0576">
							<stop  offset="0.1043" style="stop-color:#686CE9"/>
							<stop  offset="0.3476" style="stop-color:#946CE9"/>
							<stop  offset="0.6498" style="stop-color:#B66DD5"/>
							<stop  offset="0.8717" style="stop-color:#CB6EC9"/>
							<stop  offset="1" style="stop-color:#CB91C9"/>
						</linearGradient>
						<path fill="url(#SVGID_11_)" d="M206.2,125.2H241c-0.4,7.2-8,13-17.4,13C214.2,138.2,206.6,132.5,206.2,125.2z"/>
						<linearGradient id="SVGID_12_" gradientUnits="userSpaceOnUse" x1="275.1386" y1="336.6441" x2="65.7327" y2="-26.0576">
							<stop  offset="0.1043" style="stop-color:#686CE9"/>
							<stop  offset="0.3476" style="stop-color:#946CE9"/>
							<stop  offset="0.6498" style="stop-color:#B66DD5"/>
							<stop  offset="0.8717" style="stop-color:#CB6EC9"/>
							<stop  offset="1" style="stop-color:#CB91C9"/>
						</linearGradient>
						<path fill="url(#SVGID_12_)" d="M132.3,125.2h34.8c-0.4,7.2-8,13-17.4,13C140.3,138.2,132.7,132.5,132.3,125.2z"/>
					</g>
				</g>
				<g id="Degrade_7_">
					<g id="Fundo_21_">
						<linearGradient id="SVGID_13_" gradientUnits="userSpaceOnUse" x1="275.1386" y1="336.6441" x2="65.7327" y2="-26.0576">
							<stop  offset="0.1043" style="stop-color:#686CE9"/>
							<stop  offset="0.3476" style="stop-color:#946CE9"/>
							<stop  offset="0.6498" style="stop-color:#B66DD5"/>
							<stop  offset="0.8717" style="stop-color:#CB6EC9"/>
							<stop  offset="1" style="stop-color:#CB91C9"/>
						</linearGradient>
						<polygon fill="url(#SVGID_13_)" points="206.2,124.5 167.1,124.5 171.5,85.6 201.5,85.6 						"/>
						<linearGradient id="SVGID_14_" gradientUnits="userSpaceOnUse" x1="275.1386" y1="336.6441" x2="65.7327" y2="-26.0576">
							<stop  offset="0.1043" style="stop-color:#686CE9"/>
							<stop  offset="0.3476" style="stop-color:#946CE9"/>
							<stop  offset="0.6498" style="stop-color:#B66DD5"/>
							<stop  offset="0.8717" style="stop-color:#CB6EC9"/>
							<stop  offset="1" style="stop-color:#CB91C9"/>
						</linearGradient>
						<polygon fill="url(#SVGID_14_)" points="277,124.4 241.1,124.4 233.9,85.6 267.8,85.6 						"/>
						<linearGradient id="SVGID_15_" gradientUnits="userSpaceOnUse" x1="275.1386" y1="336.6441" x2="65.7327" y2="-26.0576">
							<stop  offset="0.1043" style="stop-color:#686CE9"/>
							<stop  offset="0.3476" style="stop-color:#946CE9"/>
							<stop  offset="0.6498" style="stop-color:#B66DD5"/>
							<stop  offset="0.8717" style="stop-color:#CB6EC9"/>
							<stop  offset="1" style="stop-color:#CB91C9"/>
						</linearGradient>
						<polygon fill="url(#SVGID_15_)" points="95.8,124.4 131.8,124.4 139,85.6 105.1,85.6 						"/>
					</g>
					<g id="Bandeiras_14_">
						<linearGradient id="SVGID_16_" gradientUnits="userSpaceOnUse" x1="275.1386" y1="336.6441" x2="65.7327" y2="-26.0576">
							<stop  offset="0.1043" style="stop-color:#686CE9"/>
							<stop  offset="0.3476" style="stop-color:#946CE9"/>
							<stop  offset="0.6498" style="stop-color:#B66DD5"/>
							<stop  offset="0.8717" style="stop-color:#CB6EC9"/>
							<stop  offset="1" style="stop-color:#CB91C9"/>
						</linearGradient>
						<path fill="url(#SVGID_16_)" d="M167.2,125.2h39c-0.2,8.2-8.9,14.9-19.5,14.9C176,140.1,167.4,133.5,167.2,125.2z"/>
						<linearGradient id="SVGID_17_" gradientUnits="userSpaceOnUse" x1="275.1386" y1="336.6441" x2="65.7327" y2="-26.0576">
							<stop  offset="0.1043" style="stop-color:#686CE9"/>
							<stop  offset="0.3476" style="stop-color:#946CE9"/>
							<stop  offset="0.6498" style="stop-color:#B66DD5"/>
							<stop  offset="0.8717" style="stop-color:#CB6EC9"/>
							<stop  offset="1" style="stop-color:#CB91C9"/>
						</linearGradient>
						<path fill="url(#SVGID_17_)" d="M96.2,125.2h35.9c-0.4,7.5-8.3,13.4-18,13.4C104.4,138.7,96.5,132.7,96.2,125.2z"/>
						<linearGradient id="SVGID_18_" gradientUnits="userSpaceOnUse" x1="275.1386" y1="336.6441" x2="65.7327" y2="-26.0576">
							<stop  offset="0.1043" style="stop-color:#686CE9"/>
							<stop  offset="0.3476" style="stop-color:#946CE9"/>
							<stop  offset="0.6498" style="stop-color:#B66DD5"/>
							<stop  offset="0.8717" style="stop-color:#CB6EC9"/>
							<stop  offset="1" style="stop-color:#CB91C9"/>
						</linearGradient>
						<path fill="url(#SVGID_18_)" d="M241,125.2H277c-0.4,7.5-8.3,13.4-18,13.4C249.3,138.7,241.4,132.7,241,125.2z"/>
					</g>
				</g>
			</g>
			<g id="Products_7_">
				<g id="Camisa_7_">
					<g id="Estrutura_22_">
						<linearGradient id="SVGID_19_" gradientUnits="userSpaceOnUse" x1="275.1386" y1="336.6441" x2="65.7327" y2="-26.0576">
							<stop  offset="0.1043" style="stop-color:#686CE9"/>
							<stop  offset="0.3476" style="stop-color:#946CE9"/>
							<stop  offset="0.6498" style="stop-color:#B66DD5"/>
							<stop  offset="0.8717" style="stop-color:#CB6EC9"/>
							<stop  offset="1" style="stop-color:#CB91C9"/>
						</linearGradient>
						<path fill="url(#SVGID_19_)" d="M152.8,208.9c2,0,3.6-1.8,3.6-3.9v5.1c0,1.7-1.4,3-3.1,3h-45.5c-1.7,0-3.1-1.3-3.1-3v-5.1
							c0,2.2,1.6,3.9,3.6,3.9h5.3"/>
						<linearGradient id="SVGID_20_" gradientUnits="userSpaceOnUse" x1="275.1386" y1="336.6441" x2="65.7327" y2="-26.0576">
							<stop  offset="0.1043" style="stop-color:#686CE9"/>
							<stop  offset="0.3476" style="stop-color:#946CE9"/>
							<stop  offset="0.6498" style="stop-color:#B66DD5"/>
							<stop  offset="0.8717" style="stop-color:#CB6EC9"/>
							<stop  offset="1" style="stop-color:#CB91C9"/>
						</linearGradient>
						<path fill="url(#SVGID_20_)" d="M167.2,155.8l-5.1,6.4c-0.7,0.8-1.9,1-2.8,0.3l-2.9-2.2v44.6c0,2.2-1.6,3.9-3.6,3.9
							c0,0-28.8,0-23.1,0h-15.9c0,0-5.5,0-5.5,0c-2,0-3.6-1.8-3.6-3.9v-44.7l-3,2.3c-0.9,0.7-2.1,0.5-2.8-0.3l-5.1-6.4
							c-0.7-0.8-0.5-2.1,0.3-2.7l12.4-9.5c0.4-0.3,1-0.5,1.5-0.4h0c0.1,0,0.2,0,0.4,0h8.6c0,1.5,0.2,2.9,0.7,4.2
							c0,0.1,0,0.1,0.1,0.2c1.8,5,6.8,8.7,12.6,8.7c5.8,0,10.7-3.6,12.6-8.7c0-0.1,0-0.1,0.1-0.2c0.5-1.3,0.7-2.7,0.7-4.2h9.2
							c0.1,0,0.2,0,0.3,0c0.5,0,1,0.1,1.4,0.4l12.4,9.5C167.7,153.7,167.8,154.9,167.2,155.8z"/>
						<linearGradient id="SVGID_21_" gradientUnits="userSpaceOnUse" x1="275.1386" y1="336.6441" x2="65.7327" y2="-26.0576">
							<stop  offset="0.1043" style="stop-color:#686CE9"/>
							<stop  offset="0.3476" style="stop-color:#946CE9"/>
							<stop  offset="0.6498" style="stop-color:#B66DD5"/>
							<stop  offset="0.8717" style="stop-color:#CB6EC9"/>
							<stop  offset="1" style="stop-color:#CB91C9"/>
						</linearGradient>
						<path fill="url(#SVGID_21_)" d="M167.2,155.5l-5.5,7c-0.6,0.7-1.6,0.9-2.3,0.3l-0.3-0.2c-0.2-0.1-0.3-0.3-0.5-0.5l7.5-9.3
							c0.2,0.1,0.3,0.1,0.4,0.2l0.3,0.2C167.7,153.7,167.8,154.8,167.2,155.5z"/>
						<linearGradient id="SVGID_22_" gradientUnits="userSpaceOnUse" x1="275.1386" y1="336.6441" x2="65.7327" y2="-26.0576">
							<stop  offset="0.1043" style="stop-color:#686CE9"/>
							<stop  offset="0.3476" style="stop-color:#946CE9"/>
							<stop  offset="0.6498" style="stop-color:#B66DD5"/>
							<stop  offset="0.8717" style="stop-color:#CB6EC9"/>
							<stop  offset="1" style="stop-color:#CB91C9"/>
						</linearGradient>
						<path fill="url(#SVGID_22_)" d="M93.6,155.5l5.5,7c0.6,0.7,1.6,0.9,2.3,0.3l0.3-0.2c0.2-0.1,0.3-0.3,0.5-0.5l-7.5-9.3
							c-0.2,0.1-0.3,0.1-0.4,0.2l-0.3,0.2C93.1,153.7,93,154.8,93.6,155.5z"/>
						<linearGradient id="SVGID_23_" gradientUnits="userSpaceOnUse" x1="275.1386" y1="336.6441" x2="65.7327" y2="-26.0576">
							<stop  offset="0.1043" style="stop-color:#686CE9"/>
							<stop  offset="0.3476" style="stop-color:#946CE9"/>
							<stop  offset="0.6498" style="stop-color:#B66DD5"/>
							<stop  offset="0.8717" style="stop-color:#CB6EC9"/>
							<stop  offset="1" style="stop-color:#CB91C9"/>
						</linearGradient>
						<path fill="url(#SVGID_23_)" d="M143,142.8c0,1.4-0.2,2.8-0.7,4c0,0.1,0,0.1-0.1,0.2c-1.8,4.8-6.5,8.3-12.1,8.3
							c-5.6,0-10.3-3.5-12.1-8.3c0-0.1,0-0.1-0.1-0.2c-0.4-1.3-0.7-2.6-0.7-4h2.3c0,0.1,0,0.1,0,0.2c0,1.4,0.3,2.6,0.8,3.8
							c0,0.1,0,0.1,0.1,0.2c1.6,3.6,5.2,6.1,9.5,6.1c4.2,0,7.9-2.5,9.5-6.1c0-0.1,0-0.1,0.1-0.2c0.5-1.2,0.8-2.5,0.8-3.8
							c0-0.1,0-0.1,0-0.2H143z"/>
						<linearGradient id="SVGID_24_" gradientUnits="userSpaceOnUse" x1="275.1386" y1="336.6441" x2="65.7327" y2="-26.0576">
							<stop  offset="0.1043" style="stop-color:#686CE9"/>
							<stop  offset="0.3476" style="stop-color:#946CE9"/>
							<stop  offset="0.6498" style="stop-color:#B66DD5"/>
							<stop  offset="0.8717" style="stop-color:#CB6EC9"/>
							<stop  offset="1" style="stop-color:#CB91C9"/>
						</linearGradient>
						<path fill="url(#SVGID_24_)" d="M140.3,143.6c0,1.3-0.3,2.6-0.8,3.8c-1.6,3.4-5.2,5.8-9.4,5.8c-4.2,0-7.9-2.4-9.4-5.8
							c-0.5-1.2-0.8-2.4-0.8-3.8c0-0.1,0-0.1,0-0.2h20.6C140.3,143.5,140.3,143.5,140.3,143.6z"/>
						<linearGradient id="SVGID_25_" gradientUnits="userSpaceOnUse" x1="275.1386" y1="336.6441" x2="65.7327" y2="-26.0576">
							<stop  offset="0.1043" style="stop-color:#686CE9"/>
							<stop  offset="0.3476" style="stop-color:#946CE9"/>
							<stop  offset="0.6498" style="stop-color:#B66DD5"/>
							<stop  offset="0.8717" style="stop-color:#CB6EC9"/>
							<stop  offset="1" style="stop-color:#CB91C9"/>
						</linearGradient>
						<line fill="url(#SVGID_25_)" x1="116.9" y1="143.1" x2="143.6" y2="143.1"/>
					</g>
					<linearGradient id="Add_2_" gradientUnits="userSpaceOnUse" x1="275.1386" y1="336.6441" x2="65.7327" y2="-26.0576">
						<stop  offset="0.1043" style="stop-color:#686CE9"/>
						<stop  offset="0.3476" style="stop-color:#946CE9"/>
						<stop  offset="0.6498" style="stop-color:#B66DD5"/>
						<stop  offset="0.8717" style="stop-color:#CB6EC9"/>
						<stop  offset="1" style="stop-color:#CB91C9"/>
					</linearGradient>
					<path id="Add_8_" fill="url(#Add_2_)" d="M143.1,175.4v1.5c0,0.6-0.5,1.1-1.1,1.1h-9.7v9.5c0,0.6-0.5,1.1-1.1,1.1h-1.6
						c-0.6,0-1.1-0.5-1.1-1.1V178h-9.7c-0.6,0-1.1-0.5-1.1-1.1v-1.5c0-0.6,0.5-1.1,1.1-1.1h9.7v-9.5c0-0.6,0.5-1.1,1.1-1.1h1.6
						c0.6,0,1.1,0.5,1.1,1.1v9.5h9.7C142.6,174.3,143.1,174.7,143.1,175.4z"/>
				</g>
				<g id="Caneca_7_">
					<g id="Estrutura_21_">
						<linearGradient id="SVGID_26_" gradientUnits="userSpaceOnUse" x1="275.1386" y1="336.6441" x2="65.7327" y2="-26.0576">
							<stop  offset="0.1043" style="stop-color:#686CE9"/>
							<stop  offset="0.3476" style="stop-color:#946CE9"/>
							<stop  offset="0.6498" style="stop-color:#B66DD5"/>
							<stop  offset="0.8717" style="stop-color:#CB6EC9"/>
							<stop  offset="1" style="stop-color:#CB91C9"/>
						</linearGradient>
						<path fill="url(#SVGID_26_)" d="M161.1,199v6.3c0,0.5-0.4,0.9-0.9,0.9h-3v-8.1h3C160.6,198.1,161.1,198.5,161.1,199z"/>
						<linearGradient id="SVGID_27_" gradientUnits="userSpaceOnUse" x1="275.1386" y1="336.6441" x2="65.7327" y2="-26.0576">
							<stop  offset="0.1043" style="stop-color:#686CE9"/>
							<stop  offset="0.3476" style="stop-color:#946CE9"/>
							<stop  offset="0.6498" style="stop-color:#B66DD5"/>
							<stop  offset="0.8717" style="stop-color:#CB6EC9"/>
							<stop  offset="1" style="stop-color:#CB91C9"/>
						</linearGradient>
						<path fill="url(#SVGID_27_)" d="M155.8,193.8C155.9,193.8,155.9,193.8,155.8,193.8c-1-0.3-4.7-1.1-7.5-1.1c-3.3,0-6.9,0.8-8,1
							c-0.1,0,3.5,1.1,5.2,1.1c0.6,0,2.8,0,2.8,0c0,0,0,0,0,0C149.9,194.9,155.8,193.8,155.8,193.8z"/>
						<linearGradient id="SVGID_28_" gradientUnits="userSpaceOnUse" x1="275.1386" y1="336.6441" x2="65.7327" y2="-26.0576">
							<stop  offset="0.1043" style="stop-color:#686CE9"/>
							<stop  offset="0.3476" style="stop-color:#946CE9"/>
							<stop  offset="0.6498" style="stop-color:#B66DD5"/>
							<stop  offset="0.8717" style="stop-color:#CB6EC9"/>
							<stop  offset="1" style="stop-color:#CB91C9"/>
						</linearGradient>
						<path fill="url(#SVGID_28_)" d="M157.2,195.1V212c0,0.7-0.6,1.3-1.4,1.3c0,0-3.6,1.1-7.5,1.1c-4.4,0-8.1-1.1-8.1-1.1
							c-0.8,0-1.4-0.6-1.4-1.3v-16.8c0-0.7,0.6-1.3,1.4-1.3c0,0,4.2,1.1,7.5,1.1c2.8,0,8.1-1.1,8.1-1.1
							C156.5,193.8,157.2,194.4,157.2,195.1z"/>
					</g>
					<g>
						<linearGradient id="SVGID_29_" gradientUnits="userSpaceOnUse" x1="275.1386" y1="336.6441" x2="65.7327" y2="-26.0576">
							<stop  offset="0.1043" style="stop-color:#686CE9"/>
							<stop  offset="0.3476" style="stop-color:#946CE9"/>
							<stop  offset="0.6498" style="stop-color:#B66DD5"/>
							<stop  offset="0.8717" style="stop-color:#CB6EC9"/>
							<stop  offset="1" style="stop-color:#CB91C9"/>
						</linearGradient>
						<path fill="url(#SVGID_29_)" d="M154,203.7c0,0.2,0,0.5,0.1,0.7c0,0.3-0.2,0.5-0.5,0.5c-1.6,0.1-3.2,0.2-4.9,0.2
							c0,1.5,0,2.9,0.1,4.4c0,0.3-0.3,0.5-0.6,0.5c-0.3,0-0.6,0-0.8,0c-0.3,0-0.6-0.2-0.6-0.5c0-1.5,0-2.9,0.1-4.4
							c-1.6,0-3.2-0.1-4.9-0.2c-0.3,0-0.5-0.3-0.5-0.5c0-0.2,0-0.5,0.1-0.7c0-0.3,0.3-0.5,0.6-0.5c1.6,0.1,3.2,0.2,4.7,0.2
							c0-1.5,0-2.9,0.1-4.4c0-0.3,0.2-0.5,0.5-0.5c0.2,0,0.5,0,0.7,0c0.3,0,0.5,0.2,0.5,0.5c0,1.5,0,2.9,0.1,4.4
							c1.6,0,3.2-0.1,4.7-0.2C153.7,203.2,154,203.4,154,203.7z"/>
						<linearGradient id="SVGID_30_" gradientUnits="userSpaceOnUse" x1="275.1386" y1="336.6441" x2="65.7327" y2="-26.0576">
							<stop  offset="0.1043" style="stop-color:#686CE9"/>
							<stop  offset="0.3476" style="stop-color:#946CE9"/>
							<stop  offset="0.6498" style="stop-color:#B66DD5"/>
							<stop  offset="0.8717" style="stop-color:#CB6EC9"/>
							<stop  offset="1" style="stop-color:#CB91C9"/>
						</linearGradient>
						<path fill="url(#SVGID_30_)" d="M154,203.7c0,0.2,0,0.5,0.1,0.7c0,0.3-0.2,0.5-0.5,0.5c-1.6,0.1-3.2,0.2-4.9,0.2
							c0,1.5,0,2.9,0.1,4.4c0,0.3-0.3,0.5-0.6,0.5c-0.3,0-0.6,0-0.8,0c-0.3,0-0.6-0.2-0.6-0.5c0-1.5,0-2.9,0.1-4.4
							c-1.6,0-3.2-0.1-4.9-0.2c-0.3,0-0.5-0.3-0.5-0.5c0-0.2,0-0.5,0.1-0.7c0-0.3,0.3-0.5,0.6-0.5c1.6,0.1,3.2,0.2,4.7,0.2
							c0-1.5,0-2.9,0.1-4.4c0-0.3,0.2-0.5,0.5-0.5c0.2,0,0.5,0,0.7,0c0.3,0,0.5,0.2,0.5,0.5c0,1.5,0,2.9,0.1,4.4
							c1.6,0,3.2-0.1,4.7-0.2C153.7,203.2,154,203.4,154,203.7z"/>
					</g>
				</g>
			</g>
			<g id="Texts_7_">
				<linearGradient id="p_3_" gradientUnits="userSpaceOnUse" x1="275.1386" y1="336.6441" x2="65.7327" y2="-26.0576">
					<stop  offset="0.1043" style="stop-color:#686CE9"/>
					<stop  offset="0.3476" style="stop-color:#946CE9"/>
					<stop  offset="0.6498" style="stop-color:#B66DD5"/>
					<stop  offset="0.8717" style="stop-color:#CB6EC9"/>
					<stop  offset="1" style="stop-color:#CB91C9"/>
				</linearGradient>
				<rect id="p_23_" x="183.9" y="152.9" fill="url(#p_3_)" width="92.8" height="3.1"/>
				<linearGradient id="p_4_" gradientUnits="userSpaceOnUse" x1="275.1386" y1="336.6441" x2="65.7327" y2="-26.0576">
					<stop  offset="0.1043" style="stop-color:#686CE9"/>
					<stop  offset="0.3476" style="stop-color:#946CE9"/>
					<stop  offset="0.6498" style="stop-color:#B66DD5"/>
					<stop  offset="0.8717" style="stop-color:#CB6EC9"/>
					<stop  offset="1" style="stop-color:#CB91C9"/>
				</linearGradient>
				<rect id="p_22_" x="183.9" y="161.6" fill="url(#p_4_)" width="92.8" height="3.1"/>
				<linearGradient id="p_5_" gradientUnits="userSpaceOnUse" x1="275.1386" y1="336.6441" x2="65.7327" y2="-26.0576">
					<stop  offset="0.1043" style="stop-color:#686CE9"/>
					<stop  offset="0.3476" style="stop-color:#946CE9"/>
					<stop  offset="0.6498" style="stop-color:#B66DD5"/>
					<stop  offset="0.8717" style="stop-color:#CB6EC9"/>
					<stop  offset="1" style="stop-color:#CB91C9"/>
				</linearGradient>
				<rect id="p_21_" x="183.9" y="170.2" fill="url(#p_5_)" width="92.8" height="3.1"/>
				<linearGradient id="Tittle_1_" gradientUnits="userSpaceOnUse" x1="275.1386" y1="336.6441" x2="65.7327" y2="-26.0576">
					<stop  offset="0.1043" style="stop-color:#686CE9"/>
					<stop  offset="0.3476" style="stop-color:#946CE9"/>
					<stop  offset="0.6498" style="stop-color:#B66DD5"/>
					<stop  offset="0.8717" style="stop-color:#CB6EC9"/>
					<stop  offset="1" style="stop-color:#CB91C9"/>
				</linearGradient>
				<rect id="Tittle_7_" x="183.9" y="144.2" fill="url(#Tittle_1_)" width="34.1" height="3.2"/>
			</g>
			<g id="Buttons_7_">
				<linearGradient id="Button_2_1_" gradientUnits="userSpaceOnUse" x1="275.1386" y1="336.6441" x2="65.7327" y2="-26.0576">
					<stop  offset="0.1043" style="stop-color:#686CE9"/>
					<stop  offset="0.3476" style="stop-color:#946CE9"/>
					<stop  offset="0.6498" style="stop-color:#B66DD5"/>
					<stop  offset="0.8717" style="stop-color:#CB6EC9"/>
					<stop  offset="1" style="stop-color:#CB91C9"/>
				</linearGradient>
				<path id="Button_2_7_" fill="url(#Button_2_1_)" d="M275.3,189.1h-27.6c-0.6,0-1.1-0.5-1.1-1.1v-7c0-0.6,0.5-1.1,1.1-1.1h27.6
					c0.6,0,1.1,0.5,1.1,1.1v7C276.5,188.6,276,189.1,275.3,189.1z"/>
				<linearGradient id="Button_1_1_" gradientUnits="userSpaceOnUse" x1="275.1386" y1="336.6441" x2="65.7327" y2="-26.0576">
					<stop  offset="0.1043" style="stop-color:#686CE9"/>
					<stop  offset="0.3476" style="stop-color:#946CE9"/>
					<stop  offset="0.6498" style="stop-color:#B66DD5"/>
					<stop  offset="0.8717" style="stop-color:#CB6EC9"/>
					<stop  offset="1" style="stop-color:#CB91C9"/>
				</linearGradient>
				<path id="Button_1_7_" fill="url(#Button_1_1_)" d="M242.3,189.1h-27.6c-0.6,0-1.1-0.5-1.1-1.1v-7c0-0.6,0.5-1.1,1.1-1.1h27.6
					c0.6,0,1.1,0.5,1.1,1.1v7C243.4,188.6,242.9,189.1,242.3,189.1z"/>
			</g>
			<linearGradient id="Mouse_1_" gradientUnits="userSpaceOnUse" x1="275.1386" y1="336.6441" x2="65.7327" y2="-26.0576">
				<stop  offset="0.1043" style="stop-color:#686CE9"/>
				<stop  offset="0.3476" style="stop-color:#946CE9"/>
				<stop  offset="0.6498" style="stop-color:#B66DD5"/>
				<stop  offset="0.8717" style="stop-color:#CB6EC9"/>
				<stop  offset="1" style="stop-color:#CB91C9"/>
			</linearGradient>
			<path id="Mouse_7_" fill="url(#Mouse_1_)" d="M223.6,187.2c0.1,0.1,0.2,0,0.4,0c0.9,0.1,1.7,0.8,2,1.8c0.3,1.5,0.6,3.1,1,4.6
				c0,0.2,0.1,0.2,0.2,0.1c0.8-0.4,1.7-0.3,2.4,0.4c0.1,0.1,0.2,0.1,0.3,0c1-0.8,2.5-0.5,3.2,0.7c0.1,0.2,0.1,0.2,0.3,0.1
				c1.3-0.7,2.9,0.1,3.2,1.6c0.3,1.3,0.6,2.7,0.8,4c0.5,2.6-0.1,4.8-1.7,6.8c-1,1.2-2.3,2-3.9,2.3c-0.8,0.2-1.5,0.4-2.3,0.4
				c-2.2,0.2-4.2-0.5-5.9-2.2c-1.5-1.5-2.9-3.1-4.4-4.7c-0.8-0.8-0.8-2-0.1-2.9c1.1-1.3,3.1-1.5,4.5-0.4c0.1,0,0.1,0.1,0.2,0.2
				c0-0.1,0-0.2-0.1-0.3c-0.7-3.2-1.3-6.5-2-9.7c-0.3-1.4,0.1-2.3,1.3-2.9c0,0,0,0,0,0C223.2,187.3,223.4,187.2,223.6,187.2z
				 M224.3,195.9c0.4,2,0.8,4.1,1.2,6.1c0,0.1,0,0.2,0,0.3c0,0.3-0.1,0.6-0.4,0.7c-0.3,0.1-0.6,0.1-0.8-0.1c-0.5-0.5-1.1-1-1.6-1.5
				c-0.8-0.7-2-0.7-2.6,0.1c-0.2,0.2-0.2,0.5,0,0.7c1.5,1.6,3,3.2,4.5,4.8c1.3,1.3,2.8,1.8,4.5,1.6c0.8-0.1,1.5-0.3,2.3-0.4
				c0.9-0.2,1.8-0.6,2.5-1.3c1.5-1.4,2.2-3.2,2-5.3c0-0.1,0-0.2,0-0.3c-0.3-1.4-0.6-2.8-0.9-4.2c-0.1-0.5-0.5-0.7-0.9-0.7
				c-0.4,0.1-0.6,0.5-0.6,0.9c0,0.2,0.1,0.5,0.1,0.7c0,0.1,0,0.3,0,0.4c-0.1,0.4-0.4,0.6-0.7,0.6c-0.3,0-0.6-0.2-0.7-0.6
				c-0.2-0.8-0.3-1.5-0.5-2.3c-0.1-0.5-0.4-0.7-0.8-0.7c-0.5,0.1-0.7,0.4-0.6,1c0.1,0.5,0.2,1,0.3,1.5c0.1,0.4,0,0.7-0.3,0.9
				c-0.4,0.3-1,0-1.1-0.6c-0.2-0.7-0.3-1.4-0.4-2.2c0-0.1,0-0.2-0.1-0.4c-0.2-0.3-0.6-0.5-0.9-0.4c-0.3,0.1-0.5,0.5-0.4,0.9
				c0.1,0.5,0.2,1,0.3,1.5c0.1,0.3-0.1,0.7-0.3,0.8c-0.5,0.3-1,0-1.1-0.6c-0.6-2.8-1.1-5.5-1.7-8.3c0-0.1,0-0.2-0.1-0.2
				c-0.1-0.3-0.3-0.5-0.6-0.6c-0.5-0.1-0.9,0.4-0.8,1C223.5,191.8,223.9,193.8,224.3,195.9z"/>
		</g>
		<g>
			<g>
				<linearGradient id="SVGID_31_" gradientUnits="userSpaceOnUse" x1="275.1386" y1="336.6441" x2="65.7327" y2="-26.0576">
					<stop  offset="0.1043" style="stop-color:#686CE9"/>
					<stop  offset="0.3476" style="stop-color:#946CE9"/>
					<stop  offset="0.6498" style="stop-color:#B66DD5"/>
					<stop  offset="0.8717" style="stop-color:#CB6EC9"/>
					<stop  offset="1" style="stop-color:#CB91C9"/>
				</linearGradient>
				<path fill="url(#SVGID_31_)" d="M121.9,293.6h-6.6l-0.9,4.5h5.9l-0.1,0.7h-5.9l-1,4.8h6.8l-0.1,0.7h-7.5l2.3-11.3h7.3
					L121.9,293.6z"/>
				<linearGradient id="SVGID_32_" gradientUnits="userSpaceOnUse" x1="275.1386" y1="336.6441" x2="65.7327" y2="-26.0576">
					<stop  offset="0.1043" style="stop-color:#686CE9"/>
					<stop  offset="0.3476" style="stop-color:#946CE9"/>
					<stop  offset="0.6498" style="stop-color:#B66DD5"/>
					<stop  offset="0.8717" style="stop-color:#CB6EC9"/>
					<stop  offset="1" style="stop-color:#CB91C9"/>
				</linearGradient>
				<path fill="url(#SVGID_32_)" d="M123.2,303.9c-0.6-0.3-1.1-0.7-1.5-1.1l0.4-0.5c0.3,0.4,0.8,0.8,1.3,1c0.5,0.2,1.1,0.4,1.8,0.4
					c0.7,0,1.2-0.2,1.6-0.5c0.4-0.3,0.6-0.7,0.6-1.3c0-0.3-0.1-0.5-0.3-0.7s-0.4-0.4-0.6-0.5c-0.3-0.1-0.6-0.3-1.1-0.5
					c-0.5-0.2-0.9-0.4-1.2-0.6c-0.3-0.2-0.6-0.4-0.8-0.7c-0.2-0.3-0.3-0.6-0.3-1c0-0.7,0.3-1.3,0.8-1.7c0.5-0.4,1.2-0.6,2-0.6
					c0.6,0,1.1,0.1,1.6,0.3c0.5,0.2,0.9,0.4,1.2,0.7l-0.4,0.5c-0.3-0.3-0.7-0.5-1.1-0.6c-0.4-0.1-0.9-0.2-1.4-0.2
					c-0.6,0-1.1,0.1-1.5,0.4c-0.4,0.3-0.6,0.7-0.6,1.2c0,0.3,0.1,0.5,0.3,0.7c0.2,0.2,0.4,0.4,0.6,0.5c0.3,0.1,0.6,0.3,1,0.5
					c0.5,0.2,0.9,0.4,1.2,0.6c0.3,0.2,0.6,0.4,0.8,0.7s0.3,0.6,0.3,1c0,0.7-0.3,1.3-0.8,1.8c-0.6,0.4-1.3,0.7-2.1,0.7
					C124.5,304.3,123.8,304.2,123.2,303.9z"/>
				<linearGradient id="SVGID_33_" gradientUnits="userSpaceOnUse" x1="275.1386" y1="336.6441" x2="65.7327" y2="-26.0576">
					<stop  offset="0.1043" style="stop-color:#686CE9"/>
					<stop  offset="0.3476" style="stop-color:#946CE9"/>
					<stop  offset="0.6498" style="stop-color:#B66DD5"/>
					<stop  offset="0.8717" style="stop-color:#CB6EC9"/>
					<stop  offset="1" style="stop-color:#CB91C9"/>
				</linearGradient>
				<path fill="url(#SVGID_33_)" d="M131.8,303.7c-0.6-0.3-1-0.8-1.3-1.3s-0.5-1.2-0.5-2c0-0.9,0.2-1.7,0.6-2.4
					c0.4-0.7,1-1.3,1.6-1.7c0.7-0.4,1.5-0.6,2.3-0.6c0.6,0,1.1,0.1,1.6,0.3s0.9,0.5,1.3,0.9l-0.4,0.5c-0.6-0.7-1.5-1-2.5-1
					c-0.7,0-1.4,0.2-2,0.5c-0.6,0.3-1.1,0.8-1.4,1.4c-0.3,0.6-0.5,1.3-0.5,2c0,0.6,0.1,1.2,0.4,1.7s0.6,0.9,1.1,1.1
					c0.5,0.3,1,0.4,1.6,0.4c0.6,0,1.1-0.1,1.6-0.3c0.5-0.2,0.9-0.5,1.3-0.9l0.4,0.4c-0.4,0.4-0.9,0.8-1.5,1
					c-0.6,0.2-1.2,0.4-1.8,0.4C133,304.2,132.3,304,131.8,303.7z"/>
				<linearGradient id="SVGID_34_" gradientUnits="userSpaceOnUse" x1="275.1386" y1="336.6441" x2="65.7327" y2="-26.0576">
					<stop  offset="0.1043" style="stop-color:#686CE9"/>
					<stop  offset="0.3476" style="stop-color:#946CE9"/>
					<stop  offset="0.6498" style="stop-color:#B66DD5"/>
					<stop  offset="0.8717" style="stop-color:#CB6EC9"/>
					<stop  offset="1" style="stop-color:#CB91C9"/>
				</linearGradient>
				<path fill="url(#SVGID_34_)" d="M145.4,296.2c0.6,0.3,1,0.8,1.3,1.4s0.5,1.2,0.5,2c0,0.9-0.2,1.7-0.6,2.4
					c-0.4,0.7-1,1.3-1.7,1.7s-1.5,0.6-2.3,0.6c-0.7,0-1.4-0.2-2-0.5c-0.6-0.3-1-0.8-1.3-1.4c-0.3-0.6-0.5-1.2-0.5-2
					c0-0.9,0.2-1.7,0.6-2.4s1-1.3,1.7-1.7c0.7-0.4,1.5-0.6,2.3-0.6C144.2,295.8,144.9,295.9,145.4,296.2z M141.5,296.9
					c-0.6,0.3-1,0.8-1.4,1.4c-0.3,0.6-0.5,1.3-0.5,2c0,0.6,0.1,1.2,0.4,1.7c0.3,0.5,0.6,0.9,1.1,1.1c0.5,0.3,1,0.4,1.6,0.4
					c0.7,0,1.4-0.2,2-0.5c0.6-0.3,1.1-0.8,1.4-1.4c0.3-0.6,0.5-1.3,0.5-2c0-0.6-0.1-1.2-0.4-1.7c-0.3-0.5-0.6-0.9-1.1-1.1
					c-0.5-0.3-1-0.4-1.6-0.4C142.7,296.4,142,296.6,141.5,296.9z"/>
				<linearGradient id="SVGID_35_" gradientUnits="userSpaceOnUse" x1="275.1386" y1="336.6441" x2="65.7327" y2="-26.0576">
					<stop  offset="0.1043" style="stop-color:#686CE9"/>
					<stop  offset="0.3476" style="stop-color:#946CE9"/>
					<stop  offset="0.6498" style="stop-color:#B66DD5"/>
					<stop  offset="0.8717" style="stop-color:#CB6EC9"/>
					<stop  offset="1" style="stop-color:#CB91C9"/>
				</linearGradient>
				<path fill="url(#SVGID_35_)" d="M152,292.2l-2.4,12h-0.7l2.4-12H152z"/>
				<linearGradient id="SVGID_36_" gradientUnits="userSpaceOnUse" x1="275.1386" y1="336.6441" x2="65.7327" y2="-26.0576">
					<stop  offset="0.1043" style="stop-color:#686CE9"/>
					<stop  offset="0.3476" style="stop-color:#946CE9"/>
					<stop  offset="0.6498" style="stop-color:#B66DD5"/>
					<stop  offset="0.8717" style="stop-color:#CB6EC9"/>
					<stop  offset="1" style="stop-color:#CB91C9"/>
				</linearGradient>
				<path fill="url(#SVGID_36_)" d="M160.9,296.4c0.5,0.4,0.8,1.1,0.8,1.9c0,0.3,0,0.6-0.1,0.9l-1,5h-0.7l1-5
					c0.1-0.3,0.1-0.5,0.1-0.7c0-0.6-0.2-1.1-0.6-1.5c-0.4-0.4-1-0.5-1.7-0.5c-1,0-1.8,0.3-2.6,0.9c-0.7,0.6-1.2,1.4-1.4,2.5
					l-0.9,4.4h-0.7l2.4-12h0.7l-1.1,5.7c0.4-0.7,0.9-1.2,1.5-1.6c0.6-0.4,1.3-0.6,2.1-0.6C159.7,295.7,160.4,296,160.9,296.4z"/>
				<linearGradient id="SVGID_37_" gradientUnits="userSpaceOnUse" x1="275.1386" y1="336.6441" x2="65.7327" y2="-26.0576">
					<stop  offset="0.1043" style="stop-color:#686CE9"/>
					<stop  offset="0.3476" style="stop-color:#946CE9"/>
					<stop  offset="0.6498" style="stop-color:#B66DD5"/>
					<stop  offset="0.8717" style="stop-color:#CB6EC9"/>
					<stop  offset="1" style="stop-color:#CB91C9"/>
				</linearGradient>
				<path fill="url(#SVGID_37_)" d="M165.3,303.8c-0.6-0.3-1-0.8-1.3-1.3c-0.3-0.6-0.5-1.2-0.5-1.9c0-0.9,0.2-1.7,0.6-2.4
					c0.4-0.7,1-1.3,1.7-1.7c0.7-0.4,1.5-0.6,2.3-0.6c0.9,0,1.7,0.2,2.3,0.7c0.6,0.5,1,1.1,1.2,1.9l0.5-2.6h0.7l-1.7,8.4h-0.7
					l0.4-1.9c-0.4,0.6-0.9,1.1-1.6,1.4c-0.6,0.3-1.3,0.5-2,0.5C166.5,304.2,165.9,304.1,165.3,303.8z M169.4,303
					c0.6-0.4,1.1-0.9,1.4-1.5c0.3-0.6,0.5-1.3,0.5-2c0-0.6-0.1-1.2-0.4-1.6s-0.6-0.8-1.1-1.1s-1-0.4-1.7-0.4c-0.7,0-1.3,0.2-1.9,0.5
					c-0.6,0.4-1.1,0.9-1.4,1.5c-0.3,0.6-0.5,1.3-0.5,2.1c0,0.6,0.1,1.2,0.4,1.6c0.3,0.5,0.6,0.8,1.1,1.1c0.5,0.3,1,0.4,1.7,0.4
					C168.1,303.6,168.8,303.4,169.4,303z"/>
				<linearGradient id="SVGID_38_" gradientUnits="userSpaceOnUse" x1="275.1386" y1="336.6441" x2="65.7327" y2="-26.0576">
					<stop  offset="0.1043" style="stop-color:#686CE9"/>
					<stop  offset="0.3476" style="stop-color:#946CE9"/>
					<stop  offset="0.6498" style="stop-color:#B66DD5"/>
					<stop  offset="0.8717" style="stop-color:#CB6EC9"/>
					<stop  offset="1" style="stop-color:#CB91C9"/>
				</linearGradient>
				<path fill="url(#SVGID_38_)" d="M179.6,303.9c-0.6-0.3-1.1-0.7-1.5-1.1l0.4-0.5c0.3,0.4,0.8,0.8,1.3,1s1.1,0.4,1.8,0.4
					c0.7,0,1.2-0.2,1.6-0.5c0.4-0.3,0.6-0.7,0.6-1.3c0-0.3-0.1-0.5-0.3-0.7s-0.4-0.4-0.6-0.5c-0.3-0.1-0.6-0.3-1.1-0.5
					c-0.5-0.2-0.9-0.4-1.2-0.6c-0.3-0.2-0.6-0.4-0.8-0.7c-0.2-0.3-0.3-0.6-0.3-1c0-0.7,0.3-1.3,0.8-1.7c0.5-0.4,1.2-0.6,2-0.6
					c0.6,0,1.1,0.1,1.6,0.3c0.5,0.2,0.9,0.4,1.2,0.7l-0.4,0.5c-0.3-0.3-0.7-0.5-1.1-0.6c-0.4-0.1-0.9-0.2-1.4-0.2
					c-0.6,0-1.1,0.1-1.5,0.4c-0.4,0.3-0.6,0.7-0.6,1.2c0,0.3,0.1,0.5,0.3,0.7c0.2,0.2,0.4,0.4,0.6,0.5c0.3,0.1,0.6,0.3,1,0.5
					c0.5,0.2,0.9,0.4,1.2,0.6c0.3,0.2,0.6,0.4,0.8,0.7c0.2,0.3,0.3,0.6,0.3,1c0,0.7-0.3,1.3-0.8,1.8s-1.3,0.7-2.1,0.7
					C180.9,304.3,180.2,304.2,179.6,303.9z"/>
				<linearGradient id="SVGID_39_" gradientUnits="userSpaceOnUse" x1="275.1386" y1="336.6441" x2="65.7327" y2="-26.0576">
					<stop  offset="0.1043" style="stop-color:#686CE9"/>
					<stop  offset="0.3476" style="stop-color:#946CE9"/>
					<stop  offset="0.6498" style="stop-color:#B66DD5"/>
					<stop  offset="0.8717" style="stop-color:#CB6EC9"/>
					<stop  offset="1" style="stop-color:#CB91C9"/>
				</linearGradient>
				<path fill="url(#SVGID_39_)" d="M187,300.2v0.2c0,1,0.3,1.7,0.9,2.3c0.6,0.6,1.3,0.9,2.3,0.9c0.6,0,1.1-0.1,1.6-0.3
					c0.5-0.2,0.9-0.5,1.3-0.8l0.4,0.5c-0.4,0.4-0.9,0.7-1.5,0.9c-0.6,0.2-1.2,0.3-1.8,0.3c-0.7,0-1.4-0.2-2-0.5
					c-0.6-0.3-1-0.8-1.3-1.4c-0.3-0.6-0.5-1.2-0.5-2c0-0.9,0.2-1.7,0.6-2.4c0.4-0.7,1-1.3,1.6-1.7c0.7-0.4,1.5-0.6,2.3-0.6
					c0.7,0,1.3,0.2,1.9,0.5c0.5,0.3,0.9,0.7,1.2,1.3c0.3,0.6,0.4,1.2,0.4,1.9c0,0.2,0,0.5,0,0.7H187z M188.4,297.3
					c-0.7,0.6-1.1,1.4-1.3,2.3h6.8c0-1-0.2-1.7-0.8-2.3c-0.5-0.6-1.3-0.9-2.2-0.9C189.9,296.4,189.1,296.7,188.4,297.3z"/>
				<linearGradient id="SVGID_40_" gradientUnits="userSpaceOnUse" x1="275.1386" y1="336.6441" x2="65.7327" y2="-26.0576">
					<stop  offset="0.1043" style="stop-color:#686CE9"/>
					<stop  offset="0.3476" style="stop-color:#946CE9"/>
					<stop  offset="0.6498" style="stop-color:#B66DD5"/>
					<stop  offset="0.8717" style="stop-color:#CB6EC9"/>
					<stop  offset="1" style="stop-color:#CB91C9"/>
				</linearGradient>
				<path fill="url(#SVGID_40_)" d="M197.1,303.5c-0.5-0.4-0.7-1.1-0.7-1.9c0-0.3,0-0.6,0.1-0.9l1-5h0.7l-1,5
					c-0.1,0.3-0.1,0.5-0.1,0.7c0,0.6,0.2,1.1,0.6,1.5c0.4,0.4,1,0.5,1.7,0.5c1,0,1.8-0.3,2.6-0.9c0.7-0.6,1.2-1.4,1.4-2.5l0.9-4.4
					h0.7l-1.7,8.4h-0.7l0.4-2.1c-0.4,0.7-0.9,1.2-1.5,1.6s-1.3,0.6-2.1,0.6C198.3,304.2,197.6,304,197.1,303.5z"/>
				<linearGradient id="SVGID_41_" gradientUnits="userSpaceOnUse" x1="275.1386" y1="336.6441" x2="65.7327" y2="-26.0576">
					<stop  offset="0.1043" style="stop-color:#686CE9"/>
					<stop  offset="0.3476" style="stop-color:#946CE9"/>
					<stop  offset="0.6498" style="stop-color:#B66DD5"/>
					<stop  offset="0.8717" style="stop-color:#CB6EC9"/>
					<stop  offset="1" style="stop-color:#CB91C9"/>
				</linearGradient>
				<path fill="url(#SVGID_41_)" d="M218.7,296.2c0.6,0.3,1,0.7,1.3,1.3c0.3,0.6,0.5,1.2,0.5,1.9c0,0.9-0.2,1.7-0.6,2.4
					c-0.4,0.7-1,1.3-1.7,1.7c-0.7,0.4-1.5,0.6-2.3,0.6c-0.9,0-1.7-0.2-2.3-0.7c-0.6-0.5-1-1.1-1.2-1.9l-1.1,5.7h-0.7l2.3-11.5h0.7
					l-0.4,1.9c0.4-0.6,0.9-1.1,1.6-1.4s1.3-0.5,2-0.5C217.5,295.7,218.1,295.9,218.7,296.2z M214.7,296.9c-0.6,0.4-1.1,0.9-1.4,1.5
					c-0.3,0.6-0.5,1.3-0.5,2c0,0.6,0.1,1.2,0.4,1.6s0.6,0.8,1.1,1.1c0.5,0.3,1,0.4,1.7,0.4c0.7,0,1.3-0.2,1.9-0.5s1.1-0.9,1.4-1.5
					c0.3-0.6,0.5-1.3,0.5-2.1c0-0.6-0.1-1.2-0.4-1.6s-0.6-0.8-1.1-1.1c-0.5-0.3-1-0.4-1.7-0.4C215.9,296.4,215.2,296.5,214.7,296.9z
					"/>
				<linearGradient id="SVGID_42_" gradientUnits="userSpaceOnUse" x1="275.1386" y1="336.6441" x2="65.7327" y2="-26.0576">
					<stop  offset="0.1043" style="stop-color:#686CE9"/>
					<stop  offset="0.3476" style="stop-color:#946CE9"/>
					<stop  offset="0.6498" style="stop-color:#B66DD5"/>
					<stop  offset="0.8717" style="stop-color:#CB6EC9"/>
					<stop  offset="1" style="stop-color:#CB91C9"/>
				</linearGradient>
				<path fill="url(#SVGID_42_)" d="M225.5,296.3c0.6-0.4,1.3-0.6,2-0.6l-0.1,0.7c-0.9,0-1.7,0.3-2.4,0.8c-0.7,0.6-1.2,1.3-1.4,2.3
					l-0.9,4.5h-0.7l1.7-8.4h0.7l-0.4,2.1C224.4,297.2,224.9,296.7,225.5,296.3z"/>
				<linearGradient id="SVGID_43_" gradientUnits="userSpaceOnUse" x1="275.1386" y1="336.6441" x2="65.7327" y2="-26.0576">
					<stop  offset="0.1043" style="stop-color:#686CE9"/>
					<stop  offset="0.3476" style="stop-color:#946CE9"/>
					<stop  offset="0.6498" style="stop-color:#B66DD5"/>
					<stop  offset="0.8717" style="stop-color:#CB6EC9"/>
					<stop  offset="1" style="stop-color:#CB91C9"/>
				</linearGradient>
				<path fill="url(#SVGID_43_)" d="M234.2,296.2c0.6,0.3,1,0.8,1.3,1.4c0.3,0.6,0.5,1.2,0.5,2c0,0.9-0.2,1.7-0.6,2.4
					s-1,1.3-1.7,1.7c-0.7,0.4-1.5,0.6-2.3,0.6c-0.7,0-1.4-0.2-2-0.5c-0.6-0.3-1-0.8-1.3-1.4c-0.3-0.6-0.5-1.2-0.5-2
					c0-0.9,0.2-1.7,0.6-2.4s1-1.3,1.7-1.7s1.5-0.6,2.3-0.6C233,295.8,233.7,295.9,234.2,296.2z M230.3,296.9c-0.6,0.3-1,0.8-1.4,1.4
					c-0.3,0.6-0.5,1.3-0.5,2c0,0.6,0.1,1.2,0.4,1.7c0.3,0.5,0.6,0.9,1.1,1.1s1,0.4,1.6,0.4c0.7,0,1.4-0.2,2-0.5
					c0.6-0.3,1.1-0.8,1.4-1.4c0.3-0.6,0.5-1.3,0.5-2c0-0.6-0.1-1.2-0.4-1.7c-0.3-0.5-0.6-0.9-1.1-1.1c-0.5-0.3-1-0.4-1.6-0.4
					C231.5,296.4,230.8,296.6,230.3,296.9z"/>
				<linearGradient id="SVGID_44_" gradientUnits="userSpaceOnUse" x1="275.1386" y1="336.6441" x2="65.7327" y2="-26.0576">
					<stop  offset="0.1043" style="stop-color:#686CE9"/>
					<stop  offset="0.3476" style="stop-color:#946CE9"/>
					<stop  offset="0.6498" style="stop-color:#B66DD5"/>
					<stop  offset="0.8717" style="stop-color:#CB6EC9"/>
					<stop  offset="1" style="stop-color:#CB91C9"/>
				</linearGradient>
				<path fill="url(#SVGID_44_)" d="M239.3,303.8c-0.6-0.3-1-0.8-1.3-1.3c-0.3-0.6-0.5-1.2-0.5-1.9c0-0.9,0.2-1.7,0.6-2.4
					c0.4-0.7,1-1.3,1.7-1.7c0.7-0.4,1.5-0.6,2.3-0.6c0.9,0,1.7,0.2,2.3,0.7s1,1.1,1.2,1.9l1.2-6.2h0.7l-2.4,12h-0.7l0.4-1.9
					c-0.4,0.6-0.9,1.1-1.6,1.4s-1.3,0.5-2,0.5C240.5,304.2,239.9,304.1,239.3,303.8z M243.4,303c0.6-0.4,1.1-0.9,1.4-1.5
					s0.5-1.3,0.5-2c0-0.6-0.1-1.2-0.4-1.6s-0.6-0.8-1.1-1.1c-0.5-0.3-1-0.4-1.7-0.4c-0.7,0-1.3,0.2-1.9,0.5s-1.1,0.9-1.4,1.5
					c-0.3,0.6-0.5,1.3-0.5,2.1c0,0.6,0.1,1.2,0.4,1.6c0.3,0.5,0.6,0.8,1.1,1.1c0.5,0.3,1,0.4,1.7,0.4
					C242.1,303.6,242.8,303.4,243.4,303z"/>
				<linearGradient id="SVGID_45_" gradientUnits="userSpaceOnUse" x1="275.1386" y1="336.6441" x2="65.7327" y2="-26.0576">
					<stop  offset="0.1043" style="stop-color:#686CE9"/>
					<stop  offset="0.3476" style="stop-color:#946CE9"/>
					<stop  offset="0.6498" style="stop-color:#B66DD5"/>
					<stop  offset="0.8717" style="stop-color:#CB6EC9"/>
					<stop  offset="1" style="stop-color:#CB91C9"/>
				</linearGradient>
				<path fill="url(#SVGID_45_)" d="M249.6,303.5c-0.5-0.4-0.7-1.1-0.7-1.9c0-0.3,0-0.6,0.1-0.9l1-5h0.7l-1,5
					c-0.1,0.3-0.1,0.5-0.1,0.7c0,0.6,0.2,1.1,0.6,1.5c0.4,0.4,1,0.5,1.7,0.5c1,0,1.8-0.3,2.6-0.9c0.7-0.6,1.2-1.4,1.4-2.5l0.9-4.4
					h0.7l-1.7,8.4H255l0.4-2.1c-0.4,0.7-0.9,1.2-1.5,1.6s-1.3,0.6-2.1,0.6C250.9,304.2,250.1,304,249.6,303.5z"/>
				<linearGradient id="SVGID_46_" gradientUnits="userSpaceOnUse" x1="275.1386" y1="336.6441" x2="65.7327" y2="-26.0576">
					<stop  offset="0.1043" style="stop-color:#686CE9"/>
					<stop  offset="0.3476" style="stop-color:#946CE9"/>
					<stop  offset="0.6498" style="stop-color:#B66DD5"/>
					<stop  offset="0.8717" style="stop-color:#CB6EC9"/>
					<stop  offset="1" style="stop-color:#CB91C9"/>
				</linearGradient>
				<path fill="url(#SVGID_46_)" d="M260.5,301.8c-0.1,0.3-0.1,0.5-0.1,0.7c0,0.7,0.3,1,1,1c0.5,0,1.1-0.2,1.6-0.5l0.2,0.6
					c-0.6,0.4-1.2,0.6-1.9,0.6c-0.5,0-0.9-0.1-1.1-0.4c-0.3-0.3-0.4-0.7-0.4-1.2c0-0.2,0-0.5,0.1-0.8l1-5.3h-1.2l0.1-0.6h1.2
					l0.4-2.1h0.7l-0.4,2.1h2.9l-0.1,0.6h-2.9L260.5,301.8z"/>
				<linearGradient id="SVGID_47_" gradientUnits="userSpaceOnUse" x1="275.1386" y1="336.6441" x2="65.7327" y2="-26.0576">
					<stop  offset="0.1043" style="stop-color:#686CE9"/>
					<stop  offset="0.3476" style="stop-color:#946CE9"/>
					<stop  offset="0.6498" style="stop-color:#B66DD5"/>
					<stop  offset="0.8717" style="stop-color:#CB6EC9"/>
					<stop  offset="1" style="stop-color:#CB91C9"/>
				</linearGradient>
				<path fill="url(#SVGID_47_)" d="M271.4,296.2c0.6,0.3,1,0.8,1.3,1.4c0.3,0.6,0.5,1.2,0.5,2c0,0.9-0.2,1.7-0.6,2.4
					s-1,1.3-1.7,1.7c-0.7,0.4-1.5,0.6-2.3,0.6c-0.7,0-1.4-0.2-2-0.5c-0.6-0.3-1-0.8-1.3-1.4c-0.3-0.6-0.5-1.2-0.5-2
					c0-0.9,0.2-1.7,0.6-2.4s1-1.3,1.7-1.7s1.5-0.6,2.3-0.6C270.2,295.8,270.8,295.9,271.4,296.2z M267.4,296.9
					c-0.6,0.3-1,0.8-1.4,1.4c-0.3,0.6-0.5,1.3-0.5,2c0,0.6,0.1,1.2,0.4,1.7c0.3,0.5,0.6,0.9,1.1,1.1s1,0.4,1.6,0.4
					c0.7,0,1.4-0.2,2-0.5c0.6-0.3,1.1-0.8,1.4-1.4c0.3-0.6,0.5-1.3,0.5-2c0-0.6-0.1-1.2-0.4-1.7c-0.3-0.5-0.6-0.9-1.1-1.1
					c-0.5-0.3-1-0.4-1.6-0.4C268.7,296.4,268,296.6,267.4,296.9z"/>
			</g>
			<g>
				<linearGradient id="SVGID_48_" gradientUnits="userSpaceOnUse" x1="275.1386" y1="336.6441" x2="65.7327" y2="-26.0576">
					<stop  offset="0.1043" style="stop-color:#686CE9"/>
					<stop  offset="0.3476" style="stop-color:#946CE9"/>
					<stop  offset="0.6498" style="stop-color:#B66DD5"/>
					<stop  offset="0.8717" style="stop-color:#CB6EC9"/>
					<stop  offset="1" style="stop-color:#CB91C9"/>
				</linearGradient>
				<path fill="url(#SVGID_48_)" d="M121.9,293.6h-6.6l-0.9,4.5h5.9l-0.1,0.7h-5.9l-1,4.8h6.8l-0.1,0.7h-7.5l2.3-11.3h7.3
					L121.9,293.6z"/>
				<linearGradient id="SVGID_49_" gradientUnits="userSpaceOnUse" x1="275.1386" y1="336.6441" x2="65.7327" y2="-26.0576">
					<stop  offset="0.1043" style="stop-color:#686CE9"/>
					<stop  offset="0.3476" style="stop-color:#946CE9"/>
					<stop  offset="0.6498" style="stop-color:#B66DD5"/>
					<stop  offset="0.8717" style="stop-color:#CB6EC9"/>
					<stop  offset="1" style="stop-color:#CB91C9"/>
				</linearGradient>
				<path fill="url(#SVGID_49_)" d="M123.2,303.9c-0.6-0.3-1.1-0.7-1.5-1.1l0.4-0.5c0.3,0.4,0.8,0.8,1.3,1c0.5,0.2,1.1,0.4,1.8,0.4
					c0.7,0,1.2-0.2,1.6-0.5c0.4-0.3,0.6-0.7,0.6-1.3c0-0.3-0.1-0.5-0.3-0.7s-0.4-0.4-0.6-0.5c-0.3-0.1-0.6-0.3-1.1-0.5
					c-0.5-0.2-0.9-0.4-1.2-0.6c-0.3-0.2-0.6-0.4-0.8-0.7c-0.2-0.3-0.3-0.6-0.3-1c0-0.7,0.3-1.3,0.8-1.7c0.5-0.4,1.2-0.6,2-0.6
					c0.6,0,1.1,0.1,1.6,0.3c0.5,0.2,0.9,0.4,1.2,0.7l-0.4,0.5c-0.3-0.3-0.7-0.5-1.1-0.6c-0.4-0.1-0.9-0.2-1.4-0.2
					c-0.6,0-1.1,0.1-1.5,0.4c-0.4,0.3-0.6,0.7-0.6,1.2c0,0.3,0.1,0.5,0.3,0.7c0.2,0.2,0.4,0.4,0.6,0.5c0.3,0.1,0.6,0.3,1,0.5
					c0.5,0.2,0.9,0.4,1.2,0.6c0.3,0.2,0.6,0.4,0.8,0.7s0.3,0.6,0.3,1c0,0.7-0.3,1.3-0.8,1.8c-0.6,0.4-1.3,0.7-2.1,0.7
					C124.5,304.3,123.8,304.2,123.2,303.9z"/>
				<linearGradient id="SVGID_50_" gradientUnits="userSpaceOnUse" x1="275.1386" y1="336.6441" x2="65.7327" y2="-26.0576">
					<stop  offset="0.1043" style="stop-color:#686CE9"/>
					<stop  offset="0.3476" style="stop-color:#946CE9"/>
					<stop  offset="0.6498" style="stop-color:#B66DD5"/>
					<stop  offset="0.8717" style="stop-color:#CB6EC9"/>
					<stop  offset="1" style="stop-color:#CB91C9"/>
				</linearGradient>
				<path fill="url(#SVGID_50_)" d="M131.8,303.7c-0.6-0.3-1-0.8-1.3-1.3s-0.5-1.2-0.5-2c0-0.9,0.2-1.7,0.6-2.4
					c0.4-0.7,1-1.3,1.6-1.7c0.7-0.4,1.5-0.6,2.3-0.6c0.6,0,1.1,0.1,1.6,0.3s0.9,0.5,1.3,0.9l-0.4,0.5c-0.6-0.7-1.5-1-2.5-1
					c-0.7,0-1.4,0.2-2,0.5c-0.6,0.3-1.1,0.8-1.4,1.4c-0.3,0.6-0.5,1.3-0.5,2c0,0.6,0.1,1.2,0.4,1.7s0.6,0.9,1.1,1.1
					c0.5,0.3,1,0.4,1.6,0.4c0.6,0,1.1-0.1,1.6-0.3c0.5-0.2,0.9-0.5,1.3-0.9l0.4,0.4c-0.4,0.4-0.9,0.8-1.5,1
					c-0.6,0.2-1.2,0.4-1.8,0.4C133,304.2,132.3,304,131.8,303.7z"/>
				<linearGradient id="SVGID_51_" gradientUnits="userSpaceOnUse" x1="275.1386" y1="336.6441" x2="65.7327" y2="-26.0576">
					<stop  offset="0.1043" style="stop-color:#686CE9"/>
					<stop  offset="0.3476" style="stop-color:#946CE9"/>
					<stop  offset="0.6498" style="stop-color:#B66DD5"/>
					<stop  offset="0.8717" style="stop-color:#CB6EC9"/>
					<stop  offset="1" style="stop-color:#CB91C9"/>
				</linearGradient>
				<path fill="url(#SVGID_51_)" d="M145.4,296.2c0.6,0.3,1,0.8,1.3,1.4s0.5,1.2,0.5,2c0,0.9-0.2,1.7-0.6,2.4
					c-0.4,0.7-1,1.3-1.7,1.7s-1.5,0.6-2.3,0.6c-0.7,0-1.4-0.2-2-0.5c-0.6-0.3-1-0.8-1.3-1.4c-0.3-0.6-0.5-1.2-0.5-2
					c0-0.9,0.2-1.7,0.6-2.4s1-1.3,1.7-1.7c0.7-0.4,1.5-0.6,2.3-0.6C144.2,295.8,144.9,295.9,145.4,296.2z M141.5,296.9
					c-0.6,0.3-1,0.8-1.4,1.4c-0.3,0.6-0.5,1.3-0.5,2c0,0.6,0.1,1.2,0.4,1.7c0.3,0.5,0.6,0.9,1.1,1.1c0.5,0.3,1,0.4,1.6,0.4
					c0.7,0,1.4-0.2,2-0.5c0.6-0.3,1.1-0.8,1.4-1.4c0.3-0.6,0.5-1.3,0.5-2c0-0.6-0.1-1.2-0.4-1.7c-0.3-0.5-0.6-0.9-1.1-1.1
					c-0.5-0.3-1-0.4-1.6-0.4C142.7,296.4,142,296.6,141.5,296.9z"/>
				<linearGradient id="SVGID_52_" gradientUnits="userSpaceOnUse" x1="275.1386" y1="336.6441" x2="65.7327" y2="-26.0576">
					<stop  offset="0.1043" style="stop-color:#686CE9"/>
					<stop  offset="0.3476" style="stop-color:#946CE9"/>
					<stop  offset="0.6498" style="stop-color:#B66DD5"/>
					<stop  offset="0.8717" style="stop-color:#CB6EC9"/>
					<stop  offset="1" style="stop-color:#CB91C9"/>
				</linearGradient>
				<path fill="url(#SVGID_52_)" d="M152,292.2l-2.4,12h-0.7l2.4-12H152z"/>
				<linearGradient id="SVGID_53_" gradientUnits="userSpaceOnUse" x1="275.1386" y1="336.6441" x2="65.7327" y2="-26.0576">
					<stop  offset="0.1043" style="stop-color:#686CE9"/>
					<stop  offset="0.3476" style="stop-color:#946CE9"/>
					<stop  offset="0.6498" style="stop-color:#B66DD5"/>
					<stop  offset="0.8717" style="stop-color:#CB6EC9"/>
					<stop  offset="1" style="stop-color:#CB91C9"/>
				</linearGradient>
				<path fill="url(#SVGID_53_)" d="M160.9,296.4c0.5,0.4,0.8,1.1,0.8,1.9c0,0.3,0,0.6-0.1,0.9l-1,5h-0.7l1-5
					c0.1-0.3,0.1-0.5,0.1-0.7c0-0.6-0.2-1.1-0.6-1.5c-0.4-0.4-1-0.5-1.7-0.5c-1,0-1.8,0.3-2.6,0.9c-0.7,0.6-1.2,1.4-1.4,2.5
					l-0.9,4.4h-0.7l2.4-12h0.7l-1.1,5.7c0.4-0.7,0.9-1.2,1.5-1.6c0.6-0.4,1.3-0.6,2.1-0.6C159.7,295.7,160.4,296,160.9,296.4z"/>
				<linearGradient id="SVGID_54_" gradientUnits="userSpaceOnUse" x1="275.1386" y1="336.6441" x2="65.7327" y2="-26.0576">
					<stop  offset="0.1043" style="stop-color:#686CE9"/>
					<stop  offset="0.3476" style="stop-color:#946CE9"/>
					<stop  offset="0.6498" style="stop-color:#B66DD5"/>
					<stop  offset="0.8717" style="stop-color:#CB6EC9"/>
					<stop  offset="1" style="stop-color:#CB91C9"/>
				</linearGradient>
				<path fill="url(#SVGID_54_)" d="M165.3,303.8c-0.6-0.3-1-0.8-1.3-1.3c-0.3-0.6-0.5-1.2-0.5-1.9c0-0.9,0.2-1.7,0.6-2.4
					c0.4-0.7,1-1.3,1.7-1.7c0.7-0.4,1.5-0.6,2.3-0.6c0.9,0,1.7,0.2,2.3,0.7c0.6,0.5,1,1.1,1.2,1.9l0.5-2.6h0.7l-1.7,8.4h-0.7
					l0.4-1.9c-0.4,0.6-0.9,1.1-1.6,1.4c-0.6,0.3-1.3,0.5-2,0.5C166.5,304.2,165.9,304.1,165.3,303.8z M169.4,303
					c0.6-0.4,1.1-0.9,1.4-1.5c0.3-0.6,0.5-1.3,0.5-2c0-0.6-0.1-1.2-0.4-1.6s-0.6-0.8-1.1-1.1s-1-0.4-1.7-0.4c-0.7,0-1.3,0.2-1.9,0.5
					c-0.6,0.4-1.1,0.9-1.4,1.5c-0.3,0.6-0.5,1.3-0.5,2.1c0,0.6,0.1,1.2,0.4,1.6c0.3,0.5,0.6,0.8,1.1,1.1c0.5,0.3,1,0.4,1.7,0.4
					C168.1,303.6,168.8,303.4,169.4,303z"/>
				<linearGradient id="SVGID_55_" gradientUnits="userSpaceOnUse" x1="275.1386" y1="336.6441" x2="65.7327" y2="-26.0576">
					<stop  offset="0.1043" style="stop-color:#686CE9"/>
					<stop  offset="0.3476" style="stop-color:#946CE9"/>
					<stop  offset="0.6498" style="stop-color:#B66DD5"/>
					<stop  offset="0.8717" style="stop-color:#CB6EC9"/>
					<stop  offset="1" style="stop-color:#CB91C9"/>
				</linearGradient>
				<path fill="url(#SVGID_55_)" d="M179.6,303.9c-0.6-0.3-1.1-0.7-1.5-1.1l0.4-0.5c0.3,0.4,0.8,0.8,1.3,1s1.1,0.4,1.8,0.4
					c0.7,0,1.2-0.2,1.6-0.5c0.4-0.3,0.6-0.7,0.6-1.3c0-0.3-0.1-0.5-0.3-0.7s-0.4-0.4-0.6-0.5c-0.3-0.1-0.6-0.3-1.1-0.5
					c-0.5-0.2-0.9-0.4-1.2-0.6c-0.3-0.2-0.6-0.4-0.8-0.7c-0.2-0.3-0.3-0.6-0.3-1c0-0.7,0.3-1.3,0.8-1.7c0.5-0.4,1.2-0.6,2-0.6
					c0.6,0,1.1,0.1,1.6,0.3c0.5,0.2,0.9,0.4,1.2,0.7l-0.4,0.5c-0.3-0.3-0.7-0.5-1.1-0.6c-0.4-0.1-0.9-0.2-1.4-0.2
					c-0.6,0-1.1,0.1-1.5,0.4c-0.4,0.3-0.6,0.7-0.6,1.2c0,0.3,0.1,0.5,0.3,0.7c0.2,0.2,0.4,0.4,0.6,0.5c0.3,0.1,0.6,0.3,1,0.5
					c0.5,0.2,0.9,0.4,1.2,0.6c0.3,0.2,0.6,0.4,0.8,0.7c0.2,0.3,0.3,0.6,0.3,1c0,0.7-0.3,1.3-0.8,1.8s-1.3,0.7-2.1,0.7
					C180.9,304.3,180.2,304.2,179.6,303.9z"/>
				<linearGradient id="SVGID_56_" gradientUnits="userSpaceOnUse" x1="275.1386" y1="336.6441" x2="65.7327" y2="-26.0576">
					<stop  offset="0.1043" style="stop-color:#686CE9"/>
					<stop  offset="0.3476" style="stop-color:#946CE9"/>
					<stop  offset="0.6498" style="stop-color:#B66DD5"/>
					<stop  offset="0.8717" style="stop-color:#CB6EC9"/>
					<stop  offset="1" style="stop-color:#CB91C9"/>
				</linearGradient>
				<path fill="url(#SVGID_56_)" d="M187,300.2v0.2c0,1,0.3,1.7,0.9,2.3c0.6,0.6,1.3,0.9,2.3,0.9c0.6,0,1.1-0.1,1.6-0.3
					c0.5-0.2,0.9-0.5,1.3-0.8l0.4,0.5c-0.4,0.4-0.9,0.7-1.5,0.9c-0.6,0.2-1.2,0.3-1.8,0.3c-0.7,0-1.4-0.2-2-0.5
					c-0.6-0.3-1-0.8-1.3-1.4c-0.3-0.6-0.5-1.2-0.5-2c0-0.9,0.2-1.7,0.6-2.4c0.4-0.7,1-1.3,1.6-1.7c0.7-0.4,1.5-0.6,2.3-0.6
					c0.7,0,1.3,0.2,1.9,0.5c0.5,0.3,0.9,0.7,1.2,1.3c0.3,0.6,0.4,1.2,0.4,1.9c0,0.2,0,0.5,0,0.7H187z M188.4,297.3
					c-0.7,0.6-1.1,1.4-1.3,2.3h6.8c0-1-0.2-1.7-0.8-2.3c-0.5-0.6-1.3-0.9-2.2-0.9C189.9,296.4,189.1,296.7,188.4,297.3z"/>
				<linearGradient id="SVGID_57_" gradientUnits="userSpaceOnUse" x1="275.1386" y1="336.6441" x2="65.7327" y2="-26.0576">
					<stop  offset="0.1043" style="stop-color:#686CE9"/>
					<stop  offset="0.3476" style="stop-color:#946CE9"/>
					<stop  offset="0.6498" style="stop-color:#B66DD5"/>
					<stop  offset="0.8717" style="stop-color:#CB6EC9"/>
					<stop  offset="1" style="stop-color:#CB91C9"/>
				</linearGradient>
				<path fill="url(#SVGID_57_)" d="M197.1,303.5c-0.5-0.4-0.7-1.1-0.7-1.9c0-0.3,0-0.6,0.1-0.9l1-5h0.7l-1,5
					c-0.1,0.3-0.1,0.5-0.1,0.7c0,0.6,0.2,1.1,0.6,1.5c0.4,0.4,1,0.5,1.7,0.5c1,0,1.8-0.3,2.6-0.9c0.7-0.6,1.2-1.4,1.4-2.5l0.9-4.4
					h0.7l-1.7,8.4h-0.7l0.4-2.1c-0.4,0.7-0.9,1.2-1.5,1.6s-1.3,0.6-2.1,0.6C198.3,304.2,197.6,304,197.1,303.5z"/>
				<linearGradient id="SVGID_58_" gradientUnits="userSpaceOnUse" x1="275.1386" y1="336.6441" x2="65.7327" y2="-26.0576">
					<stop  offset="0.1043" style="stop-color:#686CE9"/>
					<stop  offset="0.3476" style="stop-color:#946CE9"/>
					<stop  offset="0.6498" style="stop-color:#B66DD5"/>
					<stop  offset="0.8717" style="stop-color:#CB6EC9"/>
					<stop  offset="1" style="stop-color:#CB91C9"/>
				</linearGradient>
				<path fill="url(#SVGID_58_)" d="M218.7,296.2c0.6,0.3,1,0.7,1.3,1.3c0.3,0.6,0.5,1.2,0.5,1.9c0,0.9-0.2,1.7-0.6,2.4
					c-0.4,0.7-1,1.3-1.7,1.7c-0.7,0.4-1.5,0.6-2.3,0.6c-0.9,0-1.7-0.2-2.3-0.7c-0.6-0.5-1-1.1-1.2-1.9l-1.1,5.7h-0.7l2.3-11.5h0.7
					l-0.4,1.9c0.4-0.6,0.9-1.1,1.6-1.4s1.3-0.5,2-0.5C217.5,295.7,218.1,295.9,218.7,296.2z M214.7,296.9c-0.6,0.4-1.1,0.9-1.4,1.5
					c-0.3,0.6-0.5,1.3-0.5,2c0,0.6,0.1,1.2,0.4,1.6s0.6,0.8,1.1,1.1c0.5,0.3,1,0.4,1.7,0.4c0.7,0,1.3-0.2,1.9-0.5s1.1-0.9,1.4-1.5
					c0.3-0.6,0.5-1.3,0.5-2.1c0-0.6-0.1-1.2-0.4-1.6s-0.6-0.8-1.1-1.1c-0.5-0.3-1-0.4-1.7-0.4C215.9,296.4,215.2,296.5,214.7,296.9z
					"/>
				<linearGradient id="SVGID_59_" gradientUnits="userSpaceOnUse" x1="275.1386" y1="336.6441" x2="65.7327" y2="-26.0576">
					<stop  offset="0.1043" style="stop-color:#686CE9"/>
					<stop  offset="0.3476" style="stop-color:#946CE9"/>
					<stop  offset="0.6498" style="stop-color:#B66DD5"/>
					<stop  offset="0.8717" style="stop-color:#CB6EC9"/>
					<stop  offset="1" style="stop-color:#CB91C9"/>
				</linearGradient>
				<path fill="url(#SVGID_59_)" d="M225.5,296.3c0.6-0.4,1.3-0.6,2-0.6l-0.1,0.7c-0.9,0-1.7,0.3-2.4,0.8c-0.7,0.6-1.2,1.3-1.4,2.3
					l-0.9,4.5h-0.7l1.7-8.4h0.7l-0.4,2.1C224.4,297.2,224.9,296.7,225.5,296.3z"/>
				<linearGradient id="SVGID_60_" gradientUnits="userSpaceOnUse" x1="275.1386" y1="336.6441" x2="65.7327" y2="-26.0576">
					<stop  offset="0.1043" style="stop-color:#686CE9"/>
					<stop  offset="0.3476" style="stop-color:#946CE9"/>
					<stop  offset="0.6498" style="stop-color:#B66DD5"/>
					<stop  offset="0.8717" style="stop-color:#CB6EC9"/>
					<stop  offset="1" style="stop-color:#CB91C9"/>
				</linearGradient>
				<path fill="url(#SVGID_60_)" d="M234.2,296.2c0.6,0.3,1,0.8,1.3,1.4c0.3,0.6,0.5,1.2,0.5,2c0,0.9-0.2,1.7-0.6,2.4
					s-1,1.3-1.7,1.7c-0.7,0.4-1.5,0.6-2.3,0.6c-0.7,0-1.4-0.2-2-0.5c-0.6-0.3-1-0.8-1.3-1.4c-0.3-0.6-0.5-1.2-0.5-2
					c0-0.9,0.2-1.7,0.6-2.4s1-1.3,1.7-1.7s1.5-0.6,2.3-0.6C233,295.8,233.7,295.9,234.2,296.2z M230.3,296.9c-0.6,0.3-1,0.8-1.4,1.4
					c-0.3,0.6-0.5,1.3-0.5,2c0,0.6,0.1,1.2,0.4,1.7c0.3,0.5,0.6,0.9,1.1,1.1s1,0.4,1.6,0.4c0.7,0,1.4-0.2,2-0.5
					c0.6-0.3,1.1-0.8,1.4-1.4c0.3-0.6,0.5-1.3,0.5-2c0-0.6-0.1-1.2-0.4-1.7c-0.3-0.5-0.6-0.9-1.1-1.1c-0.5-0.3-1-0.4-1.6-0.4
					C231.5,296.4,230.8,296.6,230.3,296.9z"/>
				<linearGradient id="SVGID_61_" gradientUnits="userSpaceOnUse" x1="275.1386" y1="336.6441" x2="65.7327" y2="-26.0576">
					<stop  offset="0.1043" style="stop-color:#686CE9"/>
					<stop  offset="0.3476" style="stop-color:#946CE9"/>
					<stop  offset="0.6498" style="stop-color:#B66DD5"/>
					<stop  offset="0.8717" style="stop-color:#CB6EC9"/>
					<stop  offset="1" style="stop-color:#CB91C9"/>
				</linearGradient>
				<path fill="url(#SVGID_61_)" d="M239.3,303.8c-0.6-0.3-1-0.8-1.3-1.3c-0.3-0.6-0.5-1.2-0.5-1.9c0-0.9,0.2-1.7,0.6-2.4
					c0.4-0.7,1-1.3,1.7-1.7c0.7-0.4,1.5-0.6,2.3-0.6c0.9,0,1.7,0.2,2.3,0.7s1,1.1,1.2,1.9l1.2-6.2h0.7l-2.4,12h-0.7l0.4-1.9
					c-0.4,0.6-0.9,1.1-1.6,1.4s-1.3,0.5-2,0.5C240.5,304.2,239.9,304.1,239.3,303.8z M243.4,303c0.6-0.4,1.1-0.9,1.4-1.5
					s0.5-1.3,0.5-2c0-0.6-0.1-1.2-0.4-1.6s-0.6-0.8-1.1-1.1c-0.5-0.3-1-0.4-1.7-0.4c-0.7,0-1.3,0.2-1.9,0.5s-1.1,0.9-1.4,1.5
					c-0.3,0.6-0.5,1.3-0.5,2.1c0,0.6,0.1,1.2,0.4,1.6c0.3,0.5,0.6,0.8,1.1,1.1c0.5,0.3,1,0.4,1.7,0.4
					C242.1,303.6,242.8,303.4,243.4,303z"/>
				<linearGradient id="SVGID_62_" gradientUnits="userSpaceOnUse" x1="275.1386" y1="336.6441" x2="65.7327" y2="-26.0576">
					<stop  offset="0.1043" style="stop-color:#686CE9"/>
					<stop  offset="0.3476" style="stop-color:#946CE9"/>
					<stop  offset="0.6498" style="stop-color:#B66DD5"/>
					<stop  offset="0.8717" style="stop-color:#CB6EC9"/>
					<stop  offset="1" style="stop-color:#CB91C9"/>
				</linearGradient>
				<path fill="url(#SVGID_62_)" d="M249.6,303.5c-0.5-0.4-0.7-1.1-0.7-1.9c0-0.3,0-0.6,0.1-0.9l1-5h0.7l-1,5
					c-0.1,0.3-0.1,0.5-0.1,0.7c0,0.6,0.2,1.1,0.6,1.5c0.4,0.4,1,0.5,1.7,0.5c1,0,1.8-0.3,2.6-0.9c0.7-0.6,1.2-1.4,1.4-2.5l0.9-4.4
					h0.7l-1.7,8.4H255l0.4-2.1c-0.4,0.7-0.9,1.2-1.5,1.6s-1.3,0.6-2.1,0.6C250.9,304.2,250.1,304,249.6,303.5z"/>
				<linearGradient id="SVGID_63_" gradientUnits="userSpaceOnUse" x1="275.1386" y1="336.6441" x2="65.7327" y2="-26.0576">
					<stop  offset="0.1043" style="stop-color:#686CE9"/>
					<stop  offset="0.3476" style="stop-color:#946CE9"/>
					<stop  offset="0.6498" style="stop-color:#B66DD5"/>
					<stop  offset="0.8717" style="stop-color:#CB6EC9"/>
					<stop  offset="1" style="stop-color:#CB91C9"/>
				</linearGradient>
				<path fill="url(#SVGID_63_)" d="M260.5,301.8c-0.1,0.3-0.1,0.5-0.1,0.7c0,0.7,0.3,1,1,1c0.5,0,1.1-0.2,1.6-0.5l0.2,0.6
					c-0.6,0.4-1.2,0.6-1.9,0.6c-0.5,0-0.9-0.1-1.1-0.4c-0.3-0.3-0.4-0.7-0.4-1.2c0-0.2,0-0.5,0.1-0.8l1-5.3h-1.2l0.1-0.6h1.2
					l0.4-2.1h0.7l-0.4,2.1h2.9l-0.1,0.6h-2.9L260.5,301.8z"/>
				<linearGradient id="SVGID_64_" gradientUnits="userSpaceOnUse" x1="275.1386" y1="336.6441" x2="65.7327" y2="-26.0576">
					<stop  offset="0.1043" style="stop-color:#686CE9"/>
					<stop  offset="0.3476" style="stop-color:#946CE9"/>
					<stop  offset="0.6498" style="stop-color:#B66DD5"/>
					<stop  offset="0.8717" style="stop-color:#CB6EC9"/>
					<stop  offset="1" style="stop-color:#CB91C9"/>
				</linearGradient>
				<path fill="url(#SVGID_64_)" d="M271.4,296.2c0.6,0.3,1,0.8,1.3,1.4c0.3,0.6,0.5,1.2,0.5,2c0,0.9-0.2,1.7-0.6,2.4
					s-1,1.3-1.7,1.7c-0.7,0.4-1.5,0.6-2.3,0.6c-0.7,0-1.4-0.2-2-0.5c-0.6-0.3-1-0.8-1.3-1.4c-0.3-0.6-0.5-1.2-0.5-2
					c0-0.9,0.2-1.7,0.6-2.4s1-1.3,1.7-1.7s1.5-0.6,2.3-0.6C270.2,295.8,270.8,295.9,271.4,296.2z M267.4,296.9
					c-0.6,0.3-1,0.8-1.4,1.4c-0.3,0.6-0.5,1.3-0.5,2c0,0.6,0.1,1.2,0.4,1.7c0.3,0.5,0.6,0.9,1.1,1.1s1,0.4,1.6,0.4
					c0.7,0,1.4-0.2,2-0.5c0.6-0.3,1.1-0.8,1.4-1.4c0.3-0.6,0.5-1.3,0.5-2c0-0.6-0.1-1.2-0.4-1.7c-0.3-0.5-0.6-0.9-1.1-1.1
					c-0.5-0.3-1-0.4-1.6-0.4C268.7,296.4,268,296.6,267.4,296.9z"/>
			</g>
			<g>
				<linearGradient id="SVGID_65_" gradientUnits="userSpaceOnUse" x1="275.1386" y1="336.6441" x2="65.7327" y2="-26.0576">
					<stop  offset="0.1043" style="stop-color:#686CE9"/>
					<stop  offset="0.3476" style="stop-color:#946CE9"/>
					<stop  offset="0.6498" style="stop-color:#B66DD5"/>
					<stop  offset="0.8717" style="stop-color:#CB6EC9"/>
					<stop  offset="1" style="stop-color:#CB91C9"/>
				</linearGradient>
				<path fill="url(#SVGID_65_)" d="M121.9,293.6h-6.6l-0.9,4.5h5.9l-0.1,0.7h-5.9l-1,4.8h6.8l-0.1,0.7h-7.5l2.3-11.3h7.3
					L121.9,293.6z"/>
				<linearGradient id="SVGID_66_" gradientUnits="userSpaceOnUse" x1="275.1386" y1="336.6441" x2="65.7327" y2="-26.0576">
					<stop  offset="0.1043" style="stop-color:#686CE9"/>
					<stop  offset="0.3476" style="stop-color:#946CE9"/>
					<stop  offset="0.6498" style="stop-color:#B66DD5"/>
					<stop  offset="0.8717" style="stop-color:#CB6EC9"/>
					<stop  offset="1" style="stop-color:#CB91C9"/>
				</linearGradient>
				<path fill="url(#SVGID_66_)" d="M123.2,303.9c-0.6-0.3-1.1-0.7-1.5-1.1l0.4-0.5c0.3,0.4,0.8,0.8,1.3,1c0.5,0.2,1.1,0.4,1.8,0.4
					c0.7,0,1.2-0.2,1.6-0.5c0.4-0.3,0.6-0.7,0.6-1.3c0-0.3-0.1-0.5-0.3-0.7s-0.4-0.4-0.6-0.5c-0.3-0.1-0.6-0.3-1.1-0.5
					c-0.5-0.2-0.9-0.4-1.2-0.6c-0.3-0.2-0.6-0.4-0.8-0.7c-0.2-0.3-0.3-0.6-0.3-1c0-0.7,0.3-1.3,0.8-1.7c0.5-0.4,1.2-0.6,2-0.6
					c0.6,0,1.1,0.1,1.6,0.3c0.5,0.2,0.9,0.4,1.2,0.7l-0.4,0.5c-0.3-0.3-0.7-0.5-1.1-0.6c-0.4-0.1-0.9-0.2-1.4-0.2
					c-0.6,0-1.1,0.1-1.5,0.4c-0.4,0.3-0.6,0.7-0.6,1.2c0,0.3,0.1,0.5,0.3,0.7c0.2,0.2,0.4,0.4,0.6,0.5c0.3,0.1,0.6,0.3,1,0.5
					c0.5,0.2,0.9,0.4,1.2,0.6c0.3,0.2,0.6,0.4,0.8,0.7s0.3,0.6,0.3,1c0,0.7-0.3,1.3-0.8,1.8c-0.6,0.4-1.3,0.7-2.1,0.7
					C124.5,304.3,123.8,304.2,123.2,303.9z"/>
				<linearGradient id="SVGID_67_" gradientUnits="userSpaceOnUse" x1="275.1386" y1="336.6441" x2="65.7327" y2="-26.0576">
					<stop  offset="0.1043" style="stop-color:#686CE9"/>
					<stop  offset="0.3476" style="stop-color:#946CE9"/>
					<stop  offset="0.6498" style="stop-color:#B66DD5"/>
					<stop  offset="0.8717" style="stop-color:#CB6EC9"/>
					<stop  offset="1" style="stop-color:#CB91C9"/>
				</linearGradient>
				<path fill="url(#SVGID_67_)" d="M131.8,303.7c-0.6-0.3-1-0.8-1.3-1.3s-0.5-1.2-0.5-2c0-0.9,0.2-1.7,0.6-2.4
					c0.4-0.7,1-1.3,1.6-1.7c0.7-0.4,1.5-0.6,2.3-0.6c0.6,0,1.1,0.1,1.6,0.3s0.9,0.5,1.3,0.9l-0.4,0.5c-0.6-0.7-1.5-1-2.5-1
					c-0.7,0-1.4,0.2-2,0.5c-0.6,0.3-1.1,0.8-1.4,1.4c-0.3,0.6-0.5,1.3-0.5,2c0,0.6,0.1,1.2,0.4,1.7s0.6,0.9,1.1,1.1
					c0.5,0.3,1,0.4,1.6,0.4c0.6,0,1.1-0.1,1.6-0.3c0.5-0.2,0.9-0.5,1.3-0.9l0.4,0.4c-0.4,0.4-0.9,0.8-1.5,1
					c-0.6,0.2-1.2,0.4-1.8,0.4C133,304.2,132.3,304,131.8,303.7z"/>
				<linearGradient id="SVGID_68_" gradientUnits="userSpaceOnUse" x1="275.1386" y1="336.6441" x2="65.7327" y2="-26.0576">
					<stop  offset="0.1043" style="stop-color:#686CE9"/>
					<stop  offset="0.3476" style="stop-color:#946CE9"/>
					<stop  offset="0.6498" style="stop-color:#B66DD5"/>
					<stop  offset="0.8717" style="stop-color:#CB6EC9"/>
					<stop  offset="1" style="stop-color:#CB91C9"/>
				</linearGradient>
				<path fill="url(#SVGID_68_)" d="M145.4,296.2c0.6,0.3,1,0.8,1.3,1.4s0.5,1.2,0.5,2c0,0.9-0.2,1.7-0.6,2.4
					c-0.4,0.7-1,1.3-1.7,1.7s-1.5,0.6-2.3,0.6c-0.7,0-1.4-0.2-2-0.5c-0.6-0.3-1-0.8-1.3-1.4c-0.3-0.6-0.5-1.2-0.5-2
					c0-0.9,0.2-1.7,0.6-2.4s1-1.3,1.7-1.7c0.7-0.4,1.5-0.6,2.3-0.6C144.2,295.8,144.9,295.9,145.4,296.2z M141.5,296.9
					c-0.6,0.3-1,0.8-1.4,1.4c-0.3,0.6-0.5,1.3-0.5,2c0,0.6,0.1,1.2,0.4,1.7c0.3,0.5,0.6,0.9,1.1,1.1c0.5,0.3,1,0.4,1.6,0.4
					c0.7,0,1.4-0.2,2-0.5c0.6-0.3,1.1-0.8,1.4-1.4c0.3-0.6,0.5-1.3,0.5-2c0-0.6-0.1-1.2-0.4-1.7c-0.3-0.5-0.6-0.9-1.1-1.1
					c-0.5-0.3-1-0.4-1.6-0.4C142.7,296.4,142,296.6,141.5,296.9z"/>
				<linearGradient id="SVGID_69_" gradientUnits="userSpaceOnUse" x1="275.1386" y1="336.6441" x2="65.7327" y2="-26.0576">
					<stop  offset="0.1043" style="stop-color:#686CE9"/>
					<stop  offset="0.3476" style="stop-color:#946CE9"/>
					<stop  offset="0.6498" style="stop-color:#B66DD5"/>
					<stop  offset="0.8717" style="stop-color:#CB6EC9"/>
					<stop  offset="1" style="stop-color:#CB91C9"/>
				</linearGradient>
				<path fill="url(#SVGID_69_)" d="M152,292.2l-2.4,12h-0.7l2.4-12H152z"/>
				<linearGradient id="SVGID_70_" gradientUnits="userSpaceOnUse" x1="275.1386" y1="336.6441" x2="65.7327" y2="-26.0576">
					<stop  offset="0.1043" style="stop-color:#686CE9"/>
					<stop  offset="0.3476" style="stop-color:#946CE9"/>
					<stop  offset="0.6498" style="stop-color:#B66DD5"/>
					<stop  offset="0.8717" style="stop-color:#CB6EC9"/>
					<stop  offset="1" style="stop-color:#CB91C9"/>
				</linearGradient>
				<path fill="url(#SVGID_70_)" d="M160.9,296.4c0.5,0.4,0.8,1.1,0.8,1.9c0,0.3,0,0.6-0.1,0.9l-1,5h-0.7l1-5
					c0.1-0.3,0.1-0.5,0.1-0.7c0-0.6-0.2-1.1-0.6-1.5c-0.4-0.4-1-0.5-1.7-0.5c-1,0-1.8,0.3-2.6,0.9c-0.7,0.6-1.2,1.4-1.4,2.5
					l-0.9,4.4h-0.7l2.4-12h0.7l-1.1,5.7c0.4-0.7,0.9-1.2,1.5-1.6c0.6-0.4,1.3-0.6,2.1-0.6C159.7,295.7,160.4,296,160.9,296.4z"/>
				<linearGradient id="SVGID_71_" gradientUnits="userSpaceOnUse" x1="275.1386" y1="336.6441" x2="65.7327" y2="-26.0576">
					<stop  offset="0.1043" style="stop-color:#686CE9"/>
					<stop  offset="0.3476" style="stop-color:#946CE9"/>
					<stop  offset="0.6498" style="stop-color:#B66DD5"/>
					<stop  offset="0.8717" style="stop-color:#CB6EC9"/>
					<stop  offset="1" style="stop-color:#CB91C9"/>
				</linearGradient>
				<path fill="url(#SVGID_71_)" d="M165.3,303.8c-0.6-0.3-1-0.8-1.3-1.3c-0.3-0.6-0.5-1.2-0.5-1.9c0-0.9,0.2-1.7,0.6-2.4
					c0.4-0.7,1-1.3,1.7-1.7c0.7-0.4,1.5-0.6,2.3-0.6c0.9,0,1.7,0.2,2.3,0.7c0.6,0.5,1,1.1,1.2,1.9l0.5-2.6h0.7l-1.7,8.4h-0.7
					l0.4-1.9c-0.4,0.6-0.9,1.1-1.6,1.4c-0.6,0.3-1.3,0.5-2,0.5C166.5,304.2,165.9,304.1,165.3,303.8z M169.4,303
					c0.6-0.4,1.1-0.9,1.4-1.5c0.3-0.6,0.5-1.3,0.5-2c0-0.6-0.1-1.2-0.4-1.6s-0.6-0.8-1.1-1.1s-1-0.4-1.7-0.4c-0.7,0-1.3,0.2-1.9,0.5
					c-0.6,0.4-1.1,0.9-1.4,1.5c-0.3,0.6-0.5,1.3-0.5,2.1c0,0.6,0.1,1.2,0.4,1.6c0.3,0.5,0.6,0.8,1.1,1.1c0.5,0.3,1,0.4,1.7,0.4
					C168.1,303.6,168.8,303.4,169.4,303z"/>
				<linearGradient id="SVGID_72_" gradientUnits="userSpaceOnUse" x1="275.1386" y1="336.6441" x2="65.7327" y2="-26.0576">
					<stop  offset="0.1043" style="stop-color:#686CE9"/>
					<stop  offset="0.3476" style="stop-color:#946CE9"/>
					<stop  offset="0.6498" style="stop-color:#B66DD5"/>
					<stop  offset="0.8717" style="stop-color:#CB6EC9"/>
					<stop  offset="1" style="stop-color:#CB91C9"/>
				</linearGradient>
				<path fill="url(#SVGID_72_)" d="M179.6,303.9c-0.6-0.3-1.1-0.7-1.5-1.1l0.4-0.5c0.3,0.4,0.8,0.8,1.3,1s1.1,0.4,1.8,0.4
					c0.7,0,1.2-0.2,1.6-0.5c0.4-0.3,0.6-0.7,0.6-1.3c0-0.3-0.1-0.5-0.3-0.7s-0.4-0.4-0.6-0.5c-0.3-0.1-0.6-0.3-1.1-0.5
					c-0.5-0.2-0.9-0.4-1.2-0.6c-0.3-0.2-0.6-0.4-0.8-0.7c-0.2-0.3-0.3-0.6-0.3-1c0-0.7,0.3-1.3,0.8-1.7c0.5-0.4,1.2-0.6,2-0.6
					c0.6,0,1.1,0.1,1.6,0.3c0.5,0.2,0.9,0.4,1.2,0.7l-0.4,0.5c-0.3-0.3-0.7-0.5-1.1-0.6c-0.4-0.1-0.9-0.2-1.4-0.2
					c-0.6,0-1.1,0.1-1.5,0.4c-0.4,0.3-0.6,0.7-0.6,1.2c0,0.3,0.1,0.5,0.3,0.7c0.2,0.2,0.4,0.4,0.6,0.5c0.3,0.1,0.6,0.3,1,0.5
					c0.5,0.2,0.9,0.4,1.2,0.6c0.3,0.2,0.6,0.4,0.8,0.7c0.2,0.3,0.3,0.6,0.3,1c0,0.7-0.3,1.3-0.8,1.8s-1.3,0.7-2.1,0.7
					C180.9,304.3,180.2,304.2,179.6,303.9z"/>
				<linearGradient id="SVGID_73_" gradientUnits="userSpaceOnUse" x1="275.1386" y1="336.6441" x2="65.7327" y2="-26.0576">
					<stop  offset="0.1043" style="stop-color:#686CE9"/>
					<stop  offset="0.3476" style="stop-color:#946CE9"/>
					<stop  offset="0.6498" style="stop-color:#B66DD5"/>
					<stop  offset="0.8717" style="stop-color:#CB6EC9"/>
					<stop  offset="1" style="stop-color:#CB91C9"/>
				</linearGradient>
				<path fill="url(#SVGID_73_)" d="M187,300.2v0.2c0,1,0.3,1.7,0.9,2.3c0.6,0.6,1.3,0.9,2.3,0.9c0.6,0,1.1-0.1,1.6-0.3
					c0.5-0.2,0.9-0.5,1.3-0.8l0.4,0.5c-0.4,0.4-0.9,0.7-1.5,0.9c-0.6,0.2-1.2,0.3-1.8,0.3c-0.7,0-1.4-0.2-2-0.5
					c-0.6-0.3-1-0.8-1.3-1.4c-0.3-0.6-0.5-1.2-0.5-2c0-0.9,0.2-1.7,0.6-2.4c0.4-0.7,1-1.3,1.6-1.7c0.7-0.4,1.5-0.6,2.3-0.6
					c0.7,0,1.3,0.2,1.9,0.5c0.5,0.3,0.9,0.7,1.2,1.3c0.3,0.6,0.4,1.2,0.4,1.9c0,0.2,0,0.5,0,0.7H187z M188.4,297.3
					c-0.7,0.6-1.1,1.4-1.3,2.3h6.8c0-1-0.2-1.7-0.8-2.3c-0.5-0.6-1.3-0.9-2.2-0.9C189.9,296.4,189.1,296.7,188.4,297.3z"/>
				<linearGradient id="SVGID_74_" gradientUnits="userSpaceOnUse" x1="275.1386" y1="336.6441" x2="65.7327" y2="-26.0576">
					<stop  offset="0.1043" style="stop-color:#686CE9"/>
					<stop  offset="0.3476" style="stop-color:#946CE9"/>
					<stop  offset="0.6498" style="stop-color:#B66DD5"/>
					<stop  offset="0.8717" style="stop-color:#CB6EC9"/>
					<stop  offset="1" style="stop-color:#CB91C9"/>
				</linearGradient>
				<path fill="url(#SVGID_74_)" d="M197.1,303.5c-0.5-0.4-0.7-1.1-0.7-1.9c0-0.3,0-0.6,0.1-0.9l1-5h0.7l-1,5
					c-0.1,0.3-0.1,0.5-0.1,0.7c0,0.6,0.2,1.1,0.6,1.5c0.4,0.4,1,0.5,1.7,0.5c1,0,1.8-0.3,2.6-0.9c0.7-0.6,1.2-1.4,1.4-2.5l0.9-4.4
					h0.7l-1.7,8.4h-0.7l0.4-2.1c-0.4,0.7-0.9,1.2-1.5,1.6s-1.3,0.6-2.1,0.6C198.3,304.2,197.6,304,197.1,303.5z"/>
				<linearGradient id="SVGID_75_" gradientUnits="userSpaceOnUse" x1="275.1386" y1="336.6441" x2="65.7327" y2="-26.0576">
					<stop  offset="0.1043" style="stop-color:#686CE9"/>
					<stop  offset="0.3476" style="stop-color:#946CE9"/>
					<stop  offset="0.6498" style="stop-color:#B66DD5"/>
					<stop  offset="0.8717" style="stop-color:#CB6EC9"/>
					<stop  offset="1" style="stop-color:#CB91C9"/>
				</linearGradient>
				<path fill="url(#SVGID_75_)" d="M218.7,296.2c0.6,0.3,1,0.7,1.3,1.3c0.3,0.6,0.5,1.2,0.5,1.9c0,0.9-0.2,1.7-0.6,2.4
					c-0.4,0.7-1,1.3-1.7,1.7c-0.7,0.4-1.5,0.6-2.3,0.6c-0.9,0-1.7-0.2-2.3-0.7c-0.6-0.5-1-1.1-1.2-1.9l-1.1,5.7h-0.7l2.3-11.5h0.7
					l-0.4,1.9c0.4-0.6,0.9-1.1,1.6-1.4s1.3-0.5,2-0.5C217.5,295.7,218.1,295.9,218.7,296.2z M214.7,296.9c-0.6,0.4-1.1,0.9-1.4,1.5
					c-0.3,0.6-0.5,1.3-0.5,2c0,0.6,0.1,1.2,0.4,1.6s0.6,0.8,1.1,1.1c0.5,0.3,1,0.4,1.7,0.4c0.7,0,1.3-0.2,1.9-0.5s1.1-0.9,1.4-1.5
					c0.3-0.6,0.5-1.3,0.5-2.1c0-0.6-0.1-1.2-0.4-1.6s-0.6-0.8-1.1-1.1c-0.5-0.3-1-0.4-1.7-0.4C215.9,296.4,215.2,296.5,214.7,296.9z
					"/>
				<linearGradient id="SVGID_76_" gradientUnits="userSpaceOnUse" x1="275.1386" y1="336.6441" x2="65.7327" y2="-26.0576">
					<stop  offset="0.1043" style="stop-color:#686CE9"/>
					<stop  offset="0.3476" style="stop-color:#946CE9"/>
					<stop  offset="0.6498" style="stop-color:#B66DD5"/>
					<stop  offset="0.8717" style="stop-color:#CB6EC9"/>
					<stop  offset="1" style="stop-color:#CB91C9"/>
				</linearGradient>
				<path fill="url(#SVGID_76_)" d="M225.5,296.3c0.6-0.4,1.3-0.6,2-0.6l-0.1,0.7c-0.9,0-1.7,0.3-2.4,0.8c-0.7,0.6-1.2,1.3-1.4,2.3
					l-0.9,4.5h-0.7l1.7-8.4h0.7l-0.4,2.1C224.4,297.2,224.9,296.7,225.5,296.3z"/>
				<linearGradient id="SVGID_77_" gradientUnits="userSpaceOnUse" x1="275.1386" y1="336.6441" x2="65.7327" y2="-26.0576">
					<stop  offset="0.1043" style="stop-color:#686CE9"/>
					<stop  offset="0.3476" style="stop-color:#946CE9"/>
					<stop  offset="0.6498" style="stop-color:#B66DD5"/>
					<stop  offset="0.8717" style="stop-color:#CB6EC9"/>
					<stop  offset="1" style="stop-color:#CB91C9"/>
				</linearGradient>
				<path fill="url(#SVGID_77_)" d="M234.2,296.2c0.6,0.3,1,0.8,1.3,1.4c0.3,0.6,0.5,1.2,0.5,2c0,0.9-0.2,1.7-0.6,2.4
					s-1,1.3-1.7,1.7c-0.7,0.4-1.5,0.6-2.3,0.6c-0.7,0-1.4-0.2-2-0.5c-0.6-0.3-1-0.8-1.3-1.4c-0.3-0.6-0.5-1.2-0.5-2
					c0-0.9,0.2-1.7,0.6-2.4s1-1.3,1.7-1.7s1.5-0.6,2.3-0.6C233,295.8,233.7,295.9,234.2,296.2z M230.3,296.9c-0.6,0.3-1,0.8-1.4,1.4
					c-0.3,0.6-0.5,1.3-0.5,2c0,0.6,0.1,1.2,0.4,1.7c0.3,0.5,0.6,0.9,1.1,1.1s1,0.4,1.6,0.4c0.7,0,1.4-0.2,2-0.5
					c0.6-0.3,1.1-0.8,1.4-1.4c0.3-0.6,0.5-1.3,0.5-2c0-0.6-0.1-1.2-0.4-1.7c-0.3-0.5-0.6-0.9-1.1-1.1c-0.5-0.3-1-0.4-1.6-0.4
					C231.5,296.4,230.8,296.6,230.3,296.9z"/>
				<linearGradient id="SVGID_78_" gradientUnits="userSpaceOnUse" x1="275.1386" y1="336.6441" x2="65.7327" y2="-26.0576">
					<stop  offset="0.1043" style="stop-color:#686CE9"/>
					<stop  offset="0.3476" style="stop-color:#946CE9"/>
					<stop  offset="0.6498" style="stop-color:#B66DD5"/>
					<stop  offset="0.8717" style="stop-color:#CB6EC9"/>
					<stop  offset="1" style="stop-color:#CB91C9"/>
				</linearGradient>
				<path fill="url(#SVGID_78_)" d="M239.3,303.8c-0.6-0.3-1-0.8-1.3-1.3c-0.3-0.6-0.5-1.2-0.5-1.9c0-0.9,0.2-1.7,0.6-2.4
					c0.4-0.7,1-1.3,1.7-1.7c0.7-0.4,1.5-0.6,2.3-0.6c0.9,0,1.7,0.2,2.3,0.7s1,1.1,1.2,1.9l1.2-6.2h0.7l-2.4,12h-0.7l0.4-1.9
					c-0.4,0.6-0.9,1.1-1.6,1.4s-1.3,0.5-2,0.5C240.5,304.2,239.9,304.1,239.3,303.8z M243.4,303c0.6-0.4,1.1-0.9,1.4-1.5
					s0.5-1.3,0.5-2c0-0.6-0.1-1.2-0.4-1.6s-0.6-0.8-1.1-1.1c-0.5-0.3-1-0.4-1.7-0.4c-0.7,0-1.3,0.2-1.9,0.5s-1.1,0.9-1.4,1.5
					c-0.3,0.6-0.5,1.3-0.5,2.1c0,0.6,0.1,1.2,0.4,1.6c0.3,0.5,0.6,0.8,1.1,1.1c0.5,0.3,1,0.4,1.7,0.4
					C242.1,303.6,242.8,303.4,243.4,303z"/>
				<linearGradient id="SVGID_79_" gradientUnits="userSpaceOnUse" x1="275.1386" y1="336.6441" x2="65.7327" y2="-26.0576">
					<stop  offset="0.1043" style="stop-color:#686CE9"/>
					<stop  offset="0.3476" style="stop-color:#946CE9"/>
					<stop  offset="0.6498" style="stop-color:#B66DD5"/>
					<stop  offset="0.8717" style="stop-color:#CB6EC9"/>
					<stop  offset="1" style="stop-color:#CB91C9"/>
				</linearGradient>
				<path fill="url(#SVGID_79_)" d="M249.6,303.5c-0.5-0.4-0.7-1.1-0.7-1.9c0-0.3,0-0.6,0.1-0.9l1-5h0.7l-1,5
					c-0.1,0.3-0.1,0.5-0.1,0.7c0,0.6,0.2,1.1,0.6,1.5c0.4,0.4,1,0.5,1.7,0.5c1,0,1.8-0.3,2.6-0.9c0.7-0.6,1.2-1.4,1.4-2.5l0.9-4.4
					h0.7l-1.7,8.4H255l0.4-2.1c-0.4,0.7-0.9,1.2-1.5,1.6s-1.3,0.6-2.1,0.6C250.9,304.2,250.1,304,249.6,303.5z"/>
				<linearGradient id="SVGID_80_" gradientUnits="userSpaceOnUse" x1="275.1386" y1="336.6441" x2="65.7327" y2="-26.0576">
					<stop  offset="0.1043" style="stop-color:#686CE9"/>
					<stop  offset="0.3476" style="stop-color:#946CE9"/>
					<stop  offset="0.6498" style="stop-color:#B66DD5"/>
					<stop  offset="0.8717" style="stop-color:#CB6EC9"/>
					<stop  offset="1" style="stop-color:#CB91C9"/>
				</linearGradient>
				<path fill="url(#SVGID_80_)" d="M260.5,301.8c-0.1,0.3-0.1,0.5-0.1,0.7c0,0.7,0.3,1,1,1c0.5,0,1.1-0.2,1.6-0.5l0.2,0.6
					c-0.6,0.4-1.2,0.6-1.9,0.6c-0.5,0-0.9-0.1-1.1-0.4c-0.3-0.3-0.4-0.7-0.4-1.2c0-0.2,0-0.5,0.1-0.8l1-5.3h-1.2l0.1-0.6h1.2
					l0.4-2.1h0.7l-0.4,2.1h2.9l-0.1,0.6h-2.9L260.5,301.8z"/>
				<linearGradient id="SVGID_81_" gradientUnits="userSpaceOnUse" x1="275.1386" y1="336.6441" x2="65.7327" y2="-26.0576">
					<stop  offset="0.1043" style="stop-color:#686CE9"/>
					<stop  offset="0.3476" style="stop-color:#946CE9"/>
					<stop  offset="0.6498" style="stop-color:#B66DD5"/>
					<stop  offset="0.8717" style="stop-color:#CB6EC9"/>
					<stop  offset="1" style="stop-color:#CB91C9"/>
				</linearGradient>
				<path fill="url(#SVGID_81_)" d="M271.4,296.2c0.6,0.3,1,0.8,1.3,1.4c0.3,0.6,0.5,1.2,0.5,2c0,0.9-0.2,1.7-0.6,2.4
					s-1,1.3-1.7,1.7c-0.7,0.4-1.5,0.6-2.3,0.6c-0.7,0-1.4-0.2-2-0.5c-0.6-0.3-1-0.8-1.3-1.4c-0.3-0.6-0.5-1.2-0.5-2
					c0-0.9,0.2-1.7,0.6-2.4s1-1.3,1.7-1.7s1.5-0.6,2.3-0.6C270.2,295.8,270.8,295.9,271.4,296.2z M267.4,296.9
					c-0.6,0.3-1,0.8-1.4,1.4c-0.3,0.6-0.5,1.3-0.5,2c0,0.6,0.1,1.2,0.4,1.7c0.3,0.5,0.6,0.9,1.1,1.1s1,0.4,1.6,0.4
					c0.7,0,1.4-0.2,2-0.5c0.6-0.3,1.1-0.8,1.4-1.4c0.3-0.6,0.5-1.3,0.5-2c0-0.6-0.1-1.2-0.4-1.7c-0.3-0.5-0.6-0.9-1.1-1.1
					c-0.5-0.3-1-0.4-1.6-0.4C268.7,296.4,268,296.6,267.4,296.9z"/>
			</g>
		</g>
	</g>
	<g>
		<path id="Fundo_20_" fill="#F8F0FB" d="M53,50.6h252.7c8.2,0,14.9,6.7,14.9,14.9v236.2c0,8.2-6.7,14.9-14.9,14.9H67.9
			c-8.2,0-14.9-6.7-14.9-14.9V50.6z"/>
		<circle id="Etapa_6_" fill="#946CE9" cx="29" cy="29" r="29.3"/>
		<g>
			<path fill="#FFFFFF" stroke="#FFFFFF" stroke-miterlimit="10" d="M22.6,21.9l8.3-8.3v0.7l-8.3,8.3V21.9z M30.8,19.2v27.1h-0.4
				v-26l-3.5,3.5v22.5h-0.4V24.2l-3.9,3.9v-0.7L30.8,19.2z"/>
		</g>
		<g id="Computador_6_">
			<g id="Monitor_6_">
				<g id="Estrutura_20_">
					
						<line id="Base_6_" fill="none" stroke="#1B1B1B" stroke-width="2.5" stroke-miterlimit="10" x1="138" y1="280.5" x2="235.1" y2="280.5"/>
					<polygon id="Braço_7_" fill="#1B1B1B" points="213.8,278.7 160.1,278.7 162.3,245.6 211.6,245.6 					"/>
					<path id="Tela_7_" fill="#1B1B1B" d="M305.8,245H67.3c-2.6,0-4.8-2.1-4.8-4.8v-172c0-2.6,2.1-4.8,4.8-4.8h238.4
						c2.6,0,4.8,2.1,4.8,4.8v172C310.6,242.9,308.4,245,305.8,245z"/>
				</g>
				
					<rect id="Background_6_" x="69.5" y="70.4" fill="#FFF6FF" stroke="#000000" stroke-miterlimit="10" width="234.4" height="167.6"/>
				<circle id="On_x2F_Off_6_" fill="#946CE9" stroke="#946CE9" stroke-miterlimit="10" cx="186.6" cy="241.4" r="1.4"/>
			</g>
			<g id="Tenda_6_">
				<g id="Header_7_">
					<rect x="70" y="70.9" fill="#333333" width="233.3" height="14.4"/>
					<path fill="#1B1B1B" d="M303.3,86.3H70.5c-0.3,0-0.5-0.2-0.5-0.5v-1.2h233.3V86.3z"/>
					<path fill="#FFF6FF" d="M146.9,81.3H80.4c-1.1,0-1.9-0.9-1.9-1.9V78c0-1.1,0.9-1.9,1.9-1.9h66.6c1.1,0,1.9,0.9,1.9,1.9v1.4
						C148.9,80.5,148,81.3,146.9,81.3z"/>
					<path fill="#FFF6FF" d="M237.5,70.9h65.8v13.6h-63.5c-1.3,0-2.4-1.1-2.4-2.4V70.9z"/>
					<ellipse fill="none" stroke="#76DD63" stroke-width="2.5" stroke-miterlimit="10" cx="283" cy="79.4" rx="0.5" ry="0.6"/>
					<ellipse fill="none" stroke="#FFDD63" stroke-width="2.5" stroke-miterlimit="10" cx="289" cy="79.4" rx="0.5" ry="0.6"/>
					<ellipse stroke="#FF2E63" stroke-width="2.5" stroke-miterlimit="10" cx="295" cy="79.4" rx="0.5" ry="0.6"/>
				</g>
				<g id="Black_6_">
					<polygon id="Fundo_19_" fill="#1B1B1B" points="315.6,124.4 57.8,124.4 70.1,85.6 303.2,85.6 					"/>
					<g id="Bandeiras_13_">
						<path fill="#1B1B1B" d="M315.5,125.2c-0.5,7.9-8.9,14.2-19.2,14.2c-10.3,0-18.7-6.3-19.2-14.2H315.5z"/>
						<path fill="#1B1B1B" d="M57.6,125.2H96c-0.5,7.9-8.9,14.2-19.2,14.2C66.5,139.5,58.1,133.2,57.6,125.2z"/>
						<path fill="#1B1B1B" d="M206.2,125.2H241c-0.4,7.2-8,13-17.4,13C214.2,138.2,206.6,132.5,206.2,125.2z"/>
						<path fill="#1B1B1B" d="M132.3,125.2h34.8c-0.4,7.2-8,13-17.4,13C140.3,138.2,132.7,132.5,132.3,125.2z"/>
					</g>
				</g>
				<g id="Degrade_6_">
					<g id="Fundo_18_">
						<linearGradient id="SVGID_82_" gradientUnits="userSpaceOnUse" x1="169.4725" y1="126.5586" x2="204.1715" y2="88.0215">
							<stop  offset="0.1043" style="stop-color:#686CE9"/>
							<stop  offset="0.3476" style="stop-color:#946CE9"/>
							<stop  offset="0.6498" style="stop-color:#B66DD5"/>
							<stop  offset="0.8717" style="stop-color:#CB6EC9"/>
							<stop  offset="1" style="stop-color:#CB91C9"/>
						</linearGradient>
						<polygon fill="url(#SVGID_82_)" points="206.2,124.5 167.1,124.5 171.5,85.6 201.5,85.6 						"/>
						<linearGradient id="SVGID_83_" gradientUnits="userSpaceOnUse" x1="239.3673" y1="122.89" x2="270.6151" y2="88.1858">
							<stop  offset="0.1043" style="stop-color:#686CE9"/>
							<stop  offset="0.3476" style="stop-color:#946CE9"/>
							<stop  offset="0.6498" style="stop-color:#B66DD5"/>
							<stop  offset="0.8717" style="stop-color:#CB6EC9"/>
							<stop  offset="1" style="stop-color:#CB91C9"/>
						</linearGradient>
						<polygon fill="url(#SVGID_83_)" points="277,124.4 241.1,124.4 233.9,85.6 267.8,85.6 						"/>
						<linearGradient id="SVGID_84_" gradientUnits="userSpaceOnUse" x1="98.6743" y1="126.9773" x2="137.2823" y2="84.0988">
							<stop  offset="0.1043" style="stop-color:#686CE9"/>
							<stop  offset="0.3476" style="stop-color:#946CE9"/>
							<stop  offset="0.6498" style="stop-color:#B66DD5"/>
							<stop  offset="0.8717" style="stop-color:#CB6EC9"/>
							<stop  offset="1" style="stop-color:#CB91C9"/>
						</linearGradient>
						<polygon fill="url(#SVGID_84_)" points="95.8,124.4 131.8,124.4 139,85.6 105.1,85.6 						"/>
					</g>
					<g id="Bandeiras_12_">
						<linearGradient id="SVGID_85_" gradientUnits="userSpaceOnUse" x1="176.3861" y1="138.8857" x2="196.512" y2="116.5337">
							<stop  offset="0.1043" style="stop-color:#686CE9"/>
							<stop  offset="0.3476" style="stop-color:#946CE9"/>
							<stop  offset="0.6498" style="stop-color:#B66DD5"/>
							<stop  offset="0.8717" style="stop-color:#CB6EC9"/>
							<stop  offset="1" style="stop-color:#CB91C9"/>
						</linearGradient>
						<path fill="url(#SVGID_85_)" d="M167.2,125.2h39c-0.2,8.2-8.9,14.9-19.5,14.9C176,140.1,167.4,133.5,167.2,125.2z"/>
						<linearGradient id="SVGID_86_" gradientUnits="userSpaceOnUse" x1="104.7173" y1="137.6027" x2="123.1252" y2="117.1587">
							<stop  offset="0.1043" style="stop-color:#686CE9"/>
							<stop  offset="0.3476" style="stop-color:#946CE9"/>
							<stop  offset="0.6498" style="stop-color:#B66DD5"/>
							<stop  offset="0.8717" style="stop-color:#CB6EC9"/>
							<stop  offset="1" style="stop-color:#CB91C9"/>
						</linearGradient>
						<path fill="url(#SVGID_86_)" d="M96.2,125.2h35.9c-0.4,7.5-8.3,13.4-18,13.4C104.4,138.7,96.5,132.7,96.2,125.2z"/>
						<linearGradient id="SVGID_87_" gradientUnits="userSpaceOnUse" x1="249.6002" y1="137.6027" x2="268.0081" y2="117.1587">
							<stop  offset="0.1043" style="stop-color:#686CE9"/>
							<stop  offset="0.3476" style="stop-color:#946CE9"/>
							<stop  offset="0.6498" style="stop-color:#B66DD5"/>
							<stop  offset="0.8717" style="stop-color:#CB6EC9"/>
							<stop  offset="1" style="stop-color:#CB91C9"/>
						</linearGradient>
						<path fill="url(#SVGID_87_)" d="M241,125.2H277c-0.4,7.5-8.3,13.4-18,13.4C249.3,138.7,241.4,132.7,241,125.2z"/>
					</g>
				</g>
			</g>
			<g id="Products_6_">
				<g id="Camisa_6_">
					<g id="Estrutura_19_">
						<path fill="#946CE9" stroke="#000000" stroke-miterlimit="10" d="M152.8,208.9c2,0,3.6-1.8,3.6-3.9v5.1c0,1.7-1.4,3-3.1,3
							h-45.5c-1.7,0-3.1-1.3-3.1-3v-5.1c0,2.2,1.6,3.9,3.6,3.9h5.3"/>
						<path fill="#1B1B1B" stroke="#000000" stroke-width="1.5" stroke-miterlimit="10" d="M167.2,155.8l-5.1,6.4
							c-0.7,0.8-1.9,1-2.8,0.3l-2.9-2.2v44.6c0,2.2-1.6,3.9-3.6,3.9c0,0-28.8,0-23.1,0h-15.9c0,0-5.5,0-5.5,0c-2,0-3.6-1.8-3.6-3.9
							v-44.7l-3,2.3c-0.9,0.7-2.1,0.5-2.8-0.3l-5.1-6.4c-0.7-0.8-0.5-2.1,0.3-2.7l12.4-9.5c0.4-0.3,1-0.5,1.5-0.4h0
							c0.1,0,0.2,0,0.4,0h8.6c0,1.5,0.2,2.9,0.7,4.2c0,0.1,0,0.1,0.1,0.2c1.8,5,6.8,8.7,12.6,8.7c5.8,0,10.7-3.6,12.6-8.7
							c0-0.1,0-0.1,0.1-0.2c0.5-1.3,0.7-2.7,0.7-4.2h9.2c0.1,0,0.2,0,0.3,0c0.5,0,1,0.1,1.4,0.4l12.4,9.5
							C167.7,153.7,167.8,154.9,167.2,155.8z"/>
						<path fill="#946CE9" stroke="#000000" stroke-miterlimit="10" d="M167.2,155.5l-5.5,7c-0.6,0.7-1.6,0.9-2.3,0.3l-0.3-0.2
							c-0.2-0.1-0.3-0.3-0.5-0.5l7.5-9.3c0.2,0.1,0.3,0.1,0.4,0.2l0.3,0.2C167.7,153.7,167.8,154.8,167.2,155.5z"/>
						<path fill="#946CE9" stroke="#000000" stroke-miterlimit="10" d="M93.6,155.5l5.5,7c0.6,0.7,1.6,0.9,2.3,0.3l0.3-0.2
							c0.2-0.1,0.3-0.3,0.5-0.5l-7.5-9.3c-0.2,0.1-0.3,0.1-0.4,0.2l-0.3,0.2C93.1,153.7,93,154.8,93.6,155.5z"/>
						<path fill="#946CE9" d="M143,142.8c0,1.4-0.2,2.8-0.7,4c0,0.1,0,0.1-0.1,0.2c-1.8,4.8-6.5,8.3-12.1,8.3
							c-5.6,0-10.3-3.5-12.1-8.3c0-0.1,0-0.1-0.1-0.2c-0.4-1.3-0.7-2.6-0.7-4h2.3c0,0.1,0,0.1,0,0.2c0,1.4,0.3,2.6,0.8,3.8
							c0,0.1,0,0.1,0.1,0.2c1.6,3.6,5.2,6.1,9.5,6.1c4.2,0,7.9-2.5,9.5-6.1c0-0.1,0-0.1,0.1-0.2c0.5-1.2,0.8-2.5,0.8-3.8
							c0-0.1,0-0.1,0-0.2H143z"/>
						<path fill="#333333" d="M140.3,143.6c0,1.3-0.3,2.6-0.8,3.8c-1.6,3.4-5.2,5.8-9.4,5.8c-4.2,0-7.9-2.4-9.4-5.8
							c-0.5-1.2-0.8-2.4-0.8-3.8c0-0.1,0-0.1,0-0.2h20.6C140.3,143.5,140.3,143.5,140.3,143.6z"/>
						
							<line fill="#333333" stroke="#000000" stroke-width="1.5" stroke-miterlimit="10" x1="116.9" y1="143.1" x2="143.6" y2="143.1"/>
					</g>
					<path id="Add_7_" fill="#946CE9" d="M143.1,175.4v1.5c0,0.6-0.5,1.1-1.1,1.1h-9.7v9.5c0,0.6-0.5,1.1-1.1,1.1h-1.6
						c-0.6,0-1.1-0.5-1.1-1.1V178h-9.7c-0.6,0-1.1-0.5-1.1-1.1v-1.5c0-0.6,0.5-1.1,1.1-1.1h9.7v-9.5c0-0.6,0.5-1.1,1.1-1.1h1.6
						c0.6,0,1.1,0.5,1.1,1.1v9.5h9.7C142.6,174.3,143.1,174.7,143.1,175.4z"/>
				</g>
				<g id="Caneca_6_">
					<g id="Estrutura_18_">
						<path fill="#F8F0FB" stroke="#000000" stroke-miterlimit="10" d="M161.1,199v6.3c0,0.5-0.4,0.9-0.9,0.9h-3v-8.1h3
							C160.6,198.1,161.1,198.5,161.1,199z"/>
						<path fill="#F8F0FB" stroke="#000000" stroke-miterlimit="10" d="M155.8,193.8C155.9,193.8,155.9,193.8,155.8,193.8
							c-1-0.3-4.7-1.1-7.5-1.1c-3.3,0-6.9,0.8-8,1c-0.1,0,3.5,1.1,5.2,1.1c0.6,0,2.8,0,2.8,0c0,0,0,0,0,0
							C149.9,194.9,155.8,193.8,155.8,193.8z"/>
						<path fill="#F8F0FB" stroke="#000000" stroke-miterlimit="10" d="M157.2,195.1V212c0,0.7-0.6,1.3-1.4,1.3c0,0-3.6,1.1-7.5,1.1
							c-4.4,0-8.1-1.1-8.1-1.1c-0.8,0-1.4-0.6-1.4-1.3v-16.8c0-0.7,0.6-1.3,1.4-1.3c0,0,4.2,1.1,7.5,1.1c2.8,0,8.1-1.1,8.1-1.1
							C156.5,193.8,157.2,194.4,157.2,195.1z"/>
					</g>
					<g>
						<path fill="#946CE9" d="M154,203.7c0,0.2,0,0.5,0.1,0.7c0,0.3-0.2,0.5-0.5,0.5c-1.6,0.1-3.2,0.2-4.9,0.2c0,1.5,0,2.9,0.1,4.4
							c0,0.3-0.3,0.5-0.6,0.5c-0.3,0-0.6,0-0.8,0c-0.3,0-0.6-0.2-0.6-0.5c0-1.5,0-2.9,0.1-4.4c-1.6,0-3.2-0.1-4.9-0.2
							c-0.3,0-0.5-0.3-0.5-0.5c0-0.2,0-0.5,0.1-0.7c0-0.3,0.3-0.5,0.6-0.5c1.6,0.1,3.2,0.2,4.7,0.2c0-1.5,0-2.9,0.1-4.4
							c0-0.3,0.2-0.5,0.5-0.5c0.2,0,0.5,0,0.7,0c0.3,0,0.5,0.2,0.5,0.5c0,1.5,0,2.9,0.1,4.4c1.6,0,3.2-0.1,4.7-0.2
							C153.7,203.2,154,203.4,154,203.7z"/>
					</g>
				</g>
			</g>
			<g id="Texts_6_">
				<rect id="p_20_" x="183.9" y="152.9" fill="#CCCCCC" width="92.8" height="3.1"/>
				<rect id="p_19_" x="183.9" y="161.6" fill="#CCCCCC" width="92.8" height="3.1"/>
				<rect id="p_18_" x="183.9" y="170.2" fill="#CCCCCC" width="92.8" height="3.1"/>
				<rect id="Tittle_6_" x="183.9" y="144.2" fill="#606060" width="34.1" height="3.2"/>
			</g>
			<g id="Buttons_6_">
				<path id="Button_2_6_" fill="#946CE9" d="M275.3,189.1h-27.6c-0.6,0-1.1-0.5-1.1-1.1v-7c0-0.6,0.5-1.1,1.1-1.1h27.6
					c0.6,0,1.1,0.5,1.1,1.1v7C276.5,188.6,276,189.1,275.3,189.1z"/>
				<path id="Button_1_6_" fill="#606060" d="M242.3,189.1h-27.6c-0.6,0-1.1-0.5-1.1-1.1v-7c0-0.6,0.5-1.1,1.1-1.1h27.6
					c0.6,0,1.1,0.5,1.1,1.1v7C243.4,188.6,242.9,189.1,242.3,189.1z"/>
			</g>
			<path id="Mouse_6_" fill="#464646" d="M223.6,187.2c0.1,0.1,0.2,0,0.4,0c0.9,0.1,1.7,0.8,2,1.8c0.3,1.5,0.6,3.1,1,4.6
				c0,0.2,0.1,0.2,0.2,0.1c0.8-0.4,1.7-0.3,2.4,0.4c0.1,0.1,0.2,0.1,0.3,0c1-0.8,2.5-0.5,3.2,0.7c0.1,0.2,0.1,0.2,0.3,0.1
				c1.3-0.7,2.9,0.1,3.2,1.6c0.3,1.3,0.6,2.7,0.8,4c0.5,2.6-0.1,4.8-1.7,6.8c-1,1.2-2.3,2-3.9,2.3c-0.8,0.2-1.5,0.4-2.3,0.4
				c-2.2,0.2-4.2-0.5-5.9-2.2c-1.5-1.5-2.9-3.1-4.4-4.7c-0.8-0.8-0.8-2-0.1-2.9c1.1-1.3,3.1-1.5,4.5-0.4c0.1,0,0.1,0.1,0.2,0.2
				c0-0.1,0-0.2-0.1-0.3c-0.7-3.2-1.3-6.5-2-9.7c-0.3-1.4,0.1-2.3,1.3-2.9c0,0,0,0,0,0C223.2,187.3,223.4,187.2,223.6,187.2z
				 M224.3,195.9c0.4,2,0.8,4.1,1.2,6.1c0,0.1,0,0.2,0,0.3c0,0.3-0.1,0.6-0.4,0.7c-0.3,0.1-0.6,0.1-0.8-0.1c-0.5-0.5-1.1-1-1.6-1.5
				c-0.8-0.7-2-0.7-2.6,0.1c-0.2,0.2-0.2,0.5,0,0.7c1.5,1.6,3,3.2,4.5,4.8c1.3,1.3,2.8,1.8,4.5,1.6c0.8-0.1,1.5-0.3,2.3-0.4
				c0.9-0.2,1.8-0.6,2.5-1.3c1.5-1.4,2.2-3.2,2-5.3c0-0.1,0-0.2,0-0.3c-0.3-1.4-0.6-2.8-0.9-4.2c-0.1-0.5-0.5-0.7-0.9-0.7
				c-0.4,0.1-0.6,0.5-0.6,0.9c0,0.2,0.1,0.5,0.1,0.7c0,0.1,0,0.3,0,0.4c-0.1,0.4-0.4,0.6-0.7,0.6c-0.3,0-0.6-0.2-0.7-0.6
				c-0.2-0.8-0.3-1.5-0.5-2.3c-0.1-0.5-0.4-0.7-0.8-0.7c-0.5,0.1-0.7,0.4-0.6,1c0.1,0.5,0.2,1,0.3,1.5c0.1,0.4,0,0.7-0.3,0.9
				c-0.4,0.3-1,0-1.1-0.6c-0.2-0.7-0.3-1.4-0.4-2.2c0-0.1,0-0.2-0.1-0.4c-0.2-0.3-0.6-0.5-0.9-0.4c-0.3,0.1-0.5,0.5-0.4,0.9
				c0.1,0.5,0.2,1,0.3,1.5c0.1,0.3-0.1,0.7-0.3,0.8c-0.5,0.3-1,0-1.1-0.6c-0.6-2.8-1.1-5.5-1.7-8.3c0-0.1,0-0.2-0.1-0.2
				c-0.1-0.3-0.3-0.5-0.6-0.6c-0.5-0.1-0.9,0.4-0.8,1C223.5,191.8,223.9,193.8,224.3,195.9z"/>
		</g>
		<g>
			<g>
				<path d="M121.9,293.6h-6.6l-0.9,4.5h5.9l-0.1,0.7h-5.9l-1,4.8h6.8l-0.1,0.7h-7.5l2.3-11.3h7.3L121.9,293.6z"/>
				<path d="M123.2,303.9c-0.6-0.3-1.1-0.7-1.5-1.1l0.4-0.5c0.3,0.4,0.8,0.8,1.3,1c0.5,0.2,1.1,0.4,1.8,0.4c0.7,0,1.2-0.2,1.6-0.5
					c0.4-0.3,0.6-0.7,0.6-1.3c0-0.3-0.1-0.5-0.3-0.7s-0.4-0.4-0.6-0.5c-0.3-0.1-0.6-0.3-1.1-0.5c-0.5-0.2-0.9-0.4-1.2-0.6
					c-0.3-0.2-0.6-0.4-0.8-0.7c-0.2-0.3-0.3-0.6-0.3-1c0-0.7,0.3-1.3,0.8-1.7c0.5-0.4,1.2-0.6,2-0.6c0.6,0,1.1,0.1,1.6,0.3
					c0.5,0.2,0.9,0.4,1.2,0.7l-0.4,0.5c-0.3-0.3-0.7-0.5-1.1-0.6c-0.4-0.1-0.9-0.2-1.4-0.2c-0.6,0-1.1,0.1-1.5,0.4
					c-0.4,0.3-0.6,0.7-0.6,1.2c0,0.3,0.1,0.5,0.3,0.7c0.2,0.2,0.4,0.4,0.6,0.5c0.3,0.1,0.6,0.3,1,0.5c0.5,0.2,0.9,0.4,1.2,0.6
					c0.3,0.2,0.6,0.4,0.8,0.7s0.3,0.6,0.3,1c0,0.7-0.3,1.3-0.8,1.8c-0.6,0.4-1.3,0.7-2.1,0.7C124.5,304.3,123.8,304.2,123.2,303.9z"
					/>
				<path d="M131.8,303.7c-0.6-0.3-1-0.8-1.3-1.3s-0.5-1.2-0.5-2c0-0.9,0.2-1.7,0.6-2.4c0.4-0.7,1-1.3,1.6-1.7
					c0.7-0.4,1.5-0.6,2.3-0.6c0.6,0,1.1,0.1,1.6,0.3s0.9,0.5,1.3,0.9l-0.4,0.5c-0.6-0.7-1.5-1-2.5-1c-0.7,0-1.4,0.2-2,0.5
					c-0.6,0.3-1.1,0.8-1.4,1.4c-0.3,0.6-0.5,1.3-0.5,2c0,0.6,0.1,1.2,0.4,1.7s0.6,0.9,1.1,1.1c0.5,0.3,1,0.4,1.6,0.4
					c0.6,0,1.1-0.1,1.6-0.3c0.5-0.2,0.9-0.5,1.3-0.9l0.4,0.4c-0.4,0.4-0.9,0.8-1.5,1c-0.6,0.2-1.2,0.4-1.8,0.4
					C133,304.2,132.3,304,131.8,303.7z"/>
				<path d="M145.4,296.2c0.6,0.3,1,0.8,1.3,1.4s0.5,1.2,0.5,2c0,0.9-0.2,1.7-0.6,2.4c-0.4,0.7-1,1.3-1.7,1.7s-1.5,0.6-2.3,0.6
					c-0.7,0-1.4-0.2-2-0.5c-0.6-0.3-1-0.8-1.3-1.4c-0.3-0.6-0.5-1.2-0.5-2c0-0.9,0.2-1.7,0.6-2.4s1-1.3,1.7-1.7
					c0.7-0.4,1.5-0.6,2.3-0.6C144.2,295.8,144.9,295.9,145.4,296.2z M141.5,296.9c-0.6,0.3-1,0.8-1.4,1.4c-0.3,0.6-0.5,1.3-0.5,2
					c0,0.6,0.1,1.2,0.4,1.7c0.3,0.5,0.6,0.9,1.1,1.1c0.5,0.3,1,0.4,1.6,0.4c0.7,0,1.4-0.2,2-0.5c0.6-0.3,1.1-0.8,1.4-1.4
					c0.3-0.6,0.5-1.3,0.5-2c0-0.6-0.1-1.2-0.4-1.7c-0.3-0.5-0.6-0.9-1.1-1.1c-0.5-0.3-1-0.4-1.6-0.4
					C142.7,296.4,142,296.6,141.5,296.9z"/>
				<path d="M152,292.2l-2.4,12h-0.7l2.4-12H152z"/>
				<path d="M160.9,296.4c0.5,0.4,0.8,1.1,0.8,1.9c0,0.3,0,0.6-0.1,0.9l-1,5h-0.7l1-5c0.1-0.3,0.1-0.5,0.1-0.7
					c0-0.6-0.2-1.1-0.6-1.5c-0.4-0.4-1-0.5-1.7-0.5c-1,0-1.8,0.3-2.6,0.9c-0.7,0.6-1.2,1.4-1.4,2.5l-0.9,4.4h-0.7l2.4-12h0.7
					l-1.1,5.7c0.4-0.7,0.9-1.2,1.5-1.6c0.6-0.4,1.3-0.6,2.1-0.6C159.7,295.7,160.4,296,160.9,296.4z"/>
				<path d="M165.3,303.8c-0.6-0.3-1-0.8-1.3-1.3c-0.3-0.6-0.5-1.2-0.5-1.9c0-0.9,0.2-1.7,0.6-2.4c0.4-0.7,1-1.3,1.7-1.7
					c0.7-0.4,1.5-0.6,2.3-0.6c0.9,0,1.7,0.2,2.3,0.7c0.6,0.5,1,1.1,1.2,1.9l0.5-2.6h0.7l-1.7,8.4h-0.7l0.4-1.9
					c-0.4,0.6-0.9,1.1-1.6,1.4c-0.6,0.3-1.3,0.5-2,0.5C166.5,304.2,165.9,304.1,165.3,303.8z M169.4,303c0.6-0.4,1.1-0.9,1.4-1.5
					c0.3-0.6,0.5-1.3,0.5-2c0-0.6-0.1-1.2-0.4-1.6s-0.6-0.8-1.1-1.1s-1-0.4-1.7-0.4c-0.7,0-1.3,0.2-1.9,0.5
					c-0.6,0.4-1.1,0.9-1.4,1.5c-0.3,0.6-0.5,1.3-0.5,2.1c0,0.6,0.1,1.2,0.4,1.6c0.3,0.5,0.6,0.8,1.1,1.1c0.5,0.3,1,0.4,1.7,0.4
					C168.1,303.6,168.8,303.4,169.4,303z"/>
				<path d="M179.6,303.9c-0.6-0.3-1.1-0.7-1.5-1.1l0.4-0.5c0.3,0.4,0.8,0.8,1.3,1s1.1,0.4,1.8,0.4c0.7,0,1.2-0.2,1.6-0.5
					c0.4-0.3,0.6-0.7,0.6-1.3c0-0.3-0.1-0.5-0.3-0.7s-0.4-0.4-0.6-0.5c-0.3-0.1-0.6-0.3-1.1-0.5c-0.5-0.2-0.9-0.4-1.2-0.6
					c-0.3-0.2-0.6-0.4-0.8-0.7c-0.2-0.3-0.3-0.6-0.3-1c0-0.7,0.3-1.3,0.8-1.7c0.5-0.4,1.2-0.6,2-0.6c0.6,0,1.1,0.1,1.6,0.3
					c0.5,0.2,0.9,0.4,1.2,0.7l-0.4,0.5c-0.3-0.3-0.7-0.5-1.1-0.6c-0.4-0.1-0.9-0.2-1.4-0.2c-0.6,0-1.1,0.1-1.5,0.4
					c-0.4,0.3-0.6,0.7-0.6,1.2c0,0.3,0.1,0.5,0.3,0.7c0.2,0.2,0.4,0.4,0.6,0.5c0.3,0.1,0.6,0.3,1,0.5c0.5,0.2,0.9,0.4,1.2,0.6
					c0.3,0.2,0.6,0.4,0.8,0.7c0.2,0.3,0.3,0.6,0.3,1c0,0.7-0.3,1.3-0.8,1.8s-1.3,0.7-2.1,0.7C180.9,304.3,180.2,304.2,179.6,303.9z"
					/>
				<path d="M187,300.2v0.2c0,1,0.3,1.7,0.9,2.3c0.6,0.6,1.3,0.9,2.3,0.9c0.6,0,1.1-0.1,1.6-0.3c0.5-0.2,0.9-0.5,1.3-0.8l0.4,0.5
					c-0.4,0.4-0.9,0.7-1.5,0.9c-0.6,0.2-1.2,0.3-1.8,0.3c-0.7,0-1.4-0.2-2-0.5c-0.6-0.3-1-0.8-1.3-1.4c-0.3-0.6-0.5-1.2-0.5-2
					c0-0.9,0.2-1.7,0.6-2.4c0.4-0.7,1-1.3,1.6-1.7c0.7-0.4,1.5-0.6,2.3-0.6c0.7,0,1.3,0.2,1.9,0.5c0.5,0.3,0.9,0.7,1.2,1.3
					c0.3,0.6,0.4,1.2,0.4,1.9c0,0.2,0,0.5,0,0.7H187z M188.4,297.3c-0.7,0.6-1.1,1.4-1.3,2.3h6.8c0-1-0.2-1.7-0.8-2.3
					c-0.5-0.6-1.3-0.9-2.2-0.9C189.9,296.4,189.1,296.7,188.4,297.3z"/>
				<path d="M197.1,303.5c-0.5-0.4-0.7-1.1-0.7-1.9c0-0.3,0-0.6,0.1-0.9l1-5h0.7l-1,5c-0.1,0.3-0.1,0.5-0.1,0.7
					c0,0.6,0.2,1.1,0.6,1.5c0.4,0.4,1,0.5,1.7,0.5c1,0,1.8-0.3,2.6-0.9c0.7-0.6,1.2-1.4,1.4-2.5l0.9-4.4h0.7l-1.7,8.4h-0.7l0.4-2.1
					c-0.4,0.7-0.9,1.2-1.5,1.6s-1.3,0.6-2.1,0.6C198.3,304.2,197.6,304,197.1,303.5z"/>
				<path d="M218.7,296.2c0.6,0.3,1,0.7,1.3,1.3c0.3,0.6,0.5,1.2,0.5,1.9c0,0.9-0.2,1.7-0.6,2.4c-0.4,0.7-1,1.3-1.7,1.7
					c-0.7,0.4-1.5,0.6-2.3,0.6c-0.9,0-1.7-0.2-2.3-0.7c-0.6-0.5-1-1.1-1.2-1.9l-1.1,5.7h-0.7l2.3-11.5h0.7l-0.4,1.9
					c0.4-0.6,0.9-1.1,1.6-1.4s1.3-0.5,2-0.5C217.5,295.7,218.1,295.9,218.7,296.2z M214.7,296.9c-0.6,0.4-1.1,0.9-1.4,1.5
					c-0.3,0.6-0.5,1.3-0.5,2c0,0.6,0.1,1.2,0.4,1.6s0.6,0.8,1.1,1.1c0.5,0.3,1,0.4,1.7,0.4c0.7,0,1.3-0.2,1.9-0.5s1.1-0.9,1.4-1.5
					c0.3-0.6,0.5-1.3,0.5-2.1c0-0.6-0.1-1.2-0.4-1.6s-0.6-0.8-1.1-1.1c-0.5-0.3-1-0.4-1.7-0.4C215.9,296.4,215.2,296.5,214.7,296.9z
					"/>
				<path d="M225.5,296.3c0.6-0.4,1.3-0.6,2-0.6l-0.1,0.7c-0.9,0-1.7,0.3-2.4,0.8c-0.7,0.6-1.2,1.3-1.4,2.3l-0.9,4.5h-0.7l1.7-8.4
					h0.7l-0.4,2.1C224.4,297.2,224.9,296.7,225.5,296.3z"/>
				<path d="M234.2,296.2c0.6,0.3,1,0.8,1.3,1.4c0.3,0.6,0.5,1.2,0.5,2c0,0.9-0.2,1.7-0.6,2.4s-1,1.3-1.7,1.7
					c-0.7,0.4-1.5,0.6-2.3,0.6c-0.7,0-1.4-0.2-2-0.5c-0.6-0.3-1-0.8-1.3-1.4c-0.3-0.6-0.5-1.2-0.5-2c0-0.9,0.2-1.7,0.6-2.4
					s1-1.3,1.7-1.7s1.5-0.6,2.3-0.6C233,295.8,233.7,295.9,234.2,296.2z M230.3,296.9c-0.6,0.3-1,0.8-1.4,1.4
					c-0.3,0.6-0.5,1.3-0.5,2c0,0.6,0.1,1.2,0.4,1.7c0.3,0.5,0.6,0.9,1.1,1.1s1,0.4,1.6,0.4c0.7,0,1.4-0.2,2-0.5
					c0.6-0.3,1.1-0.8,1.4-1.4c0.3-0.6,0.5-1.3,0.5-2c0-0.6-0.1-1.2-0.4-1.7c-0.3-0.5-0.6-0.9-1.1-1.1c-0.5-0.3-1-0.4-1.6-0.4
					C231.5,296.4,230.8,296.6,230.3,296.9z"/>
				<path d="M239.3,303.8c-0.6-0.3-1-0.8-1.3-1.3c-0.3-0.6-0.5-1.2-0.5-1.9c0-0.9,0.2-1.7,0.6-2.4c0.4-0.7,1-1.3,1.7-1.7
					c0.7-0.4,1.5-0.6,2.3-0.6c0.9,0,1.7,0.2,2.3,0.7s1,1.1,1.2,1.9l1.2-6.2h0.7l-2.4,12h-0.7l0.4-1.9c-0.4,0.6-0.9,1.1-1.6,1.4
					s-1.3,0.5-2,0.5C240.5,304.2,239.9,304.1,239.3,303.8z M243.4,303c0.6-0.4,1.1-0.9,1.4-1.5s0.5-1.3,0.5-2c0-0.6-0.1-1.2-0.4-1.6
					s-0.6-0.8-1.1-1.1c-0.5-0.3-1-0.4-1.7-0.4c-0.7,0-1.3,0.2-1.9,0.5s-1.1,0.9-1.4,1.5c-0.3,0.6-0.5,1.3-0.5,2.1
					c0,0.6,0.1,1.2,0.4,1.6c0.3,0.5,0.6,0.8,1.1,1.1c0.5,0.3,1,0.4,1.7,0.4C242.1,303.6,242.8,303.4,243.4,303z"/>
				<path d="M249.6,303.5c-0.5-0.4-0.7-1.1-0.7-1.9c0-0.3,0-0.6,0.1-0.9l1-5h0.7l-1,5c-0.1,0.3-0.1,0.5-0.1,0.7
					c0,0.6,0.2,1.1,0.6,1.5c0.4,0.4,1,0.5,1.7,0.5c1,0,1.8-0.3,2.6-0.9c0.7-0.6,1.2-1.4,1.4-2.5l0.9-4.4h0.7l-1.7,8.4H255l0.4-2.1
					c-0.4,0.7-0.9,1.2-1.5,1.6s-1.3,0.6-2.1,0.6C250.9,304.2,250.1,304,249.6,303.5z"/>
				<path d="M260.5,301.8c-0.1,0.3-0.1,0.5-0.1,0.7c0,0.7,0.3,1,1,1c0.5,0,1.1-0.2,1.6-0.5l0.2,0.6c-0.6,0.4-1.2,0.6-1.9,0.6
					c-0.5,0-0.9-0.1-1.1-0.4c-0.3-0.3-0.4-0.7-0.4-1.2c0-0.2,0-0.5,0.1-0.8l1-5.3h-1.2l0.1-0.6h1.2l0.4-2.1h0.7l-0.4,2.1h2.9
					l-0.1,0.6h-2.9L260.5,301.8z"/>
				<path d="M271.4,296.2c0.6,0.3,1,0.8,1.3,1.4c0.3,0.6,0.5,1.2,0.5,2c0,0.9-0.2,1.7-0.6,2.4s-1,1.3-1.7,1.7
					c-0.7,0.4-1.5,0.6-2.3,0.6c-0.7,0-1.4-0.2-2-0.5c-0.6-0.3-1-0.8-1.3-1.4c-0.3-0.6-0.5-1.2-0.5-2c0-0.9,0.2-1.7,0.6-2.4
					s1-1.3,1.7-1.7s1.5-0.6,2.3-0.6C270.2,295.8,270.8,295.9,271.4,296.2z M267.4,296.9c-0.6,0.3-1,0.8-1.4,1.4
					c-0.3,0.6-0.5,1.3-0.5,2c0,0.6,0.1,1.2,0.4,1.7c0.3,0.5,0.6,0.9,1.1,1.1s1,0.4,1.6,0.4c0.7,0,1.4-0.2,2-0.5
					c0.6-0.3,1.1-0.8,1.4-1.4c0.3-0.6,0.5-1.3,0.5-2c0-0.6-0.1-1.2-0.4-1.7c-0.3-0.5-0.6-0.9-1.1-1.1c-0.5-0.3-1-0.4-1.6-0.4
					C268.7,296.4,268,296.6,267.4,296.9z"/>
			</g>
		</g>
	</g>
</g>
</svg>
