<?xml version="1.0" encoding="utf-8"?>
<!-- Generator: Adobe Illustrator 24.0.1, SVG Export Plug-In . SVG Version: 6.00 Build 0)  -->
<svg version="1.0" id="Camada_1" xmlns="http://www.w3.org/2000/svg" xmlns:xlink="http://www.w3.org/1999/xlink" x="0px" y="0px"
	 viewBox="0 0 320.9 317" enable-background="new 0 0 320.9 317" xml:space="preserve">
<g id="Etapa_2">
	<ellipse fill="#946CE9" cx="29" cy="29.3" rx="29" ry="29.3"/>
	<g>
		<path fill="#FFFFFF" stroke="#FFFFFF" stroke-miterlimit="10" d="M22.7,42.6l11.5-14.5c2.1-2.6,1.7-6.4-0.9-8.5
			c-2.6-2.1-6.4-1.7-8.5,0.9c-1,1.3-1.5,2.8-1.3,4.3h-0.4c-0.1-1.6,0.4-3.2,1.4-4.5c2.2-2.8,6.3-3.3,9.1-1c2.8,2.3,3.2,6.3,1,9.1
			L23.6,42.2H28l9.2-11.6c3.4-4.3,2.8-10.6-1.5-14c-4.3-3.5-10.5-2.8-13.9,1.5c-1.5,2-2.3,4.3-2.2,6.7h-0.4c-0.1-2.4,0.6-4.9,2.2-7
			c3.6-4.5,10.1-5.2,14.6-1.6c4.4,3.6,5.1,10.2,1.5,14.6l-9,11.3h11.3v0.4H22.7z M19.6,46.5l0.3-0.4h19.9v0.4H19.6z"/>
	</g>
	<path id="Fundo_2" fill="#F8F0FB" d="M56.3,50.9h249.8c8.2,0,14.9,6.7,14.9,14.9v236.3c0,8.2-6.7,14.9-14.9,14.9H71.2
		c-8.2,0-14.9-6.7-14.9-14.9V50.9z"/>
	<g>
		<path d="M94.9,293.3c0.6,0.2,1,0.4,1.4,0.7l-0.4,0.6c-0.4-0.3-0.8-0.5-1.3-0.6c-0.5-0.1-1-0.2-1.5-0.2c-0.9,0-1.6,0.2-2.2,0.5
			c-0.6,0.4-0.9,0.8-0.9,1.4c0,0.1,0,0.2,0,0.3c0,0.5,0.1,0.8,0.4,1.1s0.5,0.5,0.9,0.7c0.4,0.2,0.8,0.4,1.5,0.6
			c0.7,0.2,1.2,0.4,1.6,0.6c0.4,0.2,0.7,0.5,1,0.8c0.3,0.4,0.4,0.8,0.4,1.4c0,0.2,0,0.3,0,0.4c-0.1,0.6-0.3,1.1-0.6,1.5
			c-0.4,0.4-0.9,0.8-1.5,1c-0.6,0.2-1.3,0.4-2.1,0.4c-0.7,0-1.4-0.2-2.1-0.5s-1.3-0.7-1.7-1.2l0.4-0.6c0.4,0.5,0.9,0.9,1.6,1.1
			c0.6,0.3,1.3,0.4,1.9,0.4c1,0,1.8-0.2,2.4-0.6c0.6-0.4,1-0.9,1-1.6c0-0.1,0-0.2,0-0.3c0-0.5-0.1-0.9-0.4-1.2
			c-0.2-0.3-0.5-0.5-0.9-0.7c-0.4-0.2-0.9-0.4-1.5-0.5c-0.7-0.2-1.2-0.4-1.6-0.6c-0.4-0.2-0.7-0.5-1-0.8c-0.3-0.4-0.4-0.8-0.4-1.4
			c0-0.2,0-0.3,0-0.4c0-0.5,0.2-1,0.6-1.4c0.3-0.4,0.8-0.7,1.4-0.9c0.6-0.2,1.2-0.3,2-0.3C93.8,293.1,94.3,293.2,94.9,293.3z"/>
		<path d="M98.5,300.5v0.2c0,1,0.3,1.7,0.9,2.3c0.6,0.6,1.3,0.9,2.3,0.9c0.6,0,1.1-0.1,1.6-0.3c0.5-0.2,0.9-0.5,1.3-0.8l0.4,0.5
			c-0.4,0.4-0.9,0.7-1.5,0.9c-0.6,0.2-1.2,0.3-1.8,0.3c-0.7,0-1.4-0.2-1.9-0.5s-1-0.8-1.3-1.4c-0.3-0.6-0.5-1.2-0.5-2
			c0-0.9,0.2-1.7,0.6-2.4c0.4-0.7,0.9-1.3,1.6-1.7c0.7-0.4,1.4-0.6,2.3-0.6c0.7,0,1.3,0.2,1.9,0.5c0.5,0.3,0.9,0.7,1.2,1.3
			c0.3,0.6,0.4,1.2,0.4,1.9c0,0.2,0,0.5,0,0.7H98.5z M99.9,297.6c-0.7,0.6-1.1,1.4-1.3,2.3h6.7c0-1-0.2-1.7-0.7-2.3
			c-0.5-0.6-1.2-0.9-2.2-0.9C101.4,296.7,100.6,297,99.9,297.6z"/>
		<path d="M110.5,292.5l-2.4,12h-0.7l2.4-12H110.5z"/>
		<path d="M112.2,300.5v0.2c0,1,0.3,1.7,0.9,2.3c0.6,0.6,1.3,0.9,2.3,0.9c0.6,0,1.1-0.1,1.6-0.3c0.5-0.2,0.9-0.5,1.3-0.8l0.4,0.5
			c-0.4,0.4-0.9,0.7-1.5,0.9c-0.6,0.2-1.2,0.3-1.8,0.3c-0.7,0-1.4-0.2-1.9-0.5s-1-0.8-1.3-1.4c-0.3-0.6-0.5-1.2-0.5-2
			c0-0.9,0.2-1.7,0.6-2.4c0.4-0.7,0.9-1.3,1.6-1.7c0.7-0.4,1.4-0.6,2.3-0.6c0.7,0,1.3,0.2,1.9,0.5c0.5,0.3,0.9,0.7,1.2,1.3
			c0.3,0.6,0.4,1.2,0.4,1.9c0,0.2,0,0.5,0,0.7H112.2z M113.6,297.6c-0.7,0.6-1.1,1.4-1.3,2.3h6.7c0-1-0.2-1.7-0.7-2.3
			c-0.5-0.6-1.2-0.9-2.2-0.9C115.1,296.7,114.2,297,113.6,297.6z"/>
		<path d="M122.8,304c-0.6-0.3-1-0.8-1.3-1.3c-0.3-0.6-0.5-1.2-0.5-2c0-0.9,0.2-1.7,0.6-2.4s0.9-1.3,1.6-1.7
			c0.7-0.4,1.4-0.6,2.3-0.6c0.6,0,1.1,0.1,1.6,0.3c0.5,0.2,0.9,0.5,1.2,0.9l-0.4,0.5c-0.6-0.7-1.5-1-2.5-1c-0.7,0-1.3,0.2-1.9,0.5
			c-0.6,0.3-1,0.8-1.4,1.4c-0.3,0.6-0.5,1.3-0.5,2c0,0.6,0.1,1.2,0.4,1.7c0.3,0.5,0.6,0.9,1.1,1.1c0.5,0.3,1,0.4,1.6,0.4
			c0.6,0,1.1-0.1,1.6-0.3s0.9-0.5,1.3-0.9l0.4,0.4c-0.4,0.4-0.9,0.8-1.5,1c-0.6,0.2-1.2,0.4-1.8,0.4
			C124,304.5,123.3,304.3,122.8,304z"/>
		<path d="M132.6,296.1l-1.7,8.4h-0.7l1.7-8.4H132.6z M133.2,293.2c0.1,0.1,0.1,0.2,0.1,0.3c0,0.2-0.1,0.4-0.2,0.5
			c-0.1,0.1-0.3,0.2-0.5,0.2c-0.1,0-0.3,0-0.3-0.1c-0.1-0.1-0.1-0.2-0.1-0.4c0-0.2,0.1-0.3,0.2-0.5c0.1-0.1,0.3-0.2,0.5-0.2
			C133,293.1,133.1,293.1,133.2,293.2z"/>
		<path d="M140.7,296.6c0.6,0.3,1,0.8,1.3,1.4c0.3,0.6,0.5,1.2,0.5,2c0,0.9-0.2,1.7-0.6,2.4c-0.4,0.7-0.9,1.3-1.6,1.7
			c-0.7,0.4-1.5,0.6-2.3,0.6c-0.7,0-1.4-0.2-1.9-0.5s-1-0.8-1.3-1.4c-0.3-0.6-0.5-1.2-0.5-2c0-0.9,0.2-1.7,0.6-2.4
			c0.4-0.7,1-1.3,1.6-1.7s1.5-0.6,2.3-0.6C139.5,296.1,140.2,296.2,140.7,296.6z M136.8,297.2c-0.6,0.3-1,0.8-1.4,1.4
			c-0.3,0.6-0.5,1.3-0.5,2c0,0.6,0.1,1.2,0.4,1.7c0.3,0.5,0.6,0.9,1.1,1.1s1,0.4,1.6,0.4c0.7,0,1.4-0.2,1.9-0.5
			c0.6-0.3,1-0.8,1.4-1.4c0.3-0.6,0.5-1.3,0.5-2c0-0.6-0.1-1.2-0.4-1.7c-0.3-0.5-0.6-0.9-1.1-1.1c-0.5-0.3-1-0.4-1.6-0.4
			C138,296.7,137.4,296.9,136.8,297.2z"/>
		<path d="M151.8,296.7c0.5,0.4,0.7,1.1,0.7,1.9c0,0.3,0,0.6-0.1,0.9l-1,5h-0.7l1-5c0.1-0.3,0.1-0.5,0.1-0.7c0-0.6-0.2-1.1-0.6-1.5
			c-0.4-0.4-1-0.5-1.7-0.5c-1,0-1.8,0.3-2.5,0.9c-0.7,0.6-1.2,1.4-1.4,2.5l-0.8,4.4h-0.7l1.6-8.4h0.7l-0.4,2.1
			c0.4-0.7,0.9-1.2,1.5-1.6c0.6-0.4,1.3-0.6,2.1-0.6C150.6,296.1,151.3,296.3,151.8,296.7z"/>
		<path d="M155.1,300.5v0.2c0,1,0.3,1.7,0.9,2.3c0.6,0.6,1.3,0.9,2.3,0.9c0.6,0,1.1-0.1,1.6-0.3c0.5-0.2,0.9-0.5,1.3-0.8l0.4,0.5
			c-0.4,0.4-0.9,0.7-1.5,0.9c-0.6,0.2-1.2,0.3-1.8,0.3c-0.7,0-1.4-0.2-1.9-0.5s-1-0.8-1.3-1.4c-0.3-0.6-0.5-1.2-0.5-2
			c0-0.9,0.2-1.7,0.6-2.4c0.4-0.7,0.9-1.3,1.6-1.7c0.7-0.4,1.4-0.6,2.3-0.6c0.7,0,1.3,0.2,1.9,0.5c0.5,0.3,0.9,0.7,1.2,1.3
			c0.3,0.6,0.4,1.2,0.4,1.9c0,0.2,0,0.5,0,0.7H155.1z M156.5,297.6c-0.7,0.6-1.1,1.4-1.3,2.3h6.7c0-1-0.2-1.7-0.7-2.3
			c-0.5-0.6-1.2-0.9-2.2-0.9C158,296.7,157.1,297,156.5,297.6z"/>
		<path d="M170.2,304.1c-0.6-0.3-1-0.8-1.3-1.3c-0.3-0.6-0.5-1.2-0.5-1.9c0-0.9,0.2-1.7,0.6-2.4c0.4-0.7,0.9-1.3,1.6-1.7
			c0.7-0.4,1.4-0.6,2.3-0.6c0.9,0,1.7,0.2,2.3,0.7c0.6,0.5,1,1.1,1.2,1.9l0.5-2.6h0.7l-1.7,8.4h-0.7l0.4-1.9
			c-0.4,0.6-0.9,1.1-1.5,1.4c-0.6,0.3-1.3,0.5-2,0.5C171.4,304.5,170.8,304.4,170.2,304.1z M174.2,303.4c0.6-0.4,1.1-0.9,1.4-1.5
			s0.5-1.3,0.5-2c0-0.6-0.1-1.2-0.4-1.6c-0.3-0.5-0.6-0.8-1.1-1.1c-0.5-0.3-1-0.4-1.6-0.4c-0.7,0-1.3,0.2-1.9,0.5
			c-0.6,0.4-1.1,0.9-1.4,1.5c-0.3,0.6-0.5,1.3-0.5,2.1c0,0.6,0.1,1.2,0.4,1.6c0.3,0.5,0.6,0.8,1.1,1.1c0.5,0.3,1,0.4,1.6,0.4
			C173,303.9,173.6,303.7,174.2,303.4z"/>
		<path d="M187.4,293.6c-0.4,0.4-0.7,0.9-0.8,1.5l-0.2,1.2h2.6l-0.1,0.6h-2.6l-1.5,7.6H184l1.5-7.6h-1l0.1-0.6h1.1l0.2-1.2
			c0.1-0.5,0.3-1,0.6-1.4c0.3-0.4,0.6-0.7,1-0.9s0.8-0.3,1.2-0.3c0.5,0,1,0.1,1.4,0.4l-0.3,0.6c-0.3-0.2-0.7-0.3-1.1-0.3
			C188.3,293,187.8,293.2,187.4,293.6z"/>
		<path d="M195,296.6c0.6,0.3,1,0.8,1.3,1.4c0.3,0.6,0.5,1.2,0.5,2c0,0.9-0.2,1.7-0.6,2.4s-0.9,1.3-1.6,1.7
			c-0.7,0.4-1.5,0.6-2.3,0.6c-0.7,0-1.4-0.2-1.9-0.5s-1-0.8-1.3-1.4c-0.3-0.6-0.5-1.2-0.5-2c0-0.9,0.2-1.7,0.6-2.4
			c0.4-0.7,1-1.3,1.6-1.7c0.7-0.4,1.5-0.6,2.3-0.6C193.8,296.1,194.4,296.2,195,296.6z M191.1,297.2c-0.6,0.3-1,0.8-1.4,1.4
			c-0.3,0.6-0.5,1.3-0.5,2c0,0.6,0.1,1.2,0.4,1.7c0.3,0.5,0.6,0.9,1.1,1.1c0.5,0.3,1,0.4,1.6,0.4c0.7,0,1.4-0.2,1.9-0.5
			c0.6-0.3,1-0.8,1.4-1.4c0.3-0.6,0.5-1.3,0.5-2c0-0.6-0.1-1.2-0.4-1.7s-0.6-0.9-1.1-1.1s-1-0.4-1.6-0.4
			C192.3,296.7,191.6,296.9,191.1,297.2z"/>
		<path d="M199.8,302.1c-0.1,0.3-0.1,0.5-0.1,0.7c0,0.7,0.3,1,1,1c0.5,0,1.1-0.2,1.6-0.5l0.2,0.6c-0.6,0.4-1.2,0.6-1.8,0.6
			c-0.5,0-0.9-0.1-1.1-0.4c-0.3-0.3-0.4-0.7-0.4-1.2c0-0.2,0-0.5,0.1-0.8l1-5.3H199l0.1-0.6h1.2l0.4-2.1h0.7l-0.4,2.1h2.8l-0.1,0.6
			h-2.8L199.8,302.1z"/>
		<path d="M210.6,296.6c0.6,0.3,1,0.8,1.3,1.4c0.3,0.6,0.5,1.2,0.5,2c0,0.9-0.2,1.7-0.6,2.4s-0.9,1.3-1.6,1.7
			c-0.7,0.4-1.5,0.6-2.3,0.6c-0.7,0-1.4-0.2-1.9-0.5s-1-0.8-1.3-1.4c-0.3-0.6-0.5-1.2-0.5-2c0-0.9,0.2-1.7,0.6-2.4
			c0.4-0.7,1-1.3,1.6-1.7c0.7-0.4,1.5-0.6,2.3-0.6C209.4,296.1,210,296.2,210.6,296.6z M206.7,297.2c-0.6,0.3-1,0.8-1.4,1.4
			c-0.3,0.6-0.5,1.3-0.5,2c0,0.6,0.1,1.2,0.4,1.7c0.3,0.5,0.6,0.9,1.1,1.1c0.5,0.3,1,0.4,1.6,0.4c0.7,0,1.4-0.2,1.9-0.5
			c0.6-0.3,1-0.8,1.4-1.4c0.3-0.6,0.5-1.3,0.5-2c0-0.6-0.1-1.2-0.4-1.7s-0.6-0.9-1.1-1.1s-1-0.4-1.6-0.4
			C207.9,296.7,207.3,296.9,206.7,297.2z"/>
		<path d="M220.2,304.1c-0.6-0.3-1-0.8-1.3-1.3c-0.3-0.6-0.5-1.2-0.5-1.9c0-0.9,0.2-1.7,0.6-2.4c0.4-0.7,0.9-1.3,1.6-1.7
			c0.7-0.4,1.4-0.6,2.3-0.6c0.9,0,1.7,0.2,2.3,0.7c0.6,0.5,1,1.1,1.2,1.9l1.2-6.2h0.7l-2.4,12h-0.7l0.4-1.9
			c-0.4,0.6-0.9,1.1-1.5,1.4c-0.6,0.3-1.3,0.5-2,0.5C221.4,304.5,220.8,304.4,220.2,304.1z M224.2,303.4c0.6-0.4,1.1-0.9,1.4-1.5
			s0.5-1.3,0.5-2c0-0.6-0.1-1.2-0.4-1.6c-0.3-0.5-0.6-0.8-1.1-1.1c-0.5-0.3-1-0.4-1.6-0.4c-0.7,0-1.3,0.2-1.9,0.5
			c-0.6,0.4-1.1,0.9-1.4,1.5c-0.3,0.6-0.5,1.3-0.5,2.1c0,0.6,0.1,1.2,0.4,1.6c0.3,0.5,0.6,0.8,1.1,1.1c0.5,0.3,1,0.4,1.6,0.4
			C223,303.9,223.6,303.7,224.2,303.4z"/>
		<path d="M230,300.5v0.2c0,1,0.3,1.7,0.9,2.3c0.6,0.6,1.3,0.9,2.3,0.9c0.6,0,1.1-0.1,1.6-0.3c0.5-0.2,0.9-0.5,1.3-0.8l0.4,0.5
			c-0.4,0.4-0.9,0.7-1.5,0.9c-0.6,0.2-1.2,0.3-1.8,0.3c-0.7,0-1.4-0.2-1.9-0.5s-1-0.8-1.3-1.4s-0.5-1.2-0.5-2c0-0.9,0.2-1.7,0.6-2.4
			c0.4-0.7,0.9-1.3,1.6-1.7s1.4-0.6,2.3-0.6c0.7,0,1.3,0.2,1.9,0.5c0.5,0.3,0.9,0.7,1.2,1.3c0.3,0.6,0.4,1.2,0.4,1.9
			c0,0.2,0,0.5,0,0.7H230z M231.4,297.6c-0.7,0.6-1.1,1.4-1.3,2.3h6.7c0-1-0.2-1.7-0.7-2.3c-0.5-0.6-1.2-0.9-2.2-0.9
			C232.9,296.7,232,297,231.4,297.6z"/>
		<path d="M239.4,304.2c-0.6-0.3-1.1-0.7-1.4-1.1l0.4-0.5c0.3,0.4,0.8,0.8,1.3,1c0.5,0.2,1.1,0.4,1.7,0.4c0.7,0,1.2-0.2,1.6-0.5
			c0.4-0.3,0.6-0.7,0.6-1.3c0-0.3-0.1-0.5-0.3-0.7c-0.2-0.2-0.4-0.4-0.6-0.5c-0.3-0.1-0.6-0.3-1.1-0.5c-0.5-0.2-0.9-0.4-1.2-0.6
			c-0.3-0.2-0.5-0.4-0.8-0.7c-0.2-0.3-0.3-0.6-0.3-1c0-0.7,0.3-1.3,0.8-1.7c0.5-0.4,1.2-0.6,2-0.6c0.6,0,1.1,0.1,1.6,0.3
			c0.5,0.2,0.9,0.4,1.2,0.7l-0.4,0.5c-0.3-0.3-0.7-0.5-1.1-0.6c-0.4-0.2-0.9-0.2-1.4-0.2c-0.6,0-1.1,0.1-1.5,0.4
			c-0.4,0.3-0.6,0.7-0.6,1.2c0,0.3,0.1,0.5,0.3,0.7c0.2,0.2,0.4,0.4,0.6,0.5c0.3,0.1,0.6,0.3,1,0.5c0.5,0.2,0.9,0.4,1.2,0.6
			c0.3,0.2,0.6,0.4,0.8,0.7s0.3,0.6,0.3,1c0,0.7-0.3,1.3-0.8,1.8c-0.6,0.4-1.3,0.7-2.1,0.7C240.6,304.6,240,304.5,239.4,304.2z"/>
		<path d="M246.7,300.5v0.2c0,1,0.3,1.7,0.9,2.3c0.6,0.6,1.3,0.9,2.3,0.9c0.6,0,1.1-0.1,1.6-0.3c0.5-0.2,0.9-0.5,1.3-0.8l0.4,0.5
			c-0.4,0.4-0.9,0.7-1.5,0.9c-0.6,0.2-1.2,0.3-1.8,0.3c-0.7,0-1.4-0.2-1.9-0.5s-1-0.8-1.3-1.4s-0.5-1.2-0.5-2c0-0.9,0.2-1.7,0.6-2.4
			c0.4-0.7,0.9-1.3,1.6-1.7s1.4-0.6,2.3-0.6c0.7,0,1.3,0.2,1.9,0.5c0.5,0.3,0.9,0.7,1.2,1.3c0.3,0.6,0.4,1.2,0.4,1.9
			c0,0.2,0,0.5,0,0.7H246.7z M248.1,297.6c-0.7,0.6-1.1,1.4-1.3,2.3h6.7c0-1-0.2-1.7-0.7-2.3c-0.5-0.6-1.2-0.9-2.2-0.9
			C249.6,296.7,248.8,297,248.1,297.6z"/>
		<path d="M253.5,307c0.5,0,0.9-0.2,1.2-0.5c0.3-0.4,0.6-0.9,0.7-1.6l1.7-8.8h0.7l-1.7,8.9c-0.2,0.9-0.5,1.5-0.9,2
			c-0.4,0.4-0.9,0.7-1.6,0.7c-0.4,0-0.8-0.1-1.1-0.2l0.3-0.5C253,306.9,253.2,307,253.5,307z M258.4,293.2c0.1,0.1,0.1,0.2,0.1,0.3
			c0,0.2-0.1,0.4-0.2,0.5c-0.1,0.1-0.3,0.2-0.5,0.2c-0.1,0-0.3,0-0.3-0.1c-0.1-0.1-0.1-0.2-0.1-0.4c0-0.2,0.1-0.3,0.2-0.5
			c0.1-0.1,0.3-0.2,0.5-0.2C258.2,293.1,258.3,293.1,258.4,293.2z"/>
		<path d="M261.1,304.1c-0.6-0.3-1-0.8-1.3-1.3c-0.3-0.6-0.5-1.2-0.5-1.9c0-0.9,0.2-1.7,0.6-2.4c0.4-0.7,0.9-1.3,1.6-1.7
			c0.7-0.4,1.4-0.6,2.3-0.6c0.9,0,1.7,0.2,2.3,0.7c0.6,0.5,1,1.1,1.2,1.9l0.5-2.6h0.7l-1.7,8.4h-0.7l0.4-1.9
			c-0.4,0.6-0.9,1.1-1.5,1.4c-0.6,0.3-1.3,0.5-2,0.5C262.3,304.5,261.7,304.4,261.1,304.1z M265.1,303.4c0.6-0.4,1.1-0.9,1.4-1.5
			s0.5-1.3,0.5-2c0-0.6-0.1-1.2-0.4-1.6c-0.3-0.5-0.6-0.8-1.1-1.1c-0.5-0.3-1-0.4-1.6-0.4c-0.7,0-1.3,0.2-1.9,0.5
			c-0.6,0.4-1.1,0.9-1.4,1.5c-0.3,0.6-0.5,1.3-0.5,2.1c0,0.6,0.1,1.2,0.4,1.6c0.3,0.5,0.6,0.8,1.1,1.1c0.5,0.3,1,0.4,1.6,0.4
			C263.9,303.9,264.6,303.7,265.1,303.4z"/>
		<path d="M271.9,304.1c-0.6-0.3-1-0.8-1.3-1.3c-0.3-0.6-0.5-1.2-0.5-1.9c0-0.9,0.2-1.7,0.6-2.4c0.4-0.7,0.9-1.3,1.6-1.7
			c0.7-0.4,1.4-0.6,2.3-0.6c0.9,0,1.7,0.2,2.3,0.7c0.6,0.5,1,1.1,1.2,1.9l1.2-6.2h0.7l-2.4,12h-0.7l0.4-1.9
			c-0.4,0.6-0.9,1.1-1.5,1.4c-0.6,0.3-1.3,0.5-2,0.5C273.1,304.5,272.4,304.4,271.9,304.1z M275.9,303.4c0.6-0.4,1.1-0.9,1.4-1.5
			s0.5-1.3,0.5-2c0-0.6-0.1-1.2-0.4-1.6c-0.3-0.5-0.6-0.8-1.1-1.1c-0.5-0.3-1-0.4-1.6-0.4c-0.7,0-1.3,0.2-1.9,0.5
			c-0.6,0.4-1.1,0.9-1.4,1.5c-0.3,0.6-0.5,1.3-0.5,2.1c0,0.6,0.1,1.2,0.4,1.6c0.3,0.5,0.6,0.8,1.1,1.1c0.5,0.3,1,0.4,1.6,0.4
			C274.6,303.9,275.3,303.7,275.9,303.4z"/>
		<path d="M282.7,304.1c-0.6-0.3-1-0.8-1.3-1.3c-0.3-0.6-0.5-1.2-0.5-1.9c0-0.9,0.2-1.7,0.6-2.4c0.4-0.7,0.9-1.3,1.6-1.7
			c0.7-0.4,1.4-0.6,2.3-0.6c0.9,0,1.7,0.2,2.3,0.7c0.6,0.5,1,1.1,1.2,1.9l0.5-2.6h0.7l-1.7,8.4h-0.7l0.4-1.9
			c-0.4,0.6-0.9,1.1-1.5,1.4c-0.6,0.3-1.3,0.5-2,0.5C283.9,304.5,283.2,304.4,282.7,304.1z M286.7,303.4c0.6-0.4,1.1-0.9,1.4-1.5
			s0.5-1.3,0.5-2c0-0.6-0.1-1.2-0.4-1.6c-0.3-0.5-0.6-0.8-1.1-1.1c-0.5-0.3-1-0.4-1.6-0.4c-0.7,0-1.3,0.2-1.9,0.5
			c-0.6,0.4-1.1,0.9-1.4,1.5c-0.3,0.6-0.5,1.3-0.5,2.1c0,0.6,0.1,1.2,0.4,1.6c0.3,0.5,0.6,0.8,1.1,1.1c0.5,0.3,1,0.4,1.6,0.4
			C285.4,303.9,286.1,303.7,286.7,303.4z"/>
	</g>
	<g id="Pc_5_">
		<g id="Estrutura_1_">
			<polygon id="Braõ_1_" fill="#1B1B1B" points="215.2,279 162.1,279 164.3,245.9 213.1,245.9 			"/>
			
				<line id="Base_1_" fill="none" stroke="#1B1B1B" stroke-width="2.5" stroke-miterlimit="10" x1="140.2" y1="280.8" x2="236.3" y2="280.8"/>
			<path id="Tela" fill="#1B1B1B" d="M306.2,245.4H70.4c-2.6,0-4.8-2.1-4.8-4.8v-172c0-2.6,2.1-4.8,4.8-4.8h235.8
				c2.6,0,4.8,2.1,4.8,4.8v172C310.9,243.2,308.8,245.4,306.2,245.4z"/>
		</g>
		
			<rect id="Demilitador_da_tela_1_" x="72.5" y="70.8" fill="#FFF6FF" stroke="#000000" stroke-miterlimit="10" width="231.8" height="167.6"/>
		<ellipse fill="#946CE9" stroke="#946CE9" stroke-miterlimit="10" cx="189" cy="242.1" rx="1.4" ry="1.4"/>
	</g>
	<g id="Arquivos">
		<g id="Coluna_2">
			<g id="Arquivo_1_">
				<g id="Icone_do_arquivo_1_">
					<path fill="#464646" d="M154.7,153.9v20c0,0.4-0.3,0.8-0.7,0.8h-19c-0.4,0-0.7-0.4-0.7-0.8v-25.1c0-0.4,0.3-0.8,0.7-0.8h15.2
						v5.4c0,0.3,0.2,0.5,0.4,0.5H154.7z"/>
					<path fill="#CCCCCC" d="M154.7,153.9h-4c-0.2,0-0.4-0.2-0.4-0.5v-5.4h0.1L154.7,153.9z"/>
					<rect x="139.7" y="153.7" fill="#CCCCCC" width="9.7" height="1.4"/>
					<rect x="139.7" y="156.6" fill="#CCCCCC" width="9.7" height="1.4"/>
					<rect x="139.7" y="159.5" fill="#CCCCCC" width="9.7" height="1.4"/>
				</g>
				<path fill="#606060" d="M153,180h-16.9c-0.6,0-1.1-0.5-1.1-1.1V177c0-0.6,0.5-1.1,1.1-1.1H153c0.6,0,1.1,0.5,1.1,1.1v1.9
					C154.1,179.5,153.6,180,153,180z"/>
			</g>
			<g id="Imagem_1_">
				<g id="Icone_da_Imagem_1_">
					<path fill="#464646" d="M204.4,154.3v20c0,0.4-0.3,0.8-0.7,0.8h-19c-0.4,0-0.7-0.4-0.7-0.8v-25.1c0-0.4,0.3-0.8,0.7-0.8h15.2
						v5.4c0,0.3,0.2,0.5,0.4,0.5H204.4z"/>
					<path fill="#CCCCCC" d="M204.4,154.3h-4c-0.2,0-0.4-0.2-0.4-0.5v-5.4h0.1L204.4,154.3z"/>
					<rect x="189.4" y="168.9" fill="#CCCCCC" width="9.7" height="1.4"/>
					<g id="Img_1_">
						<path fill="#CCCCCC" d="M194.2,164.7c-1.3,0-2.7,0-4,0c-0.8,0-1.5-0.6-1.6-1.4c0-0.1,0-0.2,0-0.4c0-2.2,0-4.4,0-6.5
							c0-0.9,0.5-1.6,1.3-1.8c0.1,0,0.2,0,0.3,0c2.7,0,5.3,0,8,0c1,0,1.7,0.8,1.7,1.8c0,2.2,0,4.4,0,6.5c0,1.1-0.7,1.8-1.7,1.8
							C196.9,164.7,195.5,164.7,194.2,164.7z M199.4,162c0,0,0-0.1,0-0.1c0-1.8,0-3.7,0-5.5c0-0.1,0-0.2,0-0.3c-0.1-0.6-0.6-1-1.1-1
							c-2.7,0-5.4,0-8.1,0c-0.1,0-0.1,0-0.2,0c-0.6,0.1-1,0.6-1,1.2c0,1.7,0,3.5,0,5.2c0,0,0,0.1,0,0.1c0,0,0-0.1,0.1-0.1
							c1-1,1.9-2.1,2.9-3.1c0.2-0.2,0.3-0.2,0.5,0c0.7,0.8,1.4,1.5,2.1,2.3c0.1,0.1,0.1,0.1,0.2,0c0.5-0.6,1-1.1,1.5-1.6
							c0.2-0.2,0.3-0.2,0.5,0c0.6,0.7,1.3,1.4,1.9,2.1C198.9,161.4,199.1,161.7,199.4,162z M196.2,164.2c0.7,0,1.4,0,2,0
							c0.1,0,0.2,0,0.3,0c0.6-0.1,0.9-0.6,0.9-1.2c0-0.1,0-0.2-0.1-0.3c-0.9-1-1.8-2-2.7-3c-0.1-0.1-0.1-0.1-0.2,0
							c-0.5,0.5-1,1.1-1.5,1.6c0,0-0.1,0.1-0.1,0.2c-0.3,0.9-0.6,1.8-1,2.6c0,0.1,0,0.1,0.1,0.1
							C194.7,164.1,195.4,164.2,196.2,164.2z M190.5,164.2c0.2,0,0.4,0,0.5,0c0.1,0,0.1,0,0.2-0.1c1-0.9,2-1.9,3-2.8
							c0.1-0.1,0.1-0.1,0-0.2c-0.6-0.7-1.3-1.4-1.9-2.1c-0.1-0.1-0.1-0.1-0.2,0c-0.9,1-1.8,2-2.7,3c-0.1,0.1-0.3,0.2-0.3,0.4
							c-0.1,0.2,0,0.4,0,0.6c0,0.6,0.4,1.1,0.9,1.2C190.1,164.2,190.4,164.1,190.5,164.2z M194.1,162.1
							C194,162.1,194,162.1,194.1,162.1c-0.7,0.7-1.4,1.3-2.1,2c0.5,0,0.9,0,1.3,0c0.1,0,0.1,0,0.1-0.1c0.2-0.6,0.4-1.1,0.6-1.7
							C194,162.3,194,162.2,194.1,162.1z"/>
						<path fill="#CCCCCC" d="M194.5,159c-0.6,0-1.1-0.5-1.1-1.2c0-0.7,0.5-1.2,1.1-1.2c0.6,0,1.1,0.5,1.1,1.2
							C195.6,158.5,195.1,159,194.5,159z M195.1,157.9c0-0.4-0.3-0.7-0.6-0.6c-0.3,0-0.6,0.3-0.6,0.7c0,0.4,0.3,0.6,0.6,0.6
							C194.8,158.5,195.1,158.2,195.1,157.9z"/>
					</g>
				</g>
				<path fill="#606060" d="M202.7,180.5h-16.9c-0.6,0-1.1-0.5-1.1-1.1v-1.9c0-0.6,0.5-1.1,1.1-1.1h16.9c0.6,0,1.1,0.5,1.1,1.1v1.9
					C203.8,180,203.3,180.5,202.7,180.5z"/>
			</g>
			<g id="Imagem_4_">
				<g id="Icone_da_Imagem_4_">
					<path fill="#464646" d="M254.7,154.5v20c0,0.4-0.3,0.8-0.7,0.8h-19c-0.4,0-0.7-0.4-0.7-0.8v-25.1c0-0.4,0.3-0.8,0.7-0.8h15.2
						v5.4c0,0.3,0.2,0.5,0.4,0.5H254.7z"/>
					<path fill="#CCCCCC" d="M254.6,154.5h-4c-0.2,0-0.4-0.2-0.4-0.5v-5.4h0.1L254.6,154.5z"/>
					<rect x="239.6" y="169.1" fill="#CCCCCC" width="9.7" height="1.4"/>
					<g id="Logo_1_">
						<path fill="#505050" d="M248.3,166.7h-7.7c-1.5,0-2.8-1.3-2.8-2.8v-7.6c0-1.5,1.3-2.8,2.8-2.8h7.7c1.5,0,2.8,1.3,2.8,2.8v7.6
							C251.1,165.4,249.8,166.7,248.3,166.7z"/>
						<g id="Logo">
							<ellipse fill="#333333" cx="244.4" cy="160.1" rx="5.1" ry="5.4"/>
							<g>
								<g>
									<path fill="#BFBFBF" d="M244.2,162.6C244.2,162.6,244.2,162.6,244.2,162.6l0-5.1c0,0,0,0,0,0c0.8,0.5,1.4,1.4,1.5,2.4
										C245.8,161.1,245.2,162.1,244.2,162.6z"/>
									<path fill="#F2F2F2" d="M244.2,157.5v5.1c-0.8-0.5-1.4-1.4-1.4-2.4C242.8,159,243.3,158,244.2,157.5z"/>
								</g>
								<linearGradient id="SVGID_1_" gradientUnits="userSpaceOnUse" x1="243.5417" y1="160.6825" x2="247.1956" y2="160.6825">
									<stop  offset="0.1043" style="stop-color:#686CE9"/>
									<stop  offset="0.3476" style="stop-color:#946CE9"/>
									<stop  offset="0.6498" style="stop-color:#B66DD5"/>
									<stop  offset="0.8717" style="stop-color:#CB6EC9"/>
									<stop  offset="1" style="stop-color:#CB91C9"/>
								</linearGradient>
								<path fill="url(#SVGID_1_)" d="M246.1,161.5c-0.8,0.8-1.7,1.1-2.6,1c-0.1-0.9,0.3-1.9,1.1-2.7c0.8-0.8,1.7-1.1,2.6-1
									C247.3,159.7,246.9,160.8,246.1,161.5z"/>
								<linearGradient id="SVGID_2_" gradientUnits="userSpaceOnUse" x1="241.3436" y1="160.6369" x2="244.9975" y2="160.6369">
									<stop  offset="0.1043" style="stop-color:#686CE9"/>
									<stop  offset="0.3476" style="stop-color:#946CE9"/>
									<stop  offset="0.6498" style="stop-color:#B66DD5"/>
									<stop  offset="0.8717" style="stop-color:#CB6EC9"/>
									<stop  offset="1" style="stop-color:#CB91C9"/>
								</linearGradient>
								<path fill="url(#SVGID_2_)" d="M242.4,161.5c0.8,0.8,1.7,1.1,2.6,1c0.1-0.9-0.3-1.9-1.1-2.7c-0.8-0.8-1.7-1.1-2.6-1
									C241.3,159.7,241.6,160.7,242.4,161.5z"/>
								<linearGradient id="SVGID_3_" gradientUnits="userSpaceOnUse" x1="243.5764" y1="161.3288" x2="248.2167" y2="161.3288">
									<stop  offset="0.1043" style="stop-color:#686CE9"/>
									<stop  offset="0.3476" style="stop-color:#946CE9"/>
									<stop  offset="0.6498" style="stop-color:#B66DD5"/>
									<stop  offset="0.8717" style="stop-color:#CB6EC9"/>
									<stop  offset="1" style="stop-color:#CB91C9"/>
								</linearGradient>
								<path fill="url(#SVGID_3_)" d="M246.3,162.4c-1,0.4-2,0.4-2.7-0.1c0.2-0.9,0.9-1.7,1.9-2.1s2-0.4,2.7,0.1
									C248,161.2,247.3,162,246.3,162.4z"/>
								<linearGradient id="SVGID_4_" gradientUnits="userSpaceOnUse" x1="240.6323" y1="161.3288" x2="245.2726" y2="161.3288">
									<stop  offset="0.1043" style="stop-color:#686CE9"/>
									<stop  offset="0.3476" style="stop-color:#946CE9"/>
									<stop  offset="0.6498" style="stop-color:#B66DD5"/>
									<stop  offset="0.8717" style="stop-color:#CB6EC9"/>
									<stop  offset="1" style="stop-color:#CB91C9"/>
								</linearGradient>
								<path fill="url(#SVGID_4_)" d="M242.5,162.4c1,0.4,2,0.4,2.7-0.1c-0.2-0.9-0.9-1.7-1.9-2.1s-2-0.4-2.7,0.1
									C240.9,161.2,241.6,162,242.5,162.4z"/>
							</g>
						</g>
						<ellipse fill="#464646" cx="249.6" cy="165.8" rx="2.4" ry="2.5"/>
						<ellipse fill="#333333" cx="249.6" cy="165.8" rx="1.7" ry="1.8"/>
						<linearGradient id="SVGID_5_" gradientUnits="userSpaceOnUse" x1="248.674" y1="165.7655" x2="250.481" y2="165.7655">
							<stop  offset="0.1043" style="stop-color:#686CE9"/>
							<stop  offset="0.3476" style="stop-color:#946CE9"/>
							<stop  offset="0.6498" style="stop-color:#B66DD5"/>
							<stop  offset="0.8717" style="stop-color:#CB6EC9"/>
							<stop  offset="1" style="stop-color:#CB91C9"/>
						</linearGradient>
						<polygon fill="url(#SVGID_5_)" points="250.5,165.8 249.8,165.4 249.8,167 249.6,167.3 249.4,167 249.4,165.4 248.7,165.8 
							249.6,164.2 						"/>
					</g>
				</g>
				<path fill="#606060" d="M253,180.6H236c-0.6,0-1.1-0.5-1.1-1.1v-1.9c0-0.6,0.5-1.1,1.1-1.1H253c0.6,0,1.1,0.5,1.1,1.1v1.9
					C254.1,180.1,253.6,180.6,253,180.6z"/>
			</g>
		</g>
		<g id="Coluna_1">
			<g id="Pasta">
				<g id="Icone_de_pasta">
					<path fill="#FEC756" d="M159.7,131h-29.4c-0.9,0-1.6-0.8-1.6-1.7l-1-20.1c0-0.5,0.4-0.9,0.8-0.9h32.7c0.5,0,0.8,0.4,0.8,0.9
						l-0.7,20.1C161.3,130.2,160.6,131,159.7,131z"/>
					<path fill="#E8B356" d="M160.8,107.4h-31.5c-0.3,0-0.6-0.2-0.6-0.6v-1.7c0-0.3,0.2-0.6,0.6-0.6h31.5c0.3,0,0.6,0.2,0.6,0.6v1.7
						C161.3,107.1,161.1,107.4,160.8,107.4z"/>
					<rect x="129.9" y="110" fill="#606060" width="5.7" height="1"/>
					<path fill="#E8B356" d="M135.7,105.8h-6.4c-0.3,0-0.6-0.2-0.6-0.6v-1.7c0-0.3,0.2-0.6,0.6-0.6h6.4c0.3,0,0.6,0.2,0.6,0.6v1.7
						C136.3,105.5,136,105.8,135.7,105.8z"/>
				</g>
				<path fill="#606060" d="M155.3,136.5h-20.9c-0.6,0-1.1-0.5-1.1-1.1v-1.9c0-0.6,0.5-1.1,1.1-1.1h20.9c0.6,0,1.1,0.5,1.1,1.1v1.9
					C156.4,136,155.9,136.5,155.3,136.5z"/>
			</g>
			<g id="Pasta_1_">
				<g id="Icone_de_pasta_1_">
					<path fill="#FEC756" d="M209.5,131H180c-0.9,0-1.6-0.8-1.6-1.7l-1-20.1c0-0.5,0.4-0.9,0.8-0.9H211c0.5,0,0.8,0.4,0.8,0.9
						l-0.7,20.1C211.1,130.2,210.3,131,209.5,131z"/>
					<path fill="#E8B356" d="M210.5,107.4H179c-0.3,0-0.6-0.2-0.6-0.6v-1.7c0-0.3,0.2-0.6,0.6-0.6h31.5c0.3,0,0.6,0.2,0.6,0.6v1.7
						C211.1,107.1,210.8,107.4,210.5,107.4z"/>
					<rect x="179.6" y="110" fill="#606060" width="5.7" height="1"/>
					<path fill="#E8B356" d="M185.5,105.8H179c-0.3,0-0.6-0.2-0.6-0.6v-1.7c0-0.3,0.2-0.6,0.6-0.6h6.4c0.3,0,0.6,0.2,0.6,0.6v1.7
						C186,105.5,185.8,105.8,185.5,105.8z"/>
				</g>
				<path fill="#606060" d="M205,136.5h-20.9c-0.6,0-1.1-0.5-1.1-1.1v-1.9c0-0.6,0.5-1.1,1.1-1.1H205c0.6,0,1.1,0.5,1.1,1.1v1.9
					C206.2,136,205.7,136.5,205,136.5z"/>
			</g>
			<g id="Arquivo_7_">
				<g id="Icone_do_arquivo_7_">
					<path fill="#464646" d="M254.7,110.4v20c0,0.4-0.3,0.8-0.7,0.8h-19c-0.4,0-0.7-0.4-0.7-0.8v-25.1c0-0.4,0.3-0.8,0.7-0.8h15.2
						v5.4c0,0.3,0.2,0.5,0.4,0.5H254.7z"/>
					<path fill="#CCCCCC" d="M254.6,110.4h-4c-0.2,0-0.4-0.2-0.4-0.5v-5.4h0.1L254.6,110.4z"/>
					<rect x="239.6" y="110.2" fill="#CCCCCC" width="9.7" height="1.4"/>
					<rect x="239.6" y="113.1" fill="#CCCCCC" width="9.7" height="1.4"/>
					<rect x="239.6" y="116" fill="#CCCCCC" width="9.7" height="1.4"/>
				</g>
				<path fill="#606060" d="M252.9,136.5H236c-0.6,0-1.1-0.5-1.1-1.1v-1.9c0-0.6,0.5-1.1,1.1-1.1h16.9c0.6,0,1.1,0.5,1.1,1.1v1.9
					C254.1,136,253.6,136.5,252.9,136.5z"/>
			</g>
		</g>
	</g>
	<path id="Ponteiro_do_Mouse" fill="#464646" d="M252.1,172.5c0.1,0.1,0.2,0,0.3,0c0.9,0.1,1.7,0.8,1.9,1.8c0.3,1.5,0.6,3.1,0.9,4.6
		c0,0.2,0.1,0.2,0.2,0.1c0.8-0.4,1.7-0.3,2.4,0.4c0.1,0.1,0.2,0.1,0.3,0c1-0.8,2.5-0.5,3.1,0.7c0.1,0.2,0.1,0.2,0.3,0.1
		c1.3-0.7,2.9,0.1,3.2,1.6c0.3,1.3,0.6,2.7,0.8,4c0.5,2.6-0.1,4.8-1.7,6.8c-1,1.2-2.3,2-3.8,2.3c-0.8,0.2-1.5,0.4-2.3,0.4
		c-2.2,0.2-4.2-0.5-5.8-2.2c-1.5-1.5-2.9-3.1-4.3-4.7c-0.8-0.8-0.8-2-0.1-2.9c1.1-1.3,3.1-1.5,4.4-0.4c0.1,0,0.1,0.1,0.2,0.2
		c0-0.1,0-0.2-0.1-0.3c-0.7-3.2-1.3-6.5-2-9.7c-0.3-1.4,0.1-2.3,1.3-2.9c0,0,0,0,0,0C251.7,172.5,251.9,172.5,252.1,172.5z
		 M252.8,181.2c0.4,2,0.8,4.1,1.2,6.1c0,0.1,0,0.2,0,0.3c0,0.3-0.1,0.6-0.4,0.7c-0.3,0.1-0.6,0.1-0.8-0.1c-0.5-0.5-1.1-1-1.6-1.5
		c-0.8-0.7-1.9-0.7-2.6,0.1c-0.2,0.2-0.2,0.5,0,0.7c1.5,1.6,2.9,3.2,4.5,4.8c1.3,1.3,2.8,1.8,4.5,1.6c0.8-0.1,1.5-0.3,2.2-0.4
		c0.9-0.2,1.8-0.6,2.5-1.3c1.5-1.4,2.2-3.2,2-5.3c0-0.1,0-0.2,0-0.3c-0.3-1.4-0.6-2.8-0.8-4.2c-0.1-0.5-0.5-0.7-0.9-0.7
		c-0.4,0.1-0.6,0.5-0.6,0.9c0,0.2,0.1,0.5,0.1,0.7c0,0.1,0,0.3,0,0.4c-0.1,0.4-0.4,0.6-0.7,0.6c-0.3,0-0.6-0.2-0.7-0.6
		c-0.2-0.8-0.3-1.5-0.5-2.3c-0.1-0.5-0.4-0.7-0.8-0.7c-0.4,0.1-0.7,0.4-0.6,1c0.1,0.5,0.2,1,0.3,1.5c0.1,0.4,0,0.7-0.3,0.9
		c-0.4,0.3-1,0-1.1-0.6c-0.2-0.7-0.3-1.4-0.4-2.2c0-0.1,0-0.2-0.1-0.4c-0.2-0.3-0.5-0.5-0.9-0.4c-0.3,0.1-0.5,0.5-0.4,0.9
		c0.1,0.5,0.2,1,0.3,1.5c0.1,0.3-0.1,0.7-0.3,0.8c-0.4,0.3-1,0-1.1-0.6c-0.6-2.8-1.1-5.5-1.7-8.3c0-0.1,0-0.2-0.1-0.2
		c-0.1-0.3-0.3-0.5-0.6-0.6c-0.5-0.1-0.9,0.4-0.8,1C252,177.1,252.4,179.1,252.8,181.2z"/>
	<g id="Botões">
		<path fill="#464646" d="M284.9,229.8h-27.3c-0.6,0-1.1-0.5-1.1-1.1v-7c0-0.6,0.5-1.1,1.1-1.1h27.3c0.6,0,1.1,0.5,1.1,1.1v7
			C286,229.3,285.5,229.8,284.9,229.8z"/>
		<path fill="#606060" d="M252.1,229.8h-27.3c-0.6,0-1.1-0.5-1.1-1.1v-7c0-0.6,0.5-1.1,1.1-1.1h27.3c0.6,0,1.1,0.5,1.1,1.1v7
			C253.3,229.3,252.8,229.8,252.1,229.8z"/>
	</g>
	<g id="SideBar">
		<path fill="#464646" d="M72.9,237.9h45v-153h-45L72.9,237.9C72.9,237.8,72.9,237.9,72.9,237.9z"/>
		<g id="Abas">
			<path fill="#CCCCCC" d="M108.4,98.8H79.2c-0.6,0-1.1-0.5-1.1-1.1v-1.2c0-0.6,0.5-1.1,1.1-1.1h29.1c0.6,0,1.1,0.5,1.1,1.1v1.2
				C109.5,98.3,109,98.8,108.4,98.8z"/>
			<path fill="#CCCCCC" d="M108.4,112.9H91.6c-0.6,0-1.1-0.5-1.1-1.1v-1.2c0-0.6,0.5-1.1,1.1-1.1h16.8c0.6,0,1.1,0.5,1.1,1.1v1.2
				C109.5,112.4,109,112.9,108.4,112.9z"/>
			<path fill="#CCCCCC" d="M86.6,112.9h-7.5c-0.6,0-1.1-0.5-1.1-1.1v-1.2c0-0.6,0.5-1.1,1.1-1.1h7.5c0.6,0,1.1,0.5,1.1,1.1v1.2
				C87.7,112.4,87.2,112.9,86.6,112.9z"/>
			<path fill="#CCCCCC" d="M108.4,123.2H79.2c-0.6,0-1.1-0.5-1.1-1.1v-1.2c0-0.6,0.5-1.1,1.1-1.1h29.1c0.6,0,1.1,0.5,1.1,1.1v1.2
				C109.5,122.7,109,123.2,108.4,123.2z"/>
			<path fill="#CCCCCC" d="M95.2,133.4h-16c-0.6,0-1.1-0.5-1.1-1.1v-1.4c0-0.6,0.5-1.1,1.1-1.1h16c0.6,0,1.1,0.5,1.1,1.1v1.4
				C96.3,132.9,95.8,133.4,95.2,133.4z"/>
			<path fill="#CCCCCC" d="M108.2,133.4H100c-0.6,0-1.1-0.5-1.1-1.1v-1.2c0-0.6,0.5-1.1,1.1-1.1h8.2c0.6,0,1.1,0.5,1.1,1.1v1.2
				C109.3,132.9,108.8,133.4,108.2,133.4z"/>
			<path fill="#CCCCCC" d="M108.4,143.7H79.2c-0.6,0-1.1-0.5-1.1-1.1v-1.2c0-0.6,0.5-1.1,1.1-1.1h29.1c0.6,0,1.1,0.5,1.1,1.1v1.2
				C109.5,143.2,109,143.7,108.4,143.7z"/>
			<path fill="#CCCCCC" d="M108.4,153.9H79.2c-0.6,0-1.1-0.5-1.1-1.1v-1.2c0-0.6,0.5-1.1,1.1-1.1h29.1c0.6,0,1.1,0.5,1.1,1.1v1.2
				C109.5,153.4,109,153.9,108.4,153.9z"/>
		</g>
	</g>
	<g id="Header">
		<rect x="73" y="71.3" fill="#333333" width="230.8" height="14.4"/>
		<path fill="#1B1B1B" d="M303.8,86.6H73.5c-0.3,0-0.5-0.2-0.5-0.5v-1.2h230.8V86.6z"/>
		<path fill="#FFF6FF" d="M149.1,81.6H83.3c-1.1,0-1.9-0.9-1.9-1.9v-1.4c0-1.1,0.9-1.9,1.9-1.9h65.8c1.1,0,1.9,0.9,1.9,1.9v1.4
			C151,80.8,150.2,81.6,149.1,81.6z"/>
		<path fill="#FFF6FF" d="M238.7,71.3h65.1v13.6H241c-1.3,0-2.4-1.1-2.4-2.4V71.3z"/>
		<ellipse fill="none" stroke="#76DD63" stroke-width="2.5" stroke-miterlimit="10" cx="283.7" cy="79.7" rx="0.5" ry="0.6"/>
		<ellipse fill="none" stroke="#FFDD63" stroke-width="2.5" stroke-miterlimit="10" cx="289.6" cy="79.7" rx="0.5" ry="0.6"/>
		<ellipse stroke="#FF2E63" stroke-width="2.5" stroke-miterlimit="10" cx="295.6" cy="79.7" rx="0.5" ry="0.6"/>
	</g>
</g>
</svg>
