<?xml version="1.0" encoding="utf-8"?>
<!-- Generator: Adobe Illustrator 24.0.1, SVG Export Plug-In . SVG Version: 6.00 Build 0)  -->
<svg version="1.0" id="Camada_1" xmlns="http://www.w3.org/2000/svg" xmlns:xlink="http://www.w3.org/1999/xlink" x="0px" y="0px"
	 viewBox="0 0 320.9 317" enable-background="new 0 0 320.9 317" xml:space="preserve">
<g id="Etapa_3">
	<path id="Fundo_3" fill="#F8F0FB" d="M52.9,50.6h252.7c8.2,0,14.9,6.7,14.9,14.9v236.2c0,8.2-6.7,14.9-14.9,14.9H67.8
		c-8.2,0-14.9-6.7-14.9-14.9V50.6z"/>
	<circle fill="#946CE9" cx="29.1" cy="29" r="29.3"/>
	<g>
		<g>
			<path fill="#FFFFFF" stroke="#FFFFFF" stroke-miterlimit="10" d="M30.7,18h-9.2v-0.4h9.2c3,0,5.3,2.4,5.3,5.3
				c0,2.3-1.5,4.3-3.7,5c1.5,0.3,2.8,0.8,3.9,1.7c2-1.6,3.2-4,3.2-6.7c0-4.9-4-8.8-8.8-8.8h-9.2v-0.4h9.2c5.1,0,9.3,4.1,9.3,9.3
				c0,2.8-1.3,5.3-3.3,7c2,1.7,3.3,4.3,3.3,7.1c0,5.1-4.1,9.2-9.3,9.2h-9.2v-0.4h9.2c4.9,0,8.8-3.9,8.8-8.8c0-4.8-3.9-8.7-8.6-8.8
				h-9.4v-0.4h9.4c2.6-0.1,4.7-2.3,4.7-4.9C35.7,20.2,33.4,18,30.7,18z M30.7,32.1h-9.2v-0.4h9.2c3,0,5.3,2.4,5.3,5.3
				s-2.4,5.3-5.3,5.3h-9.2v-0.4h9.2c2.7,0,4.9-2.2,4.9-4.9S33.4,32.1,30.7,32.1z"/>
		</g>
	</g>
	<g id="Pc_12_">
		<g id="Estrutura">
			<polygon id="Braço" fill="#1B1B1B" points="213.9,278.7 160.2,278.7 162.4,245.6 211.7,245.6 			"/>
			
				<line id="Base_4_" fill="none" stroke="#1B1B1B" stroke-width="2.5" stroke-miterlimit="10" x1="138.1" y1="280.5" x2="235.3" y2="280.5"/>
			<path id="Tela_1_" fill="#1B1B1B" d="M305.9,245H67.5c-2.6,0-4.8-2.1-4.8-4.8v-172c0-2.6,2.1-4.8,4.8-4.8h238.4
				c2.6,0,4.8,2.1,4.8,4.8v172C310.7,242.9,308.5,245,305.9,245z"/>
		</g>
		
			<rect id="Demilitador_da_tela_4_" x="69.6" y="70.4" fill="#FFF6FF" stroke="#000000" stroke-miterlimit="10" width="234.4" height="167.6"/>
		<circle fill="#946CE9" stroke="#946CE9" stroke-miterlimit="10" cx="186.7" cy="241.4" r="1.4"/>
	</g>
	<linearGradient id="SVGID_1_" gradientUnits="userSpaceOnUse" x1="80.5805" y1="149.7771" x2="180.0252" y2="149.7771">
		<stop  offset="0.1043" style="stop-color:#686CE9"/>
		<stop  offset="0.3476" style="stop-color:#946CE9"/>
		<stop  offset="0.6498" style="stop-color:#B66DD5"/>
		<stop  offset="0.8717" style="stop-color:#CB6EC9"/>
		<stop  offset="1" style="stop-color:#CB91C9"/>
	</linearGradient>
	<polygon fill="url(#SVGID_1_)" points="162,188.9 112.3,196.8 80.6,157.7 98.6,110.7 148.3,102.8 180,141.8 	"/>
	<g id="Produtos_2_">
		<g id="Camisa">
			<path fill="#946CE9" stroke="#000000" stroke-miterlimit="10" d="M152.9,183.5c2,0,3.6-1.8,3.6-3.9v5.1c0,1.7-1.4,3-3.1,3h-45.5
				c-1.7,0-3.1-1.3-3.1-3v-5.1c0,2.2,1.6,3.9,3.6,3.9h5.3"/>
			<path fill="#1B1B1B" stroke="#000000" stroke-width="1.5" stroke-miterlimit="10" d="M167.3,130.4l-5.1,6.4
				c-0.7,0.8-1.9,1-2.8,0.3l-2.9-2.2v44.6c0,2.2-1.6,3.9-3.6,3.9c0,0-28.8,0-23.1,0h-15.9c0,0-5.5,0-5.5,0c-2,0-3.6-1.8-3.6-3.9
				v-44.7l-3,2.3c-0.9,0.7-2.1,0.5-2.8-0.3l-5.1-6.4c-0.7-0.8-0.5-2.1,0.3-2.7l12.4-9.5c0.4-0.3,1-0.5,1.5-0.4h0c0.1,0,0.2,0,0.4,0
				h8.6c0,1.5,0.2,2.9,0.7,4.2c0,0.1,0,0.1,0.1,0.2c1.8,5,6.8,8.7,12.6,8.7c5.8,0,10.7-3.6,12.6-8.7c0-0.1,0-0.1,0.1-0.2
				c0.5-1.3,0.7-2.7,0.7-4.2h9.2c0.1,0,0.2,0,0.3,0c0.5,0,1,0.1,1.4,0.4l12.4,9.5C167.8,128.4,168,129.6,167.3,130.4z"/>
			<path fill="#946CE9" stroke="#000000" stroke-miterlimit="10" d="M167.4,130.1l-5.5,7c-0.6,0.7-1.6,0.9-2.3,0.3l-0.3-0.2
				c-0.2-0.1-0.3-0.3-0.5-0.5l7.5-9.3c0.2,0.1,0.3,0.1,0.4,0.2l0.3,0.2C167.8,128.4,167.9,129.4,167.4,130.1z"/>
			<path fill="#946CE9" stroke="#000000" stroke-miterlimit="10" d="M93.7,130.1l5.5,7c0.6,0.7,1.6,0.9,2.3,0.3l0.3-0.2
				c0.2-0.1,0.3-0.3,0.5-0.5l-7.5-9.3c-0.2,0.1-0.3,0.1-0.4,0.2l-0.3,0.2C93.3,128.4,93.1,129.4,93.7,130.1z"/>
			<path fill="none" stroke="#000000" stroke-miterlimit="10" d="M156.6,144.8c0,0.8,0-9.9,0-9.9l2.9,2.2c0.9,0.7,2.1,0.5,2.8-0.3
				l5.1-6.4c0.7-0.8,0.5-2.1-0.3-2.7l-12.4-9.5c-0.4-0.3-0.9-0.4-1.4-0.4c-0.1,0-0.2,0-0.3,0h-9.2c0,1.5-0.2,2.9-0.7,4.2
				c0,0.1,0,0.1-0.1,0.2c-1.8,5-6.8,8.7-12.6,8.7c-5.8,0-10.7-3.6-12.6-8.7c0-0.1,0-0.1-0.1-0.2c-0.5-1.3-0.7-2.7-0.7-4.2h-8.6
				c-0.1,0-0.2,0-0.4,0h0c-0.5-0.1-1,0.1-1.5,0.4l-12.4,9.5c-0.9,0.7-1,1.9-0.3,2.7l5.1,6.4c0.7,0.8,1.9,1,2.8,0.3l3-2.3v44.7
				c0,2.2,1.6,3.9,3.6,3.9c0,0,6.6,0,5.3,0"/>
			<path fill="#946CE9" stroke="#000000" stroke-miterlimit="10" d="M143.7,117.8c0,1.5-0.2,2.9-0.7,4.2c0,0.1,0,0.1-0.1,0.2
				c-1.8,5-6.8,8.7-12.6,8.7c-5.8,0-10.7-3.6-12.6-8.7c0-0.1,0-0.1-0.1-0.2c-0.5-1.3-0.7-2.7-0.7-4.2h2.4c0,0.1,0,0.1,0,0.2
				c0,1.4,0.3,2.8,0.8,4c0,0.1,0,0.1,0.1,0.2c1.6,3.7,5.4,6.3,9.9,6.3c4.4,0,8.2-2.6,9.9-6.3c0-0.1,0-0.1,0.1-0.2
				c0.5-1.2,0.8-2.6,0.8-4c0-0.1,0-0.1,0-0.2H143.7z"/>
			<path fill="#333333" stroke="#000000" stroke-miterlimit="10" d="M140.9,118.3c0,1.4-0.3,2.7-0.9,3.9c-1.6,3.5-5.3,6-9.7,6
				c-4.3,0-8.1-2.4-9.7-6c-0.6-1.2-0.9-2.5-0.9-3.9c0-0.1,0-0.1,0-0.2h21.1C140.9,118.1,140.9,118.2,140.9,118.3z"/>
			<path fill="none" stroke="#000000" stroke-miterlimit="10" d="M153,183.5c2,0,3.6-1.8,3.6-3.9v5.1c0,1.7-1.4,3-3.1,3H108
				c-1.7,0-3.1-1.3-3.1-3v-5.1c0,2.2,1.6,3.9,3.6,3.9h5.3"/>
			<path fill="none" stroke="#000000" stroke-miterlimit="10" d="M129.9,183.5c-5.8,0,23.1,0,23.1,0c2,0,3.6-1.8,3.6-3.9
				c0,0,0-32.4,0-25.9"/>
			<path fill="none" stroke="#000000" stroke-width="1.3" stroke-miterlimit="10" d="M143.8,117.7c0,1.5-0.2,2.9-0.7,4.2
				c0,0.1,0,0.1-0.1,0.2c-1.8,5-6.8,8.7-12.6,8.7c-5.8,0-10.7-3.6-12.6-8.7c0-0.1,0-0.1-0.1-0.2c-0.5-1.3-0.7-2.7-0.7-4.2H143.8z"/>
			<line fill="#FFFFFF" stroke="#000000" stroke-miterlimit="10" x1="94.7" y1="127.3" x2="102.2" y2="136.7"/>
			<line fill="#FFFFFF" stroke="#000000" stroke-miterlimit="10" x1="166.6" y1="127.3" x2="159.1" y2="136.7"/>
			<line fill="none" stroke="#946CE9" stroke-miterlimit="10" x1="108.8" y1="136.7" x2="116.1" y2="136.7"/>
			<line fill="#333333" stroke="#000000" stroke-miterlimit="10" x1="117" y1="117.8" x2="143.7" y2="117.8"/>
			<g id="Logo_6_">
				<path fill="#505050" d="M139.9,163.4h-18.5c-1.5,0-2.8-1.3-2.8-2.8v-18.1c0-1.5,1.3-2.8,2.8-2.8h18.5c1.5,0,2.8,1.3,2.8,2.8
					v18.1C142.7,162.2,141.4,163.4,139.9,163.4z"/>
				<g id="Logo_7_">
					<ellipse fill="#333333" cx="130.6" cy="151.6" rx="9.2" ry="9.6"/>
					<g>
						<g>
							<path fill="#BFBFBF" d="M130.3,156.1C130.3,156.1,130.3,156.1,130.3,156.1l0-9.1c0,0,0,0,0.1,0c1.5,0.8,2.6,2.5,2.6,4.4
								C133.1,153.4,132,155.2,130.3,156.1z"/>
							<path fill="#F2F2F2" d="M130.3,147v9.1c-1.5-0.8-2.6-2.5-2.6-4.4C127.6,149.7,128.7,147.9,130.3,147z"/>
						</g>
						<linearGradient id="SVGID_2_" gradientUnits="userSpaceOnUse" x1="129.0227" y1="152.6646" x2="135.6367" y2="152.6646">
							<stop  offset="0.1043" style="stop-color:#686CE9"/>
							<stop  offset="0.3476" style="stop-color:#946CE9"/>
							<stop  offset="0.6498" style="stop-color:#B66DD5"/>
							<stop  offset="0.8717" style="stop-color:#CB6EC9"/>
							<stop  offset="1" style="stop-color:#CB91C9"/>
						</linearGradient>
						<path fill="url(#SVGID_2_)" d="M133.7,154.2c-1.4,1.4-3.1,2-4.7,1.8c-0.1-1.6,0.5-3.4,1.9-4.8c1.4-1.4,3.1-2,4.7-1.8
							C135.8,151,135.1,152.8,133.7,154.2z"/>
						<linearGradient id="SVGID_3_" gradientUnits="userSpaceOnUse" x1="125.0438" y1="152.583" x2="131.6578" y2="152.583">
							<stop  offset="0.1043" style="stop-color:#686CE9"/>
							<stop  offset="0.3476" style="stop-color:#946CE9"/>
							<stop  offset="0.6498" style="stop-color:#B66DD5"/>
							<stop  offset="0.8717" style="stop-color:#CB6EC9"/>
							<stop  offset="1" style="stop-color:#CB91C9"/>
						</linearGradient>
						<path fill="url(#SVGID_3_)" d="M127,154.1c1.4,1.4,3.1,2,4.7,1.8c0.1-1.6-0.5-3.4-1.9-4.8c-1.4-1.4-3.1-2-4.7-1.8
							C124.9,150.9,125.6,152.7,127,154.1z"/>
						<linearGradient id="SVGID_4_" gradientUnits="userSpaceOnUse" x1="129.0855" y1="153.8217" x2="137.485" y2="153.8217">
							<stop  offset="0.1043" style="stop-color:#686CE9"/>
							<stop  offset="0.3476" style="stop-color:#946CE9"/>
							<stop  offset="0.6498" style="stop-color:#B66DD5"/>
							<stop  offset="0.8717" style="stop-color:#CB6EC9"/>
							<stop  offset="1" style="stop-color:#CB91C9"/>
						</linearGradient>
						<path fill="url(#SVGID_4_)" d="M134,155.7c-1.8,0.8-3.6,0.7-5-0.1c0.4-1.5,1.7-3,3.4-3.7c1.8-0.8,3.6-0.7,5,0.1
							C137.1,153.5,135.8,155,134,155.7z"/>
						<linearGradient id="SVGID_5_" gradientUnits="userSpaceOnUse" x1="123.7563" y1="153.8217" x2="132.1558" y2="153.8217">
							<stop  offset="0.1043" style="stop-color:#686CE9"/>
							<stop  offset="0.3476" style="stop-color:#946CE9"/>
							<stop  offset="0.6498" style="stop-color:#B66DD5"/>
							<stop  offset="0.8717" style="stop-color:#CB6EC9"/>
							<stop  offset="1" style="stop-color:#CB91C9"/>
						</linearGradient>
						<path fill="url(#SVGID_5_)" d="M127.2,155.7c1.8,0.8,3.6,0.7,5-0.1c-0.4-1.5-1.7-3-3.4-3.7c-1.8-0.8-3.6-0.7-5,0.1
							C124.2,153.5,125.4,155,127.2,155.7z"/>
					</g>
				</g>
			</g>
		</g>
		<g id="Caneca">
			<path fill="#F8F0FB" stroke="#000000" stroke-miterlimit="10" d="M161.2,173.7v6.3c0,0.5-0.4,0.9-0.9,0.9h-3v-8.1h3
				C160.8,172.8,161.2,173.2,161.2,173.7z"/>
			<path fill="#F8F0FB" stroke="#000000" stroke-miterlimit="10" d="M155.9,168.5C156,168.5,156,168.4,155.9,168.5
				c-1-0.3-4.7-1.1-7.5-1.1c-3.3,0-6.9,0.8-8,1c-0.1,0,3.5,1.1,5.2,1.1c0.6,0,2.8,0,2.8,0c0,0,0,0,0,0
				C150.1,169.6,155.9,168.5,155.9,168.5z"/>
			<path fill="#F8F0FB" stroke="#000000" stroke-miterlimit="10" d="M157.3,169.8v16.8c0,0.7-0.6,1.3-1.4,1.3c0,0-3.6,1.1-7.5,1.1
				c-4.4,0-8.1-1.1-8.1-1.1c-0.8,0-1.4-0.6-1.4-1.3v-16.8c0-0.7,0.6-1.3,1.4-1.3c0,0,4.2,1.1,7.5,1.1c2.8,0,8.1-1.1,8.1-1.1
				C156.7,168.5,157.3,169.1,157.3,169.8z"/>
			<g id="Logo_4_">
				<g>
					<path fill="#505050" d="M150.5,183.8c-1.7,0.1-3.4,0.1-5,0c-1.6-0.1-2.8-1.6-2.8-3.2c0-1.6,0-3.2,0-4.8c0-1.6,1.2-2.6,2.8-2.4
						c1.7,0.1,3.4,0.1,5,0c1.6-0.1,2.8,0.9,2.8,2.4c0,1.6,0,3.2,0,4.8C153.3,182.2,152.1,183.7,150.5,183.8z"/>
					<g id="Logo_12_">
						<path fill="#333333" d="M152,178.5c0,2.3-1.8,4.5-4,4.5c-2.2,0-4-2.2-4-4.5c0-2.3,1.8-4,4-4C150.2,174.5,152,176.1,152,178.5z
							"/>
						<g>
							<g>
								<path fill="#BFBFBF" d="M147.8,180.7C147.8,180.7,147.8,180.7,147.8,180.7c0-1.3,0-2.7,0-4c0,0,0,0,0,0
									c0.7,0.4,1.1,1.1,1.2,1.9C149.1,179.5,148.6,180.3,147.8,180.7z"/>
								<path fill="#F2F2F2" d="M147.8,176.7c0,1.3,0,2.7,0,4c-0.7-0.4-1.1-1.1-1.2-2C146.6,177.9,147.1,177.1,147.8,176.7z"/>
							</g>
							<linearGradient id="SVGID_6_" gradientUnits="userSpaceOnUse" x1="147.2779" y1="179.1631" x2="150.2015" y2="179.1631">
								<stop  offset="0.1043" style="stop-color:#686CE9"/>
								<stop  offset="0.3476" style="stop-color:#946CE9"/>
								<stop  offset="0.6498" style="stop-color:#B66DD5"/>
								<stop  offset="0.8717" style="stop-color:#CB6EC9"/>
								<stop  offset="1" style="stop-color:#CB91C9"/>
							</linearGradient>
							<path fill="url(#SVGID_6_)" d="M149.3,179.8c-0.6,0.6-1.4,0.9-2.1,0.8c-0.1-0.7,0.2-1.5,0.8-2.1c0.6-0.6,1.4-0.9,2.1-0.9
								C150.3,178.4,150,179.2,149.3,179.8z"/>
							<linearGradient id="SVGID_7_" gradientUnits="userSpaceOnUse" x1="145.5201" y1="179.1195" x2="148.4433" y2="179.1195">
								<stop  offset="0.1043" style="stop-color:#686CE9"/>
								<stop  offset="0.3476" style="stop-color:#946CE9"/>
								<stop  offset="0.6498" style="stop-color:#B66DD5"/>
								<stop  offset="0.8717" style="stop-color:#CB6EC9"/>
								<stop  offset="1" style="stop-color:#CB91C9"/>
							</linearGradient>
							<path fill="url(#SVGID_7_)" d="M146.4,179.8c0.6,0.6,1.4,0.9,2.1,0.8c0.1-0.7-0.2-1.5-0.8-2.1c-0.6-0.6-1.4-0.9-2.1-0.9
								C145.5,178.3,145.8,179.1,146.4,179.8z"/>
							<linearGradient id="SVGID_8_" gradientUnits="userSpaceOnUse" x1="147.3057" y1="179.6725" x2="151.0168" y2="179.6725">
								<stop  offset="0.1043" style="stop-color:#686CE9"/>
								<stop  offset="0.3476" style="stop-color:#946CE9"/>
								<stop  offset="0.6498" style="stop-color:#B66DD5"/>
								<stop  offset="0.8717" style="stop-color:#CB6EC9"/>
								<stop  offset="1" style="stop-color:#CB91C9"/>
							</linearGradient>
							<path fill="url(#SVGID_8_)" d="M149.5,180.5c-0.8,0.4-1.6,0.3-2.2,0c0.2-0.7,0.7-1.3,1.5-1.7c0.8-0.4,1.6-0.4,2.2-0.1
								C150.8,179.5,150.3,180.1,149.5,180.5z"/>
							<linearGradient id="SVGID_9_" gradientUnits="userSpaceOnUse" x1="144.9523" y1="179.6725" x2="148.6635" y2="179.6725">
								<stop  offset="0.1043" style="stop-color:#686CE9"/>
								<stop  offset="0.3476" style="stop-color:#946CE9"/>
								<stop  offset="0.6498" style="stop-color:#B66DD5"/>
								<stop  offset="0.8717" style="stop-color:#CB6EC9"/>
								<stop  offset="1" style="stop-color:#CB91C9"/>
							</linearGradient>
							<path fill="url(#SVGID_9_)" d="M146.5,180.5c0.8,0.4,1.6,0.3,2.2,0c-0.2-0.7-0.7-1.3-1.5-1.7c-0.8-0.4-1.6-0.4-2.2-0.1
								C145.1,179.5,145.7,180.1,146.5,180.5z"/>
						</g>
					</g>
				</g>
			</g>
		</g>
	</g>
	<g id="Botões_2_">
		<g id="Textos_1_">
			<rect x="184.1" y="118.9" fill="#606060" width="34.1" height="3.2"/>
			<rect x="184.1" y="127.6" fill="#CCCCCC" width="92.8" height="3.1"/>
			<rect x="184.1" y="136.2" fill="#CCCCCC" width="92.8" height="3.1"/>
			<rect x="184.1" y="144.8" fill="#CCCCCC" width="92.8" height="3.1"/>
		</g>
		<path fill="#946CE9" d="M275.5,163.5h-27.6c-0.6,0-1.1-0.5-1.1-1.1v-7c0-0.6,0.5-1.1,1.1-1.1h27.6c0.6,0,1.1,0.5,1.1,1.1v7
			C276.6,163,276.1,163.5,275.5,163.5z"/>
		<path fill="#606060" d="M242.4,163.5h-27.6c-0.6,0-1.1-0.5-1.1-1.1v-7c0-0.6,0.5-1.1,1.1-1.1h27.6c0.6,0,1.1,0.5,1.1,1.1v7
			C243.5,163,243,163.5,242.4,163.5z"/>
	</g>
	<path id="Ponteiro_do_Mouse_2_" fill="#464646" d="M258.4,161.2c0.1,0.1,0.2,0,0.4,0c0.9,0.1,1.7,0.8,2,1.8c0.3,1.5,0.6,3.1,1,4.6
		c0,0.2,0.1,0.2,0.2,0.1c0.8-0.4,1.7-0.3,2.4,0.4c0.1,0.1,0.2,0.1,0.3,0c1-0.8,2.5-0.5,3.2,0.7c0.1,0.2,0.1,0.2,0.3,0.1
		c1.3-0.7,2.9,0.1,3.2,1.6c0.3,1.3,0.6,2.7,0.8,4c0.5,2.6-0.1,4.8-1.7,6.8c-1,1.2-2.3,2-3.9,2.3c-0.8,0.2-1.5,0.4-2.3,0.4
		c-2.2,0.2-4.2-0.5-5.9-2.2c-1.5-1.5-2.9-3.1-4.4-4.7c-0.8-0.8-0.8-2-0.1-2.9c1.1-1.3,3.1-1.5,4.5-0.4c0.1,0,0.1,0.1,0.2,0.2
		c0-0.1,0-0.2-0.1-0.3c-0.7-3.2-1.3-6.5-2-9.7c-0.3-1.4,0.1-2.3,1.3-2.9c0,0,0,0,0,0C258,161.3,258.2,161.2,258.4,161.2z
		 M259.1,169.9c0.4,2,0.8,4.1,1.2,6.1c0,0.1,0,0.2,0,0.3c0,0.3-0.1,0.6-0.4,0.7c-0.3,0.1-0.6,0.1-0.8-0.1c-0.5-0.5-1.1-1-1.6-1.5
		c-0.8-0.7-2-0.7-2.6,0.1c-0.2,0.2-0.2,0.5,0,0.7c1.5,1.6,3,3.2,4.5,4.8c1.3,1.3,2.8,1.8,4.5,1.6c0.8-0.1,1.5-0.3,2.3-0.4
		c0.9-0.2,1.8-0.6,2.5-1.3c1.5-1.4,2.2-3.2,2-5.3c0-0.1,0-0.2,0-0.3c-0.3-1.4-0.6-2.8-0.9-4.2c-0.1-0.5-0.5-0.7-0.9-0.7
		c-0.4,0.1-0.6,0.5-0.6,0.9c0,0.2,0.1,0.5,0.1,0.7c0,0.1,0,0.3,0,0.4c-0.1,0.4-0.4,0.6-0.7,0.6c-0.3,0-0.6-0.2-0.7-0.6
		c-0.2-0.8-0.3-1.5-0.5-2.3c-0.1-0.5-0.4-0.7-0.8-0.7c-0.5,0.1-0.7,0.4-0.6,1c0.1,0.5,0.2,1,0.3,1.5c0.1,0.4,0,0.7-0.3,0.9
		c-0.4,0.3-1,0-1.1-0.6c-0.2-0.7-0.3-1.4-0.4-2.2c0-0.1,0-0.2-0.1-0.4c-0.2-0.3-0.6-0.5-0.9-0.4c-0.3,0.1-0.5,0.5-0.4,0.9
		c0.1,0.5,0.2,1,0.3,1.5c0.1,0.3-0.1,0.7-0.3,0.8c-0.5,0.3-1,0-1.1-0.6c-0.6-2.8-1.1-5.5-1.7-8.3c0-0.1,0-0.2-0.1-0.2
		c-0.1-0.3-0.3-0.5-0.6-0.6c-0.5-0.1-0.9,0.4-0.8,1C258.3,165.8,258.7,167.8,259.1,169.9z"/>
	<g>
		<g>
			<path d="M101.5,293.6h-6.6l-0.9,4.5h5.9l-0.1,0.7h-5.9l-1,4.8h6.8l-0.1,0.7h-7.5l2.3-11.3h7.3L101.5,293.6z"/>
			<path d="M108.3,301.8c-0.1,0.3-0.1,0.5-0.1,0.7c0,0.7,0.3,1,1,1c0.5,0,1.1-0.2,1.6-0.5l0.2,0.6c-0.6,0.4-1.2,0.6-1.9,0.6
				c-0.5,0-0.9-0.1-1.1-0.4c-0.3-0.3-0.4-0.7-0.4-1.2c0-0.2,0-0.5,0.1-0.8l1-5.3h-1.2l0.1-0.6h1.2l0.4-2.1h0.7l-0.4,2.1h2.9
				l-0.1,0.6h-2.9L108.3,301.8z"/>
			<path d="M114.5,303.8c-0.6-0.3-1-0.8-1.3-1.3c-0.3-0.6-0.5-1.2-0.5-1.9c0-0.9,0.2-1.7,0.6-2.4c0.4-0.7,1-1.3,1.7-1.7
				c0.7-0.4,1.5-0.6,2.3-0.6c0.9,0,1.7,0.2,2.3,0.7s1,1.1,1.2,1.9l0.5-2.6h0.7l-1.7,8.4h-0.7l0.4-1.9c-0.4,0.6-0.9,1.1-1.6,1.4
				s-1.3,0.5-2,0.5C115.7,304.2,115,304.1,114.5,303.8z M118.5,303c0.6-0.4,1.1-0.9,1.4-1.5c0.3-0.6,0.5-1.3,0.5-2
				c0-0.6-0.1-1.2-0.4-1.6s-0.6-0.8-1.1-1.1c-0.5-0.3-1-0.4-1.7-0.4c-0.7,0-1.3,0.2-1.9,0.5c-0.6,0.4-1.1,0.9-1.4,1.5
				c-0.3,0.6-0.5,1.3-0.5,2.1c0,0.6,0.1,1.2,0.4,1.6c0.3,0.5,0.6,0.8,1.1,1.1c0.5,0.3,1,0.4,1.7,0.4
				C117.2,303.6,117.9,303.4,118.5,303z"/>
			<path d="M135.8,296.2c0.6,0.3,1,0.7,1.3,1.3c0.3,0.6,0.5,1.2,0.5,1.9c0,0.9-0.2,1.7-0.6,2.4s-1,1.3-1.7,1.7
				c-0.7,0.4-1.5,0.6-2.3,0.6c-0.9,0-1.7-0.2-2.3-0.7c-0.6-0.5-1-1.1-1.2-1.9l-1.1,5.7h-0.7l2.3-11.5h0.7l-0.4,1.9
				c0.4-0.6,0.9-1.1,1.6-1.4s1.3-0.5,2-0.5C134.6,295.7,135.2,295.9,135.8,296.2z M131.8,296.9c-0.6,0.4-1.1,0.9-1.4,1.5
				c-0.3,0.6-0.5,1.3-0.5,2c0,0.6,0.1,1.2,0.4,1.6s0.6,0.8,1.1,1.1c0.5,0.3,1,0.4,1.7,0.4c0.7,0,1.3-0.2,1.9-0.5
				c0.6-0.4,1.1-0.9,1.4-1.5c0.3-0.6,0.5-1.3,0.5-2.1c0-0.6-0.1-1.2-0.4-1.6s-0.6-0.8-1.1-1.1c-0.5-0.3-1-0.4-1.7-0.4
				C133,296.4,132.4,296.5,131.8,296.9z"/>
			<path d="M142.6,296.3c0.6-0.4,1.3-0.6,2-0.6l-0.1,0.7c-0.9,0-1.7,0.3-2.4,0.8c-0.7,0.6-1.2,1.3-1.4,2.3l-0.9,4.5h-0.7l1.7-8.4
				h0.7l-0.4,2.1C141.5,297.2,142,296.7,142.6,296.3z"/>
			<path d="M151.3,296.2c0.6,0.3,1,0.8,1.3,1.4s0.5,1.2,0.5,2c0,0.9-0.2,1.7-0.6,2.4s-1,1.3-1.7,1.7s-1.5,0.6-2.3,0.6
				c-0.7,0-1.4-0.2-2-0.5c-0.6-0.3-1-0.8-1.3-1.4c-0.3-0.6-0.5-1.2-0.5-2c0-0.9,0.2-1.7,0.6-2.4s1-1.3,1.7-1.7
				c0.7-0.4,1.5-0.6,2.3-0.6C150.1,295.8,150.8,295.9,151.3,296.2z M147.4,296.9c-0.6,0.3-1,0.8-1.4,1.4c-0.3,0.6-0.5,1.3-0.5,2
				c0,0.6,0.1,1.2,0.4,1.7c0.3,0.5,0.6,0.9,1.1,1.1s1,0.4,1.6,0.4c0.7,0,1.4-0.2,2-0.5c0.6-0.3,1.1-0.8,1.4-1.4
				c0.3-0.6,0.5-1.3,0.5-2c0-0.6-0.1-1.2-0.4-1.7c-0.3-0.5-0.6-0.9-1.1-1.1c-0.5-0.3-1-0.4-1.6-0.4
				C148.6,296.4,147.9,296.6,147.4,296.9z"/>
			<path d="M162.5,296.4c0.5,0.4,0.7,1.1,0.7,1.9c0,0.3,0,0.6-0.1,0.9l-1,5h-0.7l1-5c0.1-0.3,0.1-0.5,0.1-0.7c0-0.6-0.2-1.1-0.6-1.5
				c-0.4-0.4-1-0.5-1.7-0.5c-1,0-1.8,0.3-2.6,0.9c-0.7,0.6-1.2,1.4-1.4,2.5l-0.9,4.4h-0.7l1.7-8.4h0.7l-0.4,2.1
				c0.4-0.7,0.9-1.2,1.5-1.6c0.6-0.4,1.3-0.6,2.1-0.6C161.3,295.7,162,296,162.5,296.4z"/>
			<path d="M166.7,301.8c-0.1,0.3-0.1,0.5-0.1,0.7c0,0.7,0.3,1,1,1c0.5,0,1.1-0.2,1.6-0.5l0.2,0.6c-0.6,0.4-1.2,0.6-1.9,0.6
				c-0.5,0-0.9-0.1-1.1-0.4c-0.3-0.3-0.4-0.7-0.4-1.2c0-0.2,0-0.5,0.1-0.8l1-5.3h-1.2l0.1-0.6h1.2l0.4-2.1h0.7l-0.4,2.1h2.9
				l-0.1,0.6h-2.9L166.7,301.8z"/>
			<path d="M177.6,296.2c0.6,0.3,1,0.8,1.3,1.4s0.5,1.2,0.5,2c0,0.9-0.2,1.7-0.6,2.4s-1,1.3-1.7,1.7s-1.5,0.6-2.3,0.6
				c-0.7,0-1.4-0.2-2-0.5c-0.6-0.3-1-0.8-1.3-1.4c-0.3-0.6-0.5-1.2-0.5-2c0-0.9,0.2-1.7,0.6-2.4s1-1.3,1.7-1.7
				c0.7-0.4,1.5-0.6,2.3-0.6C176.4,295.8,177,295.9,177.6,296.2z M173.6,296.9c-0.6,0.3-1,0.8-1.4,1.4c-0.3,0.6-0.5,1.3-0.5,2
				c0,0.6,0.1,1.2,0.4,1.7c0.3,0.5,0.6,0.9,1.1,1.1s1,0.4,1.6,0.4c0.7,0,1.4-0.2,2-0.5c0.6-0.3,1.1-0.8,1.4-1.4
				c0.3-0.6,0.5-1.3,0.5-2c0-0.6-0.1-1.2-0.4-1.7c-0.3-0.5-0.6-0.9-1.1-1.1c-0.5-0.3-1-0.4-1.6-0.4
				C174.9,296.4,174.2,296.6,173.6,296.9z"/>
			<path d="M192.1,296.2c0.6,0.3,1,0.8,1.3,1.4s0.5,1.2,0.5,2c0,0.9-0.2,1.7-0.6,2.4s-1,1.3-1.7,1.7s-1.5,0.6-2.3,0.6
				c-0.7,0-1.4-0.2-2-0.5c-0.6-0.3-1-0.8-1.3-1.4c-0.3-0.6-0.5-1.2-0.5-2c0-0.9,0.2-1.7,0.6-2.4s1-1.3,1.7-1.7
				c0.7-0.4,1.5-0.6,2.3-0.6C190.9,295.8,191.6,295.9,192.1,296.2z M188.2,296.9c-0.6,0.3-1,0.8-1.4,1.4c-0.3,0.6-0.5,1.3-0.5,2
				c0,0.6,0.1,1.2,0.4,1.7c0.3,0.5,0.6,0.9,1.1,1.1s1,0.4,1.6,0.4c0.7,0,1.4-0.2,2-0.5c0.6-0.3,1.1-0.8,1.4-1.4
				c0.3-0.6,0.5-1.3,0.5-2c0-0.6-0.1-1.2-0.4-1.7c-0.3-0.5-0.6-0.9-1.1-1.1c-0.5-0.3-1-0.4-1.6-0.4
				C189.4,296.4,188.8,296.6,188.2,296.9z"/>
			<path d="M200.7,303.9c-0.6-0.3-1.1-0.7-1.5-1.1l0.4-0.5c0.3,0.4,0.8,0.8,1.3,1s1.1,0.4,1.8,0.4c0.7,0,1.2-0.2,1.6-0.5
				c0.4-0.3,0.6-0.7,0.6-1.3c0-0.3-0.1-0.5-0.3-0.7s-0.4-0.4-0.6-0.5s-0.6-0.3-1.1-0.5c-0.5-0.2-0.9-0.4-1.2-0.6
				c-0.3-0.2-0.6-0.4-0.8-0.7c-0.2-0.3-0.3-0.6-0.3-1c0-0.7,0.3-1.3,0.8-1.7c0.5-0.4,1.2-0.6,2-0.6c0.6,0,1.1,0.1,1.6,0.3
				c0.5,0.2,0.9,0.4,1.2,0.7l-0.4,0.5c-0.3-0.3-0.7-0.5-1.1-0.6c-0.4-0.1-0.9-0.2-1.4-0.2c-0.6,0-1.1,0.1-1.5,0.4s-0.6,0.7-0.6,1.2
				c0,0.3,0.1,0.5,0.3,0.7c0.2,0.2,0.4,0.4,0.6,0.5c0.3,0.1,0.6,0.3,1,0.5c0.5,0.2,0.9,0.4,1.2,0.6c0.3,0.2,0.6,0.4,0.8,0.7
				c0.2,0.3,0.3,0.6,0.3,1c0,0.7-0.3,1.3-0.8,1.8c-0.6,0.4-1.3,0.7-2.1,0.7C202,304.3,201.3,304.2,200.7,303.9z"/>
			<path d="M214,296.2c0.6,0.3,1,0.8,1.3,1.4s0.5,1.2,0.5,2c0,0.9-0.2,1.7-0.6,2.4s-1,1.3-1.7,1.7s-1.5,0.6-2.3,0.6
				c-0.7,0-1.4-0.2-2-0.5c-0.6-0.3-1-0.8-1.3-1.4c-0.3-0.6-0.5-1.2-0.5-2c0-0.9,0.2-1.7,0.6-2.4s1-1.3,1.7-1.7
				c0.7-0.4,1.5-0.6,2.3-0.6C212.8,295.8,213.4,295.9,214,296.2z M210,296.9c-0.6,0.3-1,0.8-1.4,1.4c-0.3,0.6-0.5,1.3-0.5,2
				c0,0.6,0.1,1.2,0.4,1.7c0.3,0.5,0.6,0.9,1.1,1.1s1,0.4,1.6,0.4c0.7,0,1.4-0.2,2-0.5c0.6-0.3,1.1-0.8,1.4-1.4
				c0.3-0.6,0.5-1.3,0.5-2c0-0.6-0.1-1.2-0.4-1.7c-0.3-0.5-0.6-0.9-1.1-1.1c-0.5-0.3-1-0.4-1.6-0.4
				C211.3,296.4,210.6,296.6,210,296.9z"/>
			<path d="M220.9,296.3c0.6-0.4,1.3-0.6,2-0.6l-0.1,0.7c-0.9,0-1.7,0.3-2.4,0.8c-0.7,0.6-1.2,1.3-1.4,2.3l-0.9,4.5h-0.7l1.7-8.4
				h0.7l-0.4,2.1C219.8,297.2,220.3,296.7,220.9,296.3z"/>
			<path d="M231.2,295.8l-5.1,8.4h-0.7l-1.7-8.4h0.7l1.5,7.7l4.6-7.7H231.2z"/>
			<path d="M231.5,300.2v0.2c0,1,0.3,1.7,0.9,2.3c0.6,0.6,1.3,0.9,2.3,0.9c0.6,0,1.1-0.1,1.6-0.3c0.5-0.2,0.9-0.5,1.3-0.8l0.4,0.5
				c-0.4,0.4-0.9,0.7-1.5,0.9c-0.6,0.2-1.2,0.3-1.8,0.3c-0.7,0-1.4-0.2-2-0.5c-0.6-0.3-1-0.8-1.3-1.4c-0.3-0.6-0.5-1.2-0.5-2
				c0-0.9,0.2-1.7,0.6-2.4c0.4-0.7,1-1.3,1.6-1.7c0.7-0.4,1.5-0.6,2.3-0.6c0.7,0,1.3,0.2,1.9,0.5c0.5,0.3,0.9,0.7,1.2,1.3
				c0.3,0.6,0.4,1.2,0.4,1.9c0,0.2,0,0.5,0,0.7H231.5z M232.9,297.3c-0.7,0.6-1.1,1.4-1.3,2.3h6.8c0-1-0.2-1.7-0.8-2.3
				s-1.3-0.9-2.2-0.9C234.4,296.4,233.6,296.7,232.9,297.3z"/>
			<path d="M241.9,301.8c-0.1,0.3-0.1,0.5-0.1,0.7c0,0.7,0.3,1,1,1c0.5,0,1.1-0.2,1.6-0.5l0.2,0.6c-0.6,0.4-1.2,0.6-1.9,0.6
				c-0.5,0-0.9-0.1-1.1-0.4c-0.3-0.3-0.4-0.7-0.4-1.2c0-0.2,0-0.5,0.1-0.8l1-5.3h-1.2l0.1-0.6h1.2l0.4-2.1h0.7l-0.4,2.1h2.9
				l-0.1,0.6H243L241.9,301.8z"/>
			<path d="M248.9,295.8l-1.7,8.4h-0.7l1.7-8.4H248.9z M249.5,292.9c0.1,0.1,0.1,0.2,0.1,0.3c0,0.2-0.1,0.4-0.2,0.5
				s-0.3,0.2-0.5,0.2c-0.1,0-0.3,0-0.3-0.1c-0.1-0.1-0.1-0.2-0.1-0.4c0-0.2,0.1-0.3,0.2-0.5c0.1-0.1,0.3-0.2,0.5-0.2
				C249.3,292.8,249.4,292.8,249.5,292.9z"/>
			<path d="M258.3,296.4c0.5,0.4,0.7,1.1,0.7,1.9c0,0.3,0,0.6-0.1,0.9l-1,5h-0.7l1-5c0.1-0.3,0.1-0.5,0.1-0.7c0-0.6-0.2-1.1-0.6-1.5
				c-0.4-0.4-1-0.5-1.7-0.5c-1,0-1.8,0.3-2.6,0.9c-0.7,0.6-1.2,1.4-1.4,2.5l-0.9,4.4h-0.7l1.7-8.4h0.7l-0.4,2.1
				c0.4-0.7,0.9-1.2,1.5-1.6c0.6-0.4,1.3-0.6,2.1-0.6C257.1,295.7,257.8,296,258.3,296.4z"/>
			<path d="M268.9,296.4c0.5,0.4,0.7,1.1,0.7,1.9c0,0.3,0,0.6-0.1,0.9l-1,5h-0.7l1-5c0.1-0.3,0.1-0.5,0.1-0.7c0-0.6-0.2-1.1-0.6-1.5
				c-0.4-0.4-1-0.5-1.7-0.5c-1,0-1.8,0.3-2.6,0.9c-0.7,0.6-1.2,1.4-1.4,2.5l-0.9,4.4h-0.7l2.4-12h0.7l-1.1,5.7
				c0.4-0.7,0.9-1.2,1.5-1.6c0.6-0.4,1.3-0.6,2.1-0.6C267.7,295.7,268.4,296,268.9,296.4z"/>
			<path d="M278.1,296.2c0.6,0.3,1,0.8,1.3,1.4s0.5,1.2,0.5,2c0,0.9-0.2,1.7-0.6,2.4s-1,1.3-1.7,1.7s-1.5,0.6-2.3,0.6
				c-0.7,0-1.4-0.2-2-0.5c-0.6-0.3-1-0.8-1.3-1.4c-0.3-0.6-0.5-1.2-0.5-2c0-0.9,0.2-1.7,0.6-2.4s1-1.3,1.7-1.7
				c0.7-0.4,1.5-0.6,2.3-0.6C276.9,295.8,277.6,295.9,278.1,296.2z M274.1,296.9c-0.6,0.3-1,0.8-1.4,1.4c-0.3,0.6-0.5,1.3-0.5,2
				c0,0.6,0.1,1.2,0.4,1.7c0.3,0.5,0.6,0.9,1.1,1.1s1,0.4,1.6,0.4c0.7,0,1.4-0.2,2-0.5c0.6-0.3,1.1-0.8,1.4-1.4
				c0.3-0.6,0.5-1.3,0.5-2c0-0.6-0.1-1.2-0.4-1.7c-0.3-0.5-0.6-0.9-1.1-1.1c-0.5-0.3-1-0.4-1.6-0.4
				C275.4,296.4,274.7,296.6,274.1,296.9z"/>
			<path d="M282,303.3c0.1,0.1,0.1,0.2,0.1,0.4c0,0.2-0.1,0.3-0.2,0.5s-0.3,0.2-0.4,0.2c-0.2,0-0.3-0.1-0.4-0.2
				c-0.1-0.1-0.1-0.2-0.1-0.4c0-0.2,0.1-0.3,0.2-0.4s0.3-0.2,0.4-0.2C281.8,303.1,281.9,303.2,282,303.3z M284,293.1l-0.5,2.6
				l-1.1,5.2h-0.5l1-5.2l0.5-2.6H284z"/>
		</g>
	</g>
	<g id="Header_1_">
		<rect x="70" y="70.5" fill="#333333" width="233.3" height="14.4"/>
		<path fill="#1B1B1B" d="M303.4,85.8H70.6c-0.3,0-0.5-0.2-0.5-0.5v-1.2h233.3V85.8z"/>
		<path fill="#FFF6FF" d="M147,80.8H80.4c-1.1,0-1.9-0.9-1.9-1.9v-1.4c0-1.1,0.9-1.9,1.9-1.9H147c1.1,0,1.9,0.9,1.9,1.9v1.4
			C148.9,80,148.1,80.8,147,80.8z"/>
		<path fill="#FFF6FF" d="M237.5,70.5h65.8v13.6h-63.5c-1.3,0-2.4-1.1-2.4-2.4V70.5z"/>
		<ellipse fill="none" stroke="#76DD63" stroke-width="2.5" stroke-miterlimit="10" cx="283.1" cy="78.9" rx="0.5" ry="0.6"/>
		<ellipse fill="none" stroke="#FFDD63" stroke-width="2.5" stroke-miterlimit="10" cx="289.1" cy="78.9" rx="0.5" ry="0.6"/>
		<ellipse stroke="#FF2E63" stroke-width="2.5" stroke-miterlimit="10" cx="295" cy="78.9" rx="0.5" ry="0.6"/>
	</g>
	<g id="Plus">
		<rect x="156.9" y="116.5" fill="#EDEBF2" width="0.7" height="8.1"/>
		
			<rect x="156.9" y="116.5" transform="matrix(-1.836970e-16 1 -1 -1.836970e-16 277.8033 -36.7824)" fill="#EDEBF2" width="0.7" height="8.1"/>
	</g>
	<g id="Plus_1_">
		<rect x="115.7" y="183" fill="#EDEBF2" width="0.7" height="8.1"/>
		
			<rect x="115.7" y="183" transform="matrix(-1.836970e-16 1 -1 -1.836970e-16 303.0698 70.9588)" fill="#EDEBF2" width="0.7" height="8.1"/>
	</g>
	<g id="Plus_2_">
		<rect x="97" y="139.8" fill="#EDEBF2" width="0.7" height="8.1"/>
		
			<rect x="97" y="139.8" transform="matrix(-1.836970e-16 1 -1 -1.836970e-16 241.1946 46.4259)" fill="#EDEBF2" width="0.7" height="8.1"/>
	</g>
</g>
</svg>
