<svg id="Fase_1" data-name="Fase 1" xmlns="http://www.w3.org/2000/svg" xmlns:xlink="http://www.w3.org/1999/xlink" viewBox="0 0 320.91 316.99"><defs><style>.cls-1{fill:url(#Gradiente_sem_nome_5);}.cls-2,.cls-23{fill:#f8f0fb;}.cls-20,.cls-3,.cls-8{fill:#946ce9;}.cls-4{font-size:43.46px;fill:#fff;font-family:Arenq;}.cls-11,.cls-12,.cls-5{fill:none;}.cls-5{stroke:#1b1b1b;}.cls-11,.cls-12,.cls-13,.cls-20,.cls-21,.cls-22,.cls-23,.cls-5,.cls-7,.cls-8{stroke-miterlimit:10;}.cls-11,.cls-12,.cls-13,.cls-5{stroke-width:2.5px;}.cls-21,.cls-6{fill:#1b1b1b;}.cls-10,.cls-7{fill:#fff6ff;}.cls-20,.cls-21,.cls-22,.cls-23,.cls-7{stroke:#000;}.cls-8{stroke:#946ce9;}.cls-22,.cls-9{fill:#333;}.cls-11{stroke:#76dd63;}.cls-12{stroke:#ffdd63;}.cls-13{stroke:#ff2e63;}.cls-14{fill:url(#Gradiente_sem_nome_5-96);}.cls-15{fill:url(#Gradiente_sem_nome_5-97);}.cls-16{fill:url(#Gradiente_sem_nome_5-98);}.cls-17{fill:url(#Gradiente_sem_nome_5-99);}.cls-18{fill:url(#Gradiente_sem_nome_5-100);}.cls-19{fill:url(#Gradiente_sem_nome_5-101);}.cls-21,.cls-22{stroke-width:1.5px;}.cls-24{fill:#ccc;}.cls-25{fill:#606060;}.cls-26{fill:#464646;}.cls-27{font-size:16.12px;font-family:Montserrat-ExtraLightItalic, Montserrat;font-weight:200;font-style:italic;}.cls-28{letter-spacing:-0.03em;}.cls-29{letter-spacing:-0.01em;}</style><linearGradient id="Gradiente_sem_nome_5" x1="275.14" y1="336.64" x2="65.73" y2="-26.06" gradientUnits="userSpaceOnUse"><stop offset="0.1" stop-color="#686ce9"/><stop offset="0.35" stop-color="#946ce9"/><stop offset="0.65" stop-color="#b66dd5"/><stop offset="0.87" stop-color="#cb6ec9"/><stop offset="1" stop-color="#cb91c9"/></linearGradient><linearGradient id="Gradiente_sem_nome_5-96" x1="169.47" y1="126.56" x2="204.17" y2="88.02" xlink:href="#Gradiente_sem_nome_5"/><linearGradient id="Gradiente_sem_nome_5-97" x1="239.37" y1="122.89" x2="270.62" y2="88.19" xlink:href="#Gradiente_sem_nome_5"/><linearGradient id="Gradiente_sem_nome_5-98" x1="98.67" y1="126.98" x2="137.28" y2="84.1" xlink:href="#Gradiente_sem_nome_5"/><linearGradient id="Gradiente_sem_nome_5-99" x1="176.39" y1="138.89" x2="196.51" y2="116.53" xlink:href="#Gradiente_sem_nome_5"/><linearGradient id="Gradiente_sem_nome_5-100" x1="104.72" y1="137.6" x2="123.13" y2="117.16" xlink:href="#Gradiente_sem_nome_5"/><linearGradient id="Gradiente_sem_nome_5-101" x1="249.6" y1="137.6" x2="268.01" y2="117.16" xlink:href="#Gradiente_sem_nome_5"/></defs><title>Etapa 1</title><g id="Fase_1-2" data-name="Fase 1"><path id="Fundo" class="cls-1" d="M53,50.62H305.72a14.91,14.91,0,0,1,14.9,14.91V301.78a14.9,14.9,0,0,1-14.9,14.9H67.9A14.9,14.9,0,0,1,53,301.78Z"/><circle id="Etapa" class="cls-1" cx="28.98" cy="28.96" r="29.27"/><path class="cls-1" d="M22.55,21.9l8.26-8.25v.65l-8.26,8.25Zm8.26-2.73V46.24h-.44v-26L26.9,23.73V46.24h-.44V24.16l-3.91,3.91v-.65Z"/><g id="Computador"><g id="Monitor"><g id="Estrutura"><polygon id="Braço" class="cls-1" points="213.8 278.66 160.07 278.66 162.28 245.59 211.6 245.59 213.8 278.66"/><rect id="Tela" class="cls-1" x="62.56" y="63.46" width="248" height="181.59" rx="4.78"/></g><rect id="Background" class="cls-1" x="69.46" y="70.45" width="234.36" height="167.6"/><circle id="On_Off" data-name="On/Off" class="cls-1" cx="186.56" cy="241.38" r="1.42"/></g><g id="Tenda"><g id="Header"><rect class="cls-1" x="69.96" y="70.94" width="233.34" height="14.36"/><path class="cls-1" d="M303.3,86.27H70.5a.51.51,0,0,1-.51-.51V84.57H303.3Z"/><rect class="cls-1" x="78.48" y="76.11" width="70.38" height="5.2" rx="1.91"/><path class="cls-1" d="M237.45,70.94H303.3V84.55H239.84a2.39,2.39,0,0,1-2.39-2.39Z"/><ellipse class="cls-1" cx="283.03" cy="79.36" rx="0.54" ry="0.58"/><ellipse class="cls-1" cx="289.01" cy="79.36" rx="0.54" ry="0.58"/><ellipse class="cls-1" cx="294.99" cy="79.36" rx="0.54" ry="0.58"/></g><g id="Black"><polygon id="Fundo-2" data-name="Fundo" class="cls-1" points="315.57 124.42 57.76 124.42 70.08 85.56 303.24 85.56 315.57 124.42"/><g id="Bandeiras"><path class="cls-1" d="M315.48,125.23c-.52,7.93-8.93,14.24-19.22,14.24s-18.69-6.31-19.21-14.24Z"/><path class="cls-1" d="M57.58,125.23H96c-.52,7.93-8.92,14.24-19.21,14.24S58.1,133.16,57.58,125.23Z"/><path class="cls-1" d="M206.2,125.23H241c-.4,7.23-8,13-17.4,13S206.6,132.46,206.2,125.23Z"/><path class="cls-1" d="M132.3,125.23h34.82c-.41,7.23-8,13-17.4,13S132.71,132.46,132.3,125.23Z"/></g></g><g id="Degrade"><g id="Fundo-3" data-name="Fundo"><polygon class="cls-1" points="206.18 124.46 167.15 124.46 171.51 85.63 201.51 85.63 206.18 124.46"/><polygon class="cls-1" points="277.02 124.43 241.07 124.43 233.87 85.64 267.79 85.64 277.02 124.43"/><polygon class="cls-1" points="95.84 124.43 131.79 124.43 139 85.64 105.08 85.64 95.84 124.43"/></g><g id="Bandeiras-2" data-name="Bandeiras"><path class="cls-1" d="M167.16,125.23h39c-.22,8.25-8.88,14.89-19.51,14.89S167.38,133.48,167.16,125.23Z"/><path class="cls-1" d="M96.15,125.23h35.94c-.4,7.48-8.3,13.44-18,13.44S96.54,132.71,96.15,125.23Z"/><path class="cls-1" d="M241,125.23H277c-.4,7.48-8.29,13.44-18,13.44S241.43,132.71,241,125.23Z"/></g></g></g><g id="Products"><g id="Camisa"><g id="Estrutura-2" data-name="Estrutura"><path class="cls-1" d="M152.75,208.86a3.77,3.77,0,0,0,3.58-3.94V210a3,3,0,0,1-3.08,3H107.79a3,3,0,0,1-3.08-3v-5.11a3.77,3.77,0,0,0,3.58,3.94h5.3"/><path class="cls-1" d="M167.15,155.76,162,162.17a2,2,0,0,1-2.81.33l-2.87-2.19v44.61a3.77,3.77,0,0,1-3.58,3.94s-28.83,0-23.06,0h-21.4a3.77,3.77,0,0,1-3.58-3.94V160.21l-3,2.29a2,2,0,0,1-2.8-.33l-5.15-6.41A1.92,1.92,0,0,1,94.1,153l12.36-9.45a2.11,2.11,0,0,1,1.46-.4h0a2.23,2.23,0,0,1,.37,0h8.63a12.3,12.3,0,0,0,.71,4.17,1,1,0,0,0,.06.16,13.43,13.43,0,0,0,25.11,0,1,1,0,0,0,0-.16,12.3,12.3,0,0,0,.72-4.17h9.49a2.07,2.07,0,0,1,1.39.41L166.81,153A1.92,1.92,0,0,1,167.15,155.76Z"/><path class="cls-1" d="M167.24,155.47l-5.46,7a1.69,1.69,0,0,1-2.33.31l-.27-.2a1.61,1.61,0,0,1-.45-.53l7.48-9.27a2,2,0,0,1,.45.24l.26.2A1.59,1.59,0,0,1,167.24,155.47Z"/><path class="cls-1" d="M93.56,155.47l5.46,7a1.69,1.69,0,0,0,2.33.31l.27-.2a1.65,1.65,0,0,0,.46-.53l-7.49-9.27a2,2,0,0,0-.45.24l-.26.2A1.6,1.6,0,0,0,93.56,155.47Z"/><path class="cls-1" d="M143,142.84a11.9,11.9,0,0,1-.69,4,.88.88,0,0,1,0,.15,12.9,12.9,0,0,1-24.12,0c0-.05,0-.1-.05-.15a11.89,11.89,0,0,1-.68-4h2.3V143a9.77,9.77,0,0,0,.77,3.83l.07.15a10.41,10.41,0,0,0,18.94,0,.94.94,0,0,0,.06-.15,9.61,9.61,0,0,0,.78-3.83v-.18Z"/><path class="cls-1" d="M140.34,143.58a9,9,0,0,1-.84,3.8,10.59,10.59,0,0,1-18.89,0,9,9,0,0,1-.84-3.8v-.17h20.56A1,1,0,0,1,140.34,143.58Z"/></g><path id="Add" class="cls-1" d="M143.13,175.36v1.53A1.11,1.11,0,0,1,142,178h-9.72v9.49a1.12,1.12,0,0,1-1.13,1.1h-1.57a1.11,1.11,0,0,1-1.13-1.1V178h-9.73a1.12,1.12,0,0,1-1.13-1.1v-1.53a1.12,1.12,0,0,1,1.13-1.11h9.73v-9.48a1.11,1.11,0,0,1,1.13-1.11h1.57a1.12,1.12,0,0,1,1.13,1.11v9.48H142A1.12,1.12,0,0,1,143.13,175.36Z"/></g><g id="Caneca"><g id="Estrutura-3" data-name="Estrutura"><path class="cls-1" d="M161.05,199v6.31a.92.92,0,0,1-.93.91h-3v-8.13h3A.92.92,0,0,1,161.05,199Z"/><path class="cls-1" d="M155.81,193.83a0,0,0,0,0,0-.09,39.43,39.43,0,0,0-7.54-1,39.93,39.93,0,0,0-8,1,22.24,22.24,0,0,0,5.24,1.13h2.8C150,194.88,155.81,193.83,155.81,193.83Z"/><path class="cls-1" d="M157.17,195.14V212a1.36,1.36,0,0,1-1.38,1.34,29.52,29.52,0,0,1-7.51,1.09,31.11,31.11,0,0,1-8.06-1.09,1.35,1.35,0,0,1-1.37-1.34V195.14a1.35,1.35,0,0,1,1.37-1.34,36.29,36.29,0,0,0,7.51,1.08,56.16,56.16,0,0,0,8.06-1.08A1.36,1.36,0,0,1,157.17,195.14Z"/></g><path class="cls-1" d="M154,203.69l.06.7a.54.54,0,0,1-.53.55c-1.61.12-3.23.18-4.85.2,0,1.45,0,2.9.05,4.35a.55.55,0,0,1-.59.51h-.83a.55.55,0,0,1-.59-.51l.05-4.35c-1.62,0-3.24-.08-4.85-.2a.54.54,0,0,1-.53-.55l.06-.7a.53.53,0,0,1,.59-.46c1.58.11,3.16.18,4.75.2,0-1.45,0-2.9,0-4.35a.51.51,0,0,1,.52-.5h.72a.51.51,0,0,1,.53.5c0,1.45,0,2.9,0,4.35,1.58,0,3.17-.09,4.75-.2A.53.53,0,0,1,154,203.69Z"/><path class="cls-1" d="M154,203.69l.06.7a.54.54,0,0,1-.53.55c-1.61.12-3.23.18-4.85.2,0,1.45,0,2.9.05,4.35a.55.55,0,0,1-.59.51h-.83a.55.55,0,0,1-.59-.51l.05-4.35c-1.62,0-3.24-.08-4.85-.2a.54.54,0,0,1-.53-.55l.06-.7a.53.53,0,0,1,.59-.46c1.58.11,3.16.18,4.75.2,0-1.45,0-2.9,0-4.35a.51.51,0,0,1,.52-.5h.72a.51.51,0,0,1,.53.5c0,1.45,0,2.9,0,4.35,1.58,0,3.17-.09,4.75-.2A.53.53,0,0,1,154,203.69Z"/></g></g><g id="Texts"><rect id="p" class="cls-1" x="183.95" y="152.94" width="92.81" height="3.13"/><rect id="p-2" data-name="p" class="cls-1" x="183.95" y="161.55" width="92.81" height="3.13"/><rect id="p-3" data-name="p" class="cls-1" x="183.95" y="170.17" width="92.81" height="3.13"/><rect id="Tittle" class="cls-1" x="183.95" y="144.23" width="34.07" height="3.23"/></g><g id="Buttons"><rect id="Button_2" data-name="Button 2" class="cls-1" x="246.58" y="179.81" width="29.9" height="9.27" rx="1.14"/><rect id="Button_1" data-name="Button 1" class="cls-1" x="213.5" y="179.81" width="29.9" height="9.27" rx="1.14"/></g><path id="Mouse" class="cls-1" d="M223.61,187.18a.85.85,0,0,0,.35,0,2.31,2.31,0,0,1,2,1.82c.33,1.55.64,3.1,1,4.65,0,.19.07.21.24.13a2,2,0,0,1,2.41.39c.12.11.17.1.28,0a2.11,2.11,0,0,1,3.17.71c.09.15.14.16.28.08a2.22,2.22,0,0,1,3.22,1.63c.29,1.35.56,2.69.82,4a7.71,7.71,0,0,1-1.7,6.75,6.64,6.64,0,0,1-3.86,2.29,20.7,20.7,0,0,1-2.35.44,7,7,0,0,1-5.87-2.21c-1.49-1.52-2.93-3.09-4.39-4.65a2.12,2.12,0,0,1-.08-2.9,3.2,3.2,0,0,1,4.48-.37l.19.15-.06-.28c-.65-3.23-1.31-6.45-2-9.68a2.33,2.33,0,0,1,1.29-2.86v0Zm.72,8.7c.42,2,.83,4.05,1.24,6.08a1.57,1.57,0,0,1,.05.3.75.75,0,0,1-.4.69.67.67,0,0,1-.81-.12l-1.63-1.45a1.81,1.81,0,0,0-2.64.1.48.48,0,0,0,0,.71c1.5,1.59,3,3.21,4.52,4.75a5.41,5.41,0,0,0,4.54,1.64,21.41,21.41,0,0,0,2.26-.42,5.09,5.09,0,0,0,2.49-1.28,6.09,6.09,0,0,0,2-5.34,2,2,0,0,0,0-.34c-.28-1.41-.56-2.81-.85-4.22a.77.77,0,0,0-.88-.66.75.75,0,0,0-.56.94c0,.23.09.46.14.68a1.28,1.28,0,0,1,0,.39.73.73,0,0,1-.7.62.76.76,0,0,1-.73-.62c-.16-.76-.31-1.52-.47-2.28a.77.77,0,0,0-.82-.7.75.75,0,0,0-.63,1l.3,1.47a.78.78,0,0,1-.3.87.75.75,0,0,1-1.14-.58c-.15-.71-.29-1.43-.44-2.15a1.1,1.1,0,0,0-.11-.35.73.73,0,0,0-.9-.36.79.79,0,0,0-.45.91c.1.51.21,1,.31,1.54a.74.74,0,1,1-1.45.21l-1.68-8.25c0-.09,0-.17-.05-.25a.81.81,0,0,0-.63-.58.75.75,0,0,0-.79,1Q223.71,192.82,224.33,195.88Z"/></g><path class="cls-1" d="M121.94,293.56h-6.6l-.91,4.5h5.88l-.13.68H114.3l-1,4.76h6.82l-.13.67h-7.48l2.26-11.27h7.27Z"/><path class="cls-1" d="M123.21,303.9a3.69,3.69,0,0,1-1.45-1.13l.39-.48a3.38,3.38,0,0,0,1.32,1,4.18,4.18,0,0,0,1.76.37,2.69,2.69,0,0,0,1.63-.46,1.49,1.49,0,0,0,.64-1.26,1.12,1.12,0,0,0-.26-.73,2.32,2.32,0,0,0-.64-.51c-.26-.14-.62-.31-1.07-.5s-.92-.43-1.21-.59a2.57,2.57,0,0,1-.77-.66,1.55,1.55,0,0,1-.32-1,2,2,0,0,1,.79-1.67,3.08,3.08,0,0,1,2-.62,4.66,4.66,0,0,1,1.57.25,4.45,4.45,0,0,1,1.25.7l-.37.51a4.08,4.08,0,0,0-1.13-.61,4.15,4.15,0,0,0-1.37-.23,2.49,2.49,0,0,0-1.5.43,1.38,1.38,0,0,0-.58,1.17,1,1,0,0,0,.26.7,2.08,2.08,0,0,0,.63.5c.26.14.6.29,1,.48a10.06,10.06,0,0,1,1.24.57,2.92,2.92,0,0,1,.8.68,1.6,1.6,0,0,1,.33,1,2.15,2.15,0,0,1-.84,1.78,3.41,3.41,0,0,1-2.14.69A4.75,4.75,0,0,1,123.21,303.9Z"/><path class="cls-1" d="M131.78,303.7a3.4,3.4,0,0,1-1.32-1.34,4.1,4.1,0,0,1-.46-2,4.74,4.74,0,0,1,.6-2.37,4.31,4.31,0,0,1,1.65-1.66,4.59,4.59,0,0,1,2.29-.59,4.3,4.3,0,0,1,1.63.3,3.64,3.64,0,0,1,1.26.87l-.44.49a3.26,3.26,0,0,0-2.48-1,3.84,3.84,0,0,0-1.95.51,3.66,3.66,0,0,0-1.39,1.4,4,4,0,0,0-.51,2,3.49,3.49,0,0,0,.39,1.67,2.92,2.92,0,0,0,1.11,1.15,3.21,3.21,0,0,0,1.63.41,3.94,3.94,0,0,0,1.58-.31,3.6,3.6,0,0,0,1.27-.87l.37.44a4.2,4.2,0,0,1-1.48,1,4.53,4.53,0,0,1-1.81.36A3.76,3.76,0,0,1,131.78,303.7Z"/><path class="cls-1" d="M145.42,296.24a3.43,3.43,0,0,1,1.32,1.35,4,4,0,0,1,.47,2,4.73,4.73,0,0,1-.6,2.38,4.36,4.36,0,0,1-1.65,1.65,4.61,4.61,0,0,1-2.32.6,3.77,3.77,0,0,1-1.95-.49,3.32,3.32,0,0,1-1.33-1.35,4,4,0,0,1-.48-2,4.59,4.59,0,0,1,.61-2.36,4.41,4.41,0,0,1,1.66-1.66,4.67,4.67,0,0,1,2.31-.59A3.93,3.93,0,0,1,145.42,296.24Zm-4,.66a3.67,3.67,0,0,0-1.39,1.4,4.18,4.18,0,0,0-.5,2A3.54,3.54,0,0,0,140,302a2.77,2.77,0,0,0,1.11,1.14,3.3,3.3,0,0,0,1.62.4,3.88,3.88,0,0,0,2-.51,3.69,3.69,0,0,0,1.4-1.4,4.16,4.16,0,0,0,.5-2,3.45,3.45,0,0,0-.39-1.66,3,3,0,0,0-1.11-1.14,3.25,3.25,0,0,0-1.64-.41A3.94,3.94,0,0,0,141.45,296.9Z"/><path class="cls-1" d="M152,292.21l-2.39,12h-.66l2.38-12Z"/><path class="cls-1" d="M160.88,296.4a2.35,2.35,0,0,1,.75,1.86,4.84,4.84,0,0,1-.1.87l-1,5h-.66l1-5a3.67,3.67,0,0,0,.08-.74,1.92,1.92,0,0,0-.6-1.51,2.46,2.46,0,0,0-1.7-.54,4,4,0,0,0-2.56.93,4.16,4.16,0,0,0-1.38,2.46l-.85,4.38h-.66l2.35-12h.66l-1.11,5.66a4.15,4.15,0,0,1,1.55-1.56,4.49,4.49,0,0,1,2.14-.57A3.08,3.08,0,0,1,160.88,296.4Z"/><path class="cls-1" d="M165.32,303.75a3.3,3.3,0,0,1-1.31-1.31,3.94,3.94,0,0,1-.47-1.93,5,5,0,0,1,.61-2.42,4.57,4.57,0,0,1,1.65-1.73,4.37,4.37,0,0,1,2.29-.64,3.69,3.69,0,0,1,2.3.72,3.21,3.21,0,0,1,1.21,1.93l.52-2.6h.66l-1.68,8.4h-.66l.39-1.85a4.32,4.32,0,0,1-3.59,1.9A3.9,3.9,0,0,1,165.32,303.75Zm4-.71a4,4,0,0,0,1.41-1.48,4.12,4.12,0,0,0,.53-2.05,3.26,3.26,0,0,0-.41-1.63,2.81,2.81,0,0,0-1.12-1.12,3.48,3.48,0,0,0-1.66-.39,3.64,3.64,0,0,0-2,.55,3.89,3.89,0,0,0-1.41,1.49,4.15,4.15,0,0,0-.53,2,3.31,3.31,0,0,0,.4,1.63,2.91,2.91,0,0,0,1.12,1.11,3.42,3.42,0,0,0,1.66.39A3.65,3.65,0,0,0,169.36,303Z"/><path class="cls-1" d="M179.6,303.9a3.69,3.69,0,0,1-1.45-1.13l.39-.48a3.38,3.38,0,0,0,1.32,1,4.16,4.16,0,0,0,1.75.37,2.7,2.7,0,0,0,1.64-.46,1.52,1.52,0,0,0,.64-1.26,1.12,1.12,0,0,0-.26-.73,2.23,2.23,0,0,0-.65-.51,11.23,11.23,0,0,0-1.06-.5c-.51-.23-.92-.43-1.22-.59a2.66,2.66,0,0,1-.76-.66,1.55,1.55,0,0,1-.32-1,2,2,0,0,1,.79-1.67,3.07,3.07,0,0,1,2-.62,4.72,4.72,0,0,1,1.58.25,4.6,4.6,0,0,1,1.25.7l-.38.51a3.88,3.88,0,0,0-1.12-.61,4.15,4.15,0,0,0-1.37-.23,2.47,2.47,0,0,0-1.5.43,1.38,1.38,0,0,0-.58,1.17,1,1,0,0,0,.25.7,2.26,2.26,0,0,0,.64.5c.25.14.6.29,1,.48a9.2,9.2,0,0,1,1.23.57,2.82,2.82,0,0,1,.81.68,1.6,1.6,0,0,1,.33,1,2.14,2.14,0,0,1-.85,1.78,3.36,3.36,0,0,1-2.13.69A4.75,4.75,0,0,1,179.6,303.9Z"/><path class="cls-1" d="M187.05,300.16v.21a3.18,3.18,0,0,0,.87,2.32,3.07,3.07,0,0,0,2.29.89,4.36,4.36,0,0,0,1.59-.29,3.58,3.58,0,0,0,1.29-.81l.36.47a4.62,4.62,0,0,1-1.49.92,5,5,0,0,1-1.8.33,4,4,0,0,1-2-.48,3.39,3.39,0,0,1-1.33-1.35,4,4,0,0,1-.47-2A4.71,4.71,0,0,1,187,298a4.43,4.43,0,0,1,1.64-1.66,4.54,4.54,0,0,1,2.3-.6,3.73,3.73,0,0,1,1.89.46,3,3,0,0,1,1.23,1.29,4.06,4.06,0,0,1,.43,1.92,6.11,6.11,0,0,1,0,.73Zm1.38-2.9a3.87,3.87,0,0,0-1.32,2.3h6.77a3.19,3.19,0,0,0-.75-2.31,2.84,2.84,0,0,0-2.21-.86A3.74,3.74,0,0,0,188.43,297.26Z"/><path class="cls-1" d="M197.1,303.54a2.34,2.34,0,0,1-.75-1.85,3.81,3.81,0,0,1,.1-.87l1-5.05h.67l-1,5a4.57,4.57,0,0,0-.08.75,1.89,1.89,0,0,0,.61,1.5,2.46,2.46,0,0,0,1.7.54,4,4,0,0,0,2.55-.92,4.09,4.09,0,0,0,1.38-2.46l.85-4.39h.67l-1.67,8.4h-.66l.42-2.09a4.17,4.17,0,0,1-1.54,1.55,4.53,4.53,0,0,1-2.15.57A3.07,3.07,0,0,1,197.1,303.54Z"/><path class="cls-1" d="M218.69,296.19a3.33,3.33,0,0,1,1.31,1.32,3.9,3.9,0,0,1,.46,1.92,5,5,0,0,1-.6,2.42,4.5,4.5,0,0,1-1.65,1.73,4.28,4.28,0,0,1-2.29.64,3.74,3.74,0,0,1-2.31-.71,3.25,3.25,0,0,1-1.21-1.92l-1.14,5.71h-.66l2.3-11.53h.66l-.38,1.86a4.26,4.26,0,0,1,3.59-1.91A3.9,3.9,0,0,1,218.69,296.19Zm-4,.71a4.08,4.08,0,0,0-1.94,3.53,3.29,3.29,0,0,0,.4,1.64,2.81,2.81,0,0,0,1.13,1.11,3.48,3.48,0,0,0,1.66.4,3.67,3.67,0,0,0,1.94-.55,4,4,0,0,0,1.42-1.49,4.19,4.19,0,0,0,.53-2.06,3.26,3.26,0,0,0-.41-1.63,2.76,2.76,0,0,0-1.12-1.1,3.39,3.39,0,0,0-1.65-.4A3.74,3.74,0,0,0,214.65,296.9Z"/><path class="cls-1" d="M225.49,296.32a4,4,0,0,1,2-.56l-.07.69a3.56,3.56,0,0,0-2.38.85,4.65,4.65,0,0,0-1.44,2.33l-.9,4.54h-.66l1.67-8.4h.66l-.41,2.1A4.35,4.35,0,0,1,225.49,296.32Z"/><path class="cls-1" d="M234.22,296.24a3.3,3.3,0,0,1,1.32,1.35,4,4,0,0,1,.48,2,4.73,4.73,0,0,1-.6,2.38,4.45,4.45,0,0,1-1.66,1.65,4.58,4.58,0,0,1-2.32.6,3.82,3.82,0,0,1-1.95-.49,3.39,3.39,0,0,1-1.33-1.35,4,4,0,0,1-.47-2,4.59,4.59,0,0,1,.61-2.36,4.41,4.41,0,0,1,1.66-1.66,4.66,4.66,0,0,1,2.3-.59A3.87,3.87,0,0,1,234.22,296.24Zm-4,.66a3.6,3.6,0,0,0-1.39,1.4,4.08,4.08,0,0,0-.51,2,3.55,3.55,0,0,0,.4,1.69,2.81,2.81,0,0,0,1.1,1.14,3.33,3.33,0,0,0,1.63.4,3.88,3.88,0,0,0,2-.51,3.67,3.67,0,0,0,1.39-1.4,4.06,4.06,0,0,0,.51-2A3.34,3.34,0,0,0,235,298a2.94,2.94,0,0,0-1.1-1.14,3.25,3.25,0,0,0-1.64-.41A3.91,3.91,0,0,0,230.26,296.9Z"/><path class="cls-1" d="M239.34,303.75a3.28,3.28,0,0,1-1.3-1.31,3.83,3.83,0,0,1-.47-1.93,5,5,0,0,1,.6-2.42,4.67,4.67,0,0,1,1.66-1.73,4.34,4.34,0,0,1,2.28-.64,3.67,3.67,0,0,1,2.3.72,3.23,3.23,0,0,1,1.22,1.93l1.22-6.16h.66l-2.38,12h-.66l.38-1.85a4.17,4.17,0,0,1-1.55,1.4,4.34,4.34,0,0,1-2,.5A3.9,3.9,0,0,1,239.34,303.75Zm4-.71a4,4,0,0,0,1.42-1.48,4.11,4.11,0,0,0,.52-2.05,3.26,3.26,0,0,0-.4-1.63,2.9,2.9,0,0,0-1.13-1.12,3.45,3.45,0,0,0-1.66-.39,3.58,3.58,0,0,0-1.94.55,3.91,3.91,0,0,0-1.42,1.49,4.14,4.14,0,0,0-.52,2,3.2,3.2,0,0,0,.4,1.63,2.85,2.85,0,0,0,1.12,1.11,3.41,3.41,0,0,0,1.65.39A3.65,3.65,0,0,0,243.38,303Z"/><path class="cls-1" d="M249.65,303.54a2.34,2.34,0,0,1-.75-1.85,3.81,3.81,0,0,1,.1-.87l1-5.05h.66l-1,5a4.57,4.57,0,0,0-.08.75,1.89,1.89,0,0,0,.61,1.5,2.46,2.46,0,0,0,1.7.54,4,4,0,0,0,2.55-.92,4.09,4.09,0,0,0,1.38-2.46l.86-4.39h.66l-1.66,8.4H255l.42-2.09a4.26,4.26,0,0,1-1.55,1.55,4.53,4.53,0,0,1-2.15.57A3.07,3.07,0,0,1,249.65,303.54Z"/><path class="cls-1" d="M260.47,301.8a4.44,4.44,0,0,0-.08.68c0,.7.33,1,1,1a3,3,0,0,0,1.6-.5l.17.56a3.23,3.23,0,0,1-1.85.6,1.54,1.54,0,0,1-1.14-.41,1.64,1.64,0,0,1-.41-1.19,4.91,4.91,0,0,1,.08-.77l1.05-5.26h-1.21l.12-.58H261l.42-2.08h.66l-.41,2.08h2.85l-.11.58h-2.86Z"/><path class="cls-1" d="M271.41,296.24a3.3,3.3,0,0,1,1.32,1.35,4,4,0,0,1,.48,2,4.73,4.73,0,0,1-.6,2.38,4.45,4.45,0,0,1-1.66,1.65,4.58,4.58,0,0,1-2.32.6,3.82,3.82,0,0,1-1.95-.49,3.39,3.39,0,0,1-1.33-1.35,4,4,0,0,1-.47-2,4.59,4.59,0,0,1,.61-2.36,4.41,4.41,0,0,1,1.66-1.66,4.66,4.66,0,0,1,2.3-.59A3.87,3.87,0,0,1,271.41,296.24Zm-4,.66a3.6,3.6,0,0,0-1.39,1.4,4.08,4.08,0,0,0-.51,2A3.43,3.43,0,0,0,266,302a2.81,2.81,0,0,0,1.1,1.14,3.33,3.33,0,0,0,1.63.4,3.88,3.88,0,0,0,2-.51,3.67,3.67,0,0,0,1.39-1.4,4.06,4.06,0,0,0,.51-2,3.34,3.34,0,0,0-.4-1.66,2.94,2.94,0,0,0-1.1-1.14,3.25,3.25,0,0,0-1.64-.41A3.91,3.91,0,0,0,267.45,296.9Z"/><path class="cls-1" d="M121.94,293.56h-6.6l-.91,4.5h5.88l-.13.68H114.3l-1,4.76h6.82l-.13.67h-7.48l2.26-11.27h7.27Z"/><path class="cls-1" d="M123.21,303.9a3.69,3.69,0,0,1-1.45-1.13l.39-.48a3.38,3.38,0,0,0,1.32,1,4.18,4.18,0,0,0,1.76.37,2.69,2.69,0,0,0,1.63-.46,1.49,1.49,0,0,0,.64-1.26,1.12,1.12,0,0,0-.26-.73,2.32,2.32,0,0,0-.64-.51c-.26-.14-.62-.31-1.07-.5s-.92-.43-1.21-.59a2.57,2.57,0,0,1-.77-.66,1.55,1.55,0,0,1-.32-1,2,2,0,0,1,.79-1.67,3.08,3.08,0,0,1,2-.62,4.66,4.66,0,0,1,1.57.25,4.45,4.45,0,0,1,1.25.7l-.37.51a4.08,4.08,0,0,0-1.13-.61,4.15,4.15,0,0,0-1.37-.23,2.49,2.49,0,0,0-1.5.43,1.38,1.38,0,0,0-.58,1.17,1,1,0,0,0,.26.7,2.08,2.08,0,0,0,.63.5c.26.14.6.29,1,.48a10.06,10.06,0,0,1,1.24.57,2.92,2.92,0,0,1,.8.68,1.6,1.6,0,0,1,.33,1,2.15,2.15,0,0,1-.84,1.78,3.41,3.41,0,0,1-2.14.69A4.75,4.75,0,0,1,123.21,303.9Z"/><path class="cls-1" d="M131.78,303.7a3.4,3.4,0,0,1-1.32-1.34,4.1,4.1,0,0,1-.46-2,4.74,4.74,0,0,1,.6-2.37,4.31,4.31,0,0,1,1.65-1.66,4.59,4.59,0,0,1,2.29-.59,4.3,4.3,0,0,1,1.63.3,3.64,3.64,0,0,1,1.26.87l-.44.49a3.26,3.26,0,0,0-2.48-1,3.84,3.84,0,0,0-1.95.51,3.66,3.66,0,0,0-1.39,1.4,4,4,0,0,0-.51,2,3.49,3.49,0,0,0,.39,1.67,2.92,2.92,0,0,0,1.11,1.15,3.21,3.21,0,0,0,1.63.41,3.94,3.94,0,0,0,1.58-.31,3.6,3.6,0,0,0,1.27-.87l.37.44a4.2,4.2,0,0,1-1.48,1,4.53,4.53,0,0,1-1.81.36A3.76,3.76,0,0,1,131.78,303.7Z"/><path class="cls-1" d="M145.42,296.24a3.43,3.43,0,0,1,1.32,1.35,4,4,0,0,1,.47,2,4.73,4.73,0,0,1-.6,2.38,4.36,4.36,0,0,1-1.65,1.65,4.61,4.61,0,0,1-2.32.6,3.77,3.77,0,0,1-1.95-.49,3.32,3.32,0,0,1-1.33-1.35,4,4,0,0,1-.48-2,4.59,4.59,0,0,1,.61-2.36,4.41,4.41,0,0,1,1.66-1.66,4.67,4.67,0,0,1,2.31-.59A3.93,3.93,0,0,1,145.42,296.24Zm-4,.66a3.67,3.67,0,0,0-1.39,1.4,4.18,4.18,0,0,0-.5,2A3.54,3.54,0,0,0,140,302a2.77,2.77,0,0,0,1.11,1.14,3.3,3.3,0,0,0,1.62.4,3.88,3.88,0,0,0,2-.51,3.69,3.69,0,0,0,1.4-1.4,4.16,4.16,0,0,0,.5-2,3.45,3.45,0,0,0-.39-1.66,3,3,0,0,0-1.11-1.14,3.25,3.25,0,0,0-1.64-.41A3.94,3.94,0,0,0,141.45,296.9Z"/><path class="cls-1" d="M152,292.21l-2.39,12h-.66l2.38-12Z"/><path class="cls-1" d="M160.88,296.4a2.35,2.35,0,0,1,.75,1.86,4.84,4.84,0,0,1-.1.87l-1,5h-.66l1-5a3.67,3.67,0,0,0,.08-.74,1.92,1.92,0,0,0-.6-1.51,2.46,2.46,0,0,0-1.7-.54,4,4,0,0,0-2.56.93,4.16,4.16,0,0,0-1.38,2.46l-.85,4.38h-.66l2.35-12h.66l-1.11,5.66a4.15,4.15,0,0,1,1.55-1.56,4.49,4.49,0,0,1,2.14-.57A3.08,3.08,0,0,1,160.88,296.4Z"/><path class="cls-1" d="M165.32,303.75a3.3,3.3,0,0,1-1.31-1.31,3.94,3.94,0,0,1-.47-1.93,5,5,0,0,1,.61-2.42,4.57,4.57,0,0,1,1.65-1.73,4.37,4.37,0,0,1,2.29-.64,3.69,3.69,0,0,1,2.3.72,3.21,3.21,0,0,1,1.21,1.93l.52-2.6h.66l-1.68,8.4h-.66l.39-1.85a4.32,4.32,0,0,1-3.59,1.9A3.9,3.9,0,0,1,165.32,303.75Zm4-.71a4,4,0,0,0,1.41-1.48,4.12,4.12,0,0,0,.53-2.05,3.26,3.26,0,0,0-.41-1.63,2.81,2.81,0,0,0-1.12-1.12,3.48,3.48,0,0,0-1.66-.39,3.64,3.64,0,0,0-2,.55,3.89,3.89,0,0,0-1.41,1.49,4.15,4.15,0,0,0-.53,2,3.31,3.31,0,0,0,.4,1.63,2.91,2.91,0,0,0,1.12,1.11,3.42,3.42,0,0,0,1.66.39A3.65,3.65,0,0,0,169.36,303Z"/><path class="cls-1" d="M179.6,303.9a3.69,3.69,0,0,1-1.45-1.13l.39-.48a3.38,3.38,0,0,0,1.32,1,4.16,4.16,0,0,0,1.75.37,2.7,2.7,0,0,0,1.64-.46,1.52,1.52,0,0,0,.64-1.26,1.12,1.12,0,0,0-.26-.73,2.23,2.23,0,0,0-.65-.51,11.23,11.23,0,0,0-1.06-.5c-.51-.23-.92-.43-1.22-.59a2.66,2.66,0,0,1-.76-.66,1.55,1.55,0,0,1-.32-1,2,2,0,0,1,.79-1.67,3.07,3.07,0,0,1,2-.62,4.72,4.72,0,0,1,1.58.25,4.6,4.6,0,0,1,1.25.7l-.38.51a3.88,3.88,0,0,0-1.12-.61,4.15,4.15,0,0,0-1.37-.23,2.47,2.47,0,0,0-1.5.43,1.38,1.38,0,0,0-.58,1.17,1,1,0,0,0,.25.7,2.26,2.26,0,0,0,.64.5c.25.14.6.29,1,.48a9.2,9.2,0,0,1,1.23.57,2.82,2.82,0,0,1,.81.68,1.6,1.6,0,0,1,.33,1,2.14,2.14,0,0,1-.85,1.78,3.36,3.36,0,0,1-2.13.69A4.75,4.75,0,0,1,179.6,303.9Z"/><path class="cls-1" d="M187.05,300.16v.21a3.18,3.18,0,0,0,.87,2.32,3.07,3.07,0,0,0,2.29.89,4.36,4.36,0,0,0,1.59-.29,3.58,3.58,0,0,0,1.29-.81l.36.47a4.62,4.62,0,0,1-1.49.92,5,5,0,0,1-1.8.33,4,4,0,0,1-2-.48,3.39,3.39,0,0,1-1.33-1.35,4,4,0,0,1-.47-2A4.71,4.71,0,0,1,187,298a4.43,4.43,0,0,1,1.64-1.66,4.54,4.54,0,0,1,2.3-.6,3.73,3.73,0,0,1,1.89.46,3,3,0,0,1,1.23,1.29,4.06,4.06,0,0,1,.43,1.92,6.11,6.11,0,0,1,0,.73Zm1.38-2.9a3.87,3.87,0,0,0-1.32,2.3h6.77a3.19,3.19,0,0,0-.75-2.31,2.84,2.84,0,0,0-2.21-.86A3.74,3.74,0,0,0,188.43,297.26Z"/><path class="cls-1" d="M197.1,303.54a2.34,2.34,0,0,1-.75-1.85,3.81,3.81,0,0,1,.1-.87l1-5.05h.67l-1,5a4.57,4.57,0,0,0-.08.75,1.89,1.89,0,0,0,.61,1.5,2.46,2.46,0,0,0,1.7.54,4,4,0,0,0,2.55-.92,4.09,4.09,0,0,0,1.38-2.46l.85-4.39h.67l-1.67,8.4h-.66l.42-2.09a4.17,4.17,0,0,1-1.54,1.55,4.53,4.53,0,0,1-2.15.57A3.07,3.07,0,0,1,197.1,303.54Z"/><path class="cls-1" d="M218.69,296.19a3.33,3.33,0,0,1,1.31,1.32,3.9,3.9,0,0,1,.46,1.92,5,5,0,0,1-.6,2.42,4.5,4.5,0,0,1-1.65,1.73,4.28,4.28,0,0,1-2.29.64,3.74,3.74,0,0,1-2.31-.71,3.25,3.25,0,0,1-1.21-1.92l-1.14,5.71h-.66l2.3-11.53h.66l-.38,1.86a4.26,4.26,0,0,1,3.59-1.91A3.9,3.9,0,0,1,218.69,296.19Zm-4,.71a4.08,4.08,0,0,0-1.94,3.53,3.29,3.29,0,0,0,.4,1.64,2.81,2.81,0,0,0,1.13,1.11,3.48,3.48,0,0,0,1.66.4,3.67,3.67,0,0,0,1.94-.55,4,4,0,0,0,1.42-1.49,4.19,4.19,0,0,0,.53-2.06,3.26,3.26,0,0,0-.41-1.63,2.76,2.76,0,0,0-1.12-1.1,3.39,3.39,0,0,0-1.65-.4A3.74,3.74,0,0,0,214.65,296.9Z"/><path class="cls-1" d="M225.49,296.32a4,4,0,0,1,2-.56l-.07.69a3.56,3.56,0,0,0-2.38.85,4.65,4.65,0,0,0-1.44,2.33l-.9,4.54h-.66l1.67-8.4h.66l-.41,2.1A4.35,4.35,0,0,1,225.49,296.32Z"/><path class="cls-1" d="M234.22,296.24a3.3,3.3,0,0,1,1.32,1.35,4,4,0,0,1,.48,2,4.73,4.73,0,0,1-.6,2.38,4.45,4.45,0,0,1-1.66,1.65,4.58,4.58,0,0,1-2.32.6,3.82,3.82,0,0,1-1.95-.49,3.39,3.39,0,0,1-1.33-1.35,4,4,0,0,1-.47-2,4.59,4.59,0,0,1,.61-2.36,4.41,4.41,0,0,1,1.66-1.66,4.66,4.66,0,0,1,2.3-.59A3.87,3.87,0,0,1,234.22,296.24Zm-4,.66a3.6,3.6,0,0,0-1.39,1.4,4.08,4.08,0,0,0-.51,2,3.55,3.55,0,0,0,.4,1.69,2.81,2.81,0,0,0,1.1,1.14,3.33,3.33,0,0,0,1.63.4,3.88,3.88,0,0,0,2-.51,3.67,3.67,0,0,0,1.39-1.4,4.06,4.06,0,0,0,.51-2A3.34,3.34,0,0,0,235,298a2.94,2.94,0,0,0-1.1-1.14,3.25,3.25,0,0,0-1.64-.41A3.91,3.91,0,0,0,230.26,296.9Z"/><path class="cls-1" d="M239.34,303.75a3.28,3.28,0,0,1-1.3-1.31,3.83,3.83,0,0,1-.47-1.93,5,5,0,0,1,.6-2.42,4.67,4.67,0,0,1,1.66-1.73,4.34,4.34,0,0,1,2.28-.64,3.67,3.67,0,0,1,2.3.72,3.23,3.23,0,0,1,1.22,1.93l1.22-6.16h.66l-2.38,12h-.66l.38-1.85a4.17,4.17,0,0,1-1.55,1.4,4.34,4.34,0,0,1-2,.5A3.9,3.9,0,0,1,239.34,303.75Zm4-.71a4,4,0,0,0,1.42-1.48,4.11,4.11,0,0,0,.52-2.05,3.26,3.26,0,0,0-.4-1.63,2.9,2.9,0,0,0-1.13-1.12,3.45,3.45,0,0,0-1.66-.39,3.58,3.58,0,0,0-1.94.55,3.91,3.91,0,0,0-1.42,1.49,4.14,4.14,0,0,0-.52,2,3.2,3.2,0,0,0,.4,1.63,2.85,2.85,0,0,0,1.12,1.11,3.41,3.41,0,0,0,1.65.39A3.65,3.65,0,0,0,243.38,303Z"/><path class="cls-1" d="M249.65,303.54a2.34,2.34,0,0,1-.75-1.85,3.81,3.81,0,0,1,.1-.87l1-5.05h.66l-1,5a4.57,4.57,0,0,0-.08.75,1.89,1.89,0,0,0,.61,1.5,2.46,2.46,0,0,0,1.7.54,4,4,0,0,0,2.55-.92,4.09,4.09,0,0,0,1.38-2.46l.86-4.39h.66l-1.66,8.4H255l.42-2.09a4.26,4.26,0,0,1-1.55,1.55,4.53,4.53,0,0,1-2.15.57A3.07,3.07,0,0,1,249.65,303.54Z"/><path class="cls-1" d="M260.47,301.8a4.44,4.44,0,0,0-.08.68c0,.7.33,1,1,1a3,3,0,0,0,1.6-.5l.17.56a3.23,3.23,0,0,1-1.85.6,1.54,1.54,0,0,1-1.14-.41,1.64,1.64,0,0,1-.41-1.19,4.91,4.91,0,0,1,.08-.77l1.05-5.26h-1.21l.12-.58H261l.42-2.08h.66l-.41,2.08h2.85l-.11.58h-2.86Z"/><path class="cls-1" d="M271.41,296.24a3.3,3.3,0,0,1,1.32,1.35,4,4,0,0,1,.48,2,4.73,4.73,0,0,1-.6,2.38,4.45,4.45,0,0,1-1.66,1.65,4.58,4.58,0,0,1-2.32.6,3.82,3.82,0,0,1-1.95-.49,3.39,3.39,0,0,1-1.33-1.35,4,4,0,0,1-.47-2,4.59,4.59,0,0,1,.61-2.36,4.41,4.41,0,0,1,1.66-1.66,4.66,4.66,0,0,1,2.3-.59A3.87,3.87,0,0,1,271.41,296.24Zm-4,.66a3.6,3.6,0,0,0-1.39,1.4,4.08,4.08,0,0,0-.51,2A3.43,3.43,0,0,0,266,302a2.81,2.81,0,0,0,1.1,1.14,3.33,3.33,0,0,0,1.63.4,3.88,3.88,0,0,0,2-.51,3.67,3.67,0,0,0,1.39-1.4,4.06,4.06,0,0,0,.51-2,3.34,3.34,0,0,0-.4-1.66,2.94,2.94,0,0,0-1.1-1.14,3.25,3.25,0,0,0-1.64-.41A3.91,3.91,0,0,0,267.45,296.9Z"/><path class="cls-1" d="M121.94,293.56h-6.6l-.91,4.5h5.88l-.13.68H114.3l-1,4.76h6.82l-.13.67h-7.48l2.26-11.27h7.27Z"/><path class="cls-1" d="M123.21,303.9a3.69,3.69,0,0,1-1.45-1.13l.39-.48a3.38,3.38,0,0,0,1.32,1,4.18,4.18,0,0,0,1.76.37,2.69,2.69,0,0,0,1.63-.46,1.49,1.49,0,0,0,.64-1.26,1.12,1.12,0,0,0-.26-.73,2.32,2.32,0,0,0-.64-.51c-.26-.14-.62-.31-1.07-.5s-.92-.43-1.21-.59a2.57,2.57,0,0,1-.77-.66,1.55,1.55,0,0,1-.32-1,2,2,0,0,1,.79-1.67,3.08,3.08,0,0,1,2-.62,4.66,4.66,0,0,1,1.57.25,4.45,4.45,0,0,1,1.25.7l-.37.51a4.08,4.08,0,0,0-1.13-.61,4.15,4.15,0,0,0-1.37-.23,2.49,2.49,0,0,0-1.5.43,1.38,1.38,0,0,0-.58,1.17,1,1,0,0,0,.26.7,2.08,2.08,0,0,0,.63.5c.26.14.6.29,1,.48a10.06,10.06,0,0,1,1.24.57,2.92,2.92,0,0,1,.8.68,1.6,1.6,0,0,1,.33,1,2.15,2.15,0,0,1-.84,1.78,3.41,3.41,0,0,1-2.14.69A4.75,4.75,0,0,1,123.21,303.9Z"/><path class="cls-1" d="M131.78,303.7a3.4,3.4,0,0,1-1.32-1.34,4.1,4.1,0,0,1-.46-2,4.74,4.74,0,0,1,.6-2.37,4.31,4.31,0,0,1,1.65-1.66,4.59,4.59,0,0,1,2.29-.59,4.3,4.3,0,0,1,1.63.3,3.64,3.64,0,0,1,1.26.87l-.44.49a3.26,3.26,0,0,0-2.48-1,3.84,3.84,0,0,0-1.95.51,3.66,3.66,0,0,0-1.39,1.4,4,4,0,0,0-.51,2,3.49,3.49,0,0,0,.39,1.67,2.92,2.92,0,0,0,1.11,1.15,3.21,3.21,0,0,0,1.63.41,3.94,3.94,0,0,0,1.58-.31,3.6,3.6,0,0,0,1.27-.87l.37.44a4.2,4.2,0,0,1-1.48,1,4.53,4.53,0,0,1-1.81.36A3.76,3.76,0,0,1,131.78,303.7Z"/><path class="cls-1" d="M145.42,296.24a3.43,3.43,0,0,1,1.32,1.35,4,4,0,0,1,.47,2,4.73,4.73,0,0,1-.6,2.38,4.36,4.36,0,0,1-1.65,1.65,4.61,4.61,0,0,1-2.32.6,3.77,3.77,0,0,1-1.95-.49,3.32,3.32,0,0,1-1.33-1.35,4,4,0,0,1-.48-2,4.59,4.59,0,0,1,.61-2.36,4.41,4.41,0,0,1,1.66-1.66,4.67,4.67,0,0,1,2.31-.59A3.93,3.93,0,0,1,145.42,296.24Zm-4,.66a3.67,3.67,0,0,0-1.39,1.4,4.18,4.18,0,0,0-.5,2A3.54,3.54,0,0,0,140,302a2.77,2.77,0,0,0,1.11,1.14,3.3,3.3,0,0,0,1.62.4,3.88,3.88,0,0,0,2-.51,3.69,3.69,0,0,0,1.4-1.4,4.16,4.16,0,0,0,.5-2,3.45,3.45,0,0,0-.39-1.66,3,3,0,0,0-1.11-1.14,3.25,3.25,0,0,0-1.64-.41A3.94,3.94,0,0,0,141.45,296.9Z"/><path class="cls-1" d="M152,292.21l-2.39,12h-.66l2.38-12Z"/><path class="cls-1" d="M160.88,296.4a2.35,2.35,0,0,1,.75,1.86,4.84,4.84,0,0,1-.1.87l-1,5h-.66l1-5a3.67,3.67,0,0,0,.08-.74,1.92,1.92,0,0,0-.6-1.51,2.46,2.46,0,0,0-1.7-.54,4,4,0,0,0-2.56.93,4.16,4.16,0,0,0-1.38,2.46l-.85,4.38h-.66l2.35-12h.66l-1.11,5.66a4.15,4.15,0,0,1,1.55-1.56,4.49,4.49,0,0,1,2.14-.57A3.08,3.08,0,0,1,160.88,296.4Z"/><path class="cls-1" d="M165.32,303.75a3.3,3.3,0,0,1-1.31-1.31,3.94,3.94,0,0,1-.47-1.93,5,5,0,0,1,.61-2.42,4.57,4.57,0,0,1,1.65-1.73,4.37,4.37,0,0,1,2.29-.64,3.69,3.69,0,0,1,2.3.72,3.21,3.21,0,0,1,1.21,1.93l.52-2.6h.66l-1.68,8.4h-.66l.39-1.85a4.32,4.32,0,0,1-3.59,1.9A3.9,3.9,0,0,1,165.32,303.75Zm4-.71a4,4,0,0,0,1.41-1.48,4.12,4.12,0,0,0,.53-2.05,3.26,3.26,0,0,0-.41-1.63,2.81,2.81,0,0,0-1.12-1.12,3.48,3.48,0,0,0-1.66-.39,3.64,3.64,0,0,0-2,.55,3.89,3.89,0,0,0-1.41,1.49,4.15,4.15,0,0,0-.53,2,3.31,3.31,0,0,0,.4,1.63,2.91,2.91,0,0,0,1.12,1.11,3.42,3.42,0,0,0,1.66.39A3.65,3.65,0,0,0,169.36,303Z"/><path class="cls-1" d="M179.6,303.9a3.69,3.69,0,0,1-1.45-1.13l.39-.48a3.38,3.38,0,0,0,1.32,1,4.16,4.16,0,0,0,1.75.37,2.7,2.7,0,0,0,1.64-.46,1.52,1.52,0,0,0,.64-1.26,1.12,1.12,0,0,0-.26-.73,2.23,2.23,0,0,0-.65-.51,11.23,11.23,0,0,0-1.06-.5c-.51-.23-.92-.43-1.22-.59a2.66,2.66,0,0,1-.76-.66,1.55,1.55,0,0,1-.32-1,2,2,0,0,1,.79-1.67,3.07,3.07,0,0,1,2-.62,4.72,4.72,0,0,1,1.58.25,4.6,4.6,0,0,1,1.25.7l-.38.51a3.88,3.88,0,0,0-1.12-.61,4.15,4.15,0,0,0-1.37-.23,2.47,2.47,0,0,0-1.5.43,1.38,1.38,0,0,0-.58,1.17,1,1,0,0,0,.25.7,2.26,2.26,0,0,0,.64.5c.25.14.6.29,1,.48a9.2,9.2,0,0,1,1.23.57,2.82,2.82,0,0,1,.81.68,1.6,1.6,0,0,1,.33,1,2.14,2.14,0,0,1-.85,1.78,3.36,3.36,0,0,1-2.13.69A4.75,4.75,0,0,1,179.6,303.9Z"/><path class="cls-1" d="M187.05,300.16v.21a3.18,3.18,0,0,0,.87,2.32,3.07,3.07,0,0,0,2.29.89,4.36,4.36,0,0,0,1.59-.29,3.58,3.58,0,0,0,1.29-.81l.36.47a4.62,4.62,0,0,1-1.49.92,5,5,0,0,1-1.8.33,4,4,0,0,1-2-.48,3.39,3.39,0,0,1-1.33-1.35,4,4,0,0,1-.47-2A4.71,4.71,0,0,1,187,298a4.43,4.43,0,0,1,1.64-1.66,4.54,4.54,0,0,1,2.3-.6,3.73,3.73,0,0,1,1.89.46,3,3,0,0,1,1.23,1.29,4.06,4.06,0,0,1,.43,1.92,6.11,6.11,0,0,1,0,.73Zm1.38-2.9a3.87,3.87,0,0,0-1.32,2.3h6.77a3.19,3.19,0,0,0-.75-2.31,2.84,2.84,0,0,0-2.21-.86A3.74,3.74,0,0,0,188.43,297.26Z"/><path class="cls-1" d="M197.1,303.54a2.34,2.34,0,0,1-.75-1.85,3.81,3.81,0,0,1,.1-.87l1-5.05h.67l-1,5a4.57,4.57,0,0,0-.08.75,1.89,1.89,0,0,0,.61,1.5,2.46,2.46,0,0,0,1.7.54,4,4,0,0,0,2.55-.92,4.09,4.09,0,0,0,1.38-2.46l.85-4.39h.67l-1.67,8.4h-.66l.42-2.09a4.17,4.17,0,0,1-1.54,1.55,4.53,4.53,0,0,1-2.15.57A3.07,3.07,0,0,1,197.1,303.54Z"/><path class="cls-1" d="M218.69,296.19a3.33,3.33,0,0,1,1.31,1.32,3.9,3.9,0,0,1,.46,1.92,5,5,0,0,1-.6,2.42,4.5,4.5,0,0,1-1.65,1.73,4.28,4.28,0,0,1-2.29.64,3.74,3.74,0,0,1-2.31-.71,3.25,3.25,0,0,1-1.21-1.92l-1.14,5.71h-.66l2.3-11.53h.66l-.38,1.86a4.26,4.26,0,0,1,3.59-1.91A3.9,3.9,0,0,1,218.69,296.19Zm-4,.71a4.08,4.08,0,0,0-1.94,3.53,3.29,3.29,0,0,0,.4,1.64,2.81,2.81,0,0,0,1.13,1.11,3.48,3.48,0,0,0,1.66.4,3.67,3.67,0,0,0,1.94-.55,4,4,0,0,0,1.42-1.49,4.19,4.19,0,0,0,.53-2.06,3.26,3.26,0,0,0-.41-1.63,2.76,2.76,0,0,0-1.12-1.1,3.39,3.39,0,0,0-1.65-.4A3.74,3.74,0,0,0,214.65,296.9Z"/><path class="cls-1" d="M225.49,296.32a4,4,0,0,1,2-.56l-.07.69a3.56,3.56,0,0,0-2.38.85,4.65,4.65,0,0,0-1.44,2.33l-.9,4.54h-.66l1.67-8.4h.66l-.41,2.1A4.35,4.35,0,0,1,225.49,296.32Z"/><path class="cls-1" d="M234.22,296.24a3.3,3.3,0,0,1,1.32,1.35,4,4,0,0,1,.48,2,4.73,4.73,0,0,1-.6,2.38,4.45,4.45,0,0,1-1.66,1.65,4.58,4.58,0,0,1-2.32.6,3.82,3.82,0,0,1-1.95-.49,3.39,3.39,0,0,1-1.33-1.35,4,4,0,0,1-.47-2,4.59,4.59,0,0,1,.61-2.36,4.41,4.41,0,0,1,1.66-1.66,4.66,4.66,0,0,1,2.3-.59A3.87,3.87,0,0,1,234.22,296.24Zm-4,.66a3.6,3.6,0,0,0-1.39,1.4,4.08,4.08,0,0,0-.51,2,3.55,3.55,0,0,0,.4,1.69,2.81,2.81,0,0,0,1.1,1.14,3.33,3.33,0,0,0,1.63.4,3.88,3.88,0,0,0,2-.51,3.67,3.67,0,0,0,1.39-1.4,4.06,4.06,0,0,0,.51-2A3.34,3.34,0,0,0,235,298a2.94,2.94,0,0,0-1.1-1.14,3.25,3.25,0,0,0-1.64-.41A3.91,3.91,0,0,0,230.26,296.9Z"/><path class="cls-1" d="M239.34,303.75a3.28,3.28,0,0,1-1.3-1.31,3.83,3.83,0,0,1-.47-1.93,5,5,0,0,1,.6-2.42,4.67,4.67,0,0,1,1.66-1.73,4.34,4.34,0,0,1,2.28-.64,3.67,3.67,0,0,1,2.3.72,3.23,3.23,0,0,1,1.22,1.93l1.22-6.16h.66l-2.38,12h-.66l.38-1.85a4.17,4.17,0,0,1-1.55,1.4,4.34,4.34,0,0,1-2,.5A3.9,3.9,0,0,1,239.34,303.75Zm4-.71a4,4,0,0,0,1.42-1.48,4.11,4.11,0,0,0,.52-2.05,3.26,3.26,0,0,0-.4-1.63,2.9,2.9,0,0,0-1.13-1.12,3.45,3.45,0,0,0-1.66-.39,3.58,3.58,0,0,0-1.94.55,3.91,3.91,0,0,0-1.42,1.49,4.14,4.14,0,0,0-.52,2,3.2,3.2,0,0,0,.4,1.63,2.85,2.85,0,0,0,1.12,1.11,3.41,3.41,0,0,0,1.65.39A3.65,3.65,0,0,0,243.38,303Z"/><path class="cls-1" d="M249.65,303.54a2.34,2.34,0,0,1-.75-1.85,3.81,3.81,0,0,1,.1-.87l1-5.05h.66l-1,5a4.57,4.57,0,0,0-.08.75,1.89,1.89,0,0,0,.61,1.5,2.46,2.46,0,0,0,1.7.54,4,4,0,0,0,2.55-.92,4.09,4.09,0,0,0,1.38-2.46l.86-4.39h.66l-1.66,8.4H255l.42-2.09a4.26,4.26,0,0,1-1.55,1.55,4.53,4.53,0,0,1-2.15.57A3.07,3.07,0,0,1,249.65,303.54Z"/><path class="cls-1" d="M260.47,301.8a4.44,4.44,0,0,0-.08.68c0,.7.33,1,1,1a3,3,0,0,0,1.6-.5l.17.56a3.23,3.23,0,0,1-1.85.6,1.54,1.54,0,0,1-1.14-.41,1.64,1.64,0,0,1-.41-1.19,4.91,4.91,0,0,1,.08-.77l1.05-5.26h-1.21l.12-.58H261l.42-2.08h.66l-.41,2.08h2.85l-.11.58h-2.86Z"/><path class="cls-1" d="M271.41,296.24a3.3,3.3,0,0,1,1.32,1.35,4,4,0,0,1,.48,2,4.73,4.73,0,0,1-.6,2.38,4.45,4.45,0,0,1-1.66,1.65,4.58,4.58,0,0,1-2.32.6,3.82,3.82,0,0,1-1.95-.49,3.39,3.39,0,0,1-1.33-1.35,4,4,0,0,1-.47-2,4.59,4.59,0,0,1,.61-2.36,4.41,4.41,0,0,1,1.66-1.66,4.66,4.66,0,0,1,2.3-.59A3.87,3.87,0,0,1,271.41,296.24Zm-4,.66a3.6,3.6,0,0,0-1.39,1.4,4.08,4.08,0,0,0-.51,2A3.43,3.43,0,0,0,266,302a2.81,2.81,0,0,0,1.1,1.14,3.33,3.33,0,0,0,1.63.4,3.88,3.88,0,0,0,2-.51,3.67,3.67,0,0,0,1.39-1.4,4.06,4.06,0,0,0,.51-2,3.34,3.34,0,0,0-.4-1.66,2.94,2.94,0,0,0-1.1-1.14,3.25,3.25,0,0,0-1.64-.41A3.91,3.91,0,0,0,267.45,296.9Z"/><path id="Fundo-4" data-name="Fundo" class="cls-2" d="M53,50.62H305.72a14.91,14.91,0,0,1,14.9,14.91V301.78a14.9,14.9,0,0,1-14.9,14.9H67.9A14.9,14.9,0,0,1,53,301.78Z"/><circle id="Etapa-2" data-name="Etapa" class="cls-3" cx="28.98" cy="28.96" r="29.27"/><text class="cls-4" transform="translate(20.38 46.24)">1</text><g id="Computador-2" data-name="Computador"><g id="Monitor-2" data-name="Monitor"><g id="Estrutura-4" data-name="Estrutura"><line id="Base" class="cls-5" x1="137.99" y1="280.46" x2="235.12" y2="280.46"/><polygon id="Braço-2" data-name="Braço" class="cls-6" points="213.8 278.66 160.07 278.66 162.28 245.59 211.6 245.59 213.8 278.66"/><rect id="Tela-2" data-name="Tela" class="cls-6" x="62.56" y="63.46" width="248" height="181.59" rx="4.78"/></g><rect id="Background-2" data-name="Background" class="cls-7" x="69.46" y="70.45" width="234.36" height="167.6"/><circle id="On_Off-2" data-name="On/Off" class="cls-8" cx="186.56" cy="241.38" r="1.42"/></g><g id="Tenda-2" data-name="Tenda"><g id="Header-2" data-name="Header"><rect class="cls-9" x="69.96" y="70.94" width="233.34" height="14.36"/><path class="cls-6" d="M303.3,86.27H70.5a.51.51,0,0,1-.51-.51V84.57H303.3Z"/><rect class="cls-10" x="78.48" y="76.11" width="70.38" height="5.2" rx="1.91"/><path class="cls-10" d="M237.45,70.94H303.3V84.55H239.84a2.39,2.39,0,0,1-2.39-2.39Z"/><ellipse class="cls-11" cx="283.03" cy="79.36" rx="0.54" ry="0.58"/><ellipse class="cls-12" cx="289.01" cy="79.36" rx="0.54" ry="0.58"/><ellipse class="cls-13" cx="294.99" cy="79.36" rx="0.54" ry="0.58"/></g><g id="Black-2" data-name="Black"><polygon id="Fundo-5" data-name="Fundo" class="cls-6" points="315.57 124.42 57.76 124.42 70.08 85.56 303.24 85.56 315.57 124.42"/><g id="Bandeiras-3" data-name="Bandeiras"><path class="cls-6" d="M315.48,125.23c-.52,7.93-8.93,14.24-19.22,14.24s-18.69-6.31-19.21-14.24Z"/><path class="cls-6" d="M57.58,125.23H96c-.52,7.93-8.92,14.24-19.21,14.24S58.1,133.16,57.58,125.23Z"/><path class="cls-6" d="M206.2,125.23H241c-.4,7.23-8,13-17.4,13S206.6,132.46,206.2,125.23Z"/><path class="cls-6" d="M132.3,125.23h34.82c-.41,7.23-8,13-17.4,13S132.71,132.46,132.3,125.23Z"/></g></g><g id="Degrade-2" data-name="Degrade"><g id="Fundo-6" data-name="Fundo"><polygon class="cls-14" points="206.18 124.46 167.15 124.46 171.51 85.63 201.51 85.63 206.18 124.46"/><polygon class="cls-15" points="277.02 124.43 241.07 124.43 233.87 85.64 267.79 85.64 277.02 124.43"/><polygon class="cls-16" points="95.84 124.43 131.79 124.43 139 85.64 105.08 85.64 95.84 124.43"/></g><g id="Bandeiras-4" data-name="Bandeiras"><path class="cls-17" d="M167.16,125.23h39c-.22,8.25-8.88,14.89-19.51,14.89S167.38,133.48,167.16,125.23Z"/><path class="cls-18" d="M96.15,125.23h35.94c-.4,7.48-8.3,13.44-18,13.44S96.54,132.71,96.15,125.23Z"/><path class="cls-19" d="M241,125.23H277c-.4,7.48-8.29,13.44-18,13.44S241.43,132.71,241,125.23Z"/></g></g></g><g id="Products-2" data-name="Products"><g id="Camisa-2" data-name="Camisa"><g id="Estrutura-5" data-name="Estrutura"><path class="cls-20" d="M152.75,208.86a3.77,3.77,0,0,0,3.58-3.94V210a3,3,0,0,1-3.08,3H107.79a3,3,0,0,1-3.08-3v-5.11a3.77,3.77,0,0,0,3.58,3.94h5.3"/><path class="cls-21" d="M167.15,155.76,162,162.17a2,2,0,0,1-2.81.33l-2.87-2.19v44.61a3.77,3.77,0,0,1-3.58,3.94s-28.83,0-23.06,0h-21.4a3.77,3.77,0,0,1-3.58-3.94V160.21l-3,2.29a2,2,0,0,1-2.8-.33l-5.15-6.41A1.92,1.92,0,0,1,94.1,153l12.36-9.45a2.11,2.11,0,0,1,1.46-.4h0a2.23,2.23,0,0,1,.37,0h8.63a12.3,12.3,0,0,0,.71,4.17,1,1,0,0,0,.06.16,13.43,13.43,0,0,0,25.11,0,1,1,0,0,0,0-.16,12.3,12.3,0,0,0,.72-4.17h9.49a2.07,2.07,0,0,1,1.39.41L166.81,153A1.92,1.92,0,0,1,167.15,155.76Z"/><path class="cls-20" d="M167.24,155.47l-5.46,7a1.69,1.69,0,0,1-2.33.31l-.27-.2a1.61,1.61,0,0,1-.45-.53l7.48-9.27a2,2,0,0,1,.45.24l.26.2A1.59,1.59,0,0,1,167.24,155.47Z"/><path class="cls-20" d="M93.56,155.47l5.46,7a1.69,1.69,0,0,0,2.33.31l.27-.2a1.65,1.65,0,0,0,.46-.53l-7.49-9.27a2,2,0,0,0-.45.24l-.26.2A1.6,1.6,0,0,0,93.56,155.47Z"/><path class="cls-3" d="M143,142.84a11.9,11.9,0,0,1-.69,4,.88.88,0,0,1,0,.15,12.9,12.9,0,0,1-24.12,0c0-.05,0-.1-.05-.15a11.89,11.89,0,0,1-.68-4h2.3V143a9.77,9.77,0,0,0,.77,3.83l.07.15a10.41,10.41,0,0,0,18.94,0,.94.94,0,0,0,.06-.15,9.61,9.61,0,0,0,.78-3.83v-.18Z"/><path class="cls-9" d="M140.34,143.58a9,9,0,0,1-.84,3.8,10.59,10.59,0,0,1-18.89,0,9,9,0,0,1-.84-3.8v-.17h20.56A1,1,0,0,1,140.34,143.58Z"/><line class="cls-22" x1="116.92" y1="143.15" x2="143.57" y2="143.15"/></g><path id="Add-2" data-name="Add" class="cls-3" d="M143.13,175.36v1.53A1.11,1.11,0,0,1,142,178h-9.72v9.49a1.12,1.12,0,0,1-1.13,1.1h-1.57a1.11,1.11,0,0,1-1.13-1.1V178h-9.73a1.12,1.12,0,0,1-1.13-1.1v-1.53a1.12,1.12,0,0,1,1.13-1.11h9.73v-9.48a1.11,1.11,0,0,1,1.13-1.11h1.57a1.12,1.12,0,0,1,1.13,1.11v9.48H142A1.12,1.12,0,0,1,143.13,175.36Z"/></g><g id="Caneca-2" data-name="Caneca"><g id="Estrutura-6" data-name="Estrutura"><path class="cls-23" d="M161.05,199v6.31a.92.92,0,0,1-.93.91h-3v-8.13h3A.92.92,0,0,1,161.05,199Z"/><path class="cls-23" d="M155.81,193.83a0,0,0,0,0,0-.09,39.43,39.43,0,0,0-7.54-1,39.93,39.93,0,0,0-8,1,22.24,22.24,0,0,0,5.24,1.13h2.8C150,194.88,155.81,193.83,155.81,193.83Z"/><path class="cls-23" d="M157.17,195.14V212a1.36,1.36,0,0,1-1.38,1.34,29.52,29.52,0,0,1-7.51,1.09,31.11,31.11,0,0,1-8.06-1.09,1.35,1.35,0,0,1-1.37-1.34V195.14a1.35,1.35,0,0,1,1.37-1.34,36.29,36.29,0,0,0,7.51,1.08,56.16,56.16,0,0,0,8.06-1.08A1.36,1.36,0,0,1,157.17,195.14Z"/></g><path class="cls-3" d="M154,203.69l.06.7a.54.54,0,0,1-.53.55c-1.61.12-3.23.18-4.85.2,0,1.45,0,2.9.05,4.35a.55.55,0,0,1-.59.51h-.83a.55.55,0,0,1-.59-.51l.05-4.35c-1.62,0-3.24-.08-4.85-.2a.54.54,0,0,1-.53-.55l.06-.7a.53.53,0,0,1,.59-.46c1.58.11,3.16.18,4.75.2,0-1.45,0-2.9,0-4.35a.51.51,0,0,1,.52-.5h.72a.51.51,0,0,1,.53.5c0,1.45,0,2.9,0,4.35,1.58,0,3.17-.09,4.75-.2A.53.53,0,0,1,154,203.69Z"/></g></g><g id="Texts-2" data-name="Texts"><rect id="p-4" data-name="p" class="cls-24" x="183.95" y="152.94" width="92.81" height="3.13"/><rect id="p-5" data-name="p" class="cls-24" x="183.95" y="161.55" width="92.81" height="3.13"/><rect id="p-6" data-name="p" class="cls-24" x="183.95" y="170.17" width="92.81" height="3.13"/><rect id="Tittle-2" data-name="Tittle" class="cls-25" x="183.95" y="144.23" width="34.07" height="3.23"/></g><g id="Buttons-2" data-name="Buttons"><rect id="Button_2-2" data-name="Button 2" class="cls-3" x="246.58" y="179.81" width="29.9" height="9.27" rx="1.14"/><rect id="Button_1-2" data-name="Button 1" class="cls-25" x="213.5" y="179.81" width="29.9" height="9.27" rx="1.14"/></g><path id="Mouse-2" data-name="Mouse" class="cls-26" d="M223.61,187.18a.85.85,0,0,0,.35,0,2.31,2.31,0,0,1,2,1.82c.33,1.55.64,3.1,1,4.65,0,.19.07.21.24.13a2,2,0,0,1,2.41.39c.12.11.17.1.28,0a2.11,2.11,0,0,1,3.17.71c.09.15.14.16.28.08a2.22,2.22,0,0,1,3.22,1.63c.29,1.35.56,2.69.82,4a7.71,7.71,0,0,1-1.7,6.75,6.64,6.64,0,0,1-3.86,2.29,20.7,20.7,0,0,1-2.35.44,7,7,0,0,1-5.87-2.21c-1.49-1.52-2.93-3.09-4.39-4.65a2.12,2.12,0,0,1-.08-2.9,3.2,3.2,0,0,1,4.48-.37l.19.15-.06-.28c-.65-3.23-1.31-6.45-2-9.68a2.33,2.33,0,0,1,1.29-2.86v0Zm.72,8.7c.42,2,.83,4.05,1.24,6.08a1.57,1.57,0,0,1,.05.3.75.75,0,0,1-.4.69.67.67,0,0,1-.81-.12l-1.63-1.45a1.81,1.81,0,0,0-2.64.1.48.48,0,0,0,0,.71c1.5,1.59,3,3.21,4.52,4.75a5.41,5.41,0,0,0,4.54,1.64,21.41,21.41,0,0,0,2.26-.42,5.09,5.09,0,0,0,2.49-1.28,6.09,6.09,0,0,0,2-5.34,2,2,0,0,0,0-.34c-.28-1.41-.56-2.81-.85-4.22a.77.77,0,0,0-.88-.66.75.75,0,0,0-.56.94c0,.23.09.46.14.68a1.28,1.28,0,0,1,0,.39.73.73,0,0,1-.7.62.76.76,0,0,1-.73-.62c-.16-.76-.31-1.52-.47-2.28a.77.77,0,0,0-.82-.7.75.75,0,0,0-.63,1l.3,1.47a.78.78,0,0,1-.3.87.75.75,0,0,1-1.14-.58c-.15-.71-.29-1.43-.44-2.15a1.1,1.1,0,0,0-.11-.35.73.73,0,0,0-.9-.36.79.79,0,0,0-.45.91c.1.51.21,1,.31,1.54a.74.74,0,1,1-1.45.21l-1.68-8.25c0-.09,0-.17-.05-.25a.81.81,0,0,0-.63-.58.75.75,0,0,0-.79,1Q223.71,192.82,224.33,195.88Z"/></g><text class="cls-27" transform="translate(111.44 304.17)">Es<tspan class="cls-28" x="17.76" y="0">c</tspan><tspan x="26.65" y="0">olha seu produ</tspan><tspan class="cls-29" x="146.77" y="0">t</tspan><tspan x="152.64" y="0">o</tspan></text></g></svg>